<svg xmlns="http://www.w3.org/2000/svg" id="stegosaurus" width="412.806" height="275.593" viewBox="0 0 412.806 275.593">
    <defs>
        <style>
            .cls-1{fill:#ffe55a}.cls-3{fill:#82d361}.cls-4{fill:#ffd91d}
        </style>
    </defs>
    <g id="Group_87" transform="translate(88.257)">
        <path id="Path_1034" d="M213.778 358.954c7.442-6.878 16.305-16.846 26.548-27.219-3.706-6.574-7.481-12.1-10.944-15.09-8.608-7.43-21.9-9.794-30.489-10.528a8.052 8.052 0 0 0-8.667 8.2c.119 8.753 1.507 22.38 8.2 31.62 2.881 3.977 8.582 8.515 15.352 13.017z" class="cls-1" transform="translate(-190.225 -233.673)"/>
        <path id="Path_1035" d="M307.872 266.281c8.987-7.99 18.813-15.479 29.452-21.185-2.628-8.429-5.619-15.818-8.833-19.918-7.037-8.975-19.629-13.893-27.921-16.293a8 8 0 0 0-10.061 6.354c-1.544 8.612-2.766 22.255 2.052 32.632 2.387 5.142 8.309 11.755 15.311 18.409z" class="cls-1" transform="translate(-243.246 -182.096)"/>
        <path id="Path_1036" d="M454.371 204.762a84.277 84.277 0 0 1 19.3 2.217c2.377-9.136 3.871-17.628 3.24-23.133-1.307-11.4-9.441-22.324-15.233-28.809a7.917 7.917 0 0 0-11.848 0c-5.791 6.485-13.926 17.415-15.233 28.809-.625 5.447.832 13.82 3.165 22.846a73.529 73.529 0 0 1 16.609-1.93z" class="cls-1" transform="translate(-321.139 -152.372)"/>
        <path id="Path_1037" d="M591.56 266.28c7-6.654 12.924-13.266 15.311-18.409 4.818-10.377 3.6-24.02 2.052-32.632a8 8 0 0 0-10.06-6.354c-8.292 2.4-20.884 7.318-27.921 16.293-3.1 3.952-5.989 10.958-8.547 19.006a114.853 114.853 0 0 1 29.166 22.1z" class="cls-1" transform="translate(-389.722 -182.096)"/>
        <path id="Path_1038" d="M677.961 376.781c9.177-4.582 17.36-9.51 21.3-14 7.514-8.567 10.148-22 11.069-30.707a8.078 8.078 0 0 0-7.876-8.987c-8.621-.083-22.07 1.014-31.323 7.6-3.822 2.72-8.217 8.07-12.626 14.488a249.839 249.839 0 0 1 19.456 31.606z" class="cls-1" transform="translate(-441.239 -242.663)"/>
        <path id="Path_1039" d="M747.873 498.782c8.2-3.757 15.439-7.812 19.085-11.644 7.318-7.69 10.269-20.1 11.451-28.173a7.54 7.54 0 0 0-7-8.672c-8.026-.407-20.591.1-29.453 5.874-3.966 2.585-8.675 8.022-13.388 14.484 5.22 10.292 11.231 20.279 19.307 28.131z" class="cls-1" transform="translate(-478.797 -309.886)"/>
    </g>
    <path id="Path_1040" fill="#98db7c" d="M332.811 361.174c-14.385-30.682-48.782-97.595-111.323-97.595s-105.069 82.089-125.082 82.089-27.519-27.476-51.588-26.841S0 338.926 0 365.6c0 16.386 21.312 22.818 51.774 21.131 27.459-1.522 60.978 20.756 60.978 45.074v35.485a19.2 19.2 0 1 0 38.394 0v-26.077h93.025a32.525 32.525 0 0 0 15.256 9.923v15.715c0 10.928 8.808 20.135 19.569 19.928a19.353 19.353 0 0 0 18.826-19.489v-14.46l16.227-22.872c57.884 30.867 85.267 13.308 97.1-1.873a7.662 7.662 0 0 0-6.516-12.4c-43.215 3.486-58.8-26.731-71.825-54.51z" transform="translate(0 -211.19)"/>
    <path id="Path_1041" d="M293.5 655.88v29.871a19.428 19.428 0 0 0 14.972-18.909v-26.164a15.087 15.087 0 0 0-14.972 15.2z" class="cls-3" transform="translate(-157.327 -410.638)"/>
    <path id="Path_1042" d="M609.641 680.368v18.338a19.436 19.436 0 0 0 14.972-19.016v-14.525a15.09 15.09 0 0 0-14.972 15.203z" class="cls-3" transform="translate(-326.792 -423.589)"/>
    <path id="Path_1043" d="M383.016 275.679c62.541 0 96.938 66.914 111.323 97.595 14.26 30.415 41.255 63.168 94.728 51.981a7.64 7.64 0 0 0-7.922-9.572c-43.215 3.486-58.8-26.732-71.825-54.511-14.385-30.681-48.782-97.594-111.32-97.594-26.586 0-49.553 14.835-68.714 31.891 15.815-11.4 33.75-19.79 53.733-19.79z" class="cls-3" transform="translate(-176.509 -211.189)"/>
    <path id="Path_1044" d="M41.761 392.942c24.07-.635 31.575 26.841 51.588 26.841 5.117 0 11.709-5.373 19.728-13.361a11.2 11.2 0 0 1-4.747 1.261c-20.013 0-27.518-27.476-51.588-26.841a45.968 45.968 0 0 0-34.5 17.047 45.812 45.812 0 0 1 19.516-4.946z" class="cls-3" transform="translate(-11.924 -273.204)"/>
    <path id="Path_1045" d="M747.874 505.2a103.164 103.164 0 0 0 13.956-7.5c-7.459-10.294-13.219-22.132-18.6-33.61q-.406-.866-.831-1.766c-.146.091-.3.172-.442.265-3.966 2.585-8.675 8.022-13.388 14.484 5.219 10.291 11.23 20.278 19.306 28.13z" class="cls-4" transform="translate(-390.541 -316.305)"/>
    <path id="Path_1046" d="M694.077 376.239A272.252 272.252 0 0 0 670.7 339.9c-3.72 2.8-7.952 7.989-12.2 14.169a249.843 249.843 0 0 1 19.46 31.605 115.163 115.163 0 0 0 16.116-9.436z" class="cls-4" transform="translate(-352.982 -251.557)"/>
    <path id="Path_1047" d="M603.84 273.971c-10.033-10.112-21.473-19.032-34.419-25.454-2.525 4.095-4.892 10.079-7.027 16.795a114.856 114.856 0 0 1 29.166 22.1 105.084 105.084 0 0 0 12.28-13.441z" class="cls-4" transform="translate(-301.466 -203.223)"/>
    <path id="Path_1048" d="M456.941 226.329a85.792 85.792 0 0 0-22.121 2.958 106.237 106.237 0 0 0 3.138 16.522 73.5 73.5 0 0 1 16.611-1.931 84.266 84.266 0 0 1 19.3 2.217 102.714 102.714 0 0 0 3.28-17.668 97.722 97.722 0 0 0-20.207-2.1z" class="cls-4" transform="translate(-233.081 -191.488)"/>
    <path id="Path_1049" d="M317.62 290.635c8.987-7.99 18.813-15.48 29.452-21.185a100.009 100.009 0 0 0-5.716-14.833c-12.313 6.87-23.665 15.767-34.031 25.152a122.087 122.087 0 0 0 10.295 10.866z" class="cls-4" transform="translate(-164.738 -206.45)"/>
    <path id="Path_1050" d="M215.629 364.562A90.043 90.043 0 0 0 227.4 373.6c7.442-6.878 16.305-16.846 26.548-27.219a77.484 77.484 0 0 0-8.479-12.6c-11.38 11.379-21.339 22.512-29.836 30.783z" class="cls-4" transform="translate(-115.586 -248.319)"/>
    <path id="Path_1051" fill="#5a5a5a" d="M65.248 431.883c0 8.133 4.749 14.266 11.047 14.266s11.047-6.133 11.047-14.266-4.748-14.266-11.042-14.266-11.052 6.133-11.052 14.266z" transform="translate(-34.976 -292.66)"/>
</svg>
