<svg xmlns="http://www.w3.org/2000/svg" width="835.177" height="550.132" viewBox="0 0 835.177 550.132">
    <defs>
        <style>
            .cls-1{fill:#ebebeb}.cls-2{fill:#f5f5f5}.cls-4{fill:#fff24f}.cls-5{opacity:.4}.cls-6{fill:#263238}.cls-7{fill:#ffbe9d}.cls-14,.cls-8{fill:#fff}.cls-9{fill:#eb996e}.cls-10{fill:#455a64}.cls-11{opacity:.7}.cls-12,.cls-13{opacity:.2}.cls-14{opacity:.5}
        </style>
    </defs>
    <g id="Astronaut-pana_1_" transform="translate(-79.659 -44.983)">
        <g id="freepik--background-complete--inject-70" transform="translate(79.659 44.983)">
            <path id="Path_676" d="M187.435 130.1l.81 1.447a9.783 9.783 0 0 0 3.907 3.879l1.447.81-1.447.8a9.783 9.783 0 0 0-3.907 3.879l-.81 1.447-.81-1.447a9.783 9.783 0 0 0-3.908-3.879l-1.447-.8 1.447-.81a9.783 9.783 0 0 0 3.907-3.879z" class="cls-1" transform="translate(-34.217 -6.917)"/>
            <path id="Path_677" d="M603.245 258.62l.81 1.447a9.784 9.784 0 0 0 3.907 3.879l1.447.8-1.447.8a9.783 9.783 0 0 0-3.907 3.879l-.81 1.447-.81-1.447a9.783 9.783 0 0 0-3.908-3.879l-1.447-.8 1.447-.8a9.783 9.783 0 0 0 3.908-3.879z" class="cls-1" transform="translate(151.739 50.559)"/>
            <path id="Path_678" d="M545.554 389.42l1.446 2.518a16.686 16.686 0 0 0 6.7 6.7l2.518 1.447-2.518 1.375a16.773 16.773 0 0 0-6.7 6.7l-1.447 2.518-1.375-2.518a16.773 16.773 0 0 0-6.7-6.7l-2.518-1.375 2.518-1.447a16.686 16.686 0 0 0 6.7-6.7z" class="cls-1" transform="translate(123.958 109.055)"/>
            <path id="Path_679" d="M281 416.18l.81 1.447a9.914 9.914 0 0 0 3.922 3.879l1.447.8-1.447.8a9.855 9.855 0 0 0-3.922 3.893l-.81 1.447-.8-1.447a9.856 9.856 0 0 0-3.922-3.893l-1.447-.8 1.447-.8a9.914 9.914 0 0 0 3.922-3.879z" class="cls-1" transform="translate(7.625 121.022)"/>
            <circle id="Ellipse_7" cx="61.709" cy="61.709" r="61.709" class="cls-1" transform="translate(39.511 201.998)"/>
            <circle id="Ellipse_8" cx="10.073" cy="10.073" r="10.073" class="cls-2" transform="translate(73.057 272.897)"/>
            <path id="Path_680" d="M137.768 222.251a5.789 5.789 0 1 1-1.669-4.14 5.789 5.789 0 0 1 1.669 4.14z" class="cls-2" transform="translate(-58.849 31.673)"/>
            <path id="Path_681" d="M121.007 267.518c.275 1.071-52.823 52.013-39.075 62.867s71.261-16.99 120.336-56.629 93.924-87.788 81.652-100.523-73.605 24.979-73.605 24.979l7.323 4.674s37.092-23.792 48.815-14.559-21.708 45.312-68.9 79.756-92.8 58.641-99.858 49.205 26.325-40.927 26.325-40.927z" class="cls-2" transform="translate(-79.659 11.198)"/>
            <path id="Path_682" fill="#fafafa" d="M610.708 53.575c-7.873-4.573-18.047-.521-25.109 5.21S572.574 72 564.18 75.515c-5.355 2.243-11.476 2.764-16.209 6.107-7.714 5.442-9.074 16.4-7.742 25.746s4.617 18.626 3.473 28c-.854 6.86-4.067 13.749-2.33 20.449 2.446 9.378 13.242 13.85 18.5 22.012 3.777 5.789 4.8 13.734 10.434 17.844 6.527 4.761 15.6 1.983 23.662 2.706 9.913.9 18.394 7.236 27.815 10.449a45.616 45.616 0 0 0 44.458-9.277c5.977-5.442 10.391-12.417 16.267-17.96 5.036-4.761 11.144-8.466 15.268-14.023s5.789-12.055 7.482-18.539c2.5-9.465 5.007-19.32 3.184-28.944-2.894-15.355-16.006-26.542-22.823-40.609-2.663-5.528-4.617-11.751-9.479-15.326-5.224-3.792-12.3-3.473-18.423-5.543-8.785-2.894-15.413-10.8-24.385-13.025a21.969 21.969 0 0 0-22.605 8.075" transform="translate(126.114 -44.983)"/>
            <circle id="Ellipse_9" cx="66.876" cy="66.876" r="66.876" class="cls-1" transform="rotate(-14.66 469.482 -2580.177)"/>
            <path id="Path_683" d="M590.087 115.131a10.9 10.9 0 1 1 2.248-8.04 10.912 10.912 0 0 1-2.248 8.04z" class="cls-2" transform="translate(139.889 -21.5)"/>
            <path id="Path_684" d="M592.582 89.17a6.353 6.353 0 1 1-1.085-8.9 6.353 6.353 0 0 1 1.085 8.9z" class="cls-2" transform="translate(144.645 -29.809)"/>
            <circle id="Ellipse_10" cx="45.341" cy="45.341" r="45.341" class="cls-2" transform="rotate(-45 830.252 -641.258)"/>
            <path id="Path_685" d="M609.611 313.411a7.4 7.4 0 1 1 2.048 5.286 7.4 7.4 0 0 1-2.048-5.286z" class="cls-1" transform="translate(157.342 71.833)"/>
            <path id="Path_686" d="M616.51 327.441a4.342 4.342 0 1 1 4.2 4.342 4.342 4.342 0 0 1-4.2-4.342z" class="cls-1" transform="translate(160.428 79.396)"/>
            <path id="Path_687" d="M532.986 231.16l1.375 2.518a16.86 16.86 0 0 0 6.7 6.7l2.518 1.375-2.518 1.447a16.86 16.86 0 0 0-6.7 6.7l-1.375 2.518-1.447-2.518a16.861 16.861 0 0 0-6.7-6.7l-2.518-1.447 2.518-1.375a16.861 16.861 0 0 0 6.7-6.7z" class="cls-1" transform="translate(118.305 38.279)"/>
        </g>
        <g id="freepik--Character--inject-70" transform="translate(315.716 164.072)">
            <rect id="Rectangle_38" width="100.798" height="178.427" class="cls-4" rx="23.72" transform="rotate(-26.23 287.501 -51.781)"/>
            <rect id="Rectangle_39" width="100.798" height="178.427" class="cls-5" rx="23.72" transform="rotate(-26.23 286.766 -51.948)"/>
            <path id="Path_688" d="M434.376 474.97a4.473 4.473 0 0 1-1.085.579L429.977 477c-1.447.637-3.358 1.259-5.557 2.084l-3.618 1.071c-1.288.405-2.692.738-4.182 1.056a89.467 89.467 0 0 1-22.041 2.272 83.9 83.9 0 0 1-44.126-13.17 76.3 76.3 0 0 1-14.067-12.2 77.671 77.671 0 0 1-18.5-36.3 69.468 69.468 0 0 1-.984-22.229 62.233 62.233 0 0 1 7.034-22.142 69.813 69.813 0 0 1 14.921-18.814 66.573 66.573 0 0 1 21.173-12.837 59.335 59.335 0 0 1 24.6-3.459 40.912 40.912 0 0 1 11.968 2.75 27.033 27.033 0 0 1 10.058 6.9 22.837 22.837 0 0 1 5.5 10.695 17.858 17.858 0 0 1-1.52 11.751 19.512 19.512 0 0 1-3.358 4.834 24.863 24.863 0 0 1-4.342 3.763 37.252 37.252 0 0 1-10.058 4.848A60.305 60.305 0 0 1 325.936 361a54.169 54.169 0 0 1-5.919-14.472 61.115 61.115 0 0 1 1.578-35.645 56.744 56.744 0 0 1 6.324-12.489c.926-1.317 1.708-2.258 2.214-2.894a5.371 5.371 0 0 1 .81-.941 5.123 5.123 0 0 1-.637 1.071c-.434.695-1.158 1.679-2.012 3.01a60.479 60.479 0 0 0-8.973 34.082 59.245 59.245 0 0 0 2.012 13.459 52.174 52.174 0 0 0 5.89 13.995 57.44 57.44 0 0 0 25.949 22.548 58.756 58.756 0 0 0 18.712 4.949 54.719 54.719 0 0 0 20.261-1.881 34.879 34.879 0 0 0 9.45-4.6 22.269 22.269 0 0 0 3.994-3.473 17.222 17.222 0 0 0 3-4.342 15.76 15.76 0 0 0 1.317-10.362 20.884 20.884 0 0 0-5.007-9.653 24.965 24.965 0 0 0-9.248-6.31A38.828 38.828 0 0 0 384.4 344.4a57.252 57.252 0 0 0-23.59 3.358 66.789 66.789 0 0 0-34.878 30.681 59.772 59.772 0 0 0-6.845 21.346 67.383 67.383 0 0 0 .883 21.549 76.051 76.051 0 0 0 17.844 35.471 74.877 74.877 0 0 0 13.647 12 82.779 82.779 0 0 0 14.892 7.757 89.737 89.737 0 0 0 14.7 4.226 92.377 92.377 0 0 0 35.413-.376c1.447-.289 2.894-.579 4.168-.955l3.618-.97c2.2-.738 4.1-1.3 5.586-1.852l3.386-1.288a6.358 6.358 0 0 1 1.152-.377z" class="cls-6" transform="translate(-209.826 -52.457)"/>
            <path id="Path_689" d="M342.927 277c0 .116-1.679.782-4.342 2.127A55 55 0 0 0 320.64 293.6c-1.881 2.3-2.894 3.85-3.01 3.792a4.342 4.342 0 0 1 .608-1.172 30.82 30.82 0 0 1 1.983-2.894 47.382 47.382 0 0 1 18.206-14.66 29.445 29.445 0 0 1 3.314-1.317 4.054 4.054 0 0 1 1.187-.347z" class="cls-6" transform="translate(-209.292 -60.31)"/>
            <path id="Path_690" d="M326.83 291.066a2.9 2.9 0 0 1 .97-1.028 5.065 5.065 0 0 1 3.748-.825 5.47 5.47 0 0 1 4.139 3.821 5.789 5.789 0 0 1-2.487 6.366 5.152 5.152 0 0 1-3.647.8 6.006 6.006 0 0 1-3.126-1.447 5.167 5.167 0 0 1-1.621-5.384 5.688 5.688 0 0 1 2.156-3.169 2.561 2.561 0 0 1 1.288-.564 7.549 7.549 0 0 0-1.1.8 5.644 5.644 0 0 0-1.824 3.068 4.732 4.732 0 0 0 1.548 4.732 4.964 4.964 0 0 0 5.9.579 5.181 5.181 0 0 0 2.243-5.528 4.79 4.79 0 0 0-7.077-2.894c-.734.325-1.053.716-1.11.673z" class="cls-6" transform="translate(-206.175 -54.882)"/>
            <rect id="Rectangle_40" width="100.798" height="178.427" class="cls-4" rx="23.72" transform="rotate(-26.23 287.501 -51.781)"/>
            <rect id="Rectangle_41" width="100.798" height="178.427" class="cls-5" rx="23.72" transform="rotate(-26.23 286.766 -51.948)"/>
            <path id="Path_691" d="M434.376 474.97a4.473 4.473 0 0 1-1.085.579L429.977 477c-1.447.637-3.358 1.259-5.557 2.084l-3.618 1.071c-1.288.405-2.692.738-4.182 1.056a89.467 89.467 0 0 1-22.041 2.272 83.9 83.9 0 0 1-44.126-13.17 76.3 76.3 0 0 1-14.067-12.2 77.671 77.671 0 0 1-18.5-36.3 69.468 69.468 0 0 1-.984-22.229 62.233 62.233 0 0 1 7.034-22.142 69.813 69.813 0 0 1 14.921-18.814 66.573 66.573 0 0 1 21.173-12.837 59.335 59.335 0 0 1 24.6-3.459 40.912 40.912 0 0 1 11.968 2.75 27.033 27.033 0 0 1 10.058 6.9 22.837 22.837 0 0 1 5.5 10.695 17.858 17.858 0 0 1-1.52 11.751 19.512 19.512 0 0 1-3.358 4.834 24.863 24.863 0 0 1-4.342 3.763 37.252 37.252 0 0 1-10.058 4.848A60.305 60.305 0 0 1 325.936 361a54.169 54.169 0 0 1-5.919-14.472 61.115 61.115 0 0 1 1.578-35.645 56.744 56.744 0 0 1 6.324-12.489c.926-1.317 1.708-2.258 2.214-2.894a5.371 5.371 0 0 1 .81-.941 5.123 5.123 0 0 1-.637 1.071c-.434.695-1.158 1.679-2.012 3.01a60.479 60.479 0 0 0-8.973 34.082 59.245 59.245 0 0 0 2.012 13.459 52.174 52.174 0 0 0 5.89 13.995 57.44 57.44 0 0 0 25.949 22.548 58.756 58.756 0 0 0 18.712 4.949 54.719 54.719 0 0 0 20.261-1.881 34.879 34.879 0 0 0 9.45-4.6 22.269 22.269 0 0 0 3.994-3.473 17.222 17.222 0 0 0 3-4.342 15.76 15.76 0 0 0 1.317-10.362 20.884 20.884 0 0 0-5.007-9.653 24.965 24.965 0 0 0-9.248-6.31A38.828 38.828 0 0 0 384.4 344.4a57.252 57.252 0 0 0-23.59 3.358 66.789 66.789 0 0 0-34.878 30.681 59.772 59.772 0 0 0-6.845 21.346 67.383 67.383 0 0 0 .883 21.549 76.051 76.051 0 0 0 17.844 35.471 74.877 74.877 0 0 0 13.647 12 82.779 82.779 0 0 0 14.892 7.757 89.737 89.737 0 0 0 14.7 4.226 92.377 92.377 0 0 0 35.413-.376c1.447-.289 2.894-.579 4.168-.955l3.618-.97c2.2-.738 4.1-1.3 5.586-1.852l3.386-1.288a6.358 6.358 0 0 1 1.152-.377z" class="cls-6" transform="translate(-209.826 -52.457)"/>
            <path id="Path_692" d="M342.927 277c0 .116-1.679.782-4.342 2.127A55 55 0 0 0 320.64 293.6c-1.881 2.3-2.894 3.85-3.01 3.792a4.342 4.342 0 0 1 .608-1.172 30.82 30.82 0 0 1 1.983-2.894 47.382 47.382 0 0 1 18.206-14.66 29.445 29.445 0 0 1 3.314-1.317 4.054 4.054 0 0 1 1.187-.347z" class="cls-6" transform="translate(-209.292 -60.31)"/>
            <path id="Path_693" d="M326.83 291.066a2.9 2.9 0 0 1 .97-1.028 5.065 5.065 0 0 1 3.748-.825 5.47 5.47 0 0 1 4.139 3.821 5.789 5.789 0 0 1-2.487 6.366 5.152 5.152 0 0 1-3.647.8 6.006 6.006 0 0 1-3.126-1.447 5.167 5.167 0 0 1-1.621-5.384 5.688 5.688 0 0 1 2.156-3.169 2.561 2.561 0 0 1 1.288-.564 7.549 7.549 0 0 0-1.1.8 5.644 5.644 0 0 0-1.824 3.068 4.732 4.732 0 0 0 1.548 4.732 4.964 4.964 0 0 0 5.9.579 5.181 5.181 0 0 0 2.243-5.528 4.79 4.79 0 0 0-7.077-2.894c-.734.325-1.053.716-1.11.673z" class="cls-6" transform="translate(-206.175 -54.882)"/>
            <path id="Path_694" d="M354.052 214.993c-2.793-5.543-5.253-10.521-5.253-10.521s10.42-6.4 5.89-17.6-17.178-35.992-17.178-35.992l-24.6-.232-14.041 27.166 26.238 51.825a16.209 16.209 0 0 0 21.433 7.236 16.209 16.209 0 0 0 7.511-21.882z" class="cls-7" transform="translate(-217.681 -116.816)"/>
            <path id="Path_695" d="M330.842 164.5a1.534 1.534 0 1 1-.877-.79 1.534 1.534 0 0 1 .877.79z" class="cls-6" transform="translate(-204.689 -111.014)"/>
            <path id="Path_696" d="M332.166 162.963c-.1.26-1.549-.116-3.083.507s-2.33 1.9-2.576 1.78-.087-.478.246-1.056a3.994 3.994 0 0 1 1.954-1.65 4.081 4.081 0 0 1 2.547-.174c.637.187.955.462.912.593z" class="cls-6" transform="translate(-205.375 -111.632)"/>
            <path id="Path_697" d="M319.709 169.851a1.549 1.549 0 1 1-1.281-.936 1.549 1.549 0 0 1 1.281.936z" class="cls-6" transform="translate(-209.692 -108.65)"/>
            <path id="Path_698" d="M320.661 168.44c-.087.275-1.534-.116-3.068.521s-2.33 1.9-2.576 1.766-.087-.478.246-1.042a4.049 4.049 0 0 1 4.5-1.823c.637.173.956.463.898.578z" class="cls-6" transform="translate(-210.514 -109.179)"/>
            <path id="Path_699" d="M328.8 179.188a11.667 11.667 0 0 1 2.316-1.447c.362-.2.724-.434.666-.753a2.33 2.33 0 0 0-.8-1.114l-2.5-2.619c-1.766-1.867-3.343-3.589-4.457-4.863a11.074 11.074 0 0 1-1.708-2.142 11.272 11.272 0 0 1 2.041 1.823c1.216 1.187 2.894 2.894 4.6 4.718l2.475 2.663a2.533 2.533 0 0 1 .9 1.447.984.984 0 0 1-.376.839 2.461 2.461 0 0 1-.622.376 11.1 11.1 0 0 1-2.535 1.072z" class="cls-6" transform="translate(-207.194 -109.839)"/>
            <path id="Path_700" d="M323.85 178.11a16.556 16.556 0 0 0 8.437-.97 4.588 4.588 0 0 1-4.342 3.777c-3.806.188-4.095-2.807-4.095-2.807z" class="cls-8" transform="translate(-206.51 -104.969)"/>
            <path id="Path_701" d="M338.519 187.78a30.2 30.2 0 0 1-16.759 2.012s7.352 6.368 18.047.709z" class="cls-9" transform="translate(-207.445 -100.211)"/>
            <path id="Path_702" d="M291.462 197.094l.2-.116a65.823 65.823 0 0 1-1.954-6.3c-4.906-25.529 13.025-39.292 16.976-41.173 4.24-2.026 10.536-7.887 26.672-1.823a26.66 26.66 0 0 1 6.889 3.748 26.746 26.746 0 0 1 9.609 7.916c2.243 3 2.967 5.224 2.894 5.282s-1.216-1.954-3.575-4.689a28.236 28.236 0 0 0-4.617-4.342 22.751 22.751 0 0 1 4.848 13.025l-2.6-.81-17.888 3.488c-.782-4.892-5.2-9.335-7.424-11.317h-.145c4.6 17.815-12.547 28.076-12.547 28.076l13.966 30.7c-23.417 5.528-31.304-21.665-31.304-21.665z" class="cls-6" transform="translate(-222.155 -119.337)"/>
            <path id="Path_703" d="M310.662 189.774a5.036 5.036 0 0 1-6.064 1.939 7.4 7.4 0 0 1-4.24-5.152 5.586 5.586 0 0 1 .3-4.081 5.789 5.789 0 0 1 5.036-2.041z" class="cls-7" transform="translate(-217.128 -103.507)"/>
            <path id="Path_704" d="M306.652 188.406c0-.159-.637 0-1.447-.145a3.14 3.14 0 0 1-1.881-5.109c.564-.695 1.129-.955 1.071-1.1s-.738-.13-1.592.579a3.647 3.647 0 0 0 2.344 6.353c1.027-.014 1.577-.477 1.505-.578z" class="cls-9" transform="translate(-216.461 -102.805)"/>
            <path id="Path_705" d="M382.365 173.754s-.072-.275-.174-.825-.26-1.447-.449-2.46c-.1-.55-.2-1.143-.333-1.809s-.376-1.447-.579-2.142a37.309 37.309 0 0 0-1.722-5.253 49.887 49.887 0 0 0-7.41-13.155 52.476 52.476 0 0 0-37.9-20.261 46.31 46.31 0 0 0-6.643 0c-1.129.087-2.258.116-3.4.261l-3.4.579c-.579.116-1.158.174-1.722.318l-1.693.478c-1.143.318-2.287.593-3.43.97a56.922 56.922 0 0 0-6.672 2.894 58.823 58.823 0 0 0-6.411 3.763c-1.013.724-1.983 1.549-3 2.316a24.793 24.793 0 0 0-2.894 2.518 47.626 47.626 0 0 0-9.667 12.287l-1 1.737-.854 1.824-.839 1.838a14.167 14.167 0 0 0-.753 1.881c-.449 1.274-.883 2.562-1.331 3.864s-.637 2.663-.955 3.994a51.723 51.723 0 0 0 3.835 32.693c.622 1.23 1.245 2.446 1.852 3.676a35.471 35.471 0 0 0 2.185 3.444 14.774 14.774 0 0 0 1.172 1.65l1.245 1.592 1.245 1.592 1.375 1.447a59.911 59.911 0 0 0 5.789 5.413 57.107 57.107 0 0 0 6.469 4.342 25.907 25.907 0 0 0 3.372 1.78c1.158.521 2.286 1.085 3.459 1.549a55.729 55.729 0 0 0 7.106 2.185 58.57 58.57 0 0 0 7.149 1.216c1.187.1 2.373.1 3.546.159h1.767a11.931 11.931 0 0 0 1.751-.087l3.444-.232c1.143-.116 2.258-.347 3.372-.521a46.626 46.626 0 0 0 6.455-1.534 51.651 51.651 0 0 0 20.7-12.243 52.26 52.26 0 0 0 11.491-16.267 50.424 50.424 0 0 0 4.154-14.472 38.137 38.137 0 0 0 .449-5.5c0-.81.087-1.549.087-2.229l-.1-1.823c0-1.085-.1-1.91-.13-2.5a6.128 6.128 0 0 1 0-.854 7.963 7.963 0 0 1 .1.854c0 .579.116 1.447.2 2.489 0 .55.087 1.172.145 1.838s0 1.447 0 2.229a37.917 37.917 0 0 1-.391 5.543 49.539 49.539 0 0 1-4.067 14.646 52.765 52.765 0 0 1-32.374 28.944 50.12 50.12 0 0 1-6.541 1.563c-1.129.174-2.243.42-3.4.535l-3.488.246c-.593 0-1.187.1-1.78.087h-1.78a30.251 30.251 0 0 1-3.6-.145 57.274 57.274 0 0 1-7.236-1.23 52.751 52.751 0 0 1-7.236-2.185c-1.187-.478-2.33-1.042-3.5-1.563a27.671 27.671 0 0 1-3.43-1.809 56.72 56.72 0 0 1-6.556-4.342 58.074 58.074 0 0 1-5.876-5.47l-1.447-1.447-1.259-1.606-1.259-1.606a13.541 13.541 0 0 1-1.187-1.679l-2.229-3.5-1.881-3.719a52.375 52.375 0 0 1-3.893-33.156c.333-1.36.651-2.721.984-4.067l1.346-3.907a12.248 12.248 0 0 1 .767-1.91l.854-1.867.854-1.852 1.016-1.761a47.76 47.76 0 0 1 9.812-12.446 27.1 27.1 0 0 1 2.894-2.562c1.028-.767 2.012-1.592 3.054-2.33A56.92 56.92 0 0 1 313.246 130c1.158-.391 2.33-.666 3.473-.984l1.722-.478c.564-.145 1.158-.2 1.737-.318l3.459-.564c1.143-.159 2.3-.174 3.43-.275a49.7 49.7 0 0 1 6.73 0 52.736 52.736 0 0 1 38.192 20.652 49.552 49.552 0 0 1 7.352 13.314 38.745 38.745 0 0 1 1.664 5.3c.2.781.42 1.447.55 2.156s.2 1.274.289 1.823c.159 1.071.289 1.881.376 2.475a1.87 1.87 0 0 0 .145.653z" class="cls-6" transform="translate(-227.339 -127.271)"/>
            <path id="Path_706" d="M297.245 161.7a7.236 7.236 0 0 0 1.621-11.578c-3-2.894-8.162-2.648-11.578-.145a16.079 16.079 0 0 0-5.659 10.811 13.879 13.879 0 0 0 .579 7.135 7.236 7.236 0 0 0 5.2 4.588 7.8 7.8 0 0 0 7.033-3.1 22.982 22.982 0 0 0 3.531-7.236" class="cls-6" transform="translate(-225.492 -117.992)"/>
            <path id="Path_707" d="M347.883 147.989c-.1.116-2-1.751-5.485-4.2a53.959 53.959 0 0 0-6.411-3.821 57.308 57.308 0 0 0-8.466-3.387 58.885 58.885 0 0 0-8.929-1.9 51.871 51.871 0 0 0-7.453-.376c-4.255.087-6.86.579-6.889.434a8.148 8.148 0 0 1 1.824-.42 19.74 19.74 0 0 1 2.171-.318c.839-.087 1.809-.217 2.894-.232a47.613 47.613 0 0 1 7.554.232 53.925 53.925 0 0 1 9.06 1.852 53.1 53.1 0 0 1 8.568 3.5 49.342 49.342 0 0 1 6.411 3.994c.883.622 1.606 1.274 2.258 1.809s1.2 1.042 1.635 1.447a8.047 8.047 0 0 1 1.259 1.375z" class="cls-10" transform="translate(-215.275 -124.387)"/>
            <path id="Path_708" d="M338.546 150.5c-.217 0-.637-1.143-1.447-2.431s-1.679-2.214-1.534-2.388 1.288.564 2.171 1.983 1.013 2.836.81 2.836z" class="cls-10" transform="translate(-201.278 -119.051)"/>
            <path id="Path_709" d="M283.638 156.92a10.13 10.13 0 0 1-.926 4.964 20.505 20.505 0 0 0-1.346 5.167 6.54 6.54 0 0 0 .449 3 4.341 4.341 0 0 0 2.1 2.287 4.428 4.428 0 0 0 3.112.116 8.119 8.119 0 0 0 2.704-1.454 12.822 12.822 0 0 0 3.242-4.154 20.651 20.651 0 0 0 1.447-4.732 3.691 3.691 0 0 1 0 1.36 12.054 12.054 0 0 1-1 3.589 12.677 12.677 0 0 1-3.285 4.472 8.567 8.567 0 0 1-2.894 1.621 5.137 5.137 0 0 1-3.647-.145 4.877 4.877 0 0 1-2.46-2.677 7.091 7.091 0 0 1-.463-3.329 19.335 19.335 0 0 1 1.534-5.311 21.866 21.866 0 0 0 1.143-3.459 12.132 12.132 0 0 1 .29-1.315z" class="cls-6" transform="translate(-225.836 -114.012)"/>
            <path id="Path_710" d="M299.447 221.905s63.677 116.877 74.253 129.859l86.008-38.235-52.1-89.467a57.6 57.6 0 0 0-45.645-28.684h-.608c-20.445-1.332-64.991 20.822-61.908 26.527z" class="cls-4" transform="translate(-217.491 -96.839)"/>
            <path id="Path_711" d="M418.692 264.915l-.289.159-.883.42-3.444 1.549-12.938 5.688-19.668 8.553-11.882 5.138-3.14 1.36a4.241 4.241 0 0 1-3.661-.232 8.785 8.785 0 0 1-2.75-2.475 16.735 16.735 0 0 1-1.881-3.2c-3.763-6.151-7.612-12.837-11.332-19.856-2.894-5.528-5.644-11-8.162-16.353q-1.867-3.994-3.589-7.9a26.556 26.556 0 0 1-2.287-8.09 11.577 11.577 0 0 1 2.055-7.714 23.43 23.43 0 0 1 5.427-5.224 67.715 67.715 0 0 1 30.2-12.272c2.272-.318 4.052-.463 5.253-.521h1.447a2.374 2.374 0 0 1 .478 0h-.463l-1.375.116c-1.2.1-2.967.289-5.224.651a69.278 69.278 0 0 0-18.423 5.673 67.6 67.6 0 0 0-11.448 6.816 23.418 23.418 0 0 0-5.268 5.094 10.9 10.9 0 0 0-1.9 7.236 25.934 25.934 0 0 0 2.258 7.858c1.129 2.59 2.345 5.224 3.6 7.887 2.5 5.326 5.224 10.782 8.148 16.31 3.719 7 7.54 13.676 11.288 19.812a11.578 11.578 0 0 0 4.342 5.326 3.459 3.459 0 0 0 3.083.188l3.155-1.346 11.882-5.08 19.726-8.394 13.025-5.485 3.5-1.447.9-.347a.418.418 0 0 0 .24.102z" class="cls-6" transform="translate(-202.536 -92.988)"/>
            <g id="Group_49" class="cls-11" transform="translate(144.446 135.66)">
                <path id="Path_712" d="M350.6 225.019a4.009 4.009 0 1 1-4.009-4.009 4.009 4.009 0 0 1 4.009 4.009z" class="cls-8" transform="translate(-342.58 -221.01)"/>
            </g>
            <g id="Group_50" class="cls-11" transform="translate(152.464 152.867)">
                <path id="Path_713" d="M356.138 236.909a4.009 4.009 0 1 1-4.009-4.009 4.009 4.009 0 0 1 4.009 4.009z" class="cls-8" transform="translate(-348.12 -232.9)"/>
            </g>
            <g id="Group_51" class="cls-11" transform="translate(162.088 169.612)">
                <circle id="Ellipse_11" cx="4.009" cy="4.009" r="4.009" class="cls-8"/>
            </g>
            <path id="Path_714" d="M372.2 214.34a15.022 15.022 0 0 1-2.894 1.693c-1.824.955-4.342 2.214-7.236 3.5s-5.485 2.388-7.4 3.126a13.127 13.127 0 0 1-3.17 1.041 15.011 15.011 0 0 1 2.967-1.534l7.236-3.314 7.236-3.3a15.183 15.183 0 0 1 3.256-1.216z" class="cls-6" transform="translate(-194.144 -88.333)"/>
            <path id="Path_715" d="M380.053 226a17.712 17.712 0 0 1-3.3 1.563l-8.075 3.43-8.061 3.5a18.034 18.034 0 0 1-3.387 1.331 16.37 16.37 0 0 1 3.169-1.809c2.012-1.028 4.819-2.359 7.974-3.719s6.064-2.475 8.191-3.242a17.569 17.569 0 0 1 3.489-1.054z" class="cls-6" transform="translate(-191.582 -83.118)"/>
            <path id="Path_716" d="M383.269 239.05a67.931 67.931 0 0 1-9.248 4.486 70.929 70.929 0 0 1-9.552 3.806 67.929 67.929 0 0 1 9.248-4.486 71.788 71.788 0 0 1 9.552-3.806z" class="cls-6" transform="translate(-188.344 -77.282)"/>
            <path id="Path_717" d="M312.732 209.3a5.876 5.876 0 0 1 2.3-6.324c3.531-2.894 31.376-9.841 31.376-9.841s7.641-1.129 9.609 3.242z" class="cls-4" transform="translate(-211.571 -97.877)"/>
            <path id="Path_718" d="M350.71 285.287l65.7-30.536-3.517-6.02z" class="cls-12" transform="translate(-194.498 -72.953)"/>
            <g id="Group_52" class="cls-13" transform="translate(102.593 99.784)">
                <path id="Path_719" d="M354.848 196.22a5.616 5.616 0 0 1-1.332 1.056 22.565 22.565 0 0 1-4.153 2.041c-1.824.695-4.052 1.331-6.512 2.055s-5.167 1.447-8.032 2.243a110.323 110.323 0 0 1-14.892 2.894c-1.925.232-3.488.333-4.573.376a8.034 8.034 0 0 1-1.693 0 6.788 6.788 0 0 1 1.664-.26c1.071-.13 2.634-.318 4.544-.608a147.608 147.608 0 0 0 14.762-3.155l8.032-2.185c2.475-.68 4.7-1.259 6.527-1.9a34.449 34.449 0 0 0 5.658-2.557z" transform="translate(-313.66 -196.22)"/>
            </g>
            <g id="Group_53" class="cls-13" transform="translate(109.311 102.389)">
                <path id="Path_720" d="M320.065 204.764a4.77 4.77 0 0 1-.579-6.744 18.13 18.13 0 0 0-.362 3.43 20.163 20.163 0 0 0 .941 3.314z" transform="translate(-318.302 -198.02)"/>
            </g>
            <g id="Group_54" class="cls-13" transform="translate(118.283 100.305)">
                <path id="Path_721" d="M327.379 204.236a6.512 6.512 0 0 1-2.475-7.656 32.089 32.089 0 0 0 .637 4.023 27.188 27.188 0 0 0 1.838 3.633z" transform="translate(-324.502 -196.58)"/>
            </g>
            <g id="Group_55" class="cls-13" transform="translate(127.806 97.217)">
                <path id="Path_722" d="M335.044 201.167c-.217 0-.637-1.664-1.737-3.488s-2.359-3.039-2.214-3.213 1.722.839 2.894 2.822a5.9 5.9 0 0 1 1.056 3.879z" transform="translate(-331.082 -194.447)"/>
            </g>
            <path id="Path_723" d="M420.422 280.44S554.68 306.765 557.5 321.6s-2.894 145.923-2.894 145.923l-38.785.782-4.211-114.2-160.9-42.071z" class="cls-4" transform="translate(-194.498 -58.772)"/>
            <path id="Path_724" d="M420.422 280.44S554.68 306.765 557.5 321.6s-2.894 145.923-2.894 145.923l-38.785.782-4.211-114.2-160.9-42.071z" class="cls-12" transform="translate(-194.498 -58.772)"/>
            <path id="Path_725" d="M504.992 388.53l.159 26.817s23.04-4.66 21.158 4.617c-.781 3.85-60.03 21.361-60.942 20.536l-1.028-37.888z" class="cls-4" transform="translate(-143.681 -10.433)"/>
            <path id="Path_726" d="M504.992 388.53l.159 26.817s23.04-4.66 21.158 4.617c-.781 3.85-60.03 21.361-60.942 20.536l-1.028-37.888z" class="cls-5" transform="translate(-143.681 -10.433)"/>
            <path id="Path_727" d="M524.622 412.56a6.469 6.469 0 0 0-3.821-3.748 10.464 10.464 0 0 0-3.864-.622 97.339 97.339 0 0 0-22.649 4.732 109.67 109.67 0 0 0-21.1 9.653c-2.547 1.52-4.573 2.894-5.962 3.748a15.931 15.931 0 0 1-2.185 1.447 17.373 17.373 0 0 1 2.012-1.621c1.346-1 3.329-2.388 5.861-3.98a100.64 100.64 0 0 1 21.144-9.841 89.29 89.29 0 0 1 22.88-4.559 10.319 10.319 0 0 1 4.023.782 6.963 6.963 0 0 1 2.518 1.794 4.991 4.991 0 0 1 1 1.664 1.79 1.79 0 0 1 .143.551z" class="cls-6" transform="translate(-143.368 -1.828)"/>
            <path id="Path_728" d="M504.858 393.55a7.079 7.079 0 0 1-1.447.839c-.97.507-2.4 1.187-4.182 2.012-3.56 1.664-8.539 3.821-14.125 5.991s-10.724 3.936-14.472 5.109c-1.867.593-3.4 1.056-4.457 1.346a7.92 7.92 0 0 1-1.664.376 7.7 7.7 0 0 1 1.578-.666l4.342-1.563c3.7-1.3 8.785-3.14 14.371-5.311s10.565-4.24 14.183-5.789l4.342-1.795a6.764 6.764 0 0 1 1.534-.55z" class="cls-6" transform="translate(-143.605 -8.188)"/>
            <path id="Path_729" d="M476.17 404.372s0-.246.362-.492a1.881 1.881 0 0 1 1.635-.232 2.171 2.171 0 0 1 1.028.651 2.243 2.243 0 0 1 .492 1.3 2.894 2.894 0 0 1-4.5 2.46 2.171 2.171 0 0 1-.781-1.172 2.2 2.2 0 0 1 .087-1.2 1.939 1.939 0 0 1 1.114-1.23.8.8 0 0 1 .593 0 2.191 2.191 0 0 0-.463.275 1.765 1.765 0 0 0-.738 1.1 1.52 1.52 0 0 0 .593 1.664 2.2 2.2 0 0 0 3.4-1.867 1.52 1.52 0 0 0-1-1.447 1.794 1.794 0 0 0-1.317 0c-.303.018-.447.218-.505.19z" class="cls-6" transform="translate(-139.201 -3.713)"/>
            <path id="Path_730" d="M469.93 426.221a24.473 24.473 0 0 1 1.447-8.481 24.472 24.472 0 0 1-1.447 8.481z" class="cls-6" transform="translate(-141.181 2.63)"/>
            <path id="Path_731" d="M474 425.753a20.06 20.06 0 0 1 .695-5.442 19.854 19.854 0 0 1 1.447-5.311 20.839 20.839 0 0 1-.695 5.456 20.511 20.511 0 0 1-1.447 5.297z" class="cls-6" transform="translate(-139.361 1.405)"/>
            <path id="Path_732" d="M478.46 424.788a46.47 46.47 0 0 1 2.127-11.578 46.471 46.471 0 0 1-2.128 11.578z" class="cls-6" transform="translate(-137.366 .605)"/>
            <path id="Path_733" d="M483.54 423.5a52.825 52.825 0 0 1 2.128-12.359 52.824 52.824 0 0 1-2.128 12.359z" class="cls-6" transform="translate(-135.094 -.321)"/>
            <path id="Path_734" d="M488.35 422.009a52.826 52.826 0 0 1 2.128-12.359 52.822 52.822 0 0 1-2.128 12.359z" class="cls-6" transform="translate(-132.943 -.988)"/>
            <path id="Path_735" d="M493.59 419.709a22.272 22.272 0 0 1 .695-5.644 21.9 21.9 0 0 1 1.447-5.485 21.429 21.429 0 0 1-.695 5.63 21.2 21.2 0 0 1-1.447 5.5z" class="cls-6" transform="translate(-130.6 -1.466)"/>
            <path id="Path_736" d="M498.84 417.2a30.853 30.853 0 0 1 2.127-9.407 15.919 15.919 0 0 1-.709 4.79 15.571 15.571 0 0 1-1.418 4.617z" class="cls-6" transform="translate(-128.252 -1.819)"/>
            <path id="Path_737" d="M426.915 408.456c.3.55-4.428 3.69-10.565 7.033s-11.346 5.586-11.578 5.036 4.443-3.69 10.579-7.033 11.274-5.586 11.564-5.036z" class="cls-6" transform="translate(-170.324 -1.559)"/>
            <path id="Path_738" d="M472.429 202.967v-.087a205.028 205.028 0 0 0 19.885-9.465c8.683-5.239 8.278-6.02 7.482-6.947-2.1-2.446-15.7 8.683-14.154 4.559s18.206-11.578 15.919-14.1c-3.01-3.213-17.034 8.683-18.293 9.566s-2.619-.868-1.447-1.635c1.708-1.1 19.277-13.126 16.354-16.31-1.621-1.766-4.515 1.447-4.515 1.447s-15.615 12.446-16.947 10.9 7.569-9.19 10.767-11.578 3.314-4.776 1.129-5.311c-1.447-.376-11.433 6.614-14.472 9.016s-11.491 9.146-10.058 2.46 0-12.359-1.447-13.633-3.748.289-3.285 2.359a24.714 24.714 0 0 1-.13 6.889 16.21 16.21 0 0 1-1.578 5.311c-.955 1.939-1.852 3.531-2.648 4.877a9.552 9.552 0 0 0-1.187 7.135c1.114 3.575 14.067 16.223 14.067 16.223z" class="cls-4" transform="translate(-148.499 -112.012)"/>
            <g id="Group_56" class="cls-11" transform="translate(305.067 49.381)">
                <path id="Path_739" d="M472.429 202.967v-.087a205.028 205.028 0 0 0 19.885-9.465c8.683-5.239 8.278-6.02 7.482-6.947-2.1-2.446-15.7 8.683-14.154 4.559s18.206-11.578 15.919-14.1c-3.01-3.213-17.034 8.683-18.293 9.566s-2.619-.868-1.447-1.635c1.708-1.1 19.277-13.126 16.354-16.31-1.621-1.766-4.515 1.447-4.515 1.447s-15.615 12.446-16.947 10.9 7.569-9.19 10.767-11.578 3.314-4.776 1.129-5.311c-1.447-.376-11.433 6.614-14.472 9.016s-11.491 9.146-10.058 2.46 0-12.359-1.447-13.633-3.748.289-3.285 2.359a24.714 24.714 0 0 1-.13 6.889 16.21 16.21 0 0 1-1.578 5.311c-.955 1.939-1.852 3.531-2.648 4.877a9.552 9.552 0 0 0-1.187 7.135c1.114 3.575 14.067 16.223 14.067 16.223z" class="cls-8" transform="translate(-453.566 -161.392)"/>
            </g>
            <path id="Path_740" d="M349.66 205.024c3.01 2.243 87.151 5.123 87.151 5.123L491.7 179.22l21.983 21s-64.083 43.112-71.213 44.617-59.162 0-59.162 0z" class="cls-4" transform="translate(-194.967 -104.039)"/>
            <path id="Path_741" d="M448.788 181.972l18.944 20.044a3.618 3.618 0 0 0 4.675.521l.13-.087a3.633 3.633 0 0 0 .593-5.514l-19.089-19.957a3.6 3.6 0 0 0-4.414-.651 3.618 3.618 0 0 0-.839 5.644z" class="cls-4" transform="translate(-151.082 -105.546)"/>
            <path id="Path_742" d="M448.788 181.972l18.944 20.044a3.618 3.618 0 0 0 4.675.521l.13-.087a3.633 3.633 0 0 0 .593-5.514l-19.089-19.957a3.6 3.6 0 0 0-4.414-.651 3.618 3.618 0 0 0-.839 5.644z" class="cls-14" transform="translate(-151.082 -105.546)"/>
            <path id="Path_743" d="M417.181 234.932a5.208 5.208 0 0 1-1.317-.767 21.546 21.546 0 0 1-2.981-2.779 24.429 24.429 0 0 1-4.6-25.268 21.714 21.714 0 0 1 1.809-3.647 4.861 4.861 0 0 1 .9-1.2 51.536 51.536 0 0 0-2.2 5.036 25.182 25.182 0 0 0 4.5 24.733c2.224 2.56 4.019 3.776 3.889 3.892z" class="cls-6" transform="translate(-169.504 -94.178)"/>
            <path id="Path_744" d="M479.618 189.39a4.093 4.093 0 0 1-.651.55l-1.939 1.447c-1.693 1.259-4.168 3.054-7.236 5.239-6.151 4.342-14.762 10.275-24.415 16.542s-18.553 11.751-25.095 15.6c-3.242 1.939-5.89 3.473-7.728 4.5l-2.127 1.172a3.764 3.764 0 0 1-.767.376 3.224 3.224 0 0 1 .695-.507l2.055-1.288 7.6-4.7c6.426-3.965 15.268-9.494 24.921-15.76s18.351-12.157 24.559-16.354l7.4-5.051 2.012-1.346a3 3 0 0 1 .724-.42z" class="cls-6" transform="translate(-168.135 -99.491)"/>
            <path id="Path_745" d="M425.026 220.757c0 .2-11.115 0-24.805-.608s-24.791-1.143-24.791-1.346 11.115 0 24.82.593 24.79 1.173 24.776 1.361z" class="cls-6" transform="translate(-183.443 -86.371)"/>
            <g id="Group_57" class="cls-13" transform="translate(160.38 102.064)">
                <path id="Path_746" d="M396.645 236.891a98.123 98.123 0 0 0-14.11-26.05c-5.586-7.526-19.581-13.445-28.944-13.025 13.372 6.035 31.028 24.139 37.439 39.191z" transform="translate(-353.59 -197.795)"/>
            </g>
            <path id="Path_747" d="M326.882 211.136c-.535-2.634-52.679 39.625-74.589 57.512a25.905 25.905 0 0 0-9.523 20.087 25.934 25.934 0 0 0 25.93 25.935h63.518v-32.215h-41.357l53.1-34.979z" class="cls-4" transform="translate(-242.77 -89.818)"/>
            <path id="Path_748" d="M312.883 293.028v-.1a201.391 201.391 0 0 0 21.911 2.142c10.13 0 10.2-.9 10-2.084-.535-3.184-17.9-.709-14.472-3.4s21.592-.579 20.9-3.879c-.912-4.342-19.045-1.375-20.608-1.23s-1.795-2.113-.391-2.156c2.026 0 23.271-1.3 22.417-5.543-.478-2.344-4.617-1.1-4.617-1.1s-19.8 2.619-20.131.608 11.23-3.98 15.181-4.342 5.311-2.373 3.7-3.965c-1.085-1.085-13.213-.232-17.106.232s-14.559 1.925-9.884-3.068 6.382-10.594 5.789-12.432a2.127 2.127 0 0 0-4.023.333 25.051 25.051 0 0 1-3.676 5.789 16.165 16.165 0 0 1-4.081 3.734c-1.824 1.172-3.415 2.084-4.79 2.822a9.6 9.6 0 0 0-4.689 5.5c-.9 3.647 3.69 21.144 3.69 21.144z" class="cls-4" transform="translate(-215.298 -71.751)"/>
            <g id="Group_58" class="cls-11" transform="translate(88.902 179.667)">
                <path id="Path_749" d="M312.883 293.028v-.1a201.391 201.391 0 0 0 21.911 2.142c10.13 0 10.2-.9 10-2.084-.535-3.184-17.9-.709-14.472-3.4s21.592-.579 20.9-3.879c-.912-4.342-19.045-1.375-20.608-1.23s-1.795-2.113-.391-2.156c2.026 0 23.271-1.3 22.417-5.543-.478-2.344-4.617-1.1-4.617-1.1s-19.8 2.619-20.131.608 11.23-3.98 15.181-4.342 5.311-2.373 3.7-3.965c-1.085-1.085-13.213-.232-17.106.232s-14.559 1.925-9.884-3.068 6.382-10.594 5.789-12.432a2.127 2.127 0 0 0-4.023.333 25.051 25.051 0 0 1-3.676 5.789 16.165 16.165 0 0 1-4.081 3.734c-1.824 1.172-3.415 2.084-4.79 2.822a9.6 9.6 0 0 0-4.689 5.5c-.9 3.647 3.69 21.144 3.69 21.144z" class="cls-8" transform="translate(-304.2 -251.418)"/>
            </g>
            <path id="Path_750" d="M244.2 259.914a9.882 9.882 0 0 1 1.447-1.447 27.788 27.788 0 0 1 4.588-3.314 29.914 29.914 0 0 1 18.076-3.936 30.391 30.391 0 0 1 16.846 7.641 28.669 28.669 0 0 1 3.821 4.182 8.237 8.237 0 0 1 1.114 1.751 52.766 52.766 0 0 0-5.282-5.528 31 31 0 0 0-16.571-7.236 30.508 30.508 0 0 0-17.743 3.647 52.3 52.3 0 0 0-6.3 4.24z" class="cls-6" transform="translate(-242.13 -71.908)"/>
            <path id="Path_751" d="M323.855 229.8c.116.159-11.578 8.683-26.18 19.19s-26.484 18.741-26.614 18.568 11.578-8.683 26.18-19.19 26.483-18.741 26.614-18.568z" class="cls-6" transform="translate(-230.119 -81.42)"/>
            <path id="Path_752" d="M326.13 272.2a3.37 3.37 0 0 1-.81.145l-2.359.246c-2.041.217-5.007.478-8.683.767-7.323.564-17.482 1.158-28.7 1.447s-21.39.318-28.742.188c-3.676 0-6.657-.159-8.683-.246l-2.359-.116a3.492 3.492 0 0 1-.825-.1 3.388 3.388 0 0 1 .825 0h11.071c7.352 0 17.511 0 28.727-.405s21.346-.839 28.684-1.274l8.683-.521 2.373-.116a3.3 3.3 0 0 1 .8-.015z" class="cls-6" transform="translate(-241.786 -62.467)"/>
            <g id="Group_59" class="cls-13" transform="translate(28.481 177.065)">
                <path id="Path_753" d="M287.689 261.617c-.2-5.138-4.342-9.6-9.132-11.274s-11.332-.159-16.107 1.737c7.612 2.214 15.413 6.5 19.668 13.2z" transform="translate(-262.45 -249.62)"/>
            </g>
            <path id="Path_754" d="M301.261 262.289l.709 27.569a3.632 3.632 0 0 0 3.126 3.5h.159a3.647 3.647 0 0 0 4.139-3.719l-.868-27.6a3.632 3.632 0 0 0-2.894-3.43 3.633 3.633 0 0 0-4.371 3.676z" class="cls-4" transform="translate(-216.613 -68.567)"/>
            <path id="Path_755" d="M301.261 262.289l.709 27.569a3.632 3.632 0 0 0 3.126 3.5h.159a3.647 3.647 0 0 0 4.139-3.719l-.868-27.6a3.632 3.632 0 0 0-2.894-3.43 3.633 3.633 0 0 0-4.371 3.676z" class="cls-14" transform="translate(-216.613 -68.567)"/>
            <path id="Path_756" d="M314.1 251.9a31.143 31.143 0 0 0 6.9-6.715 28.205 28.205 0 0 0 4.342-9.421 30.876 30.876 0 0 0 .912-6.078 29.042 29.042 0 0 0-.492-6.57c-.839-4.428-2.894-8.51-6.252-10.623a16.831 16.831 0 0 0-9.942-2.316 44.46 44.46 0 0 0-6.99 1.042 18.917 18.917 0 0 1-2.576.449 5.721 5.721 0 0 1 .622-.246c.42-.145 1.057-.318 1.867-.535a36.849 36.849 0 0 1 7.033-1.3 16.946 16.946 0 0 1 10.348 2.272 13.271 13.271 0 0 1 4.342 4.66 20.624 20.624 0 0 1 2.3 6.382 29.206 29.206 0 0 1 .492 6.758 31.407 31.407 0 0 1-.97 6.237 28.264 28.264 0 0 1-4.631 9.552 23.965 23.965 0 0 1-5.094 5.036 13.77 13.77 0 0 1-1.65 1.042 2.548 2.548 0 0 1-.561.374z" class="cls-6" transform="translate(-217.176 -90.498)"/>
            <path id="Path_757" d="M534.987 294.585L484.638 350.3 456.5 330.461l46.311-55.269-122.227 64.589a25.471 25.471 0 0 1-33.284-9.131 25.485 25.485 0 0 1 10.608-36.5l132.116-63.214a44.675 44.675 0 0 1 54.994 13.416c12.473 16.585 5.888 34.039-10.031 50.233z" class="cls-4" transform="translate(-197.757 -82.874)"/>
            <path id="Path_758" d="M513.188 252.153s0-.072-.145-.246l-.376-.767a14.469 14.469 0 0 0-1.65-2.808 10.044 10.044 0 0 0-3.951-3.332 9.624 9.624 0 0 0-6.816-.318l-68.6 35.905-59.206 30.681-17.974 9.233-4.935 2.46-1.288.622-.449.188a3.954 3.954 0 0 1 .405-.26l1.259-.695 4.834-2.591 17.873-9.436 59.1-30.9 68.743-35.6a9.884 9.884 0 0 1 7.106.42 10.131 10.131 0 0 1 3.994 3.488 14.98 14.98 0 0 1 1.592 2.894l.318.782c.151.194.178.28.166.28z" class="cls-6" transform="translate(-195.799 -75.146)"/>
            <path id="Path_759" d="M472.434 244.41c.159.13-4.168 5.789-9.667 12.5s-10.13 12.186-10.246 12.055 4.168-5.789 9.667-12.518a157.76 157.76 0 0 1 10.246-12.041z" class="cls-6" transform="translate(-148.968 -74.885)"/>
            <path id="Path_760" d="M476.832 298.868l-26.8 30.826s15.3 18.061 12.75 20.189-44.982-35.718-44.982-35.718l27.786-35.515z" class="cls-4" transform="translate(-164.494 -59.573)"/>
            <path id="Path_761" d="M476.832 298.868l-26.8 30.826s15.3 18.061 12.75 20.189-44.982-35.718-44.982-35.718l27.786-35.515z" class="cls-5" transform="translate(-164.494 -59.573)"/>
            <path id="Path_762" d="M464.2 304.037c-.1.188-7.627-3.777-16.817-8.857s-16.556-9.335-16.455-9.508 7.627 3.777 16.817 8.857 16.573 9.334 16.455 9.508z" class="cls-6" transform="translate(-158.623 -56.435)"/>
            <path id="Path_763" d="M429.838 299.225s-.145.26-.347.724a3.487 3.487 0 0 0-.188 2.026 3.343 3.343 0 0 0 1.65 2.359 3.14 3.14 0 0 0 4.139-3.835 3.372 3.372 0 0 0-2.214-1.824 3.647 3.647 0 0 0-2.041 0c-.478.159-.709.347-.753.29s.145-.289.637-.55a3.372 3.372 0 0 1 2.272-.289 3.835 3.835 0 0 1 2.735 2.07 3.65 3.65 0 1 1-6.947 1.824 3.43 3.43 0 0 1 .449-2.258c.304-.421.593-.562.608-.537z" class="cls-6" transform="translate(-159.6 -50.899)"/>
            <path id="Path_764" d="M428.92 285.661l34.748-18.351 17.989-21.781-52.737 40.132" class="cls-12" transform="translate(-159.521 -74.384)"/>
        </g>
        <g id="freepik--Planet--inject-70" transform="translate(601.822 110.421)">
            <circle id="Ellipse_12" cx="36.513" cy="36.513" r="36.513" class="cls-10" transform="rotate(-1.34 73.027 .854)"/>
            <path id="Path_765" d="M474.5 108.153a5.948 5.948 0 1 1 5.789 6.093 5.948 5.948 0 0 1-5.789-6.093z" class="cls-6" transform="translate(-425.244 -84.764)"/>
            <path id="Path_766" d="M482.72 117.051a3.459 3.459 0 1 1 .956 2.477 3.473 3.473 0 0 1-.956-2.477z" class="cls-6" transform="translate(-421.568 -79.711)"/>
            <path id="Path_767" d="M479.866 123.31a1.288 1.288 0 1 1-1.152 1.281 1.288 1.288 0 0 1 1.152-1.281z" class="cls-6" transform="translate(-423.359 -75.391)"/>
        </g>
        <g id="freepik--Stars--inject-70" transform="translate(157.709 92.621)">
            <path id="Path_768" d="M576.072 169.28l.8 1.447a9.8 9.8 0 0 0 3.878 3.879l1.447.8-1.447.81a9.8 9.8 0 0 0-3.879 3.878l-.8 1.447-.8-1.447a9.8 9.8 0 0 0-3.878-3.879l-1.447-.81 1.447-.8a9.8 9.8 0 0 0 3.878-3.879z" class="cls-10" transform="translate(61.556 -37.034)"/>
            <path id="Path_769" d="M139.712 318.87l.81 1.447a9.711 9.711 0 0 0 3.878 3.883l1.447.8-1.447.81a9.711 9.711 0 0 0-3.879 3.879l-.81 1.447-.8-1.447a9.8 9.8 0 0 0-3.879-3.879l-1.447-.81 1.447-.8a9.8 9.8 0 0 0 3.878-3.879z" class="cls-10" transform="translate(-133.59 29.865)"/>
            <path id="Path_770" d="M258.408 316.51l.405.724a4.907 4.907 0 0 0 1.939 1.939l.738.405-.738.391a4.935 4.935 0 0 0-1.939 1.954l-.405.724-.391-.724a4.935 4.935 0 0 0-1.939-1.954l-.738-.391.738-.405a4.906 4.906 0 0 0 1.939-1.939z" class="cls-10" transform="translate(-79.142 28.81)"/>
            <path id="Path_771" d="M533.708 314.63l.405.738a4.905 4.905 0 0 0 1.939 1.939l.724.391-.724.405a4.8 4.8 0 0 0-1.939 1.939l-.405.724-.391-.724a4.9 4.9 0 0 0-1.939-1.939l-.738-.405.738-.391a4.994 4.994 0 0 0 1.939-1.939z" class="cls-10" transform="translate(43.976 27.969)"/>
            <path id="Path_772" d="M405.6 164.11l.391.724a4.907 4.907 0 0 0 1.939 1.939l.738.405-.738.391a4.993 4.993 0 0 0-1.939 1.939l-.391.738-.405-.738a4.993 4.993 0 0 0-1.968-1.939l-.738-.391.738-.333a4.906 4.906 0 0 0 1.939-1.939z" class="cls-10" transform="translate(-13.334 -39.346)"/>
            <path id="Path_773" d="M256.8 144.93l.391.724a4.935 4.935 0 0 0 1.939 1.954l.738.391-.738.405a4.906 4.906 0 0 0-1.939 1.939l-.391.724-.405-.724a4.8 4.8 0 0 0-1.939-1.939l-.726-.404.724-.391a4.848 4.848 0 0 0 1.939-1.954z" class="cls-10" transform="translate(-79.862 -47.923)"/>
            <path id="Path_774" d="M360.8 77.9l1.447 2.518a16.86 16.86 0 0 0 6.7 6.7l2.518 1.447-2.518 1.447a16.859 16.859 0 0 0-6.7 6.7l-1.447 2.52-1.447-2.518a16.86 16.86 0 0 0-6.57-6.845l-2.518-1.447 2.518-1.447a16.861 16.861 0 0 0 6.7-6.7z" class="cls-10" transform="translate(-36.692 -77.9)"/>
            <path id="Path_775" d="M257.566 389.42l1.375 2.518a16.773 16.773 0 0 0 6.7 6.7l2.518 1.447-2.518 1.375a16.859 16.859 0 0 0-6.7 6.7l-1.375 2.518-1.447-2.518a16.859 16.859 0 0 0-6.7-6.7l-2.518-1.375 2.518-1.447a16.772 16.772 0 0 0 6.7-6.7z" class="cls-10" transform="translate(-82.916 61.416)"/>
        </g>
    </g>
</svg>
