<svg xmlns="http://www.w3.org/2000/svg" width="789.053" height="709.747" viewBox="0 0 789.053 709.747">
    <defs>
        <style>
            .cls-1{fill:#263238}.cls-2{fill:#f7a9a0}.cls-3{fill:#fff24f}.cls-4{fill:#fff}.cls-5{opacity:.12}
        </style>
    </defs>
    <g id="freepik--Character--inject-720" transform="rotate(38 540.838 380.638)">
        <path id="Path_1462" d="M481.862 362.1c-1.418 46.468 4.676 102.445-18.388 144.894-18.046 33.2-52.195 53.876-86.842 66.169-76.177 27.03-179.752 23.4-225.9-53.692-18.388-30.812-17.284-91.938 18.6-111.665 18.388-10.061 39.4-11.111 59.786-14.973 26.741-5.043 46.757-18.388 60.705-41.766 27.293-45.706 25.217-80.853 33.649-131.892 1.6-9.456 4.544-18.677 14.579-26.005a65.249 65.249 0 0 1 31.749-14.606 65.04 65.04 0 0 1 31.522-2.784c22.564 4.1 42.817 26.767 59.418 41.162s23.956 29.052 23.641 51.512c-.181 31.232-1.573 62.438-2.519 93.646z" class="cls-1" transform="translate(46.247 .679)"/>
        <path id="Path_1463" d="M367.347 334.06c-1.418-42.712-3.7-85.292-5.7-127.951a.2.2 0 1 0-.394 0c.6 35.147.762 70.267 1.839 105.413 1.051 34.437 4.492 69.768 2.627 104.205-4.413 77.254-86.133 102.629-151.461 93.856-2.968-.394-3.257 4.387-.236 4.676 57.579 5.91 127.925-8.563 150.122-69.952 12.056-33.597 4.385-75.285 3.203-110.247z" class="cls-1" transform="translate(164.834 50.993)"/>
        <path id="Path_1464" d="M331.606 190.7a.657.657 0 0 0-1.287 0c-5.254 42.292-7.224 91.938-34.148 127.19a108.171 108.171 0 0 1-52.247 36.775c-16.418 5.254-33.36 4.544-50.277 6.567-66.09 7.88-73.55 95.747-28.685 133.652.919.788 2.338-.788 1.418-1.655-31.285-29.079-38.614-78.174-8.747-111.534 23.956-26.767 65.145-14.553 96.036-27.634 64.015-27.113 74.549-101.661 77.937-163.361z" class="cls-1" transform="translate(42.336 25.401)"/>
        <path id="Path_1465" d="M300.656 272.709c-68.638 69.584-154.981 215.976-138.905 245.632 17.941 33.071 113.53-64.488 113.163-70.188-.289-4.308 33.36-93.225 58.867-157.9s-16.13-34.853-33.125-17.544z" class="cls-2" transform="translate(80.09 123.665)"/>
        <path id="Path_1466" d="M276.9 448.814c2.942-9.509 48.7-126.743 61.782-163.834s.946-48.543-36.407-14.579-119.26 147.391-137.936 207.518c-18.02 58 11.847 58 51.249 31.259 32.257-21.778 61.312-60.364 61.312-60.364z" class="cls-3" transform="translate(78.736 123.004)"/>
        <path id="Path_1467" d="M337.53 256.76a15.152 15.152 0 0 1-.236 2.1 2.391 2.391 0 0 1-1.97 1.024 2.338 2.338 0 1 1 2.206-3.126zm-77.885 49.069a2.364 2.364 0 1 0 2.338 2.338 2.338 2.338 0 0 0-2.338-2.338zm37.826 0a2.364 2.364 0 1 0 2.364 2.338 2.338 2.338 0 0 0-2.364-2.338zm-18.913-24.245a2.364 2.364 0 1 0 2.364 2.338 2.338 2.338 0 0 0-2.364-2.338zm37.852 0a2.364 2.364 0 1 0 2.338 2.338 2.338 2.338 0 0 0-2.338-2.338zm-94.565 74.864a2.364 2.364 0 1 0 2.338 2.338 2.338 2.338 0 0 0-2.364-2.338zm37.826 0a2.364 2.364 0 1 0 2.338 2.338 2.338 2.338 0 0 0-2.364-2.338zm37.826 0a2.364 2.364 0 1 0 2.364 2.338 2.338 2.338 0 0 0-2.39-2.338zM240.758 332.2a2.364 2.364 0 1 0 2.338 2.338 2.338 2.338 0 0 0-2.364-2.338zm37.826 0a2.364 2.364 0 1 0 2.364 2.338 2.338 2.338 0 0 0-2.39-2.338zm-56.765 74.811a2.364 2.364 0 1 0 2.338 2.338 2.338 2.338 0 0 0-2.338-2.338zm37.826 0a2.364 2.364 0 1 0 2.338 2.338 2.338 2.338 0 0 0-2.338-2.338zm-56.739-24.191a2.364 2.364 0 1 0 2.364 2.338 2.338 2.338 0 0 0-2.364-2.338zm37.852 0a2.364 2.364 0 1 0 2.338 2.338 2.338 2.338 0 0 0-2.364-2.338zm37.826 0a2.364 2.364 0 1 0 2.364 2.338 2.338 2.338 0 0 0-2.39-2.338zm-94.564 74.864a2.481 2.481 0 1 1-.053 0zm37.852 0a2.4 2.4 0 1 1-.053 0zm-18.965-24.245a2.364 2.364 0 1 0 2.364 2.338 2.338 2.338 0 0 0-2.364-2.338zm37.852 0a2.364 2.364 0 1 0 2.338 2.338 2.338 2.338 0 0 0-2.364-2.338zM183.993 508.3a2.437 2.437 0 1 1-.026 0zm-18.913-24.243a2.364 2.364 0 1 0 2.338 2.338 2.338 2.338 0 0 0-2.364-2.338zm37.826 0a2.364 2.364 0 1 0 2.364 2.338 2.338 2.338 0 0 0-2.364-2.338z" class="cls-4" transform="translate(84.798 131.208)"/>
        <path id="Path_1468" d="M193.53 561.519l6.856-41.109 9.85-72.946s-23.195-40.505-9.745-69.558c6.8-14.736 66.406-106.228 91.465-124.615 23.641-17.1 57.79 1.208 70.451 14.579 49.016 51.59 72.132 154.036 89.732 293.571z" class="cls-2" transform="translate(134.969 116.816)"/>
        <path id="Path_1469" d="M200.406 507.5l8.117-60.022s-23.195-40.505-9.745-69.584c6.8-14.736 66.406-106.228 91.465-124.615 23.641-17.074 57.79 1.208 70.451 14.6 42.449 44.656 65.486 127.5 82.324 239.538z" class="cls-3" transform="translate(136.682 116.823)"/>
        <path id="Path_1470" d="M277.833 323.007a231.486 231.486 0 0 0-34.411-.447c-5.674.42-11.321 1.1-16.969 1.918-2.811.394-5.621.709-8.458 1a35.886 35.886 0 0 1-8.879 0 .21.21 0 1 0 0 .394 63.227 63.227 0 0 0 8.327 1.34 60.6 60.6 0 0 0 8.169 0c5.779-.368 11.532-1.025 17.311-1.445 11.637-.893 23.273-1.76 34.963-1.812a.474.474 0 0 0-.052-.946z" class="cls-1" transform="translate(159.862 240.064)"/>
        <path id="Path_1471" d="M279.841 333.358a249.751 249.751 0 0 0-27.687-6.3c-4.676-.788-9.351-1.261-14.08-1.655-2.259-.184-4.518-.315-6.777-.42s-4.991 0-7.486 0c-.263 0-.342.368 0 .394 2.338.236 4.649.841 6.961 1.208l6.987 1.051c4.676.709 9.351 1.471 14.027 2.154 9.351 1.34 18.677 2.758 27.975 4.413a.424.424 0 0 0 .08-.845z" class="cls-1" transform="translate(183.859 244.633)"/>
        <path id="Path_1472" d="M199.5 475.531c1.313-12.188 2.627-24.4 4.177-36.565s2.889-24.377 4.518-36.539l.236.867a74.384 74.384 0 0 1-8.537-16 83.163 83.163 0 0 1-4.833-17.416 80.22 80.22 0 0 1-.788-18.1 66.7 66.7 0 0 1 4.466-17.573 177.989 177.989 0 0 1 16.838-31.522A299.092 299.092 0 0 1 236.8 273.95c-7.066 9.562-13.686 19.465-19.885 29.578a200.675 200.675 0 0 0-16 31.522 63.2 63.2 0 0 0-4.15 16.943 82.82 82.82 0 0 0 .867 17.468 80.326 80.326 0 0 0 4.544 16.943 71.267 71.267 0 0 0 8.091 15.5l.263.394v.447c-1.629 12.162-3.546 24.272-5.254 36.434s-3.808 24.242-5.776 36.352z" class="cls-1" transform="translate(135.857 161.695)"/>
        <path id="Path_1473" d="M202.77 295.932a21.382 21.382 0 0 1 .972-4.807 41.645 41.645 0 0 1 1.707-4.571c.657-1.471 1.34-2.942 2.128-4.36a37.484 37.484 0 0 1 2.627-4.124c-1 3.126-2.285 6.068-3.546 9.01s-2.658 5.831-3.888 8.852z" class="cls-1" transform="translate(150 168.397)"/>
        <path id="Path_1477" d="M172.563 407.7c5.254-10.9 0-30.392-13.738-35.987s-32.441 5.017-35.488 17.022 10.087 32.073 20.857 33.518c12.031 1.521 24.482-6.543 28.369-14.553z" class="cls-3" transform="translate(20.051 318.234)"/>
        <path id="Path_1478" d="M120.953 391.559c9.745 8.353 25.927 15.761 39.166 15.209A108.625 108.625 0 0 1 142.571 424a.435.435 0 0 0 .5.709c15.183-10.113 30.129-28.4 30.786-47.282 0-.263-.341-.263-.368 0a49.253 49.253 0 0 1-4.439 15.262c-5.254-11.3-20.121-19.78-31.522-22.459a.291.291 0 1 0-.184.552 106.124 106.124 0 0 1 10.218 4.781c-6.3 5.569-11.059 16.418-9.64 24.745a88.081 88.081 0 0 1-16.286-9.483c-.342-.396-1.13.366-.683.734zm39.747 14.552a62.1 62.1 0 0 1-16-3.257 36.932 36.932 0 0 0 22.118-5.832 77.482 77.482 0 0 1-6.118 9.089zm7.88-12.556c-.42.867-.867 1.707-1.34 2.627a49.016 49.016 0 0 1-16.391 4.965 30.891 30.891 0 0 0 12.11-14.342 48.591 48.591 0 0 1 5.621 6.751zm-5.937-7.145a52.223 52.223 0 0 1-7.543 10.19c-1.077-.236-2.128-.552-3.178-.893a13.134 13.134 0 0 0 5.254-10.98c1.471.184 2.968.447 4.492.762zm-11.19-2a11.559 11.559 0 0 1 1.156 2.443 12.135 12.135 0 0 1 .289 3.231 14.579 14.579 0 0 1-5.254-.21 24.14 24.14 0 0 1 1.812-5.254 10.986 10.986 0 0 1 2-.21zm.972 0a35.424 35.424 0 0 1 4.387.263 25.766 25.766 0 0 1-1.681 5.1l-2.023.289a6.619 6.619 0 0 0-.683-5.648zm2.39 5.963a17.31 17.31 0 0 1-3.888 4.965 29.989 29.989 0 0 1-2.811-1.287 7.434 7.434 0 0 1-.552-3.625 8.458 8.458 0 0 0 7.25-.052zm-6.83-14.631a66.882 66.882 0 0 1 12.5 8.695 24.587 24.587 0 0 0-18.1 1.051 40.663 40.663 0 0 1 5.598-9.743zm-5.91 10.507a29.632 29.632 0 0 1 6.882-1.707 9.509 9.509 0 0 0-1.97 8.747 21.355 21.355 0 0 1-5.726-4.886c.263-.683.552-1.392.814-2.1zm-1.208 3.31a20.148 20.148 0 0 0 13.817 7.381 36.408 36.408 0 0 1-4.965 4.229c-2.312.315-4.7.525-7.224.762-1.287-.5-2.627-1-3.861-1.55a57.784 57.784 0 0 1 2.233-10.77z" class="cls-5" transform="translate(16.683 318.298)"/>
        <path id="Path_1479" d="M259.969 406.169c5.254-10.927 0-30.392-13.738-36.013s-32.467 5.044-35.514 17.022 10.113 32.1 21.014 33.492c11.978 1.496 24.35-6.384 28.238-14.501z" class="cls-3" transform="translate(162.201 315.692)"/>
        <path id="Path_1480" d="M208.352 390.009c9.745 8.327 25.9 15.761 39.166 15.209a108.615 108.615 0 0 1-17.547 17.232.436.436 0 0 0 .5.709c15.183-10.113 30.129-28.422 30.786-47.282a.184.184 0 1 0-.368 0 49.462 49.462 0 0 1-4.439 15.262c-5.254-11.3-20.121-19.78-31.522-22.459a.291.291 0 0 0-.184.552 102.907 102.907 0 0 1 10.218 4.781c-6.3 5.569-11.059 16.391-9.64 24.718a86.528 86.528 0 0 1-16.286-9.457c-.474-.395-1.13.341-.684.735zm39.691 14.553a61.936 61.936 0 0 1-16-3.283 36.434 36.434 0 0 0 22.091-5.832 72.483 72.483 0 0 1-6.094 9.115zm7.88-12.556c-.42.867-.867 1.707-1.34 2.627a49.016 49.016 0 0 1-16.391 4.965 30.891 30.891 0 0 0 12.11-14.342 45.757 45.757 0 0 1 5.674 6.751zm-5.963-7.171a50.485 50.485 0 0 1-7.513 10.218 27.364 27.364 0 0 1-3.178-.919 13.134 13.134 0 0 0 5.254-10.98 42.477 42.477 0 0 1 4.492.788zm-11.164-1.97a13.134 13.134 0 0 1 1.156 2.443 12.055 12.055 0 0 1 .289 3.231 14.578 14.578 0 0 1-5.254-.236 25.087 25.087 0 0 1 1.813-5.254 11.4 11.4 0 0 1 2.049-.184zm.972 0a41.342 41.342 0 0 1 4.387.263 23.64 23.64 0 0 1-1.707 5.1 17.515 17.515 0 0 0-2 .315 6.7 6.7 0 0 0-.63-5.7zm2.39 5.989a17.681 17.681 0 0 1-3.888 4.965 29.935 29.935 0 0 1-2.811-1.287 7.487 7.487 0 0 1-.552-3.625 8.458 8.458 0 0 0 7.3-.079zm-6.83-14.631a66.748 66.748 0 0 1 12.5 8.669 24.586 24.586 0 0 0-18.1 1.077 40.662 40.662 0 0 1 5.648-9.772zm-5.91 10.507a28.37 28.37 0 0 1 6.882-1.707 9.509 9.509 0 0 0-1.97 8.747 21.015 21.015 0 0 1-5.648-4.886zm-1.208 3.31a20.253 20.253 0 0 0 13.817 7.381 38.351 38.351 0 0 1-4.965 4.229c-2.312.289-4.7.525-7.224.736h-.131c-1.287-.473-2.627-.972-3.861-1.524a57.293 57.293 0 0 1 2.417-10.8z" class="cls-5" transform="translate(158.839 315.776)"/>
        <path id="Path_1485" d="M190.666 441.557c-11.847-2.5-23.956-18.677-20.016-32.914s23.878-22.564 35.225-17.6 19.176 27.66 13.659 37.038c-6.146 10.455-20.147 15.341-28.868 13.476z" class="cls-3" transform="translate(96.513 349.835)"/>
        <path id="Path_1486" d="M211.905 389.4a86.684 86.684 0 0 1-2.627 18.677c-5.7-6.226-17.153-9.115-25.427-7.565a103.771 103.771 0 0 1 2.5-10.98.3.3 0 1 0-.552-.21c-4.886 10.639-7.355 27.686-1.576 38.667a48.751 48.751 0 0 1-14.789-5.858c-.21 0-.42.184-.236.315 15.34 11.085 38.982 10.507 56.266 4.7.473-.158.21-.919-.263-.814a109.532 109.532 0 0 1-24.35 3.284c8.537-10.166 12.609-27.476 12-40.243.049-.6-.919-.548-.946.027zm-22.748 39.4a36.776 36.776 0 0 0 18.177-13.9 62.23 62.23 0 0 1-7.224 14.631 72.4 72.4 0 0 1-10.954-.657zm-5.779-9.325a30.918 30.918 0 0 0 18.755-.762 48.749 48.749 0 0 1-14 9.9l-2.811-.5a47.277 47.277 0 0 1-1.944-8.563zm-.184-1.786c.683-1.418 1.392-2.758 2.154-4.045a13.134 13.134 0 0 0 11.873 2.627 28.388 28.388 0 0 1-1.235 3.047 51.086 51.086 0 0 1-12.661-.289c-.079-.368-.079-.814-.131-1.261zm6.62-10.218a24.477 24.477 0 0 1 5.254 1.839 15.286 15.286 0 0 1-3.021 4.255 11.139 11.139 0 0 1-2.364-2.206 10 10 0 0 1-1.235-2.417 4.866 4.866 0 0 0 1.366-1.467zm2.154 6.252l-1.471 1.392a24.986 24.986 0 0 1-5.07-1.786 38.505 38.505 0 0 1 2.5-3.625 6.593 6.593 0 0 0 4.124 4.124zm3.678-4.15a7.226 7.226 0 0 1 2.627 2.627 20.151 20.151 0 0 1-.709 3.021 17.549 17.549 0 0 1-6.3 0 8.327 8.327 0 0 0 4.466-5.543zm-.736-7.119a24.482 24.482 0 0 0-11.9 13.633 66.955 66.955 0 0 1 .788-15.183 39.112 39.112 0 0 1 11.269 1.655zm3.047.919a21.381 21.381 0 0 1 .368 7.539 9.43 9.43 0 0 0-8.143-3.809 29.129 29.129 0 0 1 5.569-4.387zm11.19 5.254c-.341 1.366-.736 2.627-1.13 3.993h-.131c-1.707 1.865-3.362 3.6-5.017 5.254a38 38 0 0 1-6.409 1.313 20.069 20.069 0 0 0 2.627-15.419 57.089 57.089 0 0 1 10.139 4.912z" class="cls-5" transform="translate(95.264 348.77)"/>
        <path id="Path_1487" d="M161.188 396.449c15.446 22.118 57.5 26.268 162.441 46.888 14.5 2.837 62.045-94.223 46.783-98.032-19.333-4.833-95.379-19.386-101.079-19.754-48.044-3.073-118.626 55.925-108.145 70.898z" class="cls-2" transform="translate(80.653 245.452)"/>
        <path id="Path_1488" d="M276.9 331.17s44.472 6.7 66.721 17.468c29.814 14.395 49.62 39.113 57.29 49.909 16.023 22.669 39.087 88.523 21.251 98.479-16.1 9.01-36.276-59.5-36.276-59.5s32.1 66.458 10.691 73.734-40.321-73.55-40.321-73.55 31.522 69.006 8.2 73.025c-17.576 3.05-38.826-69.235-38.826-69.235s26.609 59.523 8.668 63.411c-19.832 4.439-43.6-61.231-43.6-61.231-47.282 2.233-70.713-16.05-85.844-31.022-3.654-3.577 72.046-81.488 72.046-81.488z" class="cls-2" transform="translate(153.175 254.78)"/>
        <path id="Path_1489" d="M270.26 362.724c4.045 7.67 8.222 15.393 11.558 23.4s6.436 16.129 9.036 24.4a146.441 146.441 0 0 1 7.04 33.2c-3.362-19.911-14.947-48.753-18.388-56.765s-6.3-16.155-9.667-24.14c.08-.2.421-.279.421-.095z" class="cls-1" transform="translate(259.11 305.944)"/>
        <path id="Path_1490" d="M259.085 367.125c4.755 10.034 9.851 19.806 14.159 30.024s7.46 20.226 11.033 30.681c.289.788-.236.683-.552-.131-3.993-10.3-8.485-19.491-12.582-29.762s-7.88-20.647-12.293-30.707c-.08-.157.183-.288.235-.105z" class="cls-1" transform="translate(241.206 313.127)"/>
        <path id="Path_1491" d="M249.079 369.253a247.231 247.231 0 0 1 18.1 47.571c.263.788-.42.578-.709-.236-5.726-15.918-10.087-28.448-17.915-47.046-.132-.289.345-.683.524-.289z" class="cls-1" transform="translate(224.445 316.463)"/>
        <path id="Path_1492" d="M267.63 344.26a94.187 94.187 0 0 1 14.447 11.558 116.451 116.451 0 0 1 12.4 13.791c1.918 2.443 3.625 5.017 5.411 7.565a66.038 66.038 0 0 1 4.676 7.88 91.942 91.942 0 0 1 7.2 17.074c-1.55-2.627-2.627-5.543-4.334-8.143l-2.206-4.019c-.762-1.313-1.6-2.627-2.39-3.888a173.584 173.584 0 0 0-10.507-15c-3.677-4.833-7.644-9.483-11.742-13.975-2.075-2.259-4.177-4.466-6.357-6.619s-4.313-4.149-6.598-6.224z" class="cls-1" transform="translate(255.515 276.075)"/>
        <path id="Path_1493" d="M359.205 340.569l-91.938 102.446s-92.967-21.356-106.648-45.181c-9.01-15.761 60.968-79.251 113.793-71.843z" class="cls-3" transform="translate(80.144 245.381)"/>
        <path id="Path_1494" d="M212.412 334.628a2.364 2.364 0 1 1-2.338-2.338 2.338 2.338 0 0 1 2.338 2.338zm35.488-2.338a2.338 2.338 0 1 0 2.338 2.338 2.338 2.338 0 0 0-2.338-2.338zm37.826 0a2.338 2.338 0 1 0 1.67.675 2.338 2.338 0 0 0-1.67-.675zm37.852 0a2.338 2.338 0 1 0 2.338 2.338 2.338 2.338 0 0 0-2.338-2.338zm-151.356 50.618a2.338 2.338 0 1 0 1.67.675 2.338 2.338 0 0 0-1.67-.675zm37.852 0a2.338 2.338 0 1 0 2.338 2.338 2.338 2.338 0 0 0-2.338-2.338zm37.826 0a2.338 2.338 0 1 0 2.338 2.338 2.338 2.338 0 0 0-2.338-2.338zm37.826 0a2.338 2.338 0 1 0 1.67.675 2.338 2.338 0 0 0-1.67-.675zm-94.565-24.245a2.364 2.364 0 1 0 2.364 2.337 2.338 2.338 0 0 0-2.364-2.338zm37.852 0a2.364 2.364 0 1 0 2.338 2.337 2.338 2.338 0 0 0-2.364-2.338zm37.826 0A2.364 2.364 0 1 0 269.2 361a2.338 2.338 0 0 0-2.39-2.338zm37.852 0a2.364 2.364 0 1 0 2.338 2.337 2.338 2.338 0 0 0-2.364-2.338zm-113.53 50.619a2.364 2.364 0 1 0 2.364 2.338 2.338 2.338 0 0 0-2.364-2.338zm37.852 0a2.364 2.364 0 1 0 2.338 2.338 2.338 2.338 0 0 0-2.364-2.338zm37.852 0a2.364 2.364 0 0 0-2.364 2.364 2.338 2.338 0 0 0 2.364 2.338l2.312-2.627a2.364 2.364 0 0 0-2.338-2.1z" class="cls-4" transform="translate(96.544 256.602)"/>
        <path id="Path_1495" d="M179.532 342.689c8.511-6.173 32.494-20.568 63.043-16.733.263 0 .289.473 0 .447-23.063-.657-54.191 11.4-63.043 16.654-.027.131-.211-.184 0-.368z" class="cls-1" transform="translate(112.034 245.257)"/>
        <path id="Path_1496" d="M191.213 417.057c9.509-11.794 19.622-23.063 29.788-34.306s20.305-22.538 30.76-33.544c5.884-6.226 11.768-12.477 17.889-18.388.158-.158.447 0 .315.263-9.483 11.768-19.6 23.116-29.657 34.411s-20.305 22.538-30.6 33.676c-5.832 6.278-11.768 12.451-17.889 18.388-.319.288-.869-.157-.606-.5z" class="cls-1" transform="translate(131.087 254.107)"/>
        <path id="Path_1497" d="M292.806 339.331a128.713 128.713 0 0 0-17.232-3.914c-5.805-1.1-11.637-2.075-17.442-3.021-11.584-1.865-35.935-7.119-57.343-7.066-.236 0 .972 1.156 1.208 1.156 10.192-.552 83.217 13.975 89.311 14.395a10.745 10.745 0 0 0-.657 1.208c0 .315.184.683.5.473.762-.5 1.287-1.13 2-1.681a.867.867 0 0 0-.341-1.55z" class="cls-1" transform="translate(146.728 245.28)"/>
        <path id="Path_1498" d="M295.315 269.359c87.84 76.624 156.925 171.294 152.354 194.961-8.274 44.078-66.2 46.836-75.074 37.3-35.567-38.535-73.1-113.189-113.767-196.485-36.328-74.442 7.566-60.967 36.487-35.776z" class="cls-3" transform="translate(218.82 121.761)"/>
        <path id="Path_1499" d="M272.784 257.548a2.364 2.364 0 1 1-2.338-2.338 2.338 2.338 0 0 1 2.338 2.338zm-2.338 48.281a2.364 2.364 0 1 0 2.338 2.338 2.338 2.338 0 0 0-2.338-2.338zm37.826 0a2.364 2.364 0 1 0 2.364 2.338 2.338 2.338 0 0 0-2.364-2.338zm-56.792-24.246a2.364 2.364 0 1 0 2.338 2.338 2.338 2.338 0 0 0-2.338-2.338zm37.826 0a2.364 2.364 0 1 0 2.338 2.338 2.338 2.338 0 0 0-2.285-2.338zm18.913 74.864a2.364 2.364 0 1 0 2.364 2.338 2.338 2.338 0 0 0-2.312-2.338zm37.852 0a2.364 2.364 0 1 0 2.338 2.338 2.338 2.338 0 0 0-2.364-2.338zm37.012.131a2.364 2.364 0 0 0-1.523 2.207 2.338 2.338 0 0 0 2.338 2.338 2.39 2.39 0 0 0 2.023-1.13zM289.306 332.2a2.364 2.364 0 1 0 2.338 2.338 2.338 2.338 0 0 0-2.285-2.338zm37.826 0a2.364 2.364 0 1 0 2.364 2.338 2.338 2.338 0 0 0-2.312-2.338zm35.856 1.1a2.417 2.417 0 0 0-.341 1.235 2.338 2.338 0 0 0 2.338 2.364 2.207 2.207 0 0 0 .972-.21c-.919-1.156-1.917-2.259-2.916-3.388zm-53.718 73.923c.5.867.946 1.734 1.418 2.627a2.114 2.114 0 0 0 0-.394 2.311 2.311 0 0 0-1.418-2.233zm36.775-.21a2.364 2.364 0 1 0 2.338 2.338 2.338 2.338 0 0 0-2.338-2.338zm37.826 0a2.364 2.364 0 1 0 2.338 2.338 2.338 2.338 0 0 0-2.259-2.338zm36.933.158a2.364 2.364 0 0 0 .919 4.518 2.417 2.417 0 0 0 1.6-.6c-.735-1.235-1.576-2.548-2.443-3.861zm-93.7-24.4a2.364 2.364 0 1 0 2.364 2.338 2.338 2.338 0 0 0-2.285-2.285zm37.852 0a2.364 2.364 0 1 0 2.338 2.338 2.338 2.338 0 0 0-2.259-2.285zm40.164 1.865l-1.1-1.445a2.286 2.286 0 0 0-1.182-.315 2.364 2.364 0 0 0 0 4.7 2.391 2.391 0 0 0 2.364-2.338 3.176 3.176 0 0 0 0-.552zm-59.077 73.051a2.338 2.338 0 1 0 2.338 2.338 2.338 2.338 0 0 0-2.338-2.338zm37.826 0a2.3 2.3 0 1 0 .079 0zm37.852 0a2.3 2.3 0 1 0 .079 0zm-94.565-24.245a2.364 2.364 0 1 0 2.364 2.338 2.338 2.338 0 0 0-2.338-2.338zm37.852 0a2.364 2.364 0 1 0 2.338 2.338 2.338 2.338 0 0 0-2.312-2.338zm37.826 0a2.364 2.364 0 1 0 2.364 2.338 2.338 2.338 0 0 0-2.338-2.338zm-37.826 50.619a2.364 2.364 0 1 0 2.338 2.338 2.338 2.338 0 0 0-2.312-2.338zm37.826 0a2.364 2.364 0 1 0 2.364 2.338 2.338 2.338 0 0 0-2.338-2.338z" class="cls-4" transform="translate(225.354 131.208)"/>
        <path id="Path_1500" d="M343.064 437.541c-6.436-9.982-12.5-20.279-18.65-30.471s-12.241-20.437-18.23-30.734c-11.821-20.358-22.8-41.162-33.387-62.176-5.989-11.9-12.083-23.641-17.783-35.777-.184-.394-.814 0-.683.289q8.275 21.014 17.81 41.346l-.263-.341c-1.418-1.918-2.837-3.835-4.229-5.779-2.758-3.835-5.254-7.749-7.88-11.768-.184-.315-.683 0-.5.315a135.049 135.049 0 0 0 9.614 15.761 74.376 74.376 0 0 0 5.621 6.725l.184.158c2.916 6.042 5.884 12.057 9.01 18.02a712.4 712.4 0 0 0 35.829 61.782c3.678 5.6 7.381 11.164 11.243 16.654s7.88 10.8 11.978 16.207c.052.34.526.13.316-.211z" class="cls-1" transform="translate(233.851 168.636)"/>
        <path id="Path_1501" d="M304.719 464.583c-16.654-23.878-8.3-71.37 10.087-185.373 2.627-15.761 122.251-17 120.413 0-2.312 21.382-23.641 105.886-29.184 118.206-27.241 60.942-90.047 83.375-101.316 67.167z" class="cls-2" transform="translate(301.249 150.262)"/>
        <path id="Path_1502" d="M409.927 390.9c4.965-12.766 27.792-83.532 28.895-101.473s.709-69.82-12.95-72.079-14.736 12.924-14.736 12.924-3.651-21.881-17.6-22.932-14.868 22.669-14.868 22.669-5.385-22.2-19.386-22.223-10.717 23.93-10.717 23.93-3.993-20.515-15.524-15.761c-13.87 5.779-2.259 42.791-5.017 62.492-.63 4.492-19.123 89.837-19.123 89.837z" class="cls-2" transform="translate(322.653 53.28)"/>
        <path id="Path_1503" d="M323.912 216.584c8.485 27.24 7.486 40.61.236 67.719-.131.552.63.867.814.342 9.509-25.926 13.134-42.528.263-68.533-.625-1.288-1.707-.812-1.313.472z" class="cls-1" transform="translate(346.937 66.365)"/>
        <path id="Path_1504" d="M335.235 215.759c6.331 29.052 5.385 43.579 0 72.552 0 .394.63.578.736.158 7.88-27.949 11.059-44.656.919-72.789-.604-1.287-1.944-1.235-1.655.079z" class="cls-1" transform="translate(365.429 65.378)"/>
        <path id="Path_1505" d="M351 217.426c4.1 28.58 3.73 44.656-5.254 71.974a.537.537 0 0 0 1 .394c11.847-27.082 12.451-46.994 5.1-72.395-.481-1.733-1.112-1.76-.846.027z" class="cls-1" transform="translate(382.528 67.572)"/>
        <path id="Path_1506" d="M308.733 354.011s-9.483-34.437-10.3-50.513 18.151-76.991 31.522-73.55c17.311 4.334 13.292 41.687 8.931 59.707 0 0 40.032 9.982 42.948 37.406s-73.101 26.95-73.101 26.95z" class="cls-2" transform="translate(305.588 89.882)"/>
        <path id="Path_1507" d="M312.126 230.968c12.924 15.314 5.674 38.614 2.627 56.424a1.655 1.655 0 0 0 1.839 2c16.5 5.254 38.246 17.573 43.6 35.042a.42.42 0 0 0 .814-.158c-3.2-19.543-23.641-33.36-42.029-37.984 3.284-18.23 9.535-42.029-6.856-55.452.031-.082-.1.023.005.128z" class="cls-1" transform="translate(327.833 91.514)"/>
        <path id="Path_1508" d="M445.41 286.3l-138.827 39.4S278.9 416.694 296.5 439.521c18.834 24.4 106.228-13.423 123.617-66.589z" class="cls-3" transform="translate(292.949 181.786)"/>
        <path id="Path_1509" d="M391.607 296.088a2.338 2.338 0 1 1-2.338-2.338 2.338 2.338 0 0 1 2.338 2.338zm35.488-2.338a2.364 2.364 0 1 0 2.364 2.338 2.338 2.338 0 0 0-2.364-2.338zm-113.5 50.566a2.364 2.364 0 1 0 2.338 2.338 2.338 2.338 0 0 0-2.338-2.338zm37.852 0a2.364 2.364 0 1 0 2.338 2.338 2.338 2.338 0 0 0-2.338-2.338zm37.826 0a2.364 2.364 0 1 0 2.338 2.338 2.338 2.338 0 0 0-2.338-2.338zM332.5 320.071a2.364 2.364 0 1 0 2.364 2.338 2.338 2.338 0 0 0-2.364-2.285zm37.852 0a2.364 2.364 0 1 0 2.338 2.338 2.338 2.338 0 0 0-2.443-2.285zm37.826 0a2.364 2.364 0 1 0 2.364 2.338 2.338 2.338 0 0 0-2.364-2.285zm-94.565 74.864a1.733 1.733 0 1 1-.026.053zm37.852 0a1.733 1.733 0 1 1-.026.053zm37.826 0a1.733 1.733 0 1 1-.026.053zm-94.561-24.246a2.364 2.364 0 1 0 2.338 2.338 2.338 2.338 0 0 0-2.39-2.285zm37.826 0a2.364 2.364 0 1 0 2.364 2.338 2.338 2.338 0 0 0-2.417-2.285zm37.852 0a2.364 2.364 0 1 0 2.338 2.338 2.338 2.338 0 0 0-2.5-2.285zm37.826 0a2.364 2.364 0 1 0 2.364 2.338 2.338 2.338 0 0 0-2.417-2.285zm-113.5 50.618a2.364 2.364 0 1 0 2.338 2.338 2.338 2.338 0 0 0-2.39-2.285zm37.826 0a2.364 2.364 0 1 0 2.364 2.338 2.338 2.338 0 0 0-2.417-2.285z" class="cls-4" transform="translate(295.713 193.905)"/>
        <path id="Path_1510" d="M298.687 334.656c15.5-3.52 30.786-7.88 46.074-12.241s30.6-8.721 45.785-13.475c8.563-2.627 17.153-5.254 25.638-8.327.236 0 .158-.473 0-.42-15.472 3.494-30.812 7.88-46.074 12.057s-30.629 8.721-45.864 13.292c-8.59 2.627-17.153 5.254-25.638 8.327-.499.157-.368.892.079.787z" class="cls-1" transform="translate(305.39 204.379)"/>
        <path id="Path_1511" d="M313.443 300.72c-2.154.21-4.308.657-6.436 1.077a1 1 0 0 0-.683.683c-2.364 8.091-4.045 16.418-5.726 24.666s-3.126 16.286-4.466 24.482c-.736 4.387-1.366 8.826-1.865 13.134a47.046 47.046 0 0 0-4.807 17.153.263.263 0 1 0 .525 0 59.415 59.415 0 0 1 4.071-15.419 109.644 109.644 0 0 0 .867 32.494c-2.627-16.024 1.313-32.73 3.94-48.491 1.313-7.88 2.811-15.761 4.361-23.641s3.362-15.63 4.807-23.484c1.839-.709 3.7-1.392 5.464-2.233a.263.263 0 0 0-.052-.42z" class="cls-1" transform="translate(291.028 205.244)"/>
        <path id="Path_1512" d="M280.5 297.288c-1.235 4.466-23.878 32.966-44.472 31.233-6.7-.578-5.254-37.327-5.254-37.327l-.5-2.627-7.092-38.325 45.68-27.03 6.593-3.572s1.261 10.507 2.627 23.878c0 .6.131 1.208.184 1.865s.21 1.471.263 2.154c.263 1.97.473 3.993.683 6.015.158 1.524.289 3.021.394 4.623s.263 3.2.394 4.807a253.4 253.4 0 0 1 .5 34.306z" class="cls-2" transform="translate(183.203 73.343)"/>
        <path id="Path_1513" d="M278.165 243.439a78.252 78.252 0 0 1-47.913 45.023l-7.092-38.325 45.733-26.925 6.593-3.572s1.261 10.56 2.679 23.799z" class="cls-1" transform="translate(183.171 73.343)"/>
        <path id="Path_1514" d="M205.324 256.29c-7.066 68.06 32.914 79.986 47.6 81.431 13.318 1.366 58.867 4.334 72.92-62.649s-15.367-91.754-45.68-96.509-67.774 9.666-74.84 77.727z" class="cls-2" transform="translate(152.805 5.172)"/>
        <path id="Path_1515" d="M215.127 205.965a46.327 46.327 0 0 0 4.676-.552 7.671 7.671 0 0 0 4.676-1.471 2.417 2.417 0 0 0 .289-2.968 6.094 6.094 0 0 0-5.805-1.891 8.879 8.879 0 0 0-5.832 2.627 2.627 2.627 0 0 0 2 4.256z" class="cls-1" transform="translate(165.934 39.683)"/>
        <path id="Path_1516" d="M237.884 206.355a40.579 40.579 0 0 1-4.544-1.313 7.591 7.591 0 0 1-4.361-2.233 2.417 2.417 0 0 1 .21-2.942 6.041 6.041 0 0 1 6.042-.972 8.8 8.8 0 0 1 5.254 3.546 2.627 2.627 0 0 1-2.6 3.914z" class="cls-1" transform="translate(191.983 38.925)"/>
        <path id="Path_1517" d="M227.933 209.281c0-.158.342.263.315.447-.6 4.623-.5 10.034 3.546 11.978v.263c-5.148-1.235-5.148-8.406-3.861-12.688z" class="cls-1" transform="translate(189.772 56.435)"/>
        <path id="Path_1518" d="M232.444 207.571c7.513.184 6.62 15.183-.341 15.052s-5.963-15.184.341-15.052z" class="cls-1" transform="translate(189.884 53.707)"/>
        <path id="Path_1519" d="M230.919 208c1.261.919 2.469 2.5 4.019 2.758s3.31-1.208 4.6-2.627c.131 0 .236 0 .236.184-.131 2.889-1.392 5.779-4.518 6.015s-4.7-2.417-5.254-5.254c-.002-.683.418-1.444.917-1.076z" class="cls-1" transform="translate(194.298 54.25)"/>
        <path id="Path_1520" d="M220.385 208.031c0-.184-.394.184-.394.368-.158 4.676-1.13 9.982-5.437 11.243a.132.132 0 0 0 0 .263c5.2-.5 6.409-7.54 5.831-11.874z" class="cls-1" transform="translate(168.977 54.376)"/>
        <path id="Path_1521" d="M219.289 206.034c-7.434-1.077-9.036 13.9-2.154 14.894s8.405-13.974 2.154-14.894z" class="cls-1" transform="translate(166.238 51.119)"/>
        <path id="Path_1522" d="M218.914 207.258c-1.287.657-2.627 1.97-4.019 1.918s-2.627-1.813-3.572-3.467c0-.184-.21 0-.236.131-.394 2.837.236 5.937 2.916 6.777s4.571-1.5 5.543-4.255c.235-.526-.08-1.362-.632-1.104z" class="cls-1" transform="translate(163.355 50.552)"/>
        <path id="Path_1523" d="M230.373 223.123c-1.13 1.077-2.259 2.627-3.966 2.627a11.872 11.872 0 0 1-4.991-1.235.184.184 0 0 0-.21.236 6.226 6.226 0 0 0 5.884 2.627 4.938 4.938 0 0 0 3.73-4.071c.08-.342-.29-.342-.447-.184z" class="cls-1" transform="translate(179.977 78.844)"/>
        <path id="Path_1524" d="M222.615 244.109s-1.445 6.882-1.681 10.166c0 .289.762.5 1.865.657h.131a15.551 15.551 0 0 0 15.524-4.754c.263-.289-.131-.657-.447-.473a23.641 23.641 0 0 1-14.5 3.073c-.184-.919 2.863-11.689 2.364-11.768a28.056 28.056 0 0 0-7.565 1.156c2.627-14.395 7.486-28.291 9.85-42.659a.428.428 0 1 0-.814-.263c-6.173 14.158-9.509 30.681-12.582 45.5-.419 1.835 6.516-.162 7.855-.635z" class="cls-1" transform="translate(169.478 39.68)"/>
        <path id="Path_1525" d="M218.24 222.191a18.388 18.388 0 0 0 6.672 6.567 8.065 8.065 0 0 0 4.991.893c3.756-.525 4.229-3.835 3.888-6.777a19.778 19.778 0 0 0-1.1-4.544 23.957 23.957 0 0 1-14.451 3.861z" class="cls-1" transform="translate(175.167 71.212)"/>
        <path id="Path_1526" fill="#ff9cbd" d="M220.78 225.961a8.065 8.065 0 0 0 4.991.893c3.756-.525 4.229-3.835 3.888-6.777a8.642 8.642 0 0 0-8.879 5.884z" transform="translate(179.299 74.01)"/>
        <path id="Path_1527" d="M320.061 275.6c-15.761-1.13-13.528-25.848-13.528-25.848s-17.652-3.073-16.575-31.863c0 0-9.982 16.628-34.359 18.151-5.254.341 13.134-11.479 13.134-11.479s-24.639 16.129-62.071 5.963c-2.627-.709 9.036-39.612 39.98-50.855s57.185-1.235 74.076 19.1c0 0 21.014 11.873 21.776 32.782s-16.339 44.499-22.433 44.049z" class="cls-1" transform="translate(155.749 .699)"/>
        <path id="Path_1528" d="M314.2 265.8a61.415 61.415 0 0 0 3.257-57.606c-14.395-32.1-66.038-44.839-100.107-22.118 0 0 58.578-10.507 78.384 15.918S314.2 265.8 314.2 265.8z" class="cls-3" transform="translate(173.719)"/>
        <path id="Path_1529" d="M248.768 226.083s15.288-21.014 24.876-15.761-2.128 36.276-13.581 40.3a11.558 11.558 0 0 1-15.393-6.462z" class="cls-2" transform="translate(218.163 56.813)"/>
        <path id="Path_1530" d="M266.242 213.18c.184 0 .21.236 0 .315-8.042 3.074-12.342 10.505-15.42 18.02 2.417-2.889 5.674-4.466 9.588-1.576.21.158 0 .473-.236.42a7.092 7.092 0 0 0-7.88 2.364 35.3 35.3 0 0 0-3.835 6.252c-.394.709-1.681.315-1.392-.5v-.184c.078-10.165 8.221-24.27 19.175-25.111z" class="cls-1" transform="translate(221.993 62.834)"/>
    </g>
</svg>
