<svg xmlns="http://www.w3.org/2000/svg" width="245.141" height="104" viewBox="0 0 245.141 104">
    <defs>
        <style>
            .cls-3{fill:#3a0e7b}
        </style>
    </defs>
    <g id="COSMO_logo" transform="translate(0 10.749)">
        <path id="Rectangle_46" fill="none" d="M0 0H190.139V61.383H0z" transform="translate(0 13.553)"/>
        <text id="COSM" fill="#3a0e7b" font-family="RobotoMono-Bold, Roboto Mono" font-size="79px" font-weight="700" transform="translate(.357 72.251)">
            <tspan x="0" y="0">COSM</tspan>
        </text>
        <g id="Group_76" transform="translate(194.892 16.628)">
            <path id="Path_1027" d="M132.138 32.673c-.882-.995-1.854-2.012-2.917-3.03 1.063-1.017 2.057-2.035 2.917-3.03a20.612 20.612 0 0 0 3.753-5.856 6.025 6.025 0 0 0-.068-5.245 6 6 0 0 0-4.522-2.69 20.166 20.166 0 0 0-6.941.317 39.976 39.976 0 0 0-4.092 1.017c-.317-1.311-.656-2.555-1.04-3.708a3.085 3.085 0 0 0 .972-2.283A3.175 3.175 0 0 0 117.035 5a1.711 1.711 0 0 0-.339.023 13.4 13.4 0 0 0-.791-1.085 6.032 6.032 0 0 0-4.59-2.577 5.964 5.964 0 0 0-4.59 2.577 20.318 20.318 0 0 0-3.188 6.172c-.43 1.266-.814 2.623-1.153 4.047a38.569 38.569 0 0 0-4.092-1.017 20.149 20.149 0 0 0-6.941-.317 6.045 6.045 0 0 0-4.522 2.69 6.025 6.025 0 0 0-.068 5.245 20.124 20.124 0 0 0 3.753 5.856c.882.995 1.854 2.012 2.917 3.03q-.95.916-1.831 1.831a3.174 3.174 0 0 0-4.092 3.03 3.094 3.094 0 0 0 .452 1.628 15.958 15.958 0 0 0-1.2 2.419 6.025 6.025 0 0 0 .07 5.248 6 6 0 0 0 4.522 2.69 14.172 14.172 0 0 0 2.283.181 24.249 24.249 0 0 0 4.657-.5 39.977 39.977 0 0 0 4.092-1.017c.339 1.424.723 2.781 1.153 4.047a20.318 20.318 0 0 0 3.188 6.172 6.032 6.032 0 0 0 4.59 2.577 5.964 5.964 0 0 0 4.59-2.577 20.319 20.319 0 0 0 3.188-6.172c.43-1.266.814-2.623 1.153-4.047 1.243.384 2.464.678 3.617.927a3.163 3.163 0 0 0 5.969.565 9.465 9.465 0 0 0 1.424-.158 6.045 6.045 0 0 0 4.522-2.69 6.025 6.025 0 0 0 .068-5.245 19.211 19.211 0 0 0-3.708-5.88zm-7.325-17.16c4.635-.882 7.958-.43 8.908 1.2.95 1.65-.316 4.748-3.414 8.32a39.434 39.434 0 0 1-2.894 2.984 62.172 62.172 0 0 0-5.72-4.363 62.771 62.771 0 0 0-.927-7.144c1.424-.41 2.758-.748 4.047-.997zM115.43 36.72c-1.357.791-2.736 1.515-4.092 2.193-1.357-.678-2.736-1.424-4.092-2.193s-2.69-1.605-3.957-2.442c-.09-1.515-.136-3.075-.136-4.635 0-1.583.045-3.12.136-4.635 1.266-.837 2.577-1.65 3.957-2.442 1.357-.791 2.736-1.515 4.092-2.193 1.357.678 2.736 1.424 4.092 2.193 1.357.791 2.69 1.605 3.957 2.442.09 1.515.136 3.075.136 4.635 0 1.583-.045 3.12-.136 4.635-1.266.837-2.578 1.651-3.957 2.442zm3.708.588c-.158 1.628-.384 3.188-.656 4.7-1.424-.52-2.894-1.108-4.386-1.763.859-.452 1.7-.927 2.555-1.424.837-.496 1.673-1.016 2.487-1.513zM108.6 40.224c-1.492.656-2.962 1.266-4.386 1.763-.271-1.492-.5-3.075-.656-4.7.814.52 1.65 1.017 2.51 1.515.839.498 1.698.97 2.532 1.422zm-7.8-7.664c-1.311-.95-2.577-1.944-3.73-2.917 1.153-.995 2.419-1.967 3.73-2.917-.045.972-.045 1.944-.045 2.917s.025 1.945.045 2.917zm2.758-10.581c.158-1.628.384-3.188.656-4.7 1.424.52 2.894 1.108 4.386 1.763-.859.452-1.7.927-2.555 1.424-.834.496-1.671.993-2.484 1.513zm10.513-2.917c1.492-.656 2.962-1.266 4.386-1.763.271 1.492.5 3.075.656 4.7-.814-.52-1.65-1.017-2.51-1.515-.811-.494-1.67-.969-2.529-1.421zm7.8 7.664c1.311.95 2.577 1.944 3.73 2.917-1.153.995-2.419 1.967-3.73 2.917.045-.972.045-1.944.045-2.917.025-.994.003-1.966-.042-2.916zM105.844 10.9c1.537-4.454 3.595-7.122 5.494-7.122 1.063 0 2.193.859 3.256 2.4a3.225 3.225 0 0 0-.7 1.99 3.176 3.176 0 0 0 3.1 3.165c.362 1.108.7 2.306.995 3.572a63.975 63.975 0 0 0-6.647 2.758 63.972 63.972 0 0 0-6.647-2.758q.505-2.139 1.149-4.005zM92.369 25.031c-3.075-3.572-4.363-6.67-3.414-8.32.633-1.085 2.306-1.65 4.7-1.65a23.244 23.244 0 0 1 4.205.452 39.255 39.255 0 0 1 4.047 1.017 66.777 66.777 0 0 0-.927 7.144 70.17 70.17 0 0 0-5.72 4.363c-1.06-1.016-2.032-2.011-2.891-3.006zm5.494 18.743c-4.635.882-7.958.43-8.908-1.2-.633-1.108-.271-2.894.995-5.019a2.865 2.865 0 0 0 .769.09 3.175 3.175 0 0 0 3.165-3.165 3.3 3.3 0 0 0-.362-1.492c.543-.588 1.13-1.153 1.763-1.741a62.172 62.172 0 0 0 5.72 4.363 62.771 62.771 0 0 0 .927 7.144 41.127 41.127 0 0 1-4.069 1.02zm18.991 4.612c-1.537 4.454-3.595 7.122-5.494 7.122s-3.957-2.668-5.494-7.122q-.644-1.865-1.153-4a63.974 63.974 0 0 0 6.647-2.758 63.974 63.974 0 0 0 6.647 2.758c-.361 1.4-.723 2.757-1.153 4zm16.889-5.81c-.543.95-1.877 1.492-3.8 1.628a3.161 3.161 0 0 0-5.63-.52c-1.13-.226-2.306-.543-3.5-.9a66.773 66.773 0 0 0 .927-7.144 70.17 70.17 0 0 0 5.72-4.363c1.063.995 2.035 2.012 2.894 2.984 3.046 3.544 4.339 6.664 3.389 8.315z" class="cls-3" transform="translate(-86.202 -1.36)"/>
            <path id="Path_1028" d="M100.107 11.66a5 5 0 1 0 5 5 5 5 0 0 0-5-5zm0 7.574a2.577 2.577 0 1 1 2.577-2.577 2.576 2.576 0 0 1-2.577 2.577z" class="cls-3" transform="translate(-74.971 11.627)"/>
        </g>
    </g>
</svg>
