<svg xmlns="http://www.w3.org/2000/svg" width="611.093" height="491.007" viewBox="0 0 611.093 491.007">
    <defs>
        <style>
            .cls-1{fill:#fff24f}.cls-2{opacity:.2}.cls-3{fill:#37474f}.cls-4{fill:#455a64}.cls-5{fill:#263238}
        </style>
    </defs>
    <g id="freepik--Robot--inject-22" transform="rotate(-153 260.112 235.705)">
        <path id="Path_514" d="M2.04 42.224C-2.263 35.852.468 4.308 8.109.336S65.154 28.8 67.416 33.948s9.144 36.329 3.641 36.109S10.908 55.382 2.04 42.224z" class="cls-1" transform="translate(143.002 367.285)"/>
        <g id="Group_39" class="cls-2" transform="translate(149.441 373.304)">
            <path id="Path_515" d="M1.547.009a1.388 1.388 0 1 0 1.221 1.538A1.388 1.388 0 0 0 1.547.009zm0 0a1.076 1.076 0 0 1 .91 1.379 1.048 1.048 0 0 1-1.145.745A1.048 1.048 0 1 1 1.547.051z" transform="translate(53.374 34.748)"/>
            <path id="Path_516" d="M1.573.013A1.379 1.379 0 0 0 .042 1.075a1.379 1.379 0 0 0 1.214 1.71 1.379 1.379 0 0 0 1.558-1.379A1.379 1.379 0 0 0 1.573.013zm0 0a1.055 1.055 0 0 1-.234 2.1 1.048 1.048 0 0 1-.952-.993A1.076 1.076 0 0 1 1.573.013z" transform="translate(41.818 27.889)"/>
            <path id="Path_517" d="M1.517.028a1.379 1.379 0 1 0 1.242 1.379A1.379 1.379 0 0 0 1.517.028zm0 0a1.062 1.062 0 1 1-.248 2.1 1.062 1.062 0 1 1 .248-2.1z" transform="translate(31.033 20.937)"/>
            <path id="Path_518" d="M1.517.009a1.379 1.379 0 1 0 1.241 1.38A1.379 1.379 0 0 0 1.517.009zm0 0a1.048 1.048 0 1 1-.848.267 1.048 1.048 0 0 1 .848-.267z" transform="translate(20.882 15.052)"/>
            <path id="Path_519" d="M1.547.01a1.388 1.388 0 1 0 1.221 1.538A1.388 1.388 0 0 0 1.547.01zm0 0a1.048 1.048 0 1 1-.234 2.083A1.048 1.048 0 1 1 1.547.01z" transform="translate(10.232 9.548)"/>
            <path id="Path_520" d="M1.517.028a1.379 1.379 0 1 0 1.241 1.379A1.379 1.379 0 0 0 1.517.028zm0 0a1.062 1.062 0 1 1-.248 2.1 1.062 1.062 0 1 1 .248-2.1z" transform="translate(0 4.151)"/>
            <path id="Path_521" d="M56.218 33.226q-6.689-4.689-13.544-9.144c-4.579-2.965-9.2-5.834-13.861-8.675s-9.379-5.518-14.179-8.138S4.979 2.207 0 0c4.869 2.441 9.655 5.062 14.386 7.738s9.42 5.517 14.082 8.275 9.3 5.669 13.917 8.538 9.185 5.749 13.833 8.675z" transform="translate(3.931)"/>
        </g>
        <path id="Path_522" d="M62.873 0C50.46 0-.683 40.839.007 50.246s22.937 29.433 31.419 28.247S67.7 49.308 71.135 43.115 76.183 0 62.873 0z" class="cls-1" transform="translate(69.81 368.407)"/>
        <g id="Group_40" class="cls-2" transform="translate(79.872 390.986)">
            <path id="Path_523" d="M.2.723A1.379 1.379 0 1 0 1.964.116 1.379 1.379 0 0 0 .2.723zm0 0a1.076 1.076 0 0 1 1.586-.3A1.09 1.09 0 0 1 2.033 1.8 1.062 1.062 0 1 1 .2.75z" transform="translate(31.91 .257)"/>
            <path id="Path_524" d="M.2.723A1.379 1.379 0 1 0 1.965.116 1.379 1.379 0 0 0 .2.723zm0 0a1.076 1.076 0 0 1 1.586-.3A1.09 1.09 0 0 1 2.033 1.8 1.062 1.062 0 1 1 .2.75z" transform="translate(22.696 7.815)"/>
            <path id="Path_525" d="M.175.707A1.379 1.379 0 1 0 1.927.114 1.379 1.379 0 0 0 .175.707zm0 0a1.05 1.05 0 1 1 .386 1.434A1.05 1.05 0 0 1 .175.707z" transform="translate(13.755 15.155)"/>
            <path id="Path_526" d="M.193.676A1.379 1.379 0 1 0 1.612.02 1.379 1.379 0 0 0 .193.676zm0 0A1.048 1.048 0 1 1 2.014 1.71 1.048 1.048 0 1 1 .193.676z" transform="translate(5.42 21.958)"/>
            <path id="Path_527" d="M29.447 0a52.928 52.928 0 0 0-8.275 5.214c-2.607 1.945-5.1 4.041-7.531 6.193s-4.758 4.441-7.048 6.745l-3.366 3.53L0 25.323l6.9-6.8c2.359-2.221 4.689-4.469 7.131-6.607s4.869-4.261 7.402-6.289c1.256-1.006 2.552-1.986 3.867-2.937A42.144 42.144 0 0 1 29.447 0z"/>
        </g>
        <path id="Path_528" d="M28.632.317C13.6 2.676.482 14.537.04 15.751s2.842 4.634 5.048 5.349 18.137-6.37 19.312-4.356 7.062 22.978 2.759 32.923c-.786 1.793 8.275 1.145 9.393-.579s2.248-20.4-.883-33.033c-.331-1.379 22.454 2.869 23.323.993s3.008-4.662 1.721-5.641S44.149-2.138 28.632.317z" class="cls-3" transform="translate(112.161 364.407)"/>
        <path id="Path_529" d="M19.541 25.854c9.82-1.283 17.034-8.041 16.11-15.172S26-1.069 16.189.214-.844 8.268.08 15.385 9.707 27.15 19.541 25.854z" class="cls-4" transform="translate(124.356 361.766)"/>
        <path id="Path_530" d="M1.106 1.522c3.807-3.848 14.441.124 21.461 6.1S37.1 23.355 35.049 27.713c-1.379 3.034-8.869 4.841-22.937-5.517S-.756 3.37 1.106 1.522z" class="cls-3" transform="translate(66.187 419.297)"/>
        <path id="Path_531" d="M22.677.121C29.035-1.561 48.73 14.7 49.586 21.679 49.875 24 32 54.546 26.042 54.546S-3.157 27.8.36 21.375 19.339 1 22.677.121z" class="cls-1" transform="translate(46.299 424.159)"/>
        <path id="Path_532" d="M1.461.355c2.124-1.255 6.413.952 8.7 4.5 3.2 4.965 2.938 8.441 1.379 9.958-1.048 1.062-5.765.965-9.517-4.827C-.939 5.376-.222 1.334 1.461.355z" class="cls-3" transform="translate(44.937 445.787)"/>
        <path id="Path_533" d="M.721.868C2.445-.884 7.162.123 10.279 2.936c4.386 3.958 5.048 7.379 4 9.241-.745 1.3-5.31 2.441-10.441-2.165C-.313 6.274-.644 2.247.721.868z" class="cls-3" transform="translate(60.048 466.846)"/>
        <path id="Path_534" d="M22.617 10.329c-2.993 3.807-12.8 13.517-14.827 13.53-5.848 0-8.62-6.151-7.572-8.675C.838 13.694 8.121.219 11.79.012 17.348-.36 24.465 7.97 22.617 10.329z" class="cls-1" transform="translate(50.249 469.218)"/>
        <path id="Path_535" d="M6.024.774C3.886 5.16-.983 16.953.176 20.47s3.945 5.807 5.848 5.351 11.365-11.31 11.516-14.827S7.789-2.895 6.024.774z" class="cls-1" transform="translate(38.747 448.112)"/>
        <path id="Path_536" d="M.781.4C2.685-.814 5.94.91 8.064 3.268c2.758 3.09 2.276 6.151.565 7.131-1.117.634-4.565.317-6.827-3.241C.147 4.565-.736 1.365.781.4z" class="cls-3" transform="translate(49.216 483.975)"/>
        <path id="Path_537" d="M.154 1.374C.747-.46 4.416-.391 6.8 1.181 9.423 2.892 10.374 5.4 9.216 6.7a4.772 4.772 0 0 1-6.551-.331C.554 4.63-.4 3.016.154 1.374z" class="cls-3" transform="translate(38.451 466.077)"/>
        <path id="Path_538" d="M19.239.025C14.784.632 5.157 2.936 1.309 6.839c-2.593 2.593-.965 4.841 1.683 5.3s20.688-.569 23.364-3.328S22.88-.457 19.239.025z" class="cls-1" transform="translate(30.179 484.983)"/>
        <path id="Path_539" d="M.711.544C-.806 1.924.38 12.792 1.7 15.3s4.238 3.437 5.3 1.726S9.028 5.317 8.545 3.855C7.952 2.1 2.863-1.331.711.544z" class="cls-1" transform="translate(38.542 467.665)"/>
        <path id="Path_540" d="M61.049 46.436C53.063 42.146-2.479 12.189.086 3.224s116.588 3.282 120.063 6.414-6.5 41.239-9.3 40.826-47.125-2.553-49.8-4.028z" class="cls-1" transform="translate(145.824 7.407)"/>
        <path id="Path_541" d="M17.994 122.146C10.464 111.567-2.86 22.012.547 13.447S41.4-4.842 50.724 2.717 68.53 115.4 61.882 123.042s-15.875 12.041-23.309 11.186-14.11-2.979-20.579-12.082z" class="cls-1" transform="translate(196.313 181.065)"/>
        <g id="Group_41" class="cls-2" transform="translate(234.135 186.899)">
            <path id="Path_542" d="M2.582.7a1.379 1.379 0 1 0-.414 1.807A1.379 1.379 0 0 0 2.582.7zm0 0A1.062 1.062 0 1 1 1 .359 1.076 1.076 0 0 1 2.582.7z" transform="translate(8.334 111.318)"/>
            <path id="Path_543" d="M2.582.7a1.379 1.379 0 1 0-.414 1.807A1.379 1.379 0 0 0 2.582.7zm0 0a1.049 1.049 0 1 1-1.848 1A1.048 1.048 0 0 1 1 .318 1.076 1.076 0 0 1 2.582.7z" transform="translate(8.706 98.326)"/>
            <path id="Path_544" d="M2.634.747A1.379 1.379 0 0 0 .9.1a1.379 1.379 0 0 0-.721 1.971A1.408 1.408 0 0 0 2.634.692zm0 0A1.048 1.048 0 1 1 1.062.4a1.062 1.062 0 0 1 1.572.347z" transform="translate(8.985 85.07)"/>
            <path id="Path_545" d="M2.582.7a1.379 1.379 0 1 0-.414 1.807A1.379 1.379 0 0 0 2.582.7zm0 0A1.052 1.052 0 1 1 1.154.283 1.052 1.052 0 0 1 2.582.7z" transform="translate(8.044 71.734)"/>
            <path id="Path_546" d="M2.6.736a1.379 1.379 0 1 0-.181 1.551A1.379 1.379 0 0 0 2.6.736zm0 0A1.048 1.048 0 1 1 1.027.391 1.076 1.076 0 0 1 2.6.736z" transform="translate(7.503 58.834)"/>
            <path id="Path_547" d="M2.636.719A1.408 1.408 0 1 0 2.1 2.636 1.408 1.408 0 0 0 2.636.719zm0 0A1.052 1.052 0 1 1 1.208.3a1.052 1.052 0 0 1 1.428.419z" transform="translate(6.473 47.114)"/>
            <path id="Path_548" d="M2.636.719A1.408 1.408 0 1 0 2.1 2.636 1.408 1.408 0 0 0 2.636.719zm0 0A1.048 1.048 0 1 1 1.063.374a1.076 1.076 0 0 1 1.573.345z" transform="translate(4.929 35.294)"/>
            <path id="Path_549" d="M2.6.747a1.379 1.379 0 1 0-.194 1.548A1.379 1.379 0 0 0 2.6.747zm0 0A1.052 1.052 0 1 1 1.177.326 1.052 1.052 0 0 1 2.6.747z" transform="translate(3.484 23.776)"/>
            <path id="Path_550" d="M2.636.719A1.408 1.408 0 1 0 2.1 2.636 1.408 1.408 0 0 0 2.636.719zm0 0A1.048 1.048 0 1 1 1.063.374a1.062 1.062 0 0 1 1.573.345z" transform="translate(2.101 13.17)"/>
            <path id="Path_551" d="M2.6.736a1.379 1.379 0 1 0-.181 1.551A1.379 1.379 0 0 0 2.6.736zm0 0A1.048 1.048 0 1 1 1.027.391 1.062 1.062 0 0 1 2.6.736z" transform="translate(0 2.202)"/>
            <path id="Path_552" d="M10.013 119.677a240.786 240.786 0 0 0 .9-30.1c-.235-10.041-.869-20.068-1.738-30.068-.524-4.993-1.035-10-1.7-14.965S6.1 34.591 5.393 29.626s-1.655-9.9-2.469-14.854L0 0l2.593 14.827c.772 4.965 1.669 9.9 2.345 14.868S6.317 39.626 6.9 44.619 8 54.591 8.482 59.57c.952 9.986 1.669 20 1.972 30.026.138 5.007.221 10.027.138 15.048s-.151 10.026-.579 15.033z" transform="translate(4.613)"/>
        </g>
        <path id="Path_553" d="M.469 120.66c-2.51-6.579 5.682-112.216 9.779-117.236s41.239-4.786 48.535 2.482 12.51 61.307 12.868 71.817S52.8 123.239 49.86 122.3c-25.254-7.557-47.184 4.125-49.391-1.64z" class="cls-1" transform="translate(197.839 56.598)"/>
        <g id="Group_42" class="cls-2" transform="translate(238.26 68.835)">
            <path id="Path_554" d="M2.653.85a1.379 1.379 0 1 0-.635 1.75A1.38 1.38 0 0 0 2.653.85zm0 0A1.053 1.053 0 1 1 1.287.257 1.053 1.053 0 0 1 2.653.85z" transform="translate(0 94.594)"/>
            <path id="Path_555" d="M2.658.861A1.379 1.379 0 1 0 2.023 2.6 1.379 1.379 0 0 0 2.658.861zm0 0A1.05 1.05 0 0 1 .7 1.62a1.048 1.048 0 0 1 .428-1.3 1.076 1.076 0 0 1 1.53.541z" transform="translate(5.181 84.39)"/>
            <path id="Path_556" d="M2.655.855a1.379 1.379 0 1 0-.621 1.738A1.379 1.379 0 0 0 2.655.855zm0 0A1.062 1.062 0 1 1 1.333.191a1.062 1.062 0 0 1 1.322.664z" transform="translate(10.066 74.424)"/>
            <path id="Path_557" d="M2.653.85a1.379 1.379 0 1 0-.635 1.75A1.379 1.379 0 0 0 2.653.85zm0 0a1.062 1.062 0 0 1-.759 1.379A1.062 1.062 0 0 1 1.122.284 1.076 1.076 0 0 1 2.653.85z" transform="translate(13.392 64.582)"/>
            <path id="Path_558" d="M2.688.888a1.391 1.391 0 1 0-.793 1.8 1.391 1.391 0 0 0 .793-1.8zm0 0a1.048 1.048 0 1 1-1.945.759A1.035 1.035 0 0 1 1.171.35a1.048 1.048 0 0 1 1.517.538z" transform="translate(13.413 52.655)"/>
            <path id="Path_559" d="M2.688.888A1.391 1.391 0 1 0 .095 1.895a1.379 1.379 0 0 0 1.972.731A1.379 1.379 0 0 0 2.688.888zm0 0a1.048 1.048 0 1 1-1.945.759A1.034 1.034 0 0 1 1.171.35a1.048 1.048 0 0 1 1.517.538z" transform="translate(11.234 28.159)"/>
            <path id="Path_560" d="M2.655.855a1.379 1.379 0 1 0-.621 1.738A1.379 1.379 0 0 0 2.655.855zm0 0a1.062 1.062 0 0 1-.745 1.379 1.076 1.076 0 0 1-1.2-.662 1.035 1.035 0 0 1 .427-1.3 1.048 1.048 0 0 1 1.518.583z" transform="translate(9.335 2.662)"/>
            <path id="Path_561" d="M2.657.861A1.379 1.379 0 1 0 2.023 2.6 1.379 1.379 0 0 0 2.657.861zm0 0A1.05 1.05 0 1 1 .7 1.62a1.048 1.048 0 0 1 .428-1.3 1.076 1.076 0 0 1 1.529.541z" transform="translate(12.45 40.613)"/>
            <path id="Path_562" d="M2.658.861A1.379 1.379 0 1 0 2.023 2.6 1.379 1.379 0 0 0 2.658.861zm0 0A1.062 1.062 0 0 1 1.9 2.24a1.048 1.048 0 0 1-1.2-.662A1.05 1.05 0 0 1 2.658.82z" transform="translate(9.912 15.731)"/>
            <path id="Path_563" d="M0 102.864C4.138 95 8.1 87.072 11.71 78.962c.91-2.027 1.793-4.069 2.579-6.151.414-1.034.772-2.1 1.1-3.172.179-.538.29-1.117.428-1.669A11.438 11.438 0 0 0 16 66.287a98.125 98.125 0 0 0-.179-13.365c-.634-8.868-1.614-17.682-2.648-26.5l-1.615-13.209c-.552-4.4-1.1-8.8-1.545-13.213.276 4.427.662 8.855 1.048 13.268l1.379 13.241c.869 8.827 1.848 17.641 2.4 26.482a98.464 98.464 0 0 1 .29 13.209c-.069.538-.1 1.09-.179 1.614a10.638 10.638 0 0 1-.372 1.559c-.317 1.048-.676 2.083-1.076 3.117-.772 2.069-1.614 4.138-2.455 6.151C9.324 82.782 7.5 86.768 5.641 90.8S1.9 98.864 0 102.864z" transform="translate(4.239)"/>
        </g>
        <path id="Path_564" d="M.221 41.756c.607 5.765 2.9 29.309 4.262 29.957s7.131 1.876 8.275-.607S16.3 44.57 18.786 43.522s23.64-4.027 34.054 2.152c1.96 1.172 2.62-7.674.76-9.145s-18.289-7.82-33.323-5.7c-1.614.234-5.3-28.8-7.379-30.012s-7.366-1.059-8.663.334-5.2 29.434-4.014 40.605z" class="cls-3" transform="translate(195.962 141.749)"/>
        <ellipse id="Ellipse_6" cx="20.951" cy="15.061" class="cls-4" rx="20.951" ry="15.061" transform="rotate(88.4 28.644 191.486)"/>
        <path id="Path_565" d="M3.284 12.669C-1.944 14.724-1.5 5.773 8.8 2.132c15.682-5.517 42.233.855 45.115 5.779s.262 10.5-.938 8.869S21.959 5.318 3.284 12.669z" class="cls-3" transform="translate(204.803 47.367)"/>
        <path id="Path_566" d="M.828 28.248c-4.041-9.655 7.544-20.523 16.551-24.3 15.585-6.51 24.633-4.51 28.84 2.676C50 13.1 47.226 30.744 32.234 36.744 16.441 43.061 2.7 32.717.828 28.248z" class="cls-3" transform="translate(215.644 283.734)"/>
        <path id="Path_567" d="M4.9 56.57C2.308 52.832-.243 30.944.019 25.909S22.6-.448 44.623.007c0 0-1.117 17.93 12.937 27.585s25.861 2.759 25.861 2.759-11.889 28.9-23.875 31.171C42.141 64.832 4.9 56.57 4.9 56.57z" class="cls-1" transform="translate(215.213 287.301)"/>
        <g id="Group_43" class="cls-2" transform="translate(267.394 321.748)">
            <path id="Path_568" d="M0 26.082a52.215 52.215 0 0 0 4.138-5.972c1.269-2.083 2.4-4.234 3.462-6.413a56.776 56.776 0 0 0 2.758-6.717A62.054 62.054 0 0 0 12.4 0c-.828 2.276-1.614 4.552-2.538 6.786S8 11.241 6.951 13.406s-2.138 4.317-3.3 6.441S1.3 24.04 0 26.082z" transform="translate(2.993)"/>
            <path id="Path_569" d="M2.758 1.369a1.379 1.379 0 1 0-1.213 1.38 1.379 1.379 0 0 0 1.213-1.38zm0 0A1.048 1.048 0 1 1 2.4.553a1.048 1.048 0 0 1 .358.816z" transform="translate(0 18.685)"/>
            <path id="Path_570" d="M2.759 1.371A1.379 1.379 0 1 0 1.531 2.75a1.379 1.379 0 0 0 1.228-1.379zm0 0A1.048 1.048 0 1 1 1.71.323a1.048 1.048 0 0 1 1.049 1.048z" transform="translate(4.041 10.284)"/>
            <path id="Path_571" d="M2.758 1.371A1.379 1.379 0 1 0 1.531 2.75a1.379 1.379 0 0 0 1.227-1.379zm0 0a1.062 1.062 0 0 1-1.227 1.048 1.035 1.035 0 0 1-.869-1.048 1.048 1.048 0 1 1 2.1 0z" transform="translate(8.082 1.898)"/>
        </g>
        <path id="Path_572" d="M1.344 6.063c5.434-8.938 20.951-7.02 28.288-.538 9.02 7.958 13.544 17.1 11.806 25.1-1.586 7.338-14.841 14.454-28.5 5.848C-1.5 27.386-1.194 10.2 1.344 6.063z" class="cls-3" transform="translate(260.147 282.045)"/>
        <path id="Path_573" d="M39.5 64.463C33.858 57.36-5.3 7.914.6.646S106.379 49.8 108.337 54.036 86.049 89.345 83.649 87.855 41.444 66.849 39.5 64.463z" class="cls-1" transform="translate(323.491)"/>
        <path id="Path_574" d="M.068 101.079C-1.6 88.2 27.887 7.855 34.908 1.9s44.66 3.048 49.336 14.11S47 123.85 37.556 127.464s-18.813 2.331-24.992-1.917S1.5 112.154.068 101.079z" class="cls-1" transform="translate(264.002 185.208)"/>
        <g id="Group_44" class="cls-2" transform="translate(290.635 201.45)">
            <path id="Path_575" d="M2.759 1.379a1.379 1.379 0 1 0-1.38 1.379 1.379 1.379 0 0 0 1.38-1.379zm0 0a1.062 1.062 0 1 1-.373-.807 1.062 1.062 0 0 1 .373.807z" transform="translate(0 100.188)"/>
            <path id="Path_576" d="M2.758 1.371A1.379 1.379 0 1 0 1.531 2.75a1.379 1.379 0 0 0 1.227-1.379zm0 0a1.062 1.062 0 1 1-.372-.807 1.062 1.062 0 0 1 .372.807z" transform="translate(6.496 88.942)"/>
            <path id="Path_577" d="M2.759 1.379a1.379 1.379 0 1 0-1.186 1.38 1.379 1.379 0 0 0 1.186-1.38zm0 0a1.048 1.048 0 0 1-2.1 0A1.034 1.034 0 0 1 1.545.331a1.048 1.048 0 0 1 1.214 1.048z" transform="translate(13.061 77.472)"/>
            <path id="Path_578" d="M2.759 1.379a1.379 1.379 0 1 0-1.187 1.379 1.379 1.379 0 0 0 1.187-1.379zm0 0A1.062 1.062 0 1 1 1.531.331a1.076 1.076 0 0 1 1.228 1.048z" transform="translate(18.551 65.225)"/>
            <path id="Path_579" d="M2.758 1.371A1.379 1.379 0 1 0 1.531 2.75a1.379 1.379 0 0 0 1.227-1.379zm0 0a1.062 1.062 0 0 1-1.227 1.048 1.035 1.035 0 0 1-.869-1.048 1.048 1.048 0 0 1 2.1 0z" transform="translate(24.192 53.661)"/>
            <path id="Path_580" d="M2.759 1.371A1.379 1.379 0 1 0 1.531 2.75a1.379 1.379 0 0 0 1.228-1.379zm0 0a1.062 1.062 0 1 1-.373-.807 1.062 1.062 0 0 1 .372.807z" transform="translate(28.895 42.834)"/>
            <path id="Path_581" d="M2.759 1.379a1.379 1.379 0 1 0-1.2 1.379 1.379 1.379 0 0 0 1.2-1.379zm0 0a1.062 1.062 0 1 1-2.11 0 1.062 1.062 0 1 1 2.11 0z" transform="translate(33.143 31.723)"/>
            <path id="Path_582" d="M2.758 1.369a1.379 1.379 0 1 0-1.213 1.38 1.379 1.379 0 0 0 1.213-1.38zm0 0A1.048 1.048 0 1 1 2.4.553a1.048 1.048 0 0 1 .358.816z" transform="translate(37.295 20.919)"/>
            <path id="Path_583" d="M2.758 1.379a1.379 1.379 0 1 0-1.379 1.38 1.379 1.379 0 0 0 1.379-1.38zm0 0a1.048 1.048 0 0 1-1.213 1.048 1.062 1.062 0 1 1 1.213-1.048z" transform="translate(41.198 10.91)"/>
            <path id="Path_584" d="M2.759 1.371A1.379 1.379 0 1 0 1.531 2.75a1.379 1.379 0 0 0 1.228-1.379zm0 0a1.062 1.062 0 0 1-1.228 1.048 1.034 1.034 0 0 1-.869-1.048 1.048 1.048 0 1 1 2.1 0z" transform="translate(44.481 .257)"/>
            <path id="Path_585" d="M0 110.078a245.763 245.763 0 0 0 15.075-26.054c4.565-8.951 8.758-18.082 12.744-27.3 1.917-4.648 3.834-9.282 5.614-13.986s3.531-9.393 5.241-14.11 3.269-9.5 4.9-14.248L48.012 0l-4.759 14.275c-1.683 4.731-3.241 9.5-5.007 14.192s-3.462 9.42-5.351 14.068-3.765 9.3-5.71 13.917c-3.9 9.241-8.027 18.385-12.523 27.364-2.262 4.469-4.565 8.924-7.02 13.3S2.745 105.871 0 110.078z" transform="translate(2.4)"/>
        </g>
        <path id="Path_586" d="M0 104.176C.291 97.141 49.655 3.367 55.351.387s39.764 11.9 43.6 21.475S86.191 83.128 82.4 92.907s-35.336 34.233-37.681 32.33C24.511 108.286-.246 110.355 0 104.176z" class="cls-1" transform="translate(306.301 70.241)"/>
        <g id="Group_45" class="cls-2" transform="translate(348.342 94.641)">
            <path id="Path_587" d="M2.8 1.393A1.379 1.379 0 0 0 1.572.014 1.379 1.379 0 0 0 0 1.393a1.379 1.379 0 0 0 1.572 1.379A1.379 1.379 0 0 0 2.8 1.393zm0 0a1.076 1.076 0 0 1-1.228 1.048A1.062 1.062 0 0 1 .69 1.393a1.062 1.062 0 1 1 2.11 0z" transform="translate(0 83.196)"/>
            <path id="Path_588" d="M2.758 1.379a1.379 1.379 0 1 0-1.379 1.38 1.379 1.379 0 0 0 1.379-1.38zm0 0a1.048 1.048 0 0 1-2.1 0A1.035 1.035 0 0 1 1.531.331a1.062 1.062 0 0 1 1.227 1.048z" transform="translate(8.565 75.582)"/>
            <path id="Path_589" d="M2.758 1.371A1.379 1.379 0 1 0 1.531 2.75a1.379 1.379 0 0 0 1.227-1.379zm0 0a1.062 1.062 0 0 1-1.227 1.048 1.035 1.035 0 0 1-.869-1.048 1.048 1.048 0 1 1 2.1 0z" transform="translate(16.758 68.088)"/>
            <path id="Path_590" d="M2.759 1.371A1.379 1.379 0 1 0 1.531 2.75a1.379 1.379 0 0 0 1.228-1.379zm0 0A1.048 1.048 0 1 1 1.531.309a1.062 1.062 0 0 1 1.227 1.062z" transform="translate(23.489 60.143)"/>
            <path id="Path_591" d="M2.758 1.369a1.379 1.379 0 1 0-1.213 1.38 1.379 1.379 0 0 0 1.213-1.38zm0 0A1.048 1.048 0 1 1 2.4.563a1.048 1.048 0 0 1 .358.806z" transform="translate(27.833 49.083)"/>
            <path id="Path_592" d="M2.593 1.379A1.379 1.379 0 0 0 1.379 0a1.379 1.379 0 0 0 0 2.758 1.379 1.379 0 0 0 1.214-1.379zm0 0a1.048 1.048 0 0 1-1.214 1.048A1.076 1.076 0 0 1 .5 1.379a1.048 1.048 0 1 1 2.1 0z" transform="translate(34.909 25.502)"/>
            <path id="Path_593" d="M2.758 1.369a1.379 1.379 0 1 0-1.213 1.38 1.379 1.379 0 0 0 1.213-1.38zm0 0a1.048 1.048 0 0 1-1.213 1.048 1.076 1.076 0 0 1 0-2.11 1.062 1.062 0 0 1 1.213 1.062z" transform="translate(42.26 1.017)"/>
            <path id="Path_594" d="M2.758 1.371A1.379 1.379 0 1 0 1.531 2.75a1.379 1.379 0 0 0 1.227-1.379zm0 0A1.062 1.062 0 1 1 1.752.31a1.062 1.062 0 0 1 1.006 1.061z" transform="translate(31.309 37.482)"/>
            <path id="Path_595" d="M2.758 1.371A1.379 1.379 0 1 0 1.531 2.75a1.379 1.379 0 0 0 1.227-1.379zm0 0A1.048 1.048 0 1 1 1.531.309a1.062 1.062 0 0 1 1.227 1.062z" transform="translate(38.026 13.401)"/>
            <path id="Path_596" d="M0 92.051c6.689-5.807 13.3-11.737 19.627-17.93 1.586-1.572 3.158-3.145 4.648-4.8.758-.814 1.49-1.669 2.193-2.538.359-.441.662-.938.993-1.379a10.315 10.315 0 0 0 .786-1.5 98.535 98.535 0 0 0 4.717-12.51c2.634-8.482 4.938-17.048 7.2-25.64l3.324-12.882C44.577 8.579 45.667 4.276 46.853 0c-1.379 4.22-2.607 8.482-3.862 12.744l-3.6 12.756c-2.414 8.538-4.7 17.1-7.42 25.53a95.954 95.954 0 0 1-4.565 12.413c-.248.483-.469.979-.745 1.448a10.691 10.691 0 0 1-.924 1.31c-.676.855-1.379 1.7-2.124 2.51-1.476 1.641-3.007 3.241-4.538 4.827-3.1 3.172-6.276 6.275-9.462 9.351S3.227 88.948 0 92.051z" transform="translate(1.545)"/>
        </g>
        <path id="Path_597" d="M8.024 35.905C6.3 41.422-.9 63.987.094 65.117s5.807 4.538 7.793 2.69 13.792-22.964 16.454-22.964 23.3 5.641 30.426 15.447c1.379 1.848 5.448-6.013 4.3-8.11s-13.7-14.4-28.357-18.4c-1.559-.428 6.538-28.55 5.1-30.5S29.471-.59 27.734.169 11.362 25.188 8.024 35.905z" class="cls-3" transform="translate(293.851 143.408)"/>
        <path id="Path_598" d="M30 25.82C34.276 15.075 31.476 3.862 23.739.786S6.277 3.931 2 14.689.526 36.647 8.25 39.722 25.725 36.578 30 25.82z" class="cls-4" transform="translate(295.681 158.279)"/>
        <path id="Path_599" d="M2.542 7.543C-3.072 7.364.873-.733 11.81.054c16.551 1.131 38.44 17.489 39.143 23.157s-3.917 9.738-4.358 7.779S22.6 8.178 2.542 7.543z" class="cls-3" transform="translate(359.11 63.085)"/>
        <path id="Path_600" d="M.024 34.109c.552-3.021 5.765-26.9 8.565-29.1S22.148.014 29.982 0c10.4 0 23.654 5.848 28.426 10.731s7.158 39.515 5.448 40.619-34 1.379-45.612-2.565S-.472 36.84.024 34.109z" class="cls-3" transform="translate(214.089 333.306)"/>
        <path id="Path_601" d="M0 4.462a93.8 93.8 0 0 1 12.51-3.3 37.24 37.24 0 0 1 12.827-.5A58.34 58.34 0 0 1 37.75 4.255a113.076 113.076 0 0 1 11.7 5.517A89.1 89.1 0 0 0 37.833 4.02 57.922 57.922 0 0 0 25.419.3 37.348 37.348 0 0 0 12.5.917 76.835 76.835 0 0 0 0 4.462z" class="cls-5" transform="translate(222.679 335.271)"/>
        <path id="Path_602" d="M0 4.614a96.987 96.987 0 0 1 13.034-3.448A38.993 38.993 0 0 1 26.413.642a61.224 61.224 0 0 1 12.91 3.752 117.234 117.234 0 0 1 12.193 5.779 93.173 93.173 0 0 0-12.11-5.986A61.059 61.059 0 0 0 26.468.311a39.157 39.157 0 0 0-13.475.634A81.518 81.518 0 0 0 0 4.614z" class="cls-5" transform="translate(221.631 338.36)"/>
        <path id="Path_603" d="M0 4.77a101.865 101.865 0 0 1 13.5-3.558A40 40 0 0 1 27.3.66a62.864 62.864 0 0 1 13.484 3.889 118.762 118.762 0 0 1 12.634 5.986 98.967 98.967 0 0 0-12.537-6.206A64.117 64.117 0 0 0 27.475.315a40.923 40.923 0 0 0-13.958.662A85.972 85.972 0 0 0 0 4.77z" class="cls-5" transform="translate(220.707 341.238)"/>
        <path id="Path_604" d="M0 4.78a99.82 99.82 0 0 1 13.5-3.573A40.4 40.4 0 0 1 27.3.669a62.829 62.829 0 0 1 13.484 3.876 121.512 121.512 0 0 1 12.634 5.986 100.756 100.756 0 0 0-12.537-6.193A63.313 63.313 0 0 0 27.475.325a40.248 40.248 0 0 0-13.958.662A84.5 84.5 0 0 0 0 4.78z" class="cls-5" transform="translate(220.707 344.139)"/>
        <path id="Path_605" d="M0 4.918a106.322 106.322 0 0 1 13.972-3.7A42.248 42.248 0 0 1 28.33.656a65.666 65.666 0 0 1 13.792 4.027A124.444 124.444 0 0 1 55.2 10.89a101.252 101.252 0 0 0-12.981-6.414A64.95 64.95 0 0 0 28.33.339a41.668 41.668 0 0 0-14.441.676A90 90 0 0 0 0 4.918z" class="cls-5" transform="translate(219.769 347.228)"/>
        <path id="Path_606" d="M0 5.06a105.608 105.608 0 0 1 14.344-3.793A42.756 42.756 0 0 1 29.088.674a66.866 66.866 0 0 1 14.22 4.138 128.26 128.26 0 0 1 13.42 6.372 104.051 104.051 0 0 0-13.337-6.579A66.716 66.716 0 0 0 29.2.343a43.3 43.3 0 0 0-14.841.69A91.77 91.77 0 0 0 0 5.06z" class="cls-5" transform="translate(218.5 350.589)"/>
        <path id="Path_607" d="M0 5.248A111.189 111.189 0 0 1 14.9 1.3 44.316 44.316 0 0 1 30.205.7a69.83 69.83 0 0 1 14.758 4.286 134.191 134.191 0 0 1 13.944 6.62 110.232 110.232 0 0 0-13.792-6.827A69.506 69.506 0 0 0 30.343.352a44.854 44.854 0 0 0-15.406.731A95.334 95.334 0 0 0 0 5.248z" class="cls-5" transform="translate(217.355 353.753)"/>
        <path id="Path_608" d="M0 5.387a115.506 115.506 0 0 1 15.323-4.055 45.266 45.266 0 0 1 15.71-.621A70.507 70.507 0 0 1 46.2 5.125a131.84 131.84 0 0 1 14.317 6.8A113.57 113.57 0 0 0 46.274 4.9 71.719 71.719 0 0 0 31.1.366a45.873 45.873 0 0 0-15.82.745A98.01 98.01 0 0 0 0 5.387z" class="cls-5" transform="translate(216.597 356.869)"/>
        <path id="Path_609" d="M0 5.387a115.511 115.511 0 0 1 15.323-4.055 45.266 45.266 0 0 1 15.71-.621 71.272 71.272 0 0 1 15.167 4.4 134.571 134.571 0 0 1 14.317 6.813A113.583 113.583 0 0 0 46.274 4.9 71.721 71.721 0 0 0 31.1.366a45.873 45.873 0 0 0-15.82.745A98.015 98.015 0 0 0 0 5.387z" class="cls-5" transform="translate(216.597 360.428)"/>
        <path id="Path_610" d="M0 5.387a113.43 113.43 0 0 1 15.323-4.055A45.61 45.61 0 0 1 31.033.7 72.119 72.119 0 0 1 46.2 5.111a134.579 134.579 0 0 1 14.317 6.814A113.591 113.591 0 0 0 46.274 4.9 70.918 70.918 0 0 0 31.1.366a45.872 45.872 0 0 0-15.82.745A98.011 98.011 0 0 0 0 5.387z" class="cls-5" transform="translate(216.597 363.986)"/>
        <path id="Path_611" d="M0 5.387a113.43 113.43 0 0 1 15.323-4.055A45.612 45.612 0 0 1 31.033.7 72.123 72.123 0 0 1 46.2 5.111 134.572 134.572 0 0 1 60.521 11.9a113.583 113.583 0 0 0-14.247-7A70.918 70.918 0 0 0 31.1.366a46.217 46.217 0 0 0-15.82.731A98.065 98.065 0 0 0 0 5.387z" class="cls-5" transform="translate(216.597 367.544)"/>
        <path id="Path_612" d="M0 5.392a111.425 111.425 0 0 1 15.323-4.055A45.613 45.613 0 0 1 31.033.7 72.117 72.117 0 0 1 46.2 5.116a134.565 134.565 0 0 1 14.317 6.814 111.71 111.71 0 0 0-14.248-7.02A70.923 70.923 0 0 0 31.1.371a45.874 45.874 0 0 0-15.82.731A98.061 98.061 0 0 0 0 5.392z" class="cls-5" transform="translate(216.597 371.098)"/>
        <path id="Path_613" d="M17.771 41.028c-5.793 1.379-11.986-4.386-14.8-9.958C-1.345 22.505-1.166.727 4.875.01s19.986 39.363 12.896 41.018z" class="cls-3" transform="translate(202.949 397.486)"/>
        <path id="Path_614" d="M31.91 98.961C19.387 96.671 3.857 86.134.919 71.459S2.3 0 10.877 0c6.9 0 5.172 21.433 13.875 24.44C35.014 27.971 44.062-3.324 62.088 2.8 77.453 7.986 77 68.259 67.605 86.23c-5.544 10.57-22.233 15.2-35.695 12.731z" class="cls-1" transform="translate(208.52 350.394)"/>
        <g id="Group_46" class="cls-2" transform="translate(266.774 355.567)">
            <path id="Path_615" d="M2.53.891A1.379 1.379 0 0 0 .875.05a1.4 1.4 0 0 0 1.048 2.592A1.379 1.379 0 0 0 2.53.891zm0 0A1.048 1.048 0 1 1 1 .367a1.062 1.062 0 0 1 1.53.524z" transform="translate(1.58 48.127)"/>
            <path id="Path_616" d="M2.664.878A1.379 1.379 0 1 0 2.309 2.4 1.379 1.379 0 0 0 2.664.878zm0 0a1.049 1.049 0 0 1-1.944.787 1.048 1.048 0 0 1 .414-1.3 1.062 1.062 0 0 1 1.531.51z" transform="translate(1.225 36.223)"/>
            <path id="Path_617" d="M2.65.844A1.379 1.379 0 1 0 2.03 2.6 1.379 1.379 0 0 0 2.65.844zm0 0a1.062 1.062 0 1 1-1.958.786A1.062 1.062 0 1 1 2.65.844z" transform="translate(1.059 24.672)"/>
            <path id="Path_618" d="M2.65.844A1.379 1.379 0 1 0 2.03 2.6 1.379 1.379 0 0 0 2.65.844zm0 0a1.062 1.062 0 1 1-1.945.8A1.062 1.062 0 1 1 2.664.858z" transform="translate(.908 13.955)"/>
            <path id="Path_619" d="M2.648.838a1.379 1.379 0 1 0-.607 1.752A1.379 1.379 0 0 0 2.648.838zm0 0A1.048 1.048 0 1 1 1.117.314a1.062 1.062 0 0 1 1.531.524z" transform="translate(0 2.845)"/>
            <path id="Path_620" d="M2.469 52.563A99.87 99.87 0 0 0 3.1 39.4c0-4.4-.193-8.8-.441-13.186s-.634-8.758-1.076-13.13L.869 6.538 0 0l1.062 13.13c.331 4.372.69 8.744.91 13.13s.469 8.758.607 13.144c0 2.193.1 4.386.1 6.579s-.059 4.387-.21 6.58z" transform="translate(4.51)"/>
        </g>
        <path id="Path_621" d="M1.969 41.028c5.779 1.379 11.986-4.4 14.786-9.958C21.085 22.5 20.892.727 14.851.01S-5.134 39.373 1.969 41.028z" class="cls-3" transform="translate(265.811 401.238)"/>
        <path id="Path_622" d="M.058 14.9C-.562 7.172 3.851.51 9.906.028s11.461 5.393 12.068 13.13-3.793 14.385-9.848 14.868S.61 22.634.058 14.9z" class="cls-3" transform="translate(222.262 398.323)"/>
        <path id="Path_623" d="M.049 12.56C-.475 6.036 3.235.423 8.325.023S17.98 4.574 18.5 11.057s-3.2 12.137-8.275 12.551S.56 19.084.049 12.56z" class="cls-1" transform="translate(223.099 400.645)"/>
        <path id="Path_624" d="M6.427.056c4.9-.828 13.71 7.765 16.551 13.958.193.428-.717 4.7-1.586 9.944-.51 3.186-.993 6.744-1.214 10.027 0 .676-2.248-.717-2.248-.717l-4.138-1.3L0 27.627a52.412 52.412 0 0 0 2.758-12.413 6.361 6.361 0 0 0 0-1.379v-.221C2.469 11.007 1.7.856 6.427.056z" class="cls-1" transform="translate(228.444 435.576)"/>
        <path id="Path_625" d="M2.772.262V.041a13.794 13.794 0 0 1 2.128 0c13.789 1.227 14.409 18.951 14.409 18.951l-5.517-.592L0 14.054A52.411 52.411 0 0 0 2.758 1.641 6.358 6.358 0 0 0 2.772.262z" class="cls-5" transform="translate(228.375 449.121)"/>
        <path id="Path_626" d="M37.28 35.809c1.379-7.517-4.979-28.04-10.7-32.1C18.3-2.175 5.958-1.361 1.268 8.321-3.283 17.7 5.406 44.292 11.709 47.864c9.241 5.241 23.571-.938 25.571-12.055z" class="cls-1" transform="translate(216.294 453.723)"/>
        <path id="Path_627" d="M2 4.613C4.291 4.227 3.38-.339 1.215.02S.07 4.944 2 4.613z" class="cls-5" transform="translate(231.602 475.044)"/>
        <path id="Path_628" d="M2.395 4.536C.146 5.184-.985.647 1.1.053s3.17 3.931 1.295 4.483z" class="cls-5" transform="translate(220.064 477.852)"/>
        <path id="Rectangle_37" d="M0 0H1.379V16.027H0z" class="cls-5" transform="rotate(76.06 -188.857 391.108)"/>
        <path id="Path_629" d="M0 1.478a7.862 7.862 0 0 0 2.965-.207A7.709 7.709 0 0 0 5.724.057a7.862 7.862 0 0 0-2.965.207A7.5 7.5 0 0 0 0 1.478z" class="cls-5" transform="translate(222.941 471.352)"/>
        <path id="Path_630" d="M11.186 0L0 3.158s2.345 10.028 10.358 11.034c7.517.9 12.523-4.938 12.523-4.938s-4.565 2.027-7.7-.717C12.441 6.082 11.186 0 11.186 0z" class="cls-4" transform="translate(224.569 490.112)"/>
        <path id="Path_631" d="M13.256 6.722C12.07 2.17 8.222-.754 4.663.171S-.854 5.536.36 10.087s5.034 7.476 8.593 6.551 5.517-5.365 4.303-9.916z" class="cls-3" transform="translate(241.339 464.425)"/>
        <path id="Path_632" d="M11.161 5.663C10.168 1.829 6.927-.64 3.92.146S-.7 4.684.293 8.518s4.248 6.3 7.241 5.517 4.634-4.535 3.627-8.372z" class="cls-1" transform="translate(243.337 465.512)"/>
        <path id="Path_633" d="M1.742 15.772c-1.7-2.331-4-13.792 3.227-15.517 8.606-2.124 17.1 9.572 18.013 14.386.634 3.407-1.241 4.234-1.241 4.234-2.993-7.338-8.8-16.689-16.141-15.42-4.6.814-3.858 12.317-3.858 12.317z" class="cls-3" transform="translate(229.406 433.391)"/>
        <path id="Path_634" d="M37.916 73.963c9.572-8 18.965-61.418 12.413-68.2S13.862-2.157 8.111 4.2-1.075 49.882.3 56.847s27.41 25.681 37.616 17.116z" class="cls-1" transform="translate(320.494 308.237)"/>
        <g id="Group_47" class="cls-2" transform="translate(353.699 322.479)">
            <path id="Path_635" d="M2.739 1.15a1.379 1.379 0 1 0-.652 1.413 1.379 1.379 0 0 0 .652-1.413zm0 0A1.054 1.054 0 1 1 1.5.315a1.053 1.053 0 0 1 1.239.835z" transform="translate(0 38.2)"/>
            <path id="Path_636" d="M2.729 1.1a1.379 1.379 0 1 0-.938 1.6 1.379 1.379 0 0 0 .938-1.6zm0 0a1.062 1.062 0 1 1-1.2-.843 1.062 1.062 0 0 1 1.2.843z" transform="translate(2.079 26.517)"/>
            <path id="Path_637" d="M2.6 1.135A1.379 1.379 0 0 0 1.142 0a1.4 1.4 0 1 0 .524 2.758A1.379 1.379 0 0 0 2.6 1.135zm0 0a1.048 1.048 0 1 1-1.379-.8 1.076 1.076 0 0 1 1.379.8z" transform="translate(4.259 15.071)"/>
            <path id="Path_638" d="M2.739 1.149a1.379 1.379 0 1 0-.654 1.416 1.379 1.379 0 0 0 .654-1.416zm0 0A1.062 1.062 0 0 1 1.732 2.4 1.076 1.076 0 0 1 .67 1.549a1.054 1.054 0 0 1 2.069-.4z" transform="translate(6.041 4.52)"/>
            <path id="Path_639" d="M0 38.357a53.437 53.437 0 0 0 2.869-9.31c.717-3.186 1.241-6.4 1.7-9.655s.731-6.469.965-9.655l.248-4.869L5.862 0l-.869 9.655c-.345 3.227-.648 6.455-1.117 9.655s-.924 6.413-1.531 9.655c-.29 1.586-.634 3.172-1.021 4.745A42.911 42.911 0 0 1 0 38.357z" transform="translate(5.401)"/>
        </g>
        <path id="Path_640" d="M52.457.018c7.669-.662 33.916 17.02 33.681 25.64S12.418 69.794 2 68.415c-5.517-.7 1.559-21.64 6.745-31.957C11.218 31.6 36.665 1.384 52.457.018z" class="cls-1" transform="translate(270.659 371.286)"/>
        <g id="Group_48" class="cls-2" transform="translate(273.327 401.013)">
            <path id="Path_641" d="M2.453 2.245A1.379 1.379 0 1 0 .6 2.521a1.379 1.379 0 0 0 1.848-.276zm0 0a1.062 1.062 0 1 1-.262-1.6 1.076 1.076 0 0 1 .262 1.6z" transform="translate(0 27.602)"/>
            <path id="Path_642" d="M2.448 2.251a1.379 1.379 0 1 0-1.834.276 1.379 1.379 0 0 0 1.834-.276zm0 0a1.056 1.056 0 1 1-.11-1.49 1.056 1.056 0 0 1 .11 1.49z" transform="translate(12.087 21.789)"/>
            <path id="Path_643" d="M2.453 2.245A1.379 1.379 0 1 0 .6 2.521a1.38 1.38 0 0 0 1.853-.276zm0 0a1.062 1.062 0 1 1-.262-1.6 1.076 1.076 0 0 1 .262 1.6z" transform="translate(23.875 16.609)"/>
            <path id="Path_644" d="M2.448 2.251a1.379 1.379 0 1 0-1.834.276 1.379 1.379 0 0 0 1.834-.276zm0 0a1.062 1.062 0 1 1-.262-1.6 1.076 1.076 0 0 1 .262 1.6z" transform="translate(34.445 11.39)"/>
            <path id="Path_645" d="M2.448 2.251a1.379 1.379 0 1 0-1.834.276 1.379 1.379 0 0 0 1.834-.276zm0 0A1.048 1.048 0 1 1 2.2.665a1.062 1.062 0 0 1 .248 1.586z" transform="translate(44.872 5.624)"/>
            <path id="Path_646" d="M2.468 2.3A1.4 1.4 0 1 0 .5 2.468 1.4 1.4 0 0 0 2.468 2.3zm0 0A1.048 1.048 0 1 1 2.206.717 1.062 1.062 0 0 1 2.468 2.3z" transform="translate(55.017)"/>
            <path id="Path_647" d="M0 28.412q7.641-2.965 15.172-6.22c4.993-2.165 9.958-4.427 14.9-6.731s9.82-4.745 14.62-7.3S54.259 2.924 58.852 0c-4.731 2.759-9.558 5.214-14.4 7.682s-9.752 4.842-14.674 7.159-9.875 4.593-14.827 6.9S4.979 26.275 0 28.412z" transform="translate(.826 6.565)"/>
        </g>
        <path id="Path_648" d="M46.753 32.242C51.967 17.94 51.663 1.4 50.822.423S44.367.272 42.671 1.8s-5.9 18.675-8.276 18.675-22.068-4.604-31.571-13.79C1.445 5.306-.734 13.581.245 15.416s16.744 11.861 29.364 15.213c1.379.359-11.724 17.93-12.193 19.9-.662 2.855 2.827 5.958 4.3 5.31S41.36 47 46.753 32.242z" class="cls-3" transform="translate(317.602 357.088)"/>
        <path id="Path_649" d="M1.7 12.6C-1.945 21.811.468 31.41 7.1 34.031S22.054 31.272 25.695 22.1 26.922 3.287 20.3.667 5.3 3.384 1.7 12.6z" class="cls-4" transform="translate(341.171 368.32)"/>
        <path id="Path_650" d="M42.306 13.6c-1.517 5.186-12.758 6.731-21.778 4.827S.266 11.45 0 6.65C-.175 3.3 5.521-1.818 22.831.651S43.064 11.05 42.306 13.6z" class="cls-3" transform="translate(328.877 303.25)"/>
        <path id="Path_651" d="M32.891 51.147C27.512 54.94 3.389 46.554.162 40.306-.914 38.224 3.527 2.253 9.113.17s42.4 15.5 41.377 22.744S35.7 49.161 32.891 51.147z" class="cls-1" transform="translate(333.105 265.566)"/>
        <path id="Path_652" d="M17.019 7.766c-.841 2.3-5.517 3.338-9.572 2.055C1.82 8.028-.18 5.173.013 3.049c.124-1.49 3.82-4.4 10.4-2.331 5.309 1.682 7.282 5.214 6.606 7.048z" class="cls-3" transform="translate(338.964 263.942)"/>
        <path id="Path_653" d="M.04 19.123C1.184 14.448 6.122 1.538 7.97.7c5.324-2.427 10.4 2.055 10.469 4.786 0 1.614-1.034 16.9-4.276 18.62C9.212 26.709-.705 22.047.04 19.123z" class="cls-1" transform="translate(340.068 246.751)"/>
        <path id="Path_654" d="M11.756 7.09c-1.241 1.9-4.9 1.655-7.807.386C.142 5.808-.671 2.815.487 1.215 1.246.18 4.515-.964 8.045 1.353c2.566 1.682 4.704 4.234 3.711 5.737z" class="cls-3" transform="translate(347.165 244.978)"/>
        <path id="Path_655" d="M10.7 19.273C14.16 16.4 21.112 9.356 22.353 3.977 23.18.4 20.6-.643 18.119.363S.837 11.825.051 15.535s7.82 6.151 10.649 3.738z" class="cls-1" transform="translate(347.919 230.52)"/>
        <path id="Path_656" d="M16.88 8.133c-.924 2.289-5.669 3.159-9.655 1.738-5.517-1.986-7.475-4.9-7.2-7.02C.2 1.361 4-1.425 10.494.878c5.268 1.862 7.117 5.462 6.386 7.255z" class="cls-3" transform="translate(351.462 269.244)"/>
        <path id="Path_657" d="M.048 18.746C1.358 14.1 6.723 1.382 8.613.6 14.006-1.653 18.93 3 18.916 5.74c0 1.6-1.614 16.841-4.91 18.454C9 26.636-.766 21.643.048 18.746z" class="cls-1" transform="translate(352.584 252.286)"/>
        <path id="Path_658" d="M11.606 7.368c-1.3 1.848-4.965 1.49-7.82.11C.034 5.685-.669 2.664.545 1.106 1.331.1 4.682-.935 8.089 1.492c2.511 1.779 4.552 4.4 3.517 5.876z" class="cls-3" transform="translate(360.335 250.507)"/>
        <path id="Path_659" d="M10.6 18.955C14.163 16.2 21.349 9.383 22.77 4.059c.952-3.544-1.6-4.675-4.138-3.751S.978 11.176.068 14.886 7.695 21.2 10.6 18.955z" class="cls-1" transform="translate(361.102 236.699)"/>
        <path id="Path_660" d="M14.972 10.1c-1.379 1.972-5.958 1.834-9.42-.3C.71 6.821-.5 3.69.172 1.746c.469-1.38 4.607-3.228 10.276.234 4.565 2.855 5.544 6.579 4.524 8.12z" class="cls-3" transform="translate(362.735 275.301)"/>
        <path id="Path_661" d="M.148 15.509C2.314 11.372 9.927.489 11.844.131c5.517-1.034 9.241 4.331 8.676 6.9-.317 1.517-4.9 15.544-8.276 16.4C6.989 24.736-1.2 18.006.148 15.509z" class="cls-1" transform="translate(364.055 260.751)"/>
        <path id="Path_662" d="M10.082 8.657c-1.6 1.49-4.965.414-7.393-1.462C-.483 4.754-.538 1.761.924.534c.938-.786 4.262-1.09 7.02 1.89 2.014 2.192 3.421 5.076 2.138 6.233z" class="cls-3" transform="translate(374.948 259.065)"/>
        <path id="Path_663" d="M9.307 15.994C13.2 14.119 21.334 9.1 23.748 4.409c1.614-3.145-.565-4.717-3.117-4.359S1.8 6.74.218 10.05s5.89 7.489 9.089 5.944z" class="cls-1" transform="translate(375.957 249.604)"/>
        <path id="Path_664" d="M11.6 11.908c-1.669 1.379-5.765.138-8.276-2.607C-.233 5.439-.537 2.4.567.791 1.325-.3 5.463-.933 9.628 3.549c3.324 3.683 3.297 7.283 1.972 8.359z" class="cls-3" transform="translate(372.892 282.021)"/>
        <path id="Path_665" d="M.36 10.774C3.311 7.657 12.773-.15 14.594 0c5.172.469 7.131 6.151 5.986 8.276-.662 1.271-8.28 12.608-11.489 12.511-4.952-.11-10.579-8.068-8.731-10.013z" class="cls-1" transform="translate(374.395 271.706)"/>
        <path id="Path_666" d="M6.034 10.648c-1.958.5-4.22-1.848-5.365-4.427C-.835 2.841.434.386 2.144.028c1.117-.235 3.958.993 4.883 4.62.689 2.652.551 5.6-.993 6z" class="cls-3" transform="translate(387.479 271.708)"/>
        <path id="Path_667" d="M5.654 9.654c4 .193 12.786-.276 16.827-3.062 2.69-1.862 1.614-4.138-.621-4.91S3.626-1.145.881.841 2.385 9.5 5.654 9.654z" class="cls-1" transform="translate(388.976 271.061)"/>
        <path id="Path_668" d="M.693 0A23.31 23.31 0 0 0 0 5.972a22.578 22.578 0 0 0 .69 5.972A26.205 26.205 0 0 0 .694 0z" class="cls-5" transform="translate(25.995 509.697)"/>
        <path id="Path_669" d="M8.4 0A26.068 26.068 0 0 0 0 8.5 26.427 26.427 0 0 0 8.4 0z" class="cls-5" transform="translate(7.71 504.953)"/>
        <path id="Path_670" d="M11.944.69A26.206 26.206 0 0 0 0 .69a26.206 26.206 0 0 0 11.944 0z" class="cls-5" transform="translate(0 493.505)"/>
        <path id="Path_671" d="M8.441 8.441A26.426 26.426 0 0 0 0 0a23.447 23.447 0 0 0 3.724 4.717 24 24 0 0 0 4.717 3.724z" class="cls-5" transform="translate(8.207 475.175)"/>
        <path id="Path_672" d="M.692 11.944a23.93 23.93 0 0 0 .69-5.972A22.647 22.647 0 0 0 .692 0 23.239 23.239 0 0 0 0 5.972a23.929 23.929 0 0 0 .692 5.972z" class="cls-5" transform="translate(26.755 467.52)"/>
        <path id="Path_673" d="M0 8.441a24 24 0 0 0 4.717-3.724A23.116 23.116 0 0 0 8.441 0 26.426 26.426 0 0 0 0 8.441z" class="cls-5" transform="translate(38.053 475.713)"/>
        <path id="Path_674" d="M0 .688a26.206 26.206 0 0 0 11.93 0A26.206 26.206 0 0 0 0 .688z" class="cls-5" transform="translate(42.191 494.279)"/>
        <path id="Path_675" d="M0 0a26.426 26.426 0 0 0 8.441 8.441 23.034 23.034 0 0 0-3.724-4.7A23.557 23.557 0 0 0 0 0z" class="cls-5" transform="translate(37.488 505.546)"/>
    </g>
</svg>
