<svg xmlns="http://www.w3.org/2000/svg" width="193.293" height="267.748" viewBox="0 0 193.293 267.748">
    <defs>
        <style>
            .cls-1{fill:#263238}.cls-2{fill:#37474f}.cls-3{fill:#ebebeb}.cls-5{fill:#f7a9a0}.cls-6{fill:#fff24f}.cls-7{fill:#455a64}.cls-8{fill:#dbdbdb}.cls-9{fill:#a6a6a6}.cls-12{fill:#fff}
        </style>
    </defs>
    <g id="freepik--character-3--inject-55" transform="translate(-479.978 -111.72)">
        <path id="Path_205" d="M650.977 197.381c7.083 14.044 17.959 29.738 17.967 46.047 0 12.789-6.82 24.454-15.132 33.714-18.3 20.346-49.68 35.988-75.846 20.5-10.445-6.188-20-24.577-12.5-36.216 3.853-5.969 9.954-9.655 15.361-14.114 7.136-5.811 10.945-12.982 11.305-22.225.737-18-5.556-28.088-11.3-44.66-1.053-3.072-1.668-6.293.132-10.085a22.1 22.1 0 0 1 7.092-9.48 21.881 21.881 0 0 1 8.944-5.929c7.382-2.431 17.063 1.036 24.331 2.633s11.858 4.784 15.369 11.516c4.885 9.357 9.511 18.863 14.277 28.299z" class="cls-1" transform="translate(-10.123 -5.18)"/>
        <path id="Path_206" d="M665.607 205.033c-7.32-12.473-14.922-24.779-22.365-37.138 0-.079-.167 0-.123.053 5.863 10.357 11.578 20.776 17.555 31.055 5.881 10.077 12.613 20.03 17.555 30.581 11.174 23.7-9.032 44.44-29.843 52.393-.948.36-.263 1.826.685 1.431 18.073-7.549 36.663-23.225 33.354-45.064-1.8-11.944-10.832-23.12-16.818-33.311z" class="cls-1" transform="translate(-19.943 -6.863)"/>
        <path id="Path_207" d="M580.849 182.063a.214.214 0 0 0-.386.184c5.267 13.412 12.727 28.553 10.375 43.352a36.532 36.532 0 0 1-9.585 19.407c-4.029 4.222-9.181 6.741-13.886 10.068-18.433 13.017-6.372 40.376 13.052 44.4.413.079.571-.614.167-.72-14.044-3.6-24.112-17.011-20.618-31.757 2.8-11.841 17.02-14.86 24.094-23.7 14.685-18.453 5.767-42.336-3.213-61.234z" class="cls-1" transform="translate(-9.566 -8.585)"/>
        <path id="Path_208" d="M645.565 342.139s-1.176 13.254-2.914 32.433l-.158 1.677c-.878 9.418-1.826 20.144-2.853 31.379H579.4c4.319-33.758 8.049-62.847 8.365-65.322v-.176z" class="cls-2" transform="translate(-12.155 -28.168)"/>
        <path id="Path_209" d="M644.3 350.776q-.562 6.952-1.167 13.912c-.114 1.343-.246 2.677-.36 4.02-1.167 13.316-2.4 26.631-3.766 39.929h-.878c1.475-13.684 2.844-27.377 4.231-41.079l.448-4.459q.619-6.162 1.255-12.288c.037-.176.255-.176.237-.035z" class="cls-1" transform="translate(-19.334 -29.213)"/>
        <path id="Path_210" d="M661.956 342.138s-2.747 15.545-6.6 37.322c-.07.351-.132.693-.193 1.062l-4.8 27.1H608.4l-.957-6.311-.184-1.238-.053-.325-.693-4.635-.272-1.755-7.781-51.238z" class="cls-1" transform="translate(-14.485 -28.167)"/>
        <path id="Path_211" d="M676.944 407.63h-57v-.983c-.316-.176-.632-.351-.957-.518-3.353-1.826-6.293-3.248-8.716-4.327l-1.194-.535c-1.1-.474-2.08-.878-2.9-1.194-2.1-.834-3.265-1.2-3.265-1.2-.07-.176-.132-.342-.193-.518-8.26-21.022-13.236-53.06-13.7-56.044v-.228h81.42s2.994 30.139 6.505 65.547z" class="cls-2" transform="translate(-13.331 -28.162)"/>
        <path id="Path_212" d="M679.392 408.84h-.755c-1.492-18.872-2.879-37.743-4.327-56.632a.237.237 0 0 1 .474 0q2.256 28.316 4.608 56.632z" class="cls-1" transform="translate(-23.757 -29.372)"/>
        <path id="Path_213" d="M601.359 405.064a126.86 126.86 0 0 1 19.934 9.278.228.228 0 0 1-.184.413c-6.715-2.879-13.561-5.644-20.144-8.874a.453.453 0 0 1 .4-.816z" class="cls-1" transform="translate(-14.76 -35.856)"/>
        <path id="Path_214" d="M598.938 352.532c0-.237.43-.29.43 0a223.5 223.5 0 0 0 1.124 22.444c.316 3.458 3.1 22.576 9.094 21.18 1.009-.228 1.518-1.22 1.676-2.73.193-1.826-.492-4.055-.8-5.863-.667-4-1.2-8.023-1.545-12.069a110.084 110.084 0 0 1 .246-22.62.193.193 0 1 1 .386 0 208.578 208.578 0 0 0 1.826 31.221c.755 4.977 3.256 12.464-1.94 13.228s-8.725-11.762-9.374-15.194c-1.799-9.575-1.869-19.915-1.123-29.597z" class="cls-1" transform="translate(-14.489 -29.416)"/>
        <path id="Path_215" d="M610.82 402.749a32.833 32.833 0 0 1 1.352 3.959 9.1 9.1 0 0 1 .562 3.265c0 .211-.307.228-.421.088a11.413 11.413 0 0 1-1.387-3.169c-.456-1.229-.939-2.449-1.361-3.687a.668.668 0 0 1 1.255-.456z" class="cls-1" transform="translate(-15.837 -35.525)"/>
        <path id="Path_216" d="M641.881 359.322a10.709 10.709 0 0 1 .255-2.484.132.132 0 0 1 .246 0 10.3 10.3 0 0 1 .281 2.142c.079.825.193 1.65.281 2.475a35.831 35.831 0 0 0 .878 4.994 17.678 17.678 0 0 0 4.582 8.224 23.831 23.831 0 0 0 7.742 5.109c3.221 1.36 6.618 1.87 9.945 2.853.141 0 .1.237-.044.246a28.711 28.711 0 0 1-10.761-2.124 23.128 23.128 0 0 1-8.086-5.157 17.986 17.986 0 0 1-4.7-8.47 25.3 25.3 0 0 1-.649-5.012 23.081 23.081 0 0 1 .03-2.796z" class="cls-1" transform="translate(-19.785 -29.956)"/>
        <path id="Path_217" d="M598.324 235.05c-9.216-2.063-50.743-10.006-60.442-7.478-9.541 2.493-30.23 17.8-14.176 33.574 10.437 10.252 53.209-.219 77.347-8.681 11.078-3.88 16.608-13.088-2.729-17.415z" class="cls-3" transform="translate(-4.623 -14.103)"/>
        <path id="Path_218" fill="#c7c7c7" d="M605.113 254.214c-14.922 5.267-36.988 11.235-54.113 12.631l62.32-25.455c4.81 4.538-.272 10.041-8.207 12.824z" transform="translate(-8.683 -15.852)"/>
        <path id="Path_219" d="M541.21 182.72c-2.238-4.836-40.131-6.662-40.315 1.176-.878 36.865 14.816 64.7 19.732 70.079 6.451 7.022 18.125 4.564 22.1-.255 5.773-6.995.695-66.22-1.517-71z" class="cls-5" transform="translate(-2.553 -8.17)"/>
        <path id="Path_220" d="M502.362 186.677c-3.713-3.511-16.265-25.455-18.275-31.169s-6.6-22.532-2.388-24.516 5.951 2.835 5.951 2.835-1.009-8.1 3.608-9.014c3.678-.737 6.478 5.916 6.478 5.916s-.632-8.935 4.055-9.26c4.283-.3 5.495 7.636 5.495 7.636s.219-7.531 4.389-7.022c5.021.606 4.635 13.64 7.32 19.767.615 1.4 14.4 27.324 14.4 27.324z" class="cls-5" transform="translate(0 -1.191)"/>
        <path id="Path_221" d="M511.369 129.818c.711 9.8 1.29 13.825 6.144 21.944.1.158-.123.334-.237.176-5.442-7.522-6.469-12.288-6.337-22.154-.027-.484.403-.422.43.034z" class="cls-1" transform="translate(-3.784 -2.167)"/>
        <path id="Path_222" d="M500.249 132.008c.606 9.971 2.414 14.421 6.838 23.3.062.123-.14.237-.219.123-5.065-8.347-7.645-13.43-6.943-23.48.052-.461.298-.4.324.057z" class="cls-1" transform="translate(-2.425 -2.434)"/>
        <path id="Path_223" d="M488.959 136c1.273 9.655 2.853 14.755 8.251 22.821a.178.178 0 0 1-.281.219c-6.311-7.689-8.321-14.044-8.26-22.962-.026-.612.185-.678.29-.078z" class="cls-1" transform="translate(-1.062 -2.917)"/>
        <path id="Path_224" d="M523.524 117.39v56.474a6.662 6.662 0 0 1-13.324 0V117.39z" class="cls-3" transform="translate(-3.695 -.693)"/>
        <path id="Path_225" d="M522.859 136v40.1a5.89 5.89 0 1 1-11.779 0V136z" class="cls-6" transform="translate(-3.802 -2.968)"/>
        <path id="Rectangle_33" d="M0 0H17.502V8.777H0z" class="cls-7" transform="translate(504.416 111.72)"/>
        <path id="Path_226" d="M543.264 179.614s-.237-23.813-6.381-28.141c-5.135-3.608-17.555-14.255-21.6-11s1 9.8 8.918 18.231c0 0-3.967 15.325 3.713 20.522s15.35.388 15.35.388z" class="cls-5" transform="translate(-4.141 -3.441)"/>
        <path id="Path_227" d="M543.776 200.856l-46.7-4.046s9.313 49.329 24.919 61.381c5.591 4.319 17.028 4.678 21.224-2.94s.557-54.395.557-54.395z" class="cls-3" transform="translate(-2.091 -10.402)"/>
        <path id="Path_228" d="M502.482 209.222c17.766 2.633 36.865 2.633 40.148 2.9a.123.123 0 0 0 0-.246c-3.274-.07-25.051-2.484-40.148-2.923-.175.041-.167.247 0 .269z" class="cls-1" transform="translate(-2.736 -11.887)"/>
        <path id="Path_229" d="M553.245 243.09c-.193-1.1-.448-2.194-.746-3.274v-.439a74.848 74.848 0 0 0-.781-12.051c0-.14-.237-.14-.237 0 .079 3.994.1 7.979.079 11.972s0 7.961-.29 11.946c0 .07.123.079.132 0 .483-3.45.878-6.943 1.036-10.428.421 1.984.878 3.967 1.2 5.969 0 .079.149.079.132 0-.17-1.229-.306-2.458-.525-3.695z" class="cls-1" transform="translate(-8.716 -14.12)"/>
        <path id="Path_230" d="M583.75 344.327l6.89-38.3a31.854 31.854 0 0 1-6.8-22.032c.772-9.541 19.038-45.1 20.794-46.731 7.022-6.566 18.933-3.95 23.813-.263 27.026 20.425 37.287 64.251 46.433 107.331z" class="cls-6" transform="translate(-12.686 -14.855)"/>
        <path id="Path_231" d="M601.878 239.46l-17.757 155.625H572.71s14.307-86.6 14.237-87.327-8.777-10.287-6.346-23.4 19.574-43.704 21.277-44.898z" class="cls-3" transform="translate(-11.337 -15.616)"/>
        <path id="Path_232" d="M604.059 243.43c-.878 2.256-1.755 4.45-2.721 6.645s-1.852 4.441-2.8 6.645c-1.887 4.389-3.818 8.821-5.758 13.21l-.193-.834c2.089 1.694 6.311 5.6 6.311 5.6l-7.487 10.217s.667 31.028.878 33.855c-.544-2.782-2.168-34.171-2.168-34.171l7.426-10.129.193.983-6.144-5.266-.4-.36.219-.474q3.054-6.53 6.206-13.008c1.036-2.168 2.107-4.319 3.177-6.478s2.19-4.302 3.261-6.435z" class="cls-8" transform="translate(-13.465 -16.102)"/>
        <path id="Path_233" d="M623.372 234.4c-.483 1.7-8.251 11.727-16.142 10.972-2.563-.246-2.861-13.517-2.861-13.517l-.184-1.053-2.554-14.72 17.643-10.156 2.545-1.334s.43 4.073.878 9.155a6.871 6.871 0 0 0 .07.72c.026.246.07.562.088.825.088.764.167 1.536.228 2.309.053.588.105 1.159.14 1.755s.079 1.229.123 1.852a95.156 95.156 0 0 1 .026 13.192z" class="cls-5" transform="translate(-14.872 -11.354)"/>
        <path id="Path_234" d="M622.74 213.725a29.993 29.993 0 0 1-18.556 17.055l-2.554-14.72 17.643-10.16 2.545-1.334s.43 4.094.922 9.159z" class="cls-1" transform="translate(-14.872 -11.351)"/>
        <path id="Path_235" d="M579.5 184.259c-5.53 25.639 9.2 31.845 14.729 33.03 5.021 1.08 22.251 4.108 30.4-20.82s-2.019-35.6-13.368-38.674-26.205.825-31.761 26.464z" class="cls-5" transform="translate(-12.018 -5.523)"/>
        <path id="Path_236" d="M585.863 184.425a15.644 15.644 0 0 0 1.808-.123 2.914 2.914 0 0 0 1.817-.465.93.93 0 0 0 .158-1.132 2.308 2.308 0 0 0-2.177-.878 3.405 3.405 0 0 0-2.282.878 1 1 0 0 0 .676 1.72z" class="cls-1" transform="translate(-12.825 -8.567)"/>
        <path id="Path_237" d="M605.162 187.662a16.29 16.29 0 0 1-1.694-.623 2.923 2.923 0 0 1-1.615-.966.931.931 0 0 1 .158-1.123 2.317 2.317 0 0 1 2.335-.211 3.371 3.371 0 0 1 1.94 1.492.992.992 0 0 1-1.124 1.431z" class="cls-1" transform="translate(-14.885 -8.9)"/>
        <path id="Path_238" d="M600.572 195c0-.07.123.105.114.176-.351 1.755-.456 3.818 1.036 4.67v.1c-1.931-.612-1.764-3.346-1.15-4.946z" class="cls-1" transform="translate(-14.692 -10.179)"/>
        <path id="Path_239" d="M602.473 193.2c2.862.263 2.133 5.977-.527 5.74s-1.913-5.916.527-5.74z" class="cls-1" transform="translate(-14.706 -9.961)"/>
        <path id="Path_240" d="M603.947 193.7c.456.386.878 1.018 1.466 1.159s1.29-.377 1.826-.878c.053-.053.1 0 .088.079-.123 1.1-.693 2.168-1.887 2.186s-1.755-1.062-1.87-2.194c-.018-.226.202-.506.377-.352z" class="cls-1" transform="translate(-15.109 -10.017)"/>
        <path id="Path_241" d="M589.072 192.387c0-.07-.149.079-.149.149-.07 1.755-.439 3.818-2.1 4.3-.053 0-.053.105 0 .1 1.994-.142 2.468-2.846 2.249-4.549z" class="cls-1" transform="translate(-13.057 -9.86)"/>
        <path id="Path_242" d="M587.368 190.147c-2.844-.421-3.511 5.266-.825 5.7s3.213-5.358.825-5.7z" class="cls-1" transform="translate(-12.82 -9.585)"/>
        <path id="Path_243" d="M585.928 190.276c-.535.272-1.088.79-1.694.79s-1.167-.667-1.562-1.29c-.044-.07-.1 0-.105.053-.132 1.1.167 2.265 1.325 2.563s1.931-.623 2.326-1.7c.07-.205-.071-.521-.29-.416z" class="cls-1" transform="translate(-12.538 -9.539)"/>
        <path id="Path_244" d="M597.925 210.607a2.7 2.7 0 0 1-1.589.878 4.819 4.819 0 0 1-1.878-.606.061.061 0 0 0-.079.088 2.4 2.4 0 0 0 2.177 1.15 1.9 1.9 0 0 0 1.527-1.457.1.1 0 0 0-.158-.053z" class="cls-1" transform="translate(-13.985 -12.086)"/>
        <path id="Path_245" d="M590.581 199.763a34.525 34.525 0 0 0-.878 3.836c0 .114.281.211.7.3h.044a5.977 5.977 0 0 0 6.065-1.413c.105-.105 0-.255-.158-.193a9.006 9.006 0 0 1-5.626.79c0-.351 1.4-4.389 1.2-4.433a10.777 10.777 0 0 0-2.914.246c1.369-5.442 3.6-10.621 4.889-16.054 0-.193-.237-.3-.316-.132-2.721 5.267-4.441 11.49-6 17.072-.218.727 2.476.118 2.994-.019z" class="cls-1" transform="translate(-13.154 -8.668)"/>
        <path id="Path_246" d="M626.364 195.7c-4.459.351-5.486-9-5.486-9s-9.058 0-12.043-12.991a20.013 20.013 0 0 0 4.011 10.761s-15.966-1.694-22.69-15.053c0 0 2.633 6.811 5.2 9.225 0 0-6.7-1.87-9.962-7.3 0 0-2.8 7.715-4.951 9.84 0 0 .658-27.939 26.543-24.963 0 0 16.2 1.071 22.023 13.9s-2.645 25.581-2.645 25.581z" class="cls-1" transform="translate(-12.282 -5.413)"/>
        <path id="Path_247" d="M615.379 190.45s15.562 2.976 18.5 5.5c1.2 1.027-.158 6.68-1.132 7.373-.623.439-9.076-3.371-18.169-4.6.002.004 1.678-4.723.801-8.273z" class="cls-9" transform="translate(-16.455 -9.625)"/>
        <path id="Path_248" fill="#fff" d="M579 195.4a7.36 7.36 0 0 0 .65.878c.957 1.062 2.221 1.562 4.389 1.027 1.4-.36 2.484-1.755 4.757-1.475a7.786 7.786 0 0 1 3.932 1.439 21.531 21.531 0 0 1 2.159 1.756c.176.14.342.3.518.456s.325.272.5.4a6.669 6.669 0 0 0 .878.527c3.371 1.808 8.971 1.878 11.112.29 1.957-1.457 3.458-5.705 3.23-9.8a12.984 12.984 0 0 0-.395-2.633 10.179 10.179 0 0 0-.974-2.4 4.271 4.271 0 0 0-.237-.395 6.144 6.144 0 0 0-.8-.992c-2.036-2.107-5.96-3.8-10.235-4.819l-1.308-.281c-.948-.193-1.913-.351-2.861-.483-1.1-.14-2.194-.237-3.248-.272-3.748-.149-7.022.386-8.777 1.755a8.927 8.927 0 0 0-2.633 3.959 14.978 14.978 0 0 0-.676 2.238 21.26 21.26 0 0 0-.351 7.426 4.186 4.186 0 0 0 .369 1.4z" opacity="0.2" transform="translate(-12.04 -8.176)"/>
        <g id="Group_28" opacity="0.2" transform="translate(566.491 170.424)">
            <path id="Path_249" d="M579.014 196.921a7.349 7.349 0 0 0 .649.878l8.777-4.389a1.237 1.237 0 0 0 .562-1.677 1.273 1.273 0 0 0-1.44-.658 1.378 1.378 0 0 0-.246.088l-8.777 4.389a4.186 4.186 0 0 0 .474 1.369z" class="cls-12" transform="translate(-578.54 -180.121)"/>
            <path id="Path_250" d="M594.68 198.6a21.512 21.512 0 0 1 2.159 1.755l16.212-8.128a12.989 12.989 0 0 0-.4-2.633z" class="cls-12" transform="translate(-580.513 -179.944)"/>
            <path id="Path_251" d="M600.448 191.686a.878.878 0 0 0 .965.439.544.544 0 0 0 .167-.061l10.8-5.407a4.263 4.263 0 0 0-.237-.395 6.15 6.15 0 0 0-.8-.992l-10.533 5.267a.878.878 0 0 0-.362 1.149z" class="cls-12" transform="translate(-581.208 -179.415)"/>
            <path id="Path_252" d="M579 186.57l15.343-7.7c-1.1-.14-2.194-.237-3.248-.272l-11.411 5.732a14.956 14.956 0 0 0-.684 2.24z" class="cls-12" transform="translate(-578.596 -178.6)"/>
            <path id="Path_253" d="M582.392 187.558a.43.43 0 0 0 .483.219h.088l15.94-8-1.308-.281-15.018 7.461a.421.421 0 0 0-.184.6z" class="cls-12" transform="translate(-579.004 -178.71)"/>
            <path id="Path_254" d="M598.3 202.187a6.659 6.659 0 0 0 .878.527l8.224-4.125a.423.423 0 0 0-.29-.79h-.088z" class="cls-12" transform="translate(-580.956 -180.945)"/>
        </g>
        <path id="Path_255" d="M595.029 199.7c-3.072-2.581-4.239-3.423-6.355-3.511a5.9 5.9 0 0 0-3.107.834 7.485 7.485 0 0 1-1.519.623c-2.528.641-4.687-.193-5.512-2.124-1.211-2.835-1.185-11.867 3.362-15.519 2.756-2.221 8.839-2.186 13.614-1.4 5.144.825 11.964 3.055 14.237 6.574 3.371 5.267 1.29 13.166-1.756 15.8a6.249 6.249 0 0 1-2.537 1.246 12.7 12.7 0 0 1-10.428-2.519zm14.044-14.088c-1.755-2.7-7.11-5.144-13.667-6.206-5.855-.948-10.823-.474-12.947 1.238-4.169 3.353-4.213 11.946-3.107 14.527.79 1.852 2.853 2.063 4.52 1.641a7.847 7.847 0 0 0 1.361-.562 6.574 6.574 0 0 1 3.511-.922c2.475.123 3.888 1.229 6.855 3.722 3.344 2.809 9.357 3.423 11.911 1.22 2.791-2.405 4.6-9.927 1.554-14.658z" class="cls-9" transform="translate(-11.966 -8.117)"/>
        <path id="Path_256" d="M625.676 202.465s6.706-7.4 10.129-4.907-2.326 13.719-6.855 14.781a4.441 4.441 0 0 1-5.6-3.107z" class="cls-5" transform="translate(-17.528 -10.431)"/>
        <path id="Path_257" d="M634.36 201.25c.07 0 .07.1 0 .114-3.186.878-5.144 3.458-6.627 6.232 1.044-1.009 2.352-1.466 3.713-.2.079.061 0 .184-.1.149a2.739 2.739 0 0 0-3.1.571 12.946 12.946 0 0 0-1.755 2.229c-.184.255-.65 0-.509-.255v-.07c.487-3.873 4.174-8.911 8.378-8.77z" class="cls-1" transform="translate(-17.847 -10.945)"/>
        <circle id="Ellipse_4" cx="1.431" cy="1.431" r="1.431" class="cls-12" transform="translate(607.868 200.653)"/>
        <path id="Path_258" d="M604.81 237.165l.7 7.312c.342 8.005.667 19.907 2.4 19.907 1.4 0 15.229-22.979 15.8-26.078s-18.9-1.141-18.9-1.141z" class="cls-5" transform="translate(-15.261 -15.261)"/>
        <path id="Path_259" d="M688.627 394.417H612.07L624.982 234s2.747-.193 9.568 4.538c7.284 5.038 16.45 15.369 26.45 37.014 23.116 50.006 27.627 118.865 27.627 118.865z" class="cls-3" transform="translate(-16.149 -14.949)"/>
        <path id="Path_260" d="M629.826 253.053c2.265 8.356 20.443 69.07 20.364 72.221 0 0 34.776 20.337 40.71.553 3.862-12.859-30.914-66.463-48.1-82.438-7.9-7.329-17.74-7.882-12.974 9.664z" class="cls-3" transform="translate(-18.166 -15.508)"/>
        <path id="Path_261" d="M646.37 308.8c-.729-2.949-1.536-5.872-2.352-8.777-1.6-5.776-3.186-11.569-4.986-17.274-1.036-3.283-1.984-6.583-2.993-9.866 0-.053-.088 0-.079 0q1.659 6.688 3.4 13.368c-.184-.342-.36-.685-.544-1.018-.685-1.255-1.369-2.5-2.107-3.722a.088.088 0 0 0-.149.088c.764 1.624 1.589 3.221 2.44 4.792.255.465.5.939.764 1.4.237.878.465 1.826.711 2.73 1.545 5.793 3.046 11.613 4.819 17.336 1.009 3.274 1.922 6.6 3.081 9.831a.07.07 0 0 0 .132-.044c-.592-2.959-1.417-5.891-2.137-8.844z" class="cls-1" transform="translate(-19.069 -19.7)"/>
        <path id="Path_262" d="M625.713 234c1.167 2.633 9.207 26.332 11.411 31.757l.2.483-.43.342c-2.879 2.282-5.784 4.538-8.7 6.794l.149-1.115 8.084 10.682.272.36-.167.4c-2.335 5.925-17.178 33.205-18.485 36.111 1.009-3.02 14.711-30.721 17.02-36.681l.105.764-8.1-10.682-.474-.623.623-.483q4.389-3.353 8.777-6.662l-.228.825c-2.079-5.395-9.109-29.507-10.057-32.272z" class="cls-8" transform="translate(-16.88 -14.949)"/>
        <path id="Rectangle_34" d="M0 0H79.05V60.723H0z" class="cls-7" transform="rotate(-67.68 514.196 -263.45)"/>
        <path id="Rectangle_35" d="M0 0H28.781V8.725H0z" class="cls-9" transform="rotate(-157.74 341.658 67.996)"/>
        <path id="Path_263" d="M633.56 261.334l3.283 1.343 1.519-3.722 7.97 3.265-1.518 3.722 3.283 1.343 2.774-6.785-14.579-5.96z" class="cls-9" transform="translate(-18.776 -17.46)"/>
        <path id="Path_264" d="M638.1 301.45c-4.88-.184-31.028 25.946-24.7 29.361 29.773 16.054 59.064 14.825 65.515 13.043 8.453-2.326 11.279-12.912 8.988-18.178-3.303-7.628-44.963-24.042-49.803-24.226z" class="cls-5" transform="translate(-16.192 -23.195)"/>
        <path id="Path_265" d="M587.312 274.5c-3.116 2.826-1.29 6.794-1.29 6.794a8.962 8.962 0 0 0-5.266 3.063c-2.238 2.949 1.4 7.751 1.4 7.751a11.007 11.007 0 0 0-5.047 4.125c-1.861 3.028 1.115 8.4 1.115 8.4a9.7 9.7 0 0 0-2.159 6.425c.456 6.214 8.874 10.665 14.193 13.544s24.849 5.486 28.176 6.443l18.3-32.538s-21.417-20.6-28.158-23.1c-5.701-2.107-17.762-4.077-21.264-.907z" class="cls-5" transform="translate(-11.746 -19.697)"/>
        <path id="Path_266" d="M587.972 282c6.574.79 12.552 3.511 18.679 5.828.132.053.053.272-.088.211-6.056-2.4-12.525-3.572-18.67-5.732a.159.159 0 1 1 .079-.307z" class="cls-1" transform="translate(-13.178 -20.816)"/>
        <path id="Path_267" d="M583.364 294.35a16.935 16.935 0 0 1 4.24 1.536c1.466.641 2.914 1.317 4.389 2.01 2.879 1.387 5.74 2.844 8.549 4.389.123.061.044.272-.088.211-2.879-1.387-5.776-2.721-8.707-3.976q-2.212-.948-4.389-1.852a20.935 20.935 0 0 1-4.09-1.914.228.228 0 0 1 .1-.4z" class="cls-1" transform="translate(-12.617 -22.327)"/>
        <path id="Path_268" d="M578.629 309.12a11.5 11.5 0 0 1 3.748 1.589l3.915 1.957c2.633 1.29 5.267 2.581 7.9 3.783.132.061 0 .272-.088.211-2.7-1.2-5.433-2.37-8.128-3.608-1.326-.6-2.633-1.211-3.967-1.826a11.5 11.5 0 0 1-3.449-1.975.088.088 0 0 1 .07-.132z" class="cls-1" transform="translate(-12.05 -24.133)"/>
        <path id="Path_269" d="M644.651 301.51l-22.751 36.5s44.2 12.929 60.565 5.188c5.863-2.774 10.919-11.972 6.443-18.582s-44.257-23.106-44.257-23.106z" class="cls-3" transform="translate(-17.35 -23.202)"/>
        <path id="Path_270" d="M634.306 339.417c9.524-13.438 17.5-28.966 19.082-31.6.079-.123-.132-.228-.2-.105-1.422 2.633-12.464 19.451-19.109 31.6-.071.131.131.245.227.105z" class="cls-1" transform="translate(-18.837 -23.954)"/>
        <path id="Path_271" d="M680.833 317.225c-2.677-1.641-5.372-3.265-8.1-4.819l1.615.413c1.053.281 2.1.588 3.133.878a.1.1 0 0 0 .07-.176 16.8 16.8 0 0 0-3.107-1.062 17.745 17.745 0 0 0-2.335-.386c-1.238-.7-2.484-1.4-3.748-2.063a127.041 127.041 0 0 0-13.061-5.863c-2.449-.974-4.915-1.984-7.443-2.747a.2.2 0 0 0-.228.1l-.878 1.246c0 .07.061.132.114.079l.957-.974c2.063 1.027 4.222 1.878 6.337 2.782s4.389 1.852 6.513 2.818c4.389 1.949 8.637 3.976 12.885 6.144 2.414 1.229 4.8 2.51 7.189 3.774a.083.083 0 0 0 .088-.14z" class="cls-1" transform="translate(-20.388 -23.188)"/>
        <path id="Path_272" d="M680.847 348.332c-2.449 1.159-6.46 1.51-10.164 1.6-1.826 0-3.66-.1-5.468-.219s-3.862-.316-5.793-.518a234.692 234.692 0 0 1-24.077-3.651c-2.194-.474-4.389-.974-6.557-1.519l-3.362-.878a22.621 22.621 0 0 1-3-.878c.4-.808.808-1.615 1.2-2.431a.071.071 0 1 0-.123-.07c-.544.834-1.378 2.2-1.914 3.037-.07.105 9.927 2.993 11.937 3.511q6.039 1.422 12.183 2.379c4.108.65 8.242 1.141 12.376 1.519a90.737 90.737 0 0 0 11.656.509c5.46-.219 9.427-1.194 11.209-2.194a.11.11 0 0 0-.103-.197z" class="cls-1" transform="translate(-17.312 -27.875)"/>
    </g>
</svg>
