<svg xmlns="http://www.w3.org/2000/svg" width="405" height="286" viewBox="0 0 405 286">
    <defs>
        <style>
            .cls-2{fill:#b97964}.cls-3{fill:#fff24f}.cls-4{opacity:.2}.cls-12,.cls-4{isolation:isolate}.cls-5{fill:#2e353a}.cls-7{fill:none;stroke:#2e353a;stroke-linecap:round;stroke-linejoin:round;stroke-width:.725px}.cls-12{fill:#fff;opacity:.4}
        </style>
    </defs>
    <g id="Group_277" transform="translate(-758 -4628)">
        <path id="skeleton-414543_1920" fill="#f4e130" d="M0 0H405V286H0z" transform="translate(758 4628)"/>
        <g id="freepik--Teacher--inject-762" transform="translate(643.98 4523.74)">
            <path id="Path_1613" d="M294.412 184.113l-12.134-7.073a24.087 24.087 0 0 1-5.792-.267c-3.143-.542-3.819-.574-3.442-3.049s-.149-5.776.786-6.122 7.552 2.444 8.7 4.338l12.244 4.377z" class="cls-2" transform="translate(-5.98 -8.124)"/>
            <path id="Path_1614" d="M334.705 173.37v14.146s-3.018 1-6.766 2.043c-4.3 1.195-9.556 2.452-12.291 2.358-5.108-.251-22.4-9.226-22.4-9.226l3.143-5.988s18.861 6.428 21.219 5.965 17.095-9.298 17.095-9.298z" class="cls-3" transform="translate(-10.327 -9.366)"/>
            <path id="Path_1615" d="M344.156 182.14v7.26s-3.018 1-6.766 2.043c1.383-4.211 4.833-7.643 6.766-9.303z" class="cls-4" transform="translate(-19.779 -11.244)"/>
            <path id="Path_1616" d="M342.942 237.44s-8.519 45.392-10.79 64.033c-2.971 24.315-15.112 59.884-15.112 59.884l4.857 1.257s17.116-30.225 20.433-57.424c13.6-27.8 14.688-62.029 14.688-62.029z" class="cls-2" transform="translate(-15.421 -23.085)"/>
            <path id="Path_1617" d="M305.458 406.61a7.017 7.017 0 0 1 2.491-.629s2.986-1.76 5.949-8.582h3.324a2.751 2.751 0 0 1 2.554 1.831 1.572 1.572 0 0 1 .094.464 18.922 18.922 0 0 1-.252 2.358 67.906 67.906 0 0 1-1.949 7.859l-.566-.149 1.029-4.959c.338-1.69-1.43-.063-2.255 1.642s-2.083 3.411-5.753 2.57c-4.281-1.015-6.009-1.634-4.666-2.405z" class="cls-5" transform="translate(-12.846 -57.336)"/>
            <path id="Path_1618" d="M361.29 236.52s1.061 46.17 2.7 64.882c2.122 24.4-2.4 61.715-2.4 61.715l5.014.22s10.491-33.109 8.134-60.41c7.552-30.013 1.572-63.727 1.572-63.727z" class="cls-2" transform="translate(-24.896 -22.888)"/>
            <path id="Path_1619" d="M351.634 408.209a7.073 7.073 0 0 1 2.413-.9s2.782-2.067 4.982-9.171l3.309-.377a2.727 2.727 0 0 1 2.735 1.572 1.492 1.492 0 0 1 .141.448 19.01 19.01 0 0 1 0 2.413 67.145 67.145 0 0 1-1.085 7.992l-.582-.086.487-5.045c.157-1.713-1.43.1-2.067 1.878s-1.7 3.615-5.446 3.183c-4.353-.571-6.137-.996-4.887-1.907z" class="cls-5" transform="translate(-22.745 -57.409)"/>
            <path id="Path_1620" d="M375.773 135.092s2.491.134 4.59 4.228-.527 8.645-1.053 10.822-3.143 4.1 1.179 7.4 6.916 6.79 3.411 10.35.346 6.287-4.715 8.928-23.71-1.312-26.068-6.421.487-8.99.637-10.515-2.994-3.089-3.78-8.079 3.238-6.059 3.78-8.338-1.98-5.155 0-10 21.752-5.904 22.019 1.625z" class="cls-5" transform="translate(-22.451)"/>
            <path id="Path_1621" d="M395.387 213.343c-2.978.385-6.421-5.43-8.912-10.853-2.13-4.6-3.615-8.92-3.615-8.92l1.572-4.432 4.1-11.568s2.868 4 7.183 19.23c.692 2.452 1.525 5.195 2.287 8.26a3.67 3.67 0 0 0 .684 2.161c.002 2.303.277 5.658-3.299 6.122z" class="cls-3" transform="translate(-29.515 -10.265)"/>
            <path id="Path_1622" d="M386.414 205.642c-2.122-4.6-3.584-8.92-3.584-8.92l1.572-4.432c1.098 3.065 2.711 8.621 2.012 13.352z" class="cls-4" transform="translate(-29.508 -13.417)"/>
            <path id="Path_1623" d="M401.655 212.459c-1.572 1.037-3.214 1.022-4.134-.872-1.863-3.827-.063-7.615 1.21-9.556.7 2.452 1.5 5.195 2.263 8.26a3.521 3.521 0 0 0 .661 2.168z" class="cls-4" transform="translate(-32.483 -15.502)"/>
            <path id="Path_1624" d="M343.34 216.195s15.718 5.627 30.7 4.582c0 0-1.36-18.547-9.218-21.847s-21.482 1.414-21.482 17.265z" class="cls-3" transform="translate(-21.053 -14.626)"/>
            <path id="Path_1625" d="M343.34 216.195s15.718 5.627 30.7 4.582c0 0-1.36-18.547-9.218-21.847s-21.482 1.414-21.482 17.265z" class="cls-4" transform="translate(-21.053 -14.626)"/>
            <path id="Path_1626" d="M346 212.12l25.934 2.24a92.214 92.214 0 0 1 2.758-19.05c.621-2.483 1.4-5.257 2.4-8.464.534-1.713 1.124-3.552 1.784-5.5.5-1.5 1.03-3.1 1.619-4.778a77.011 77.011 0 0 0-10.767-2.6 82.672 82.672 0 0 0-11.647-1.226c-5.045 0-10.845.527-10.845.527s-.825.2-1.344 5.548c-.466 4.988-.93 15.032.108 33.303z" class="cls-3" transform="translate(-21.488 -9.231)"/>
            <path id="Path_1627" d="M346.144 216.01l25.934 2.138c.409-6.444.715-15.152 2.656-22.838.621-2.483 1.4-5.258 2.4-8.464.534-1.713 1.124-3.552 1.784-5.5.5-1.5 1.029-3.1 1.619-4.778a77.016 77.016 0 0 0-10.767-2.6 82.673 82.673 0 0 0-11.647-1.226c-5.045 0-10.845.527-10.845.527s-.825.2-1.344 5.548c-.489 4.988-.834 18.922.21 37.193z" class="cls-5" transform="translate(-21.507 -9.231)"/>
            <path id="Path_1628" d="M363.684 176.182c6.4-.786 8.315-3.552 8.315-3.552-4.055-3.827-.684-10.46-.684-10.46l-7.694 1.438a21.742 21.742 0 0 1 .3 3.246c.063 4.668-2.051 4.715-2.051 4.715-1.353 2.523 1.814 4.613 1.814 4.613z" class="cls-2" transform="translate(-24.948 -6.967)"/>
            <path id="Path_1629" d="M364.19 163.6a21.742 21.742 0 0 1 .3 3.246c5.195 0 7.4-4.715 7.4-4.715z" class="cls-4" transform="translate(-25.517 -6.959)"/>
            <path id="Path_1630" d="M366.82 136.6c-6.688-.362-9.038 3.1-9.9 9.965-1.085 8.582.487 14.806 8.951 13.423 11.479-1.86 12.061-22.772.949-23.388z" class="cls-2" transform="translate(-23.895 -1.488)"/>
            <path id="Path_1631" fill="#a24e3f" d="M361.948 149.12a14 14 0 0 1-2.1 2.664 1.855 1.855 0 0 0 1.729.857z" transform="translate(-24.588 -4.173)"/>
            <path id="Path_1632" d="M367.77 148.453c0 .55.22 1.014.589 1.045s.692-.393.739-.943-.22-1.014-.589-1.045-.692.385-.739.943z" class="cls-5" transform="translate(-26.284 -3.828)"/>
            <path id="Path_1633" d="M368.593 147.406l-1.163-.566s.519 1.053 1.163.566z" class="cls-5" transform="translate(-26.211 -3.685)"/>
            <path id="Path_1634" d="M359.1 147.623c-.039.55.22 1.022.589 1.045s.692-.393.739-.943-.22-1.014-.582-1.045-.7.392-.746.943z" class="cls-5" transform="translate(-24.426 -3.65)"/>
            <path id="Path_1635" d="M359.923 146.578l-1.163-.558s.519 1.053 1.163.558z" class="cls-5" transform="translate(-24.354 -3.509)"/>
            <path id="Path_1636" d="M368.18 142.828a3.481 3.481 0 0 1 2.845 1.172" class="cls-7" transform="translate(-26.371 -2.824)"/>
            <path id="Path_1637" d="M361.266 142.1a3.143 3.143 0 0 0-2.7.4" class="cls-7" transform="translate(-24.314 -2.64)"/>
            <path id="Path_1638" d="M363.1 156.728a16.622 16.622 0 0 1 .652 2.358 4.119 4.119 0 0 0 .44 0c1.957-.086 2.829-.786 3.214-1.509a2.483 2.483 0 0 0 .251-1.171 2.209 2.209 0 0 0-.086-.676 9.2 9.2 0 0 1-3.764 1z" class="cls-5" transform="translate(-25.284 -5.589)"/>
            <path id="Path_1639" fill="#fff" d="M364 156.737l.212.692c1.847-.086 3.144-.4 3.678-.982a2.208 2.208 0 0 0-.086-.676 9.2 9.2 0 0 1-3.804.966z" transform="translate(-25.476 -5.597)"/>
            <path id="Path_1640" fill="#de5753" d="M364.49 159.589c1.957-.086 2.829-.786 3.214-1.509a6.287 6.287 0 0 0-2.153.527 2.358 2.358 0 0 0-1.061.982z" transform="translate(-25.581 -6.092)"/>
            <path id="Path_1641" d="M373.63 147.581s-2.829-5.666-2.122-9.886c0 0-12.959-6.138-14.35 7.277 0 0-.644-12.016 10.869-11.655s10.546 17.187 4.33 21.871c0 .001 3.018-4.046 1.273-7.607z" class="cls-5" transform="translate(-24.01 -.788)"/>
            <path id="Path_1642" d="M376.613 152.5a2.931 2.931 0 0 1 3.309-2.507c2.059.338 2.813 4.645-2.358 5.391-.794.109-1.171-.676-.951-2.884z" class="cls-2" transform="translate(-28.164 -4.354)"/>
            <path id="Path_1643" d="M375.891 175.576s-7.513 6.091-14.46 5.988-9.431-7.953-9.431-7.953 10.79-3.211 23.891 1.965z" class="cls-2" transform="translate(-22.907 -9.206)"/>
            <path id="Path_1644" d="M380.138 174.92s-12.323 22.067.644 40.928c0 0 1.76-23.27 6.028-38.846z" class="cls-3" transform="translate(-27.799 -9.698)"/>
            <path id="Path_1645" d="M350.628 172.7s-.11 15.615-2.358 21.415-5.1 16.676-5.1 16.676-2.169-26.013 2.09-37.565z" class="cls-3" transform="translate(-20.898 -9.222)"/>
            <path id="Path_1646" fill="none" stroke="#2e353a" stroke-linecap="round" stroke-linejoin="round" stroke-width="0.5px" d="M371.392 138.682s-4.982-1.721-9.368 0-3.191 6.287-5.415 7.12" transform="translate(-23.894 -1.774)"/>
            <path id="Path_1647" fill="#e0e0e0" d="M419.642 168.64l-2.059-1.179-7.568 2.067-10.215-2.648-2.358 7.757s-.487 8.645 0 8.747 11.694.684 11.694.684l5.7-3.631z" transform="translate(-32.591 -7.976)"/>
            <path id="Path_1648" d="M395.769 167.62l-4.519 17.894 13.949 1.564 9.627-2.656 4.912-16.8-11 2.853z" class="cls-3" transform="translate(-31.311 -8.134)"/>
            <path id="Path_1649" d="M408.736 170.473l-3.536 16.605-13.949-1.564 4.519-17.894z" class="cls-12" transform="translate(-31.311 -8.134)"/>
            <path id="Path_1650" fill="#fff" d="M412.536 170.473L409 187.078l9.627-2.656 4.912-16.8z" opacity="0.2" transform="translate(-35.112 -8.134)"/>
            <path id="Path_1651" d="M397.92 207.038l6.48-12.448a23.92 23.92 0 0 1 0-5.8c.393-3.144.393-3.843 2.876-3.584s5.768-.417 6.161.5-2.1 7.654-3.929 8.888l-3.812 12.44z" class="cls-2" transform="translate(-32.739 -11.89)"/>
            <path id="Path_1652" d="M395.25 218.8c4.126 3.513 8.841.5 11.458-9.588l-8.118-1.045z" class="cls-3" transform="translate(-32.168 -16.817)"/>
            <path id="Path_1653" d="M399.578 205.35l-1.658 2.923 10.279 1.383v-3.01z" class="cls-5" transform="translate(-32.739 -16.213)"/>
            <path id="Path_1654" d="M292.72 183.82l2.845 1.792 1.863-10.2-3.01-.141z" class="cls-5" transform="translate(-10.214 -9.773)"/>
            <path id="Path_1655" d="M341.876 227.8l-16.346 96.034s39.561 4.715 52.968 1.965c0 0 3.293-68.748-10.7-95.877z" class="cls-3" transform="translate(-17.239 -21.02)"/>
            <path id="Path_1656" d="M341.876 227.8l-16.346 96.034s39.561 4.715 52.968 1.965c0 0 3.293-68.748-10.7-95.877z" class="cls-12" transform="translate(-17.239 -21.02)"/>
            <path id="Path_1657" d="M271.559 166.577l-4.071-4.2c-2.428-2.538-5.729-5.863-9.006-9.2l-4.849-4.872-4.236-4.252-2.994-3c-.362-.361-.652-.644-.841-.841a.676.676 0 0 0-.542-.047l1.108-1.116a.676.676 0 0 0 .047.542l.849.841 3.018 2.978 4.259 4.22 4.9 4.825c3.356 3.261 6.7 6.546 9.242 8.967l4.228 4.047z" class="cls-5" transform="translate(0 -2.015)"/>
            <path id="Path_1658" d="M315.3 395.1s-4.149 8.692-6.546 10.374c0 0 3.206 1.91 6.546-2.358 4.322-5.5 5.375-3.929 5.375-3.929a15.412 15.412 0 0 0-.519-2.806c-.656-1.799-4.856-1.281-4.856-1.281z" class="cls-2" transform="translate(-13.646 -56.829)"/>
            <path id="Path_1659" d="M360.7 395s-1.179 3.222-2.751 6.759a15.269 15.269 0 0 1-3.144 4.935s2.735.888 4.2-.825 3.992-7.859 6.821-7.183a6.452 6.452 0 0 0-.629-1.438c-.414-.676-4.497-2.248-4.497-2.248z" class="cls-2" transform="translate(-23.509 -56.822)"/>
        </g>
    </g>
</svg>
