<svg xmlns="http://www.w3.org/2000/svg" width="405" height="286" viewBox="0 0 405 286">
    <defs>
        <style>
            .cls-2{fill:#ad6359}.cls-3{fill:#ebebeb}.cls-4{fill:#fff24f}.cls-5{fill:#263238}.cls-6{fill:#37474f}.cls-7{opacity:.1}.cls-9{fill:#a6a6a6}.cls-11{fill:#c7c7c7}
        </style>
    </defs>
    <g id="Group_278" transform="translate(-1203 -4628)">
        <path id="heart-2607178_1920" fill="#f4e130" d="M0 0H405V286H0z" transform="translate(1203 4628)"/>
        <g id="freepik--Character--inject-786" transform="translate(1194.72 4563.267)">
            <path id="Path_1660" d="M207.983 431.661c-1.462.47-43.174-.063-44.749-1.092-.627-.376-.878-6.462-1-13.8v-.232q-.044-2.277-.05-4.661v-.627l2.02-21.637 27.9.27-2.748 21.436v.853l-.169 4.435v.458s15.815 7.3 17.421 8.613 2.843 5.514 1.375 5.984z" class="cls-2" transform="translate(-20.459 -110.631)"/>
            <path id="Path_1661" d="M207.983 444.514c-1.462.47-43.174-.063-44.749-1.092-.627-.376-.878-6.462-1-13.8v-.232q-.044-2.277-.05-4.661v-.629l27.177.069v.853l-.169 4.435v.458s15.815 7.3 17.421 8.614 2.838 5.514 1.37 5.985z" class="cls-3" transform="translate(-20.459 -123.484)"/>
            <path id="Path_1662" d="M208.011 447.634c-.753.245-12.083.22-23.162 0-2.227-.044-4.442-.094-6.556-.151-7.9-.213-14.429-.539-15.056-.935s-.878-6.273-1-13.513v-.546h.031l26.882.044V433s15.878 7.34 17.478 8.651 2.845 5.519 1.383 5.983z" class="cls-4" transform="translate(-20.481 -126.611)"/>
            <path id="Path_1663" d="M209.276 453.767c-7.026-.264-35.4-.659-42.371-.383-.056 0-.056.044 0 .044 6.964.414 35.339.577 42.371.452.151 0 .151-.107 0-.113z" class="cls-5" transform="translate(-22.203 -134.362)"/>
            <path id="Path_1664" d="M204.988 432.613c-2.76-.552-6.148-.169-8.287 1.775-.082.075 0 .194.113.163a39.216 39.216 0 0 1 8.156-1.587.176.176 0 0 0 .019-.351z" class="cls-5" transform="translate(-33.31 -126.571)"/>
            <path id="Path_1665" d="M208.148 434.573c-2.76-.552-6.148-.169-8.287 1.775-.082.075 0 .195.113.163a39.221 39.221 0 0 1 8.156-1.587.176.176 0 1 0 .019-.351z" class="cls-5" transform="translate(-34.488 -127.301)"/>
            <path id="Path_1666" d="M211.308 436.533c-2.76-.552-6.148-.169-8.287 1.775-.082.075 0 .195.113.163a39.209 39.209 0 0 1 8.156-1.587.176.176 0 0 0 .019-.351z" class="cls-5" transform="translate(-35.665 -128.031)"/>
            <path id="Path_1667" d="M184.85 447.634c-2.227-.044-4.442-.094-6.556-.151-7.9-.213-14.429-.539-15.056-.935s-.878-6.273-1-13.513v-.546h.031c3.697 2.586 16.677 11.224 22.581 15.145z" class="cls-5" transform="translate(-20.481 -126.611)"/>
            <path id="Path_1668" d="M181.78 345.251h-30.044s6.035-70.169 5.8-71.392c-.3-1.568-2.077-8.67-4.442-17.948-.74-2.9-1.537-6.016-2.371-9.247-2.24-8.726-4.711-18.268-6.863-26.568-3.231-12.434-5.753-22.1-5.753-22.1h25.458s2.967 9.41 6.713 21.644c6.1 19.887 14.247 47.258 15.056 53.914 1.301 10.746-3.554 71.697-3.554 71.697z" class="cls-6" transform="translate(-11.489 -39.228)"/>
            <path id="Path_1669" d="M189.568 424.427c-4.592-.094-3.268-.132-7.861-.176-2.246 0-17-.151-19.1.2a.05.05 0 0 0 0 .094c2.1.345 16.851.213 19.1.195 4.592-.05 3.275-.088 7.861-.182a.069.069 0 0 0 0-.132z" class="cls-5" transform="translate(-20.607 -123.528)"/>
            <path id="Path_1670" d="M166.258 273.366c-.985-4.341-2.459-8.595-3.764-12.861q-3.908-12.986-7.861-25.966-1.976-6.493-3.971-12.974-1-3.275-2.026-6.543c-.665-2.133-1.43-4.247-2.033-6.4-.245-.872-.376-.389-.063.721.627 2.24 1.255 4.479 1.913 6.719q1.939 6.637 3.908 13.268 3.9 13.174 7.886 26.349 1.989 6.619 3.977 13.218a53.7 53.7 0 0 1 1.625 6.4 29.36 29.36 0 0 1 .27 6.838c-.289 4.6-.816 9.191-1.255 13.77s-.847 9.191-1.255 13.8l-2.509 27.434q-.157 1.744-.295 3.482c0 .389.558.358.627 0 .991-9.046 1.744-18.118 2.591-27.177s1.688-18.024 2.509-27.032c.213-2.265.452-4.529.452-6.807a27.973 27.973 0 0 0-.726-6.239z" class="cls-5" transform="translate(-14.562 -43.019)"/>
            <path id="Path_1671" d="M160.676 198c-1.763 13.676-5.125 39.316-7.578 57.917C147.351 233.382 138.11 198 138.11 198z" class="cls-5" transform="translate(-11.489 -39.228)"/>
            <path id="Path_1672" d="M156.343 432.408c-1.462.477-43.174.1-44.755-.928-.627-.376-.9-6.455-1.054-13.8v-.232c-.038-1.518-.063-3.08-.069-4.661v-.627c-.1-10.621.665-21.637.665-21.637l27.265.169-.753 21.437-.031.853-.151 4.435v.458s15.9 7.284 17.516 8.595 2.824 5.468 1.367 5.938z" class="cls-2" transform="translate(-1.183 -110.971)"/>
            <path id="Path_1673" d="M156.348 445.242c-1.462.477-43.174.1-44.755-.928-.627-.376-.9-6.455-1.054-13.8v-.232c-.038-1.518-.063-3.08-.069-4.661v-.627l27.177-.031-.031.853-.151 4.435v.458s15.9 7.284 17.516 8.595 2.829 5.468 1.367 5.938z" class="cls-3" transform="translate(-1.189 -123.805)"/>
            <path id="Path_1674" d="M156.389 448.369c-1.462.477-43.174.1-44.755-.928-.627-.376-.9-6.455-1.054-13.8v-.232l26.913-.056v.458s15.9 7.284 17.516 8.595 2.842 5.494 1.38 5.963z" class="cls-4" transform="translate(-1.23 -126.931)"/>
            <path id="Path_1675" d="M157.675 454.49c-7.026-.232-35.408-.527-42.371-.226-.056 0-.063.044 0 .044 6.957.389 35.339.452 42.371.3.15-.008.15-.108 0-.118z" class="cls-5" transform="translate(-2.973 -134.677)"/>
            <path id="Path_1676" d="M153.311 433.367c-2.76-.546-6.148-.151-8.281 1.8-.082.075 0 .194.113.169a38.819 38.819 0 0 1 8.156-1.625.176.176 0 0 0 .013-.345z" class="cls-5" transform="translate(-14.055 -126.854)"/>
            <path id="Path_1677" d="M156.48 435.309c-2.76-.54-6.154-.144-8.281 1.807-.088.075 0 .194.113.163a39.22 39.22 0 0 1 8.156-1.619.176.176 0 1 0 .013-.351z" class="cls-5" transform="translate(-15.235 -127.579)"/>
            <path id="Path_1678" d="M159.648 437.259c-2.767-.54-6.154-.144-8.287 1.807-.082.075 0 .188.119.163a38.674 38.674 0 0 1 8.156-1.619.176.176 0 1 0 .013-.351z" class="cls-5" transform="translate(-16.414 -128.306)"/>
            <path id="Path_1679" d="M151.257 197.97s-.583 12.183-3.369 21.832c-.226.8-.471 1.581-.728 2.334a45.2 45.2 0 0 0-7.34 3.764s-.289 9.8-.583 20.7c-.32 12.221-.659 25.853-.583 28.739.257 10.815-1.336 70.263-1.336 70.263l-30.037.125s5.414-66.411 5.376-70.376c-.056-6.368 1.449-34.5 2.61-55.037.715-12.647 1.3-22.4 1.3-22.4z" class="cls-6" transform="translate(0 -39.198)"/>
            <path id="Path_1680" d="M137.478 424.824c-4.586-.075-3.268-.113-7.854-.138-2.246 0-17.007-.075-19.1.282-.044 0-.044.088 0 .094 2.1.339 16.857.144 19.1.113 4.586-.069 3.268-.1 7.854-.213a.069.069 0 1 0 0-.138z" class="cls-5" transform="translate(-1.195 -123.7)"/>
            <path id="Path_1681" d="M121.628 204.921c-.546 16.756-1.129 33.519-1.882 50.263s-1.757 33.613-3.137 50.376c-.784 9.366-1.518 22.547-2.509 31.888 0 .063.088.088.1 0 2.183-16.625 3.394-37.177 4.467-53.908s1.794-33.475 2.365-50.226c.32-9.473.565-18.952.847-28.431a.128.128 0 0 0-.251.038z" class="cls-5" transform="translate(-2.541 -41.758)"/>
            <path id="Path_1682" d="M167.713 235.362a55.664 55.664 0 0 0-8.588 4.5.1.1 0 0 0 .094.176c2.892-1.412 5.853-2.767 8.67-4.329a.194.194 0 0 0-.176-.345z" class="cls-5" transform="translate(-19.304 -53.146)"/>
            <path id="Path_1683" d="M169.857 218.866c-.194 1.066-.458 2.127-.684 3.187s-.376 2.014-.627 2.992a5.107 5.107 0 0 1-1.393 2.509c-.4.364-.822.684-1.255 1.016-.22.176-.464.351-.7.533a2.628 2.628 0 0 1 .082-.433l.207-1.211c.151-.9.295-1.8.433-2.7.27-1.769.514-3.563.885-5.314 0-.075-.094-.1-.107 0-.445 1.738-.928 3.463-1.317 5.213-.188.859-.859 5.1-.885 5.4s-.056.627-.069.935a3.47 3.47 0 0 0 0 .954c0 .075.113.063.144 0a4.116 4.116 0 0 0 .27-.922c.075-.3.144-.627.194-.916a2.12 2.12 0 0 1 .056-.339c.414-.257.8-.59 1.192-.872s.853-.627 1.255-.941a4.749 4.749 0 0 0 1.524-2.378 17.37 17.37 0 0 0 .5-3.049c.132-1.211.232-2.422.4-3.62.014-.087-.092-.11-.105-.044z" class="cls-5" transform="translate(-21.285 -46.989)"/>
            <path id="Path_1684" d="M160.24 143.537c1.669 4.649 7.528 15.056 16.531 23.262 3.482 3.168 29.385 1.085 31.951.088 1.794-.7 5.144-13.758 3.256-14.937-3.538-2.215-26.694 2.892-27.679 2.371a117.6 117.6 0 0 1-17.9-13.8c-4.685-4.657-8.92-4.707-6.159 3.016z" class="cls-2" transform="translate(-19.409 -16.615)"/>
            <path id="Path_1685" d="M166.594 157.073l14.693-5.834s-13.174-11.336-18-13.576c-5.427-2.509-5.527.8-3.62 6.154s6.927 13.256 6.927 13.256z" class="cls-4" transform="translate(-19.101 -16.425)"/>
            <path id="Path_1686" d="M166.594 157.073l14.693-5.834s-13.174-11.336-18-13.576c-5.427-2.509-5.527.8-3.62 6.154s6.927 13.256 6.927 13.256z" class="cls-7" transform="translate(-19.101 -16.425)"/>
            <path id="Path_1687" d="M182.58 157c-.54.119-5.144 1.882-6.142 2.271s-5.069 2-6.06 2.509a.038.038 0 0 0 0 .075c1.066-.307 5.182-1.882 6.2-2.3s5.546-2.221 6.016-2.509c.08-.046.023-.046-.014-.046z" class="cls-5" transform="translate(-23.499 -23.949)"/>
            <path id="Path_1688" d="M172.29 154.829l-5.646 2.252s-5.019-7.9-6.9-13.25c-1.393-3.915-1.713-6.75.333-7z" class="cls-5" transform="translate(-19.132 -16.433)"/>
            <path id="Path_1689" d="M116.711 187.743c.094.107 41.65.376 42.032-.044.533-.627-8.7-45.652-12.942-51.229-.9-1.192-6.637-2.817-9.962-.107-7.064 5.753-13.174 25.5-14.617 31.462-2.359 9.792-4.856 19.529-4.511 19.918z" class="cls-4" transform="translate(-3.502 -15.708)"/>
            <path id="Path_1690" d="M157.1 137.583h-10.73c.176-.163.351-.314.527-.458a4.112 4.112 0 0 1 .333-.245h9.241a1.826 1.826 0 0 1 .389.351 3.4 3.4 0 0 1 .24.352z" class="cls-7" transform="translate(-14.567 -16.451)"/>
            <path id="Path_1691" d="M157 140.769h-13.58c.194-.245.389-.483.59-.709h12.685c.105.22.205.458.305.709z" class="cls-7" transform="translate(-13.468 -17.636)"/>
            <path id="Path_1692" d="M156.915 143.989H141.1c.163-.245.32-.477.483-.709h15.056z" class="cls-7" transform="translate(-12.603 -18.836)"/>
            <path id="Path_1693" d="M156.865 147.2H139.13c.138-.238.276-.477.42-.709h17.064a7.324 7.324 0 0 1 .251.709z" class="cls-7" transform="translate(-11.869 -20.032)"/>
            <path id="Path_1694" d="M156.868 150.419H137.42c.125-.238.245-.477.376-.709h18.884a5.162 5.162 0 0 0 .188.709z" class="cls-7" transform="translate(-11.232 -21.232)"/>
            <path id="Path_1695" d="M156.845 153.639H135.76c.113-.238.226-.477.345-.709h20.508z" class="cls-7" transform="translate(-10.613 -22.432)"/>
            <path id="Path_1696" d="M156.865 156.849H134.28l.32-.709h22.089c.044.232.111.471.176.709z" class="cls-7" transform="translate(-10.062 -23.629)"/>
            <path id="Path_1697" d="M156.892 160.069h-24l.3-.709H156.7z" class="cls-7" transform="translate(-9.544 -24.828)"/>
            <path id="Path_1698" d="M156.941 163.289H131.59c.088-.238.182-.471.282-.709h24.887c.057.263.119.471.182.709z" class="cls-7" transform="translate(-9.059 -26.028)"/>
            <path id="Path_1699" d="M156.993 166.5H130.35c.088-.238.176-.471.27-.709h26.2c.054.237.117.469.173.709z" class="cls-7" transform="translate(-8.597 -27.225)"/>
            <path id="Path_1700" d="M157.066 169.719H129.18c.082-.238.169-.471.257-.709h27.453c.056.238.11.47.176.709z" class="cls-7" transform="translate(-8.161 -28.425)"/>
            <path id="Path_1701" d="M157.141 172.933H128.07c.075-.232.157-.471.245-.7h28.657z" class="cls-7" transform="translate(-7.747 -29.624)"/>
            <path id="Path_1702" d="M157.226 176.149H127l.226-.709h29.824z" class="cls-7" transform="translate(-7.349 -30.821)"/>
            <path id="Path_1703" d="M157.324 179.369H126c.069-.232.138-.471.213-.709h30.947c.057.213.113.477.164.709z" class="cls-7" transform="translate(-6.976 -32.021)"/>
            <path id="Path_1704" d="M157.447 182.583H125.07l.2-.7h31.995c.07.235.126.468.182.7z" class="cls-7" transform="translate(-6.629 -33.221)"/>
            <path id="Path_1705" d="M157.575 185.8H124.2c.056-.22.119-.458.182-.709h33.036c.05.237.107.47.157.709z" class="cls-7" transform="translate(-6.305 -34.417)"/>
            <path id="Path_1706" d="M157.736 189.019H123.42l.169-.709h33.99c.082.238.082.477.157.709z" class="cls-7" transform="translate(-6.015 -35.617)"/>
            <path id="Path_1707" d="M157.884 192.233H122.64l.169-.7h34.924z" class="cls-7" transform="translate(-5.724 -36.817)"/>
            <path id="Path_1708" d="M158.02 195.449h-36.16l.169-.709h35.84c.057.238.107.471.151.709z" class="cls-7" transform="translate(-5.433 -38.013)"/>
            <path id="Path_1709" d="M158.156 198.669H121.08l.169-.709h36.794a3.881 3.881 0 0 0 .113.709z" class="cls-7" transform="translate(-5.143 -39.213)"/>
            <path id="Path_1710" d="M158.28 201.879H120.3l.169-.709h37.641a6.1 6.1 0 0 1 .17.709z" class="cls-7" transform="translate(-4.852 -40.409)"/>
            <path id="Path_1711" d="M158.386 205.1h-38.9c.063-.232.119-.471.176-.709h38.563c.067.237.117.476.161.709z" class="cls-7" transform="translate(-4.55 -41.609)"/>
            <path id="Path_1712" d="M158.505 208.319H118.75c.056-.232.107-.464.169-.709h39.448c.063.245.094.477.138.709z" class="cls-7" transform="translate(-4.274 -42.809)"/>
            <path id="Path_1713" d="M158.6 211.579H118c.05-.232.107-.464.163-.709h40.307c.044.213.088.445.13.709z" class="cls-7" transform="translate(-3.995 -44.024)"/>
            <path id="Path_1714" d="M158.685 214.749H117.28c.044-.22.094-.458.157-.709h41.123c.05.251.087.483.125.709z" class="cls-7" transform="translate(-3.727 -45.205)"/>
            <path id="Path_1715" d="M158.772 217.969H116.74a4.762 4.762 0 0 1 .107-.709h41.838c.043.289.069.527.087.709z" class="cls-7" transform="translate(-3.525 -46.405)"/>
            <path id="Path_1716" d="M155.9 138.2c-1.43.213-5.646-2.4-7.221-5.226-.107-.194.627-8 .59-9.567 0-.32 9.824 2.265 9.824 2.265a24.931 24.931 0 0 0-.872 6.01 3.437 3.437 0 0 0 .075.627v.107c.231 1.251-.296 5.492-2.396 5.784z" class="cls-2" transform="translate(-15.425 -11.419)"/>
            <path id="Path_1717" d="M150.64 123.53c.4 2.365 1.982 8.984 7.4 9.046a6.274 6.274 0 0 0 1-.069v-.107a4.076 4.076 0 0 1-.069-.627 24.93 24.93 0 0 1 .872-6.01s-7.026-1.857-9.203-2.233z" class="cls-5" transform="translate(-16.158 -11.476)"/>
            <path id="Path_1718" d="M150.3 100.054c-1.757 3.174-2.039 13.375-.082 16.073 2.829 3.915 8.507 5.433 12.1 1.794 3.476-3.532 3.607-16.832 1.33-19.391-3.364-3.758-10.754-3.175-13.348 1.524z" class="cls-2" transform="translate(-15.495 -1.244)"/>
            <path id="Path_1719" d="M163.947 115.35s-.05.031-.05.063c0 .684-.119 1.474-.747 1.681v.038c.765-.082.91-1.132.797-1.782z" class="cls-5" transform="translate(-20.82 -8.428)"/>
            <path id="Path_1720" d="M162.934 114.177c-1.1-.119-1.255 2.089-.238 2.2s1.192-2.099.238-2.2z" class="cls-5" transform="translate(-20.397 -7.989)"/>
            <path id="Path_1721" d="M170.4 115.71s.05.031.05.063c-.075.684-.038 1.481.565 1.75v.038c-.762-.161-.793-1.217-.615-1.851z" class="cls-5" transform="translate(-23.488 -8.562)"/>
            <path id="Path_1722" d="M171.068 114.64c1.1 0 1.035 2.208 0 2.215s-.947-2.215 0-2.215z" class="cls-5" transform="translate(-23.494 -8.163)"/>
            <path id="Path_1723" d="M161.654 112.107a7.6 7.6 0 0 0 .878-.238 1.487 1.487 0 0 0 .847-.414.464.464 0 0 0-.038-.571 1.154 1.154 0 0 0-1.161-.207 1.725 1.725 0 0 0-1.035.671.5.5 0 0 0 .508.759z" class="cls-5" transform="translate(-20.045 -6.659)"/>
            <path id="Path_1724" d="M171.96 111.254a8.155 8.155 0 0 1-.859-.289 1.518 1.518 0 0 1-.828-.464.483.483 0 0 1 .069-.571 1.173 1.173 0 0 1 1.173-.138 1.738 1.738 0 0 1 .991.728.5.5 0 0 1-.546.734z" class="cls-5" transform="translate(-23.451 -6.321)"/>
            <path id="Path_1725" d="M162.344 125.133c.151.176.3.408.546.445a1.825 1.825 0 0 0 .753-.119v.038a.916.916 0 0 1-.9.307.734.734 0 0 1-.5-.627c.026-.057.076-.069.101-.044z" class="cls-5" transform="translate(-20.485 -12.069)"/>
            <path id="Path_1726" d="M163.773 117.722a2.346 2.346 0 0 0 1.487 1.154 3.067 3.067 0 0 0 .834.094.7.7 0 0 0 .163 0h.151a.176.176 0 0 0 .151-.144v-.138c.05-.527.056-1.33.056-1.33.188.107 1.142.627 1.142.345a34.8 34.8 0 0 0-.4-7.127c0-.082-.132-.069-.125 0-.113 2.2.157 4.391.082 6.625a4 4 0 0 0-1.079-.414 14.037 14.037 0 0 0 0 1.788 3.243 3.243 0 0 1-2.365-.922c-.078-.063-.135-.019-.097.069z" class="cls-5" transform="translate(-21.048 -6.628)"/>
            <path id="Path_1727" d="M165.581 122.914a2.748 2.748 0 0 1-1.167.778 1.211 1.211 0 0 1-.759 0c-.54-.182-.514-.684-.383-1.1a2.967 2.967 0 0 1 .289-.627 3.6 3.6 0 0 0 2.02.954z" class="cls-5" transform="translate(-20.836 -10.891)"/>
            <path id="Path_1728" fill="#ff9cbd" d="M164.425 124.064a1.211 1.211 0 0 1-.759 0c-.54-.182-.514-.684-.383-1.1a1.255 1.255 0 0 1 1.142 1.1z" transform="translate(-20.84 -11.264)"/>
            <path id="Path_1729" d="M149.019 109.179c1.882-.245 3.689-6.129 3.689-6.129s-.4 2.553.088 2.56 2.974-3.137 3.563-5.646a19.6 19.6 0 0 0 4.222 2.9c2.171 1.023 4.711 1.255 4.774.859.169-1.154-.427-4.316-1.838-5.646a8.225 8.225 0 0 0-7.942-2.2 8.015 8.015 0 0 0-6.085 4.881c-.829 1.742-1.161 8.509-.471 8.421z" class="cls-5" transform="translate(-15.415 -1.071)"/>
            <path id="Path_1730" d="M159.91 117.584a3.036 3.036 0 1 1 3.488-3.243 3.043 3.043 0 0 1-3.507 3.268zm.91-5.6a2.867 2.867 0 0 0-.627 0 2.635 2.635 0 1 0 .627 0z" class="cls-4" transform="translate(-18.653 -7.011)"/>
            <path id="Path_1731" d="M171.39 117.988c-1.148-.188-2-1.531-1.932-3.137a3.645 3.645 0 0 1 .74-2.1 1.882 1.882 0 0 1 3.231.144 3.6 3.6 0 0 1 .546 2.146c-.069 1.675-1.142 2.992-2.39 2.936a.972.972 0 0 1-.195.011zm.627-5.646h-.151a1.6 1.6 0 0 0-1.324.69 3.231 3.231 0 0 0-.627 1.882c-.063 1.449.715 2.66 1.738 2.7s1.882-1.092 1.97-2.509a3.187 3.187 0 0 0-.483-1.882 1.675 1.675 0 0 0-1.154-.866z" class="cls-4" transform="translate(-23.169 -7.146)"/>
            <path id="Path_1732" d="M166.7 116.05l-.251-.326a1.654 1.654 0 0 1 2.271 0l-.307.263c-.633-.753-1.668.025-1.713.063z" class="cls-4" transform="translate(-22.05 -8.394)"/>
            <path id="Path_1733" d="M145.991 115.856l-.351-.2c.094-.163.947-1.606 1.882-1.713a56.5 56.5 0 0 1 5.9.546l-.056.4a51.686 51.686 0 0 0-5.8-.546c-.621.089-1.349 1.137-1.575 1.513z" class="cls-4" transform="translate(-14.295 -7.899)"/>
            <path id="Path_1734" d="M149.369 114.012s-1.619-3.614-3.218-3.093-.8 5.458.772 6.412a1.75 1.75 0 0 0 2.509-.483z" class="cls-2" transform="translate(-14.159 -6.758)"/>
            <path id="Path_1735" d="M147.09 113.19v.044a4.474 4.474 0 0 1 1.738 3.137.972.972 0 0 0-1.38-.533.044.044 0 0 0 0 .075 1.073 1.073 0 0 1 1.1.59 5.157 5.157 0 0 1 .383 1.054c.038.119.238.094.22 0 .31-1.55-.461-3.903-2.061-4.367z" class="cls-5" transform="translate(-14.835 -7.623)"/>
            <path id="Path_1736" d="M159.064 94.946a14.36 14.36 0 0 0-3.8-1.769c-1.512-.42-6.424-.759-7.729.044s-2.284 5.332-2.415 6-.42 4.755.9 5.947 2.472-5.646 5.119-7.6 7.925-2.622 7.925-2.622z" class="cls-4" transform="translate(-14.055)"/>
            <path id="Path_1737" d="M159.129 95.468s-5.282.678-7.93 2.616-3.8 8.783-5.119 7.6a3.242 3.242 0 0 1-.91-2.321 17.677 17.677 0 0 1 3.858-6.9c1.882-1.794 4.718-2.415 7.647-2.321a16.537 16.537 0 0 1 2.454 1.326z" class="cls-7" transform="translate(-14.12 -.522)"/>
            <path id="Path_1738" d="M145.538 110.224c.4-1.813 2.98-6.443 5.345-8.971s8.35-3.319 9.147-3.137c1.932.4 2.509 1.085 2.842.954s-1.462-1.882-1.957-2.3a7.5 7.5 0 0 0-2.716-1.506c-.834-.107-6.148-.351-8.375 1.6s-5.828 7.8-5.571 9.473c.063.4.533.721.627 1.292.113.747.138 1.593.282 2.12.1.418.338.632.376.475z" class="cls-4" transform="translate(-13.773 -.918)"/>
            <path id="Path_1739" d="M154.592 101.554a9.492 9.492 0 0 1-1.129-1.117 6.6 6.6 0 0 1-.916-1.317h-.056a5.157 5.157 0 0 0 .8 1.443 4.391 4.391 0 0 0 1.255 1.054.05.05 0 0 0 .05-.063z" class="cls-5" transform="translate(-16.848 -2.38)"/>
            <path id="Path_1740" d="M146.125 114.265c-.031-.144-.1-.27-.144-.408a2.094 2.094 0 0 1-.107-.477 4.134 4.134 0 0 0-.082-.922 3.211 3.211 0 0 0-.339-.671 1.255 1.255 0 0 1-.251-.8.031.031 0 1 0-.063 0 3.137 3.137 0 0 0 .408 1.512 5.777 5.777 0 0 1 .132.991 1.437 1.437 0 0 0 .37.834.056.056 0 0 0 .075-.063z" class="cls-5" transform="translate(-14.109 -6.791)"/>
            <path id="Path_1741" d="M147.416 111.39a4.673 4.673 0 0 1-.721-1.443c-.082-.245-.138-.5-.213-.753s-.22-.583-.295-.885h-.056c.075.314.1.627.169.954a6.859 6.859 0 0 0 .238.8 4.211 4.211 0 0 0 .339.721 2.027 2.027 0 0 0 .514.627z" class="cls-5" transform="translate(-14.477 -5.805)"/>
            <path id="Path_1742" d="M148.8 108.947a5.2 5.2 0 0 1-.834-1.255c-.207-.452-.383-.916-.558-1.38 0-.031-.069 0-.063 0a6.419 6.419 0 0 0 .433 1.487 3.368 3.368 0 0 0 .383.627 3.513 3.513 0 0 0 .59.552s.069 0 .049-.031z" class="cls-5" transform="translate(-14.928 -5.055)"/>
            <path id="Path_1743" d="M150.37 106.414a1.933 1.933 0 0 1-.414-.565c-.125-.226-.251-.458-.364-.7s-.232-.445-.339-.671a1.838 1.838 0 0 1-.232-.721s-.056-.038-.063 0a1.882 1.882 0 0 0 .107.747 4.587 4.587 0 0 0 .314.778 6.149 6.149 0 0 0 .414.709 1.179 1.179 0 0 0 .533.489c.044-.004.087-.066.044-.066z" class="cls-5" transform="translate(-15.53 -4.103)"/>
            <path id="Path_1744" d="M151.838 103.508c-.144-.188-.289-.383-.414-.583s-.251-.408-.37-.627-.245-.433-.358-.627c0-.038-.063 0-.056 0a4.806 4.806 0 0 0 .245.715 5.539 5.539 0 0 0 .351.627 5.715 5.715 0 0 0 .427.627 2.052 2.052 0 0 0 .533.508c.038 0 .075 0 .063-.056a3.658 3.658 0 0 0-.42-.583z" class="cls-5" transform="translate(-16.158 -3.324)"/>
            <path id="Path_1745" d="M156.933 100.081a7.988 7.988 0 0 0-.458-.734 8.7 8.7 0 0 0-.565-.69 8.337 8.337 0 0 0-1.255-1.167c-.031 0-.075 0-.05.044.759.866 1.556 1.706 2.3 2.578z" class="cls-5" transform="translate(-17.633 -1.773)"/>
            <path id="Path_1746" d="M159.247 98.318a3.519 3.519 0 0 0-.533-.684 7.992 7.992 0 0 0-1.443-1.1c-.031 0-.069 0-.038.05.427.383.866.765 1.255 1.173a7.884 7.884 0 0 1 .571.627c.182.22.307.477.471.709h.044a2.133 2.133 0 0 0-.326-.772z" class="cls-5" transform="translate(-18.611 -1.415)"/>
            <path id="Path_1747" d="M162.009 97.625a3.965 3.965 0 0 0-.483-.671A4.749 4.749 0 0 0 160.3 96c-.031 0-.063 0-.038.05a8.539 8.539 0 0 1 1.129 1.1c.176.2.332.408.5.627a5.638 5.638 0 0 0 .471.627 4.278 4.278 0 0 0-.358-.784z" class="cls-5" transform="translate(-19.741 -1.217)"/>
            <path id="Path_1748" d="M164.316 96.8c-.169-.182-.345-.358-.527-.533a2.422 2.422 0 0 0-.583-.452c-.031 0-.056 0-.031.05.332.358.627.715.979 1.073a6.9 6.9 0 0 1 .709 1.136h.038a2.39 2.39 0 0 0-.583-1.274z" class="cls-5" transform="translate(-20.825 -1.15)"/>
            <path id="Path_1749" d="M166.6 96.681a3.821 3.821 0 0 0-1.11-.941s-.063.031 0 .05a4.85 4.85 0 0 1 .991 1A6.337 6.337 0 0 1 167.2 98h.044a3.137 3.137 0 0 0-.64-1.324z" class="cls-5" transform="translate(-21.683 -1.12)"/>
            <path id="Path_1750" d="M169.157 97.923a2.934 2.934 0 0 0-.113-.3 3.576 3.576 0 0 0-.339-.558 6.97 6.97 0 0 0-.922-.954s-.069 0-.038.05a5.232 5.232 0 0 1 .853.966 4.209 4.209 0 0 1 .32.54c.044.094.088.188.125.282a1.883 1.883 0 0 0 .113.282h.056a.947.947 0 0 0-.055-.308z" class="cls-5" transform="translate(-22.529 -1.258)"/>
            <path id="Path_1751" d="M171.085 98.612a4.857 4.857 0 0 0-.27-.458 4.451 4.451 0 0 0-.333-.42c-.119-.138-.245-.27-.364-.414 0 0-.075 0-.044.044a3.233 3.233 0 0 1 .332.439l.289.433.282.433c.1.151.176.314.289.452h.044a2.415 2.415 0 0 0-.226-.508z" class="cls-5" transform="translate(-23.398 -1.709)"/>
            <path id="Path_1752" d="M133.4 142.771c-5.571 9.41-15.351 32.7-11.581 37.641 5.069 6.606 21.33 14.805 26.574 15.608 2.265.351 7.861-16.769 5.646-17.779-2.673-1.211-17.522-7.848-17.566-8.739s2.026-11.706 2.509-20.96c.497-10.771-2.52-10.928-5.582-5.771z" class="cls-2" transform="translate(-5.104 -17.417)"/>
            <path id="Path_1753" d="M166.435 200.328s6.9-1.148 11.4-1.688c2.509-.3 6.9-.433 8.864.194 2.93.935 14.58 6.731 13.231 9.586-1.217 2.585-10.59-3.664-10.59-3.664s10.038 5.464 7.98 8.306-11.687-5.646-11.687-5.646 10.163 5.853 7.6 8.45c-1.939 1.964-11.117-5.213-11.117-5.213s8.7 5.088 6.8 7.2c-2.108 2.327-10.991-3.764-10.991-3.764-5.747 4.536-10.339 4.348-13.588 3.821-.782-.116 2.098-17.582 2.098-17.582z" class="cls-2" transform="translate(-21.213 -39.373)"/>
            <path id="Path_1754" d="M198.917 205.167c1.2.627 2.422 1.2 3.563 1.882a37.892 37.892 0 0 1 3.331 2.258 23.047 23.047 0 0 1 3.871 3.538 49.472 49.472 0 0 0-7.409-5.489c-1.135-.7-2.246-1.462-3.381-2.171-.032.007-.007-.037.025-.018z" class="cls-5" transform="translate(-34.134 -41.897)"/>
            <path id="Path_1755" d="M194.749 211.668c1.5.834 3.018 1.606 4.479 2.509s2.76 1.882 4.147 2.861c.107.075 0 .107-.082.038-1.424-.935-2.817-1.694-4.26-2.61s-2.842-1.882-4.31-2.76a.023.023 0 0 1 .026-.038z" class="cls-5" transform="translate(-32.582 -44.32)"/>
            <path id="Path_1756" d="M190.145 216.607a38.4 38.4 0 0 1 6.562 4.348c.1.082 0 .113-.113.038-2.152-1.487-3.833-2.672-6.487-4.3-.043-.029-.007-.111.038-.086z" class="cls-5" transform="translate(-30.858 -46.16)"/>
            <path id="Path_1757" d="M139.059 159.249H123.25s8.043-15.42 11.688-19.285c4.1-4.354 5.427-1.3 5.646 4.391s-1.525 14.894-1.525 14.894z" class="cls-4" transform="translate(-5.951 -16.832)"/>
            <path id="Path_1758" d="M139.059 159.249H123.25s8.043-15.42 11.688-19.285c4.1-4.354 5.427-1.3 5.646 4.391s-1.525 14.894-1.525 14.894z" class="cls-7" transform="translate(-5.951 -16.832)"/>
            <path id="Path_1759" d="M140.013 167.6c-.552-.082-5.477-.113-6.55-.094s-5.452.038-6.556.151a.038.038 0 0 0 0 .075c1.1.1 5.521.088 6.612.094s5.966-.069 6.506-.157c.038-.005.026-.062-.012-.069z" class="cls-5" transform="translate(-7.3 -27.862)"/>
            <path id="Path_1760" d="M239.794 161c.627 2.673 2.8 6.324 2.6 8.344a2.327 2.327 0 0 1-1.807 2.12s1.744 1.424 1.255 3.231c-.251.928-1.964 1.343-1.964 1.343a2.79 2.79 0 0 1 .816 2.779c-.433 1.255-2.077 1.481-2.077 1.481s.753 1.757-.094 2.9c-1.719 2.315-12.842-.2-13.632-4.686-.37-2.089 2.315-1.33 2.315-1.33s-3.595-2.026-3.137-4.335 3.883-1.1 3.883-1.1-3.463-1.995-2.748-4.341 3.971-.627 3.971-.627-2.1-2.233-1.129-3.9c1.587-2.754 6.355 2.227 8.933 2.2l1.1-3.921z" class="cls-2" transform="translate(-43.505 -25.44)"/>
            <path id="Path_1761" d="M248.691 162.8c-.351-2.585 1.6-3.218 1.964-5.7.408-2.767-2.967-2.785-4.843 1.744l-1.142 4.056z" class="cls-2" transform="translate(-51.199 -23.277)"/>
            <path id="Path_1762" d="M240.122 189.865a.031.031 0 1 1 0 .063 19.793 19.793 0 0 1-11.292-3.281c-.107-.069-.031-.276.1-.213a40.539 40.539 0 0 0 11.192 3.431z" class="cls-5" transform="translate(-45.277 -34.913)"/>
            <path id="Path_1763" d="M242.115 182.383c.044 0 .038.082 0 .082a18.519 18.519 0 0 1-12.108-4.341c-.119-.1-.119-.307 0-.2 2.403 1.824 8.457 3.957 12.108 4.459z" class="cls-5" transform="translate(-45.701 -31.735)"/>
            <path id="Path_1764" d="M231.927 169.711a25.406 25.406 0 0 0 11.424 5.019c.05 0 .031.088 0 .088a16.59 16.59 0 0 1-6.769-1.518 11.436 11.436 0 0 1-4.73-3.476c-.101-.057-.025-.17.075-.113z" class="cls-5" transform="translate(-46.404 -28.68)"/>
            <path id="Path_1765" d="M223.77 137.789L252 137.3a10.326 10.326 0 0 1 7.672 3.275c4.216 4.479 8.036 11.838 11.675 22.5l-28.231.489c-3.639-10.665-7.459-18.011-11.675-22.49a10.332 10.332 0 0 0-7.672-3.281z" class="cls-3" transform="translate(-43.41 -16.607)"/>
            <path id="Path_1766" d="M256.92 171.791c3.312-.125 6.631-.169 9.943-.251s6.625-.107 9.937-.1c-3.312.125-6.625.169-9.937.257s-6.624.094-9.943.094z" class="cls-9" transform="translate(-55.764 -29.33)"/>
            <path id="Path_1767" d="M290.732 171.475c-.151-.389-.307-.79-.452-1.2v-.075h.075l1.361-.075h.063v.056l.383 1.255v.082h-.082c-.489-.018-.947-.03-1.348-.043zm0 0c.471-.038.916-.075 1.361-.094l-.063.075-.408-1.255.075.05c-.452 0-.9 0-1.361.038l.056-.075a10.213 10.213 0 0 0 .34 1.261z" class="cls-9" transform="translate(-68.195 -28.838)"/>
            <path id="Path_1768" d="M291.668 171.2a5.413 5.413 0 0 1-.458-.376h.1a5.3 5.3 0 0 1-.571 1.223 5.715 5.715 0 0 1 .458-1.255l.044-.088.056.069a4.418 4.418 0 0 1 .371.427z" class="cls-4" transform="translate(-68.367 -29.054)"/>
            <path id="Path_1769" d="M255.28 167.345c3.312-.125 6.631-.163 9.943-.251s6.625-.094 9.956-.094c-3.312.125-6.625.169-9.937.251s-6.642.107-9.962.094z" class="cls-9" transform="translate(-55.152 -27.676)"/>
            <path id="Path_1770" d="M289.042 167.069c-.151-.383-.307-.784-.452-1.2v-.069h.075l1.361-.075h.063v.063l.383 1.255v.082h-.082c-.451-.025-.915-.037-1.348-.056zm0 0l1.361-.094-.063.082-.408-1.255.075.056c-.452 0-.9 0-1.361.038l.056-.075c.145.407.22.821.34 1.248z" class="cls-9" transform="translate(-67.565 -27.199)"/>
            <path id="Path_1771" d="M290.028 166.789a4.388 4.388 0 0 1-.458-.37h.1a5.42 5.42 0 0 1-.571 1.223 5.609 5.609 0 0 1 .458-1.255l.044-.088.056.069a2.456 2.456 0 0 1 .371.421z" class="cls-4" transform="translate(-67.755 -27.415)"/>
            <path id="Path_1772" d="M253.64 162.943c3.312-.125 6.631-.163 9.943-.251s6.625-.107 9.937-.094c-3.312.125-6.625.163-9.937.251s-6.624.107-9.943.094z" class="cls-9" transform="translate(-54.541 -26.034)"/>
            <path id="Path_1773" d="M287.4 162.669c-.151-.383-.307-.79-.452-1.2v-.069h.031c.458-.038.91-.05 1.361-.075h.063v.056l.383 1.255v.082h-.082c-.411-.018-.869-.037-1.304-.049zm0 0c.471-.038.916-.075 1.361-.094l-.063.082-.408-1.255.075.056c-.452 0-.9.031-1.361.031l.056-.075c.122.414.223.822.34 1.255z" class="cls-9" transform="translate(-66.954 -25.559)"/>
            <path id="Path_1774" d="M288.388 162.4a5.418 5.418 0 0 1-.458-.376h.1a5.463 5.463 0 0 1-.571 1.255 5.607 5.607 0 0 1 .458-1.255l.044-.088.056.069a1.618 1.618 0 0 1 .371.395z" class="cls-4" transform="translate(-67.144 -25.79)"/>
            <path id="Path_1775" d="M251.58 158.541c3.312-.125 6.625-.169 9.937-.251s6.631-.107 9.943-.1c-3.312.125-6.625.169-9.937.257s-6.623.1-9.943.094z" class="cls-9" transform="translate(-53.774 -24.392)"/>
            <path id="Path_1776" d="M285.342 158.265c-.151-.389-.307-.79-.452-1.2v-.075h.069c.452-.031.91-.05 1.361-.075h.056v.056l.383 1.255v.075h-.082c-.463-.011-.902-.023-1.335-.036zm0 0c.471-.038.916-.075 1.355-.094l-.056.075-.414-1.255.082.05c-.452 0-.91.038-1.361.038L285 157c.116.418.223.832.342 1.265z" class="cls-9" transform="translate(-66.187 -23.915)"/>
            <path id="Path_1777" d="M286.328 157.986a5.412 5.412 0 0 1-.458-.376h.1a5.874 5.874 0 0 1-.571 1.223 5.715 5.715 0 0 1 .458-1.255l.044-.088.056.069a2.1 2.1 0 0 1 .371.427z" class="cls-4" transform="translate(-66.377 -24.132)"/>
            <path id="Path_1778" d="M249.28 154.134c3.312-.125 6.625-.163 9.937-.251s6.625-.1 9.943-.094c-3.312.125-6.631.169-9.943.251s-6.625.107-9.937.094z" class="cls-9" transform="translate(-52.916 -22.752)"/>
            <path id="Path_1779" d="M283.032 153.859c-.144-.383-.307-.784-.452-1.2v-.069h.082c.452-.031.9-.05 1.355-.075h.063v.063l.376 1.255v.082h-.082c-.445-.025-.903-.037-1.342-.056zm0 0l1.361-.094-.056.082-.414-1.255.075.056c-.452 0-.9.031-1.361.038l.056-.075c.15.407.226.834.339 1.248z" class="cls-9" transform="translate(-65.326 -22.276)"/>
            <path id="Path_1780" d="M284.018 153.586q-.232-.176-.452-.376h.1a5.592 5.592 0 0 1-.577 1.223 5.606 5.606 0 0 1 .458-1.255l.044-.088.063.069a5.4 5.4 0 0 1 .364.427z" class="cls-4" transform="translate(-65.516 -22.492)"/>
            <path id="Path_1781" d="M246.31 149.5c3.312-.125 6.625-.163 9.943-.251s6.625-.107 9.937-.094c-3.312.125-6.625.163-9.937.251s-6.624.11-9.943.094z" class="cls-9" transform="translate(-51.81 -21.025)"/>
            <path id="Path_1782" d="M280.072 149.2c-.151-.383-.307-.79-.452-1.2v-.069h.075c.452-.038.91-.05 1.361-.075h.063v.056l.383 1.255v.082h-.082c-.457 0-.934-.019-1.348-.049zm0 0c.471-.038.916-.075 1.355-.094l-.056.082-.408-1.255.075.05c-.452 0-.91.038-1.361.038l.056-.075c.125.431.219.839.339 1.254z" class="cls-9" transform="translate(-64.223 -20.539)"/>
            <path id="Path_1783" d="M281.058 148.946a5.412 5.412 0 0 1-.458-.376h.1a5.3 5.3 0 0 1-.571 1.223 5.557 5.557 0 0 1 .458-1.255l.044-.088.056.069a5.352 5.352 0 0 1 .371.427z" class="cls-4" transform="translate(-64.413 -20.763)"/>
            <path id="Path_1784" d="M242.81 144.87c3.312-.125 6.625-.169 9.937-.257s6.631-.1 9.943-.094c-3.312.125-6.625.169-9.937.251s-6.631.107-9.943.1z" class="cls-9" transform="translate(-50.505 -19.298)"/>
            <path id="Path_1785" d="M276.572 144.589c-.151-.383-.307-.784-.452-1.2v-.075h.075c.452 0 .91-.05 1.361-.075h.056v.056l.383 1.255v.082h-.069c-.463-.012-.926-.024-1.354-.043zm0 0c.471 0 .916-.069 1.355-.088l-.056.075-.414-1.255.082.056-1.361.038.05-.075c.118.408.224.822.344 1.249z" class="cls-9" transform="translate(-62.918 -18.821)"/>
            <path id="Path_1786" d="M277.552 144.334q-.232-.182-.452-.376h.1a5.871 5.871 0 0 1-.571 1.255 5.717 5.717 0 0 1 .458-1.255l.044-.088.056.069a5.135 5.135 0 0 1 .365.395z" class="cls-4" transform="translate(-63.108 -19.056)"/>
            <path id="Path_1787" d="M237.38 140.233c3.312-.125 6.625-.163 9.937-.251s6.631-.107 9.943-.094c-3.312.125-6.625.163-9.937.251s-6.631.107-9.943.094z" class="cls-9" transform="translate(-48.482 -17.571)"/>
            <path id="Path_1788" d="M271.142 139.959c-.151-.383-.307-.784-.452-1.2v-.069h.075c.452-.031.91-.05 1.361-.075h.013v.056l.383 1.255V140h-.082c-.407-.01-.865-.029-1.298-.041zm0 0c.471-.038.916-.075 1.355-.094l-.056.082-.414-1.255.082.056-1.361.038.05-.082c.118.414.224.822.344 1.255z" class="cls-9" transform="translate(-60.895 -17.096)"/>
            <path id="Path_1789" d="M272.122 139.724q-.232-.176-.452-.376h.1a6.073 6.073 0 0 1-.571 1.255 5.608 5.608 0 0 1 .458-1.255l.044-.088.056.069a5.065 5.065 0 0 1 .365.395z" class="cls-4" transform="translate(-61.085 -17.338)"/>
            <path id="Path_1790" fill="#dbdbdb" d="M210.985 137.789l28.231-.489c-3.708.063-7.39 2.315-9.787 5.646-6.123 8.513-11.361 34.956-11.612 51.179-.088 5.54 2.139 15.138 4.5 25.3 3.137 13.388 6.631 28.557 5.972 38.845-.5 7.748-2.8 17.045-5.232 26.882-2.114 8.513-4.291 17.321-5.527 25.941-1.462 10.238-.213 22.352 2.56 24.912a7.8 7.8 0 0 0 5.565 2.259l-28.231.5a7.8 7.8 0 0 1-5.558-2.258c-2.779-2.56-4.028-14.674-2.566-24.918 1.255-8.613 3.419-17.421 5.527-25.935 2.434-9.843 4.736-19.134 5.238-26.882.627-10.289-2.867-25.464-5.979-38.852-2.365-10.157-4.592-19.761-4.5-25.295.251-16.223 5.489-42.66 11.612-51.185 2.397-3.339 6.079-5.581 9.787-5.65z" transform="translate(-30.336 -16.608)"/>
            <path id="Path_1791" d="M245.83 404.019l28.231-.489c-6.066.107-13.174 8.049-20.7 16.462-7.679 8.57-15.558 17.371-22.478 17.49l-28.231.5c6.9-.125 14.8-8.921 22.478-17.5 7.52-8.408 14.634-16.356 20.7-16.463z" class="cls-11" transform="translate(-35.54 -115.819)"/>
            <path id="Path_1792" d="M215.3 455.789c3.312-.125 6.625-.169 9.937-.257s6.625-.107 9.937-.094c-3.312.125-6.625.163-9.937.251s-6.625.1-9.937.1z" class="cls-9" transform="translate(-40.254 -135.161)"/>
            <path id="Path_1793" d="M248.32 455.576c.163-.4.32-.822.5-1.255v-.031h1.631l-.056.113-.59 1.255v.038h-.044zm0 0h1.455l-.056.038.558-1.255.069.113h-1.468l.056-.031z" class="cls-9" transform="translate(-52.559 -134.735)"/>
            <path id="Path_1794" d="M249.625 455.164a2.739 2.739 0 0 1-.2-.345h.1a9.12 9.12 0 0 1-1.2 1.154 8.787 8.787 0 0 1 1.117-1.255l.075-.069v.094a2.509 2.509 0 0 1 .108.421z" class="cls-4" transform="translate(-52.559 -134.869)"/>
            <path id="Path_1795" d="M220.2 452.1c3.312-.125 6.625-.169 9.937-.257s6.625-.107 9.943-.094c-3.312.125-6.625.163-9.937.251s-6.631.105-9.943.1z" class="cls-9" transform="translate(-42.08 -133.786)"/>
            <path id="Path_1796" d="M253.23 451.856c.157-.4.314-.822.5-1.255v-.031h1.631l-.05.113-.59 1.255v.038h-.038zm0 0h1.449l-.056.038.558-1.255.069.113h-1.468l.056-.031z" class="cls-9" transform="translate(-54.388 -133.348)"/>
            <path id="Path_1797" d="M254.529 451.444a3.808 3.808 0 0 1-.2-.345h.107a9.127 9.127 0 0 1-1.2 1.154A8.726 8.726 0 0 1 254.34 451l.075-.069v.094a2.512 2.512 0 0 1 .114.419z" class="cls-4" transform="translate(-54.388 -133.482)"/>
            <path id="Path_1798" d="M225.1 448.379c3.312-.125 6.625-.169 9.937-.257s6.631-.107 9.943-.094c-3.312.125-6.625.163-9.937.251s-6.624.107-9.943.1z" class="cls-9" transform="translate(-43.906 -132.4)"/>
            <path id="Path_1799" d="M258.13 448.136c.163-.4.314-.822.5-1.255v-.031h1.637l-.056.113-.59 1.255v.038h-.038zm0 0h1.449l-.056.038.558-1.255.075.113h-1.468l.05-.031z" class="cls-9" transform="translate(-56.214 -131.962)"/>
            <path id="Path_1800" d="M229.47 444.659c3.306-.125 6.625-.169 9.937-.257s6.625-.107 9.937-.094c-3.312.125-6.625.163-9.937.251s-6.625.107-9.937.1z" class="cls-9" transform="translate(-45.534 -131.013)"/>
            <path id="Path_1801" d="M262.49 444.416c.163-.4.32-.822.5-1.255v-.031h1.631l-.056.113-.59 1.255v.038h-.044zm0 0h1.455l-.056.038.558-1.255.069.113h-1.468l.05-.031z" class="cls-9" transform="translate(-57.839 -130.576)"/>
            <path id="Path_1802" d="M233.45 440.937c3.312-.125 6.631-.169 9.943-.257s6.625-.107 9.937-.1c-3.312.132-6.625.169-9.937.257s-6.624.106-9.943.1z" class="cls-9" transform="translate(-47.017 -129.625)"/>
            <path id="Path_1803" d="M266.48 440.7c.163-.4.32-.822.5-1.255v-.031h1.637l-.056.113-.59 1.255v.038h-.038zm0 0h1.455l-.056.038.558-1.255.069.113h-1.468l.05-.031z" class="cls-9" transform="translate(-59.326 -129.189)"/>
            <path id="Path_1804" d="M236.71 437.217c3.312-.125 6.625-.169 9.937-.257s6.631-.107 9.943-.1c-3.312.132-6.625.169-9.937.257s-6.624.106-9.943.1z" class="cls-9" transform="translate(-48.232 -128.239)"/>
            <path id="Path_1805" d="M269.74 436.976c.163-.4.314-.822.5-1.255v-.031h1.637l-.056.107-.59 1.255v.038h-.031zm0 0h1.449l-.056.038.558-1.255.075.113H270.3l.05-.031z" class="cls-9" transform="translate(-60.541 -127.803)"/>
            <path id="Path_1806" d="M240.38 433.5c3.312-.125 6.625-.169 9.937-.257s6.631-.107 9.943-.1c-3.312.132-6.625.169-9.937.257s-6.623.1-9.943.1z" class="cls-9" transform="translate(-49.6 -126.852)"/>
            <path id="Path_1807" d="M273.41 433.255c.163-.4.314-.822.5-1.255h1.637l-.056.107-.59 1.255v.038h-.038zm0 0h1.449l-.056.038.558-1.255.075.113h-1.468l.05-.031z" class="cls-9" transform="translate(-61.909 -126.428)"/>
            <path id="Path_1808" d="M243.8 429.787c3.312-.125 6.625-.169 9.937-.257s6.631-.107 9.943-.1c-3.312.132-6.625.169-9.937.257s-6.631.1-9.943.1z" class="cls-9" transform="translate(-50.874 -125.47)"/>
            <path id="Path_1809" d="M276.83 429.536c.157-.4.314-.822.5-1.255v-.031h1.631l-.05.107-.59 1.255v.038h-.038zm0 0h1.449l-.056.038.558-1.255.075.113h-1.474l.056-.031z" class="cls-9" transform="translate(-63.183 -125.031)"/>
            <path id="Path_1810" d="M247 426.057c3.306-.125 6.625-.169 9.937-.257s6.625-.107 9.937-.1c-3.312.132-6.625.169-9.937.257s-6.631.106-9.937.1z" class="cls-9" transform="translate(-52.067 -124.08)"/>
            <path id="Path_1811" d="M280 425.835c.163-.4.32-.822.5-1.255h1.631l-.056.107-.59 1.255v.038h-.044zm0 0h1.4l.558-1.255.069.113h-1.468l.05-.031z" class="cls-9" transform="translate(-64.364 -123.663)"/>
            <path id="Path_1812" d="M250.51 422.337c3.312-.125 6.625-.169 9.937-.257s6.625-.107 9.943-.1c-3.312.132-6.631.169-9.943.257s-6.625.106-9.937.1z" class="cls-9" transform="translate(-53.375 -122.693)"/>
            <path id="Path_1813" d="M283.53 422.092c.163-.4.32-.822.5-1.255v-.037h1.631l-.05.107-.59 1.255v.038h-.044zm0 0h1.455l-.056.031.558-1.255.069.113h-1.468l.056-.031z" class="cls-9" transform="translate(-65.68 -122.254)"/>
            <path id="Path_1814" d="M253.42 418.617c3.312-.125 6.625-.169 9.937-.257s6.631-.107 9.943-.1c-3.312.132-6.625.169-9.937.257s-6.624.106-9.943.1z" class="cls-9" transform="translate(-54.459 -121.307)"/>
            <path id="Path_1815" d="M286.45 418.362c.163-.389.314-.816.5-1.255v-.038h1.637l-.056.107-.59 1.255v.038h-.038zm0 0h1.393l.558-1.255.075.113h-1.418z" class="cls-9" transform="translate(-66.768 -120.864)"/>
            <path id="Path_1816" d="M257 414.9c3.312-.125 6.631-.169 9.943-.257s6.625-.107 9.937-.1c-3.312.132-6.625.169-9.937.257s-6.612.1-9.943.1z" class="cls-9" transform="translate(-55.793 -119.921)"/>
            <path id="Path_1817" d="M290.05 414.642c.163-.389.32-.816.5-1.255v-.038h1.631l-.056.107-.59 1.255v.038h-.035zm0 0h1.455l-.056.031.558-1.255.069.113h-1.468l.05-.031z" class="cls-9" transform="translate(-68.109 -119.478)"/>
            <path id="Path_1818" d="M261.36 411.177c3.312-.125 6.625-.169 9.937-.257s6.625-.107 9.943-.1c-3.312.132-6.631.169-9.943.257s-6.625.106-9.937.1z" class="cls-9" transform="translate(-57.418 -118.535)"/>
            <path id="Path_1819" d="M294.38 410.922c.163-.389.32-.816.5-1.255v-.038h1.631l-.05.107-.59 1.255v.038h-.044zm0 0h1.4l.558-1.255.069.113h-1.412z" class="cls-9" transform="translate(-69.723 -118.092)"/>
            <path id="Path_1820" d="M265.41 407.457c3.312-.125 6.625-.169 9.937-.257s6.625-.107 9.937-.1c-3.306.132-6.625.169-9.937.257s-6.625.106-9.937.1z" class="cls-9" transform="translate(-58.927 -117.148)"/>
            <path id="Path_1821" d="M298.43 407.232c.163-.389.32-.816.5-1.255v-.038h1.631l-.05.113-.59 1.255v.038h-.044zm0 0h1.455l-.056.031.558-1.255.069.113h-1.468l.056-.031z" class="cls-9" transform="translate(-71.232 -116.717)"/>
            <path id="Path_1822" d="M271.46 404.038l28.231-.489c8.036-.144 13.049 8.965 17.9 17.766 4.253 7.723 8.275 15.025 13.9 14.925l-28.231.5c-5.646.094-9.649-7.2-13.9-14.925-4.851-8.815-9.86-17.915-17.9-17.777z" class="cls-3" transform="translate(-61.182 -115.825)"/>
            <path id="Path_1823" d="M346.593 445.386l28.231-.5c-6.142.107-9.862 1.882-13.457 3.62-3.268 1.575-6.361 3.055-10.966 3.137l-28.231.5c4.611-.082 7.7-1.562 10.966-3.137 3.595-1.726 7.315-3.514 13.457-3.62z" class="cls-11" transform="translate(-80.079 -131.232)"/>
            <path id="Path_1824" d="M338 454.2c2.892-.125 5.79-.169 8.682-.257s5.79-.107 8.689-.094c-2.892.125-5.79.163-8.682.251s-5.797.106-8.689.1z" class="cls-9" transform="translate(-85.978 -134.568)"/>
            <path id="Path_1825" d="M367 453.956c.157-.4.314-.822.5-1.255v-.031h1.631l-.05.113-.59 1.255v.038h-.038zm0 0h1.449l-.056.038.558-1.255.069.113h-1.468l.056-.031z" class="cls-9" transform="translate(-96.785 -134.131)"/>
            <path id="Path_1826" d="M345.32 451.181c3-.125 6-.163 9-.251s6-.107 9-.1c-3 .125-6 .169-9 .257s-6.001.106-9 .094z" class="cls-9" transform="translate(-88.706 -133.444)"/>
            <path id="Path_1827" d="M375.34 450.932c.163-.389.32-.816.5-1.255v-.038h1.631l-.05.113-.59 1.255v.044h-.044zm0 0h1.46l-.056.031.558-1.255.069.107H375.9l.056-.038z" class="cls-9" transform="translate(-99.893 -133.002)"/>
            <path id="Path_1828" d="M353.45 448.379c3-.125 6-.169 9-.257s6-.107 9-.094c-3 .125-6 .163-9 .251s-6.001.107-9 .1z" class="cls-9" transform="translate(-91.736 -132.4)"/>
            <path id="Path_1829" d="M383.48 448.136c.157-.4.314-.822.5-1.255v-.031h1.631l-.05.113-.59 1.255v.038h-.038zm0 0h1.449l-.056.038.558-1.255.069.113h-1.468l.056-.031z" class="cls-9" transform="translate(-102.926 -131.962)"/>
            <path id="Path_1830" d="M361.09 445.385l28.231-.5c2.974-.05 18.1 6.706 18.739 6.995l-28.231.489c-.64-.283-15.759-7.034-18.739-6.984z" class="cls-3" transform="translate(-94.583 -131.231)"/>
        </g>
    </g>
</svg>
