<svg xmlns="http://www.w3.org/2000/svg" width="405" height="286" viewBox="0 0 405 286">
    <defs>
        <style>
            .cls-2{fill:#ad6359}.cls-3{fill:#263238}.cls-4{fill:#37474f}.cls-5{fill:#fff24f}.cls-6{fill:#fff}.cls-7{opacity:.2}.cls-9{opacity:.1}.cls-10{fill:#ebebeb}.cls-11{fill:#dbdbdb}
        </style>
    </defs>
    <g id="Group_276" transform="translate(-313 -4628)">
        <path id="jongsun-lee-F-pSZO_jeE8-unsplash" fill="#f4e130" d="M0 0H405V286H0z" transform="translate(313 4628)"/>
        <g id="freepik--character-3--inject-743" transform="translate(139.116 4413.263)">
            <path id="Path_1534" d="M460.481 421.1c.125 2.282-6.4 2.818-9.127 1.289a65.336 65.336 0 0 1-6.183-5.271c-6.423-5.91-15.31-14.535-15.31-14.535l-6.754 2.886-27.563 10.051-18.493-35.72s15.972-6.412 31.111-12.127q3.5-1.323 6.845-2.544l.422-.16c10.165-3.7 18.6-6.48 19.395-5.864 2.376 1.66 25.52 59.695 25.657 61.995z" class="cls-2" transform="translate(18.475 14.595)"/>
            <path id="Path_1535" d="M455.732 421.1c.125 2.282-6.4 2.818-9.127 1.289a65.332 65.332 0 0 1-6.183-5.271c6.845-.787-25.361-46.068-29.662-52.148 10.165-3.7 18.6-6.48 19.395-5.864 2.293 1.659 25.445 59.694 25.577 61.994z" class="cls-3" transform="translate(23.223 14.595)"/>
            <path id="Path_1536" d="M425.891 407.786s-47.437 21.927-87.161 14.032c-19.132-3.81-24.814-26.023-19.828-33.689s23.388-18.151 33.21-24.745a13.325 13.325 0 0 0 4.461-6.1h36.017s7.849 8.933 3.868 15.881a1.632 1.632 0 0 1-.228.342l12.652-2.67z" class="cls-4" transform="translate(10.043 14.349)"/>
            <path id="Path_1537" d="M399.923 393.789c-1.746-4.347-3.594-8.682-5.545-12.96-1.141-2.419-2.282-4.826-3.525-7.165 0-.091-.205 0-.183.068 1.323 4.495 3.126 8.887 4.894 13.268s3.617 8.682 5.556 12.96c1.141 2.419 2.282 4.814 3.559 7.153 0 0 .148 0 .125-.057a127.946 127.946 0 0 0-4.883-13.268z" class="cls-3" transform="translate(20.393 16.651)"/>
            <path id="Path_1538" d="M391.486 370.67a43.98 43.98 0 0 1-6.971 3.913 68.758 68.758 0 0 1-7.53 2.966c-5.157 1.745-10.393 3.229-15.527 5.031a75.2 75.2 0 0 0-8.283 3.48c-.125 0 0 .285.114.228 10.04-4.312 21.174-5.43 30.974-10.416a36.3 36.3 0 0 0 7.324-5.065.091.091 0 0 0-.1-.137z" class="cls-3" transform="translate(15.105 16.234)"/>
            <path id="Path_1539" d="M484.3 429.2c.125 2.282-6.412 2.818-9.127 1.289a62.145 62.145 0 0 1-6.183-5.271c-6.423-5.91-15.31-14.534-15.31-14.534l-35.23 11.728-17.59-34.506s15.972-6.4 31.122-12.127c2.282-.878 4.632-1.723 6.845-2.544l.411-.16c10.176-3.7 18.6-6.48 19.452-5.864 2.293 1.654 25.441 59.689 25.61 61.989z" class="cls-2" transform="translate(21.829 15.735)"/>
            <path id="Path_1540" d="M479.561 429.2c.125 2.282-6.412 2.818-9.127 1.289a62.141 62.141 0 0 1-6.183-5.271c6.845-.787-25.361-46.068-29.731-52.148 10.176-3.7 18.6-6.48 19.452-5.864 2.27 1.659 25.418 59.694 25.589 61.994z" class="cls-3" transform="translate(26.57 15.735)"/>
            <path id="Path_1541" d="M360.561 357.31h57.316s7.222 18.128 3.24 25.1-44.493 16.269-44.493 16.269l56.518-18.413L448.156 417c-58.366 21.094-83.191 17.592-96.014 13.5-11-3.5-21.106-24.129-15.972-31.681 7.13-10.439 31.4-27.848 31.4-27.848z" class="cls-4" transform="translate(12.523 14.353)"/>
            <path id="Path_1542" d="M424.453 401.019c-1.757-4.358-3.594-8.682-5.545-12.971-1.141-2.407-2.282-4.814-3.525-7.153-.057-.091-.217 0-.183.068a139.446 139.446 0 0 0 4.894 13.268q2.635 6.514 5.556 12.96c1.141 2.419 2.282 4.814 3.559 7.142 0 .068.148 0 .125 0a129.609 129.609 0 0 0-4.883-13.314z" class="cls-3" transform="translate(23.848 17.67)"/>
            <path id="Path_1543" d="M367.606 369.307a251.394 251.394 0 0 0-22.224 17.524c-3.092 2.7-6.343 5.4-8.671 8.819a14.569 14.569 0 0 0-2.282 5.122 13.759 13.759 0 0 0 .3 6.389 41.242 41.242 0 0 0 6.617 13.382c.068.1.251 0 .171-.114a38.024 38.024 0 0 1-5.579-11.682 16.714 16.714 0 0 1-.8-7.028 13.223 13.223 0 0 1 2.122-5.179c2.19-3.343 5.373-6.012 8.328-8.659 3.423-3.012 6.845-5.967 10.268-8.785q5.955-4.757 12.047-9.309c.297-.218.011-.697-.297-.48z" class="cls-3" transform="translate(12.438 16.035)"/>
            <path id="Path_1544" d="M364.921 399.842c2.51-1.084 5.088-2 7.644-2.966l2.784-1.015c-1.552.354-3.115.787-4.689 1.015a.126.126 0 0 1-.068-.24 30.6 30.6 0 0 1 4.708-1.136c.73-.137 1.46-.251 2.19-.365l2.727-.97c5.168-1.837 10.37-3.605 15.55-5.408q15.607-5.431 31.259-10.667c2.909-.981 5.83-1.94 8.739-2.909s5.944-1.825 8.887-2.807c.08 0 .114.1 0 .137-2.624.936-5.2 2.008-7.826 2.966l-7.655 2.749c-5.168 1.871-10.348 3.685-15.527 5.51q-15.538 5.465-31.111 10.8c-2.875.993-5.7 1.974-8.625 2.909s-5.91 1.951-8.9 2.727c-.144.012-.259-.25-.087-.33z" class="cls-3" transform="translate(16.755 16.474)"/>
            <path id="Path_1545" d="M353.842 360a35.807 35.807 0 0 0 2.692 2.886c.9.924 1.837 1.8 2.772 2.692s1.882 1.757 2.852 2.578c.513.434 1.015.856 1.529 1.266a13.086 13.086 0 0 1 1.495 1.244.16.16 0 0 1-.16.251 14.409 14.409 0 0 1-3.274-2.1 37.846 37.846 0 0 1-3.035-2.556 28.026 28.026 0 0 1-2.658-2.921c-.844-1.038-1.54-2.179-2.282-3.263-.079-.077.027-.077.069-.077z" class="cls-3" transform="translate(15.193 14.732)"/>
            <path id="Path_1546" d="M356.773 289.638c.673 7.632 12.812 17.273 16.234 15.8a3.137 3.137 0 0 0 1.768-4.472s10.781 5.853 15.721-1.757-11.352-12.789-11.352-12.789 7.655-.821 6.366-5.02c-2.349-7.586-29.752-3.342-28.737 8.238z" class="cls-3" transform="translate(15.615 3.124)"/>
            <path id="Rectangle_72" d="M0 0H10.256V4.689H0z" class="cls-5" transform="rotate(-74.68 377.141 -94.592)"/>
            <path id="Path_1547" d="M332.338 295.432c-7.552 1.255-16.234 14.147-14.5 17.387a3.126 3.126 0 0 0 4.563 1.415s-5.008 11.2 2.955 15.538 11.876-12.3 11.876-12.3 1.415 7.575 5.5 5.955c7.415-2.908 1.049-29.9-10.394-27.995z" class="cls-3" transform="translate(10.103 5.624)"/>
            <path id="Rectangle_73" d="M0 0H10.256V4.689H0z" class="cls-5" transform="rotate(10.9 -1388.607 1934.881)"/>
            <path id="Path_1548" d="M356.615 304.225c-21.231 21.676-49.718 72.5-53.415 80.259-2.51 5.259 25.019 19.132 26.183 15.31 1.495-4.906 28.27-58.184 34.317-87.412 2.635-12.8-2.818-12.526-7.085-8.157z" class="cls-2" transform="translate(8.05 6.493)"/>
            <path id="Path_1549" d="M334.748 386.307c-.958 2.613-4.233 13.759-6.514 15.139s-14.283 1.141-20.33 1.141-7.233-1.688-7.13-3.765 12.778-2.487 12.778-2.487-16.942 4.86-21.2 5.7-14.078 3.263-15.5-.274c-.639-1.586 2.054-3.194 2.054-3.194s-4.118 1.141-4.78-.844c-.742-2.339 2.533-3.617 2.533-3.617s-2.578.513-2.635-1.38c-.137-4.244 15.972-6.332 15.972-6.332s-12.344 6-12.732 2.544c-.548-4.8 24.734-10.062 27.381-12.15a17.955 17.955 0 0 0 4.21-5.2z" class="cls-2" transform="translate(3.962 16.364)"/>
            <path id="Path_1550" d="M297.57 397a1.86 1.86 0 0 1 .57-1.62 5.339 5.339 0 0 1 1.472-.947 19.573 19.573 0 0 1 3.423-1.141c2.384-.6 4.826-1.027 7.256-1.666a30.108 30.108 0 0 0-7.473.844 13.8 13.8 0 0 0-3.559 1.358 4.848 4.848 0 0 0-1.483 1.289 1.894 1.894 0 0 0-.206 1.883z" class="cls-3" transform="translate(7.257 19.187)"/>
            <path id="Path_1551" d="M278.3 395.916c1.745-.434 3.423-.924 5.179-1.415s3.423-1.027 5.122-1.54l5.1-1.6c1.7-.536 3.423-1.061 5.122-1.574a39.583 39.583 0 0 0-5.294.947c-1.746.4-3.423.9-5.18 1.415s-3.423 1.141-5.077 1.734-3.341 1.269-4.972 2.033z" class="cls-3" transform="translate(4.566 18.928)"/>
            <path id="Path_1552" d="M295.006 386.08a35.142 35.142 0 0 0-4.883.673 48.952 48.952 0 0 0-4.78 1.232 41.859 41.859 0 0 0-4.632 1.734A33.821 33.821 0 0 0 276.33 392c1.552-.536 3.069-1.141 4.62-1.654s3.092-1.05 4.643-1.529 3.115-.947 4.689-1.4 3.138-.903 4.724-1.337z" class="cls-3" transform="translate(4.288 18.405)"/>
            <path id="Path_1553" d="M292.364 382.54a32.561 32.561 0 0 0-14.934 5.088c2.5-.89 4.94-1.825 7.427-2.658s4.974-1.62 7.507-2.43z" class="cls-3" transform="translate(4.443 17.907)"/>
            <path id="Path_1554" d="M351.68 337.075l-18.6-12.025s-1.529 2.419 0 3.788 3.662-.171 3.662-.171a2.886 2.886 0 0 0 .8 3.308c1.654 1.266 3.423-.673 3.423-.673s-.81 2.624 1 3.8 3.719-.719 3.719-.719a2.841 2.841 0 0 0 1 3.7c2.76 1.661 4.996-1.008 4.996-1.008z" class="cls-6" transform="translate(12.187 9.809)"/>
            <path id="Path_1555" d="M351.544 341.622l-18.9-13.006a243.162 243.162 0 0 1 17.956-22.737c8.921-9.663 11.557-3.423 9.366 7.781s-8.422 27.962-8.422 27.962z" class="cls-5" transform="translate(12.22 6.437)"/>
            <path id="Path_1556" d="M352.819 308.922c-1.472-.787-1.791-2.35-.958-2.647s.958 1.072.958 1.072.217-1.335.947-1.072.525 1.86-.947 2.647zm-11.534 14.318c-.73-.262-.958 1.072-.958 1.072s-.217-1.335-.947-1.072-.513 1.86.947 2.647c1.426-.787 1.746-2.351.958-2.647zm12.549 0c-.73-.262-.947 1.072-.947 1.072s-.217-1.335-.958-1.072-.513 1.86.958 2.647c1.4-.787 1.723-2.35.878-2.647zm-6.263-8.739c-.73-.262-.947 1.072-.947 1.072s-.228-1.335-.958-1.072-.513 1.86.958 2.647c1.4-.787 1.711-2.35.878-2.647zm10.633 0c-.662.228-.6 1.232.148 2.031.148-.639.3-1.255.422-1.86a.479.479 0 0 0-.639-.171zm-10.633 16.965c-.73-.262-.947 1.072-.947 1.072s-.228-1.335-.958-1.072-.513 1.86.958 2.647c1.4-.764 1.711-2.35.878-2.647z" class="cls-7" transform="translate(13.112 7.159)"/>
            <path id="Path_1557" d="M336.308 321.932a184.071 184.071 0 0 1 15.436 11.409c.08.057 0 .183-.1.137a184.257 184.257 0 0 1-15.447-11.409c-.083-.057.019-.194.111-.137z" class="cls-3" transform="translate(12.716 9.368)"/>
            <path id="Path_1558" d="M358.615 313.657c-2.179 11.169-8.42 27.962-8.42 27.962l-7.986-5.533 14.42-34.956c2.819.308 3.378 5.43 1.986 12.527z" class="cls-3" transform="translate(13.568 6.44)"/>
            <path id="Path_1559" d="M416.669 365.85c0-.08-64.926 12.549-64.926 12.549-.194-.24-7.621-55.9-3.788-71.109 1.289-5.134 8.465-10.131 17.113-6 23.547 11.156 51.544 64.64 51.601 64.56z" class="cls-5" transform="translate(14.223 6.247)"/>
            <path id="Path_1560" d="M351.284 309.839c-1.472-.787-1.791-2.35-.958-2.647s.958 1.072.958 1.072.217-1.335.947-1.072.525 1.86-.947 2.647zm13.485-2.647c-.73-.262-.958 1.072-.958 1.072s-.217-1.335-.947-1.072-.525 1.86.947 2.647c1.471-.787 1.789-2.35.958-2.646zm10.268 1.278a2.681 2.681 0 0 0 1.289 1.369.467.467 0 0 0 .126-.08zm-18.737-8.59a2.727 2.727 0 0 0 1.221 1.221 2.681 2.681 0 0 0 1.289-1.369 12.033 12.033 0 0 0-2.487.148zm-4.1 24.277c-.73-.262-.947 1.072-.947 1.072s-.217-1.335-.958-1.072-.513 1.86.958 2.647c1.495-.787 1.814-2.35.97-2.647zm12.549 0c-.73-.262-.958 1.072-.958 1.072s-.217-1.335-.947-1.072-.525 1.86.947 2.647c1.483-.787 1.8-2.35.97-2.647zm12.549 0c-.73-.262-.947 1.072-.947 1.072s-.217-1.335-.958-1.072-.513 1.86.958 2.647c1.46-.787 1.78-2.35.936-2.647zm12.127 0c-.411.228-.548 1.05-.548 1.05s-.217-1.335-.947-1.072-.525 1.86.947 2.647a2.658 2.658 0 0 0 1.358-1.574c-.3-.331-.548-.685-.821-1.027zm-30.908-8.757c-.742-.262-.958 1.072-.958 1.072s-.217-1.335-.947-1.072-.525 1.86.947 2.647c1.46-.764 1.78-2.327.947-2.624zm12.549 0c-.73-.262-.947 1.072-.947 1.072s-.228-1.335-.958-1.072-.513 1.86.958 2.647c1.426-.764 1.745-2.327.913-2.624zm11.671.73a2.1 2.1 0 0 0-.091.342 2.51 2.51 0 0 0-.217-.662.8.8 0 0 0-.3-.342.457.457 0 0 0-.388 0c-.833.3-.513 1.86.958 2.647a2.874 2.874 0 0 0 1.015-.878zm-30.506 24.98c-.73-.262-.947 1.072-.947 1.072s-.217-1.335-.958-1.072-.513 1.86.958 2.647c1.472-.776 1.791-2.339.947-2.647zm12.549 0c-.73-.262-.958 1.072-.958 1.072s-.217-1.335-.947-1.072-.525 1.86.947 2.647c1.46-.776 1.78-2.339.947-2.647zm12.549 0c-.73-.262-.947 1.072-.947 1.072s-.217-1.335-.958-1.072-.513 1.86.958 2.647c1.437-.776 1.757-2.339.913-2.647zm12.549 0c-.742-.262-.958 1.072-.958 1.072s-.217-1.335-.947-1.072-.525 1.86.947 2.647c1.426-.776 1.746-2.339.913-2.647zm11.853.308a2.282 2.282 0 0 0-.274.764s-.228-1.335-.958-1.072-.513 1.86.958 2.647a2.9 2.9 0 0 0 1.141-1.027zm-43.181-9.047c-.742-.262-.958 1.072-.958 1.072s-.217-1.335-.947-1.072-.525 1.86.947 2.647c1.426-.753 1.746-2.339.913-2.635zm12.549 0c-.73-.262-.947 1.072-.947 1.072s-.228-1.335-.958-1.072-.513 1.86.958 2.647c1.392-.753 1.711-2.339.878-2.635zm12.549 0c-.73-.262-.947 1.072-.947 1.072s-.217-1.335-.958-1.072-.513 1.86.958 2.647c1.38-.753 1.7-2.339.856-2.635zm12.036.1a1.916 1.916 0 0 0-.456.97s-.217-1.335-.947-1.072-.513 1.86.947 2.647a2.681 2.681 0 0 0 1.289-1.369 6.034 6.034 0 0 1-.867-1.164zm-43.352 25.6c-.73-.262-.947 1.072-.947 1.072s-.217-1.335-.958-1.072-.513 1.86.958 2.647c1.369-.776 1.688-2.339.844-2.635zm12.549 0c-.73-.262-.958 1.072-.958 1.072s-.217-1.335-.947-1.072-.525 1.86.947 2.647c1.358-.776 1.677-2.339.844-2.635zm12.549 0c-.73-.262-.947 1.072-.947 1.072s-.217-1.335-.958-1.072-.513 1.86.958 2.647c1.335-.776 1.654-2.339.81-2.635zm12.549 0c-.742-.262-.958 1.072-.958 1.072s-.217-1.335-.947-1.072-.525 1.86.947 2.647c1.323-.776 1.643-2.339.81-2.635zm12.549 0c-.73-.262-.947 1.072-.947 1.072s-.228-1.335-.958-1.072-.513 1.86.958 2.647c1.3-.776 1.609-2.339.776-2.635zm-43.854-8.739c-.742-.262-.958 1.072-.958 1.072s-.217-1.335-.947-1.072-.525 1.86.947 2.647c1.3-.776 1.62-2.339.787-2.635zm12.549 0c-.73-.262-.947 1.072-.947 1.072s-.228-1.335-.958-1.072-.513 1.86.958 2.647c1.266-.776 1.586-2.339.753-2.635zm12.549 0c-.73-.262-.947 1.072-.947 1.072s-.217-1.335-.958-1.072-.513 1.86.958 2.647c1.255-.776 1.574-2.339.73-2.635zm12.549 0c-.73-.262-.958 1.072-.958 1.072s-.217-1.335-.947-1.072-.513 1.86.947 2.647c1.244-.776 1.563-2.339.73-2.635zm10.6 0c-.8.319-.479 1.86.981 2.635a3.026 3.026 0 0 0 .445-.3 14.17 14.17 0 0 1-1.654-2.316zm-54.464 25.692c-.73-.262-.947 1.072-.947 1.072a1.962 1.962 0 0 0-.445-.97c.16 1.141.274 1.951.354 2.487l.091.057c1.244-.764 1.563-2.339.719-2.624zm10.633 0c-.422.148-.548.616-.388 1.141l1.3-.251c-.3-.331-.582-1.072-1.141-.867zm1.905 0c-.548-.194-.81.5-.913.867l1.358-.251a.673.673 0 0 0-.673-.593zm-6.263-8.739c-.742-.262-.958 1.072-.958 1.072s-.217-1.335-.947-1.072-.525 1.86.947 2.647c1.243-.764 1.563-2.327.73-2.624zm12.549 0c-.73-.262-.947 1.072-.947 1.072s-.228-1.335-.958-1.072-.513 1.86.958 2.647c1.209-.764 1.529-2.327.7-2.624zm12.549 0c-.73-.262-.947 1.072-.947 1.072s-.217-1.335-.958-1.072-.513 1.86.958 2.647c1.2-.764 1.517-2.327.673-2.624zm12.549 0c-.73-.262-.958 1.072-.958 1.072s-.217-1.335-.947-1.072-.513 1.86.947 2.647c1.186-.764 1.506-2.327.673-2.624zm12.549 0c-.73-.262-.947 1.072-.947 1.072s-.217-1.335-.958-1.072c-.491.171-.582.776-.274 1.4l2.624-.5a.764.764 0 0 0-.753-.878z" class="cls-7" transform="translate(14.647 6.241)"/>
            <path id="Path_1561" d="M360.216 304.191c.16 1.312-2.761 11.306-8.408 13.074-1.837.57-5.4-9.332-5.4-9.332l-.433-.673-5.975-9.39 10.564-13.69s9.583 19.452 9.652 20.011z" class="cls-2" transform="translate(13.257 4.052)"/>
            <path id="Path_1562" d="M340 297.876l6.012 9.389.434.673s.65 1.791 1.529 3.81c7.153-3.879 8.545-10.827 8.625-15.3-2.738-5.647-6.035-12.31-6.035-12.31z" class="cls-3" transform="translate(13.257 4.047)"/>
            <path id="Path_1563" d="M319.353 294.852c7.827 22.578 22.236 20.448 27.107 18.748 4.415-1.54 19.258-7.324 13.816-30.6s-18.425-26.764-28.715-23.787-20.08 13.062-12.208 35.639z" class="cls-2" transform="translate(9.945 .408)"/>
            <path id="Path_1564" d="M321.9 289.054c.491-.285.9-.627 1.358-.947a2.411 2.411 0 0 0 1.141-1.232.844.844 0 0 0-.411-.958 2.088 2.088 0 0 0-2.1.365 3.091 3.091 0 0 0-1.358 1.768.913.913 0 0 0 1.369 1z" class="cls-3" transform="translate(10.511 4.278)"/>
            <path id="Path_1565" d="M335.544 283.928a15.055 15.055 0 0 1-1.62.319 2.658 2.658 0 0 1-1.711 0 .833.833 0 0 1-.4-.947 2.088 2.088 0 0 1 1.711-1.278 3.126 3.126 0 0 1 2.225.251.9.9 0 0 1-.205 1.654z" class="cls-3" transform="translate(12.099 3.734)"/>
            <path id="Path_1566" d="M334.428 286.932c2.362-1.141 4.495 3.639 2.282 4.712s-4.255-3.744-2.282-4.712z" class="cls-3" transform="translate(12.359 4.415)"/>
            <path id="Path_1567" d="M335.287 286.93a3.9 3.9 0 0 0 1.688.205c.548-.171.833-.9.993-1.552 0-.068.08 0 .1 0a1.905 1.905 0 0 1-.434 2.59c-.844.536-1.848 0-2.487-.821-.156-.152-.076-.452.14-.422z" class="cls-3" transform="translate(12.562 4.246)"/>
            <path id="Path_1568" d="M324.87 290.649c-2.464.9-.479 5.761 1.814 4.928s.251-5.658-1.814-4.928z" class="cls-3" transform="translate(10.966 4.953)"/>
            <path id="Path_1569" d="M324.328 291.288c-.285.411-.468 1.038-.913 1.255s-1.141-.114-1.677-.479c-.057 0-.08 0-.057.091.365.935 1.061 1.78 2.031 1.586s1.141-1.209.993-2.225c-.069-.183-.305-.399-.377-.228z" class="cls-3" transform="translate(10.675 5.045)"/>
            <path id="Path_1570" d="M339.071 298.708a2.61 2.61 0 0 1-.8 1.472 4.21 4.21 0 0 1-1.746.411.057.057 0 0 0 0 .114 2.191 2.191 0 0 0 2.282-.137 1.734 1.734 0 0 0 .5-1.86c-.088-.103-.213-.068-.236 0z" class="cls-3" transform="translate(12.76 6.09)"/>
            <path id="Path_1571" d="M331.766 297.405a31.48 31.48 0 0 0 1.141 3.423c0 .091.319 0 .685-.1a5.453 5.453 0 0 0 4.05-3.97.115.115 0 0 0-.217-.08 8.236 8.236 0 0 1-4 3.286c-.205-.262-1-4.13-1.141-4.027-.65.422-1.745 1.255-2.156 1.574-.456-1.529-1.552-5.932-2.4-8.7 0-.171-.331-.114-.3 0a76.548 76.548 0 0 0 2.008 10.017c.064.289 1.987-1.058 2.33-1.423z" class="cls-3" transform="translate(11.486 4.688)"/>
            <path id="Path_1572" d="M332.57 298.914a6.663 6.663 0 0 0 3.149 1.209 2.943 2.943 0 0 0 1.78-.422c1.141-.707.844-1.871.319-2.8a6.848 6.848 0 0 0-1.027-1.346 8.637 8.637 0 0 1-4.221 3.354z" class="cls-3" transform="translate(12.21 5.655)"/>
            <path id="Path_1573" fill="#ff9cbd" d="M335.331 299.957a2.943 2.943 0 0 0 1.78-.422c1.141-.707.844-1.871.319-2.8a3.114 3.114 0 0 0-2.099 3.222z" transform="translate(12.597 5.821)"/>
            <path id="Path_1574" d="M362.6 283.943c-4.278 3.423-12.549-5.7-14.922-9.344 0 0 2.59 6.218-1.643 7.233s-10.792-5.7-10.792-5.7-1.027 6.457-4.78 7.438-8.123-4.461-8.123-4.461-1.529 8.682-6.161 9.3c-3.776.5-4.643-7.7-2.419-11.066 0 0-4.1 3.023-4.563-.662s4.917-6.526 4.917-6.526a36.437 36.437 0 0 1 9.127-10.872c5.8-4.415 16.086-5.442 21.517-1.015a19.4 19.4 0 0 1 13.279 4.814c5.701 5.299 7.709 18.328 4.563 20.861z" class="cls-3" transform="translate(8.913)"/>
            <path id="Path_1575" d="M346.29 279.191l4.061-6.891 1.746 1.221-4.814 6.332z" class="cls-5" transform="translate(14.143 2.379)"/>
            <path id="Path_1576" d="M347.67 280.228l5.225-6.058 1.495 1.517-5.864 5.373z" class="cls-5" transform="translate(14.337 2.642)"/>
            <path id="Path_1577" d="M352.21 283.624s1.723-8.933 5.567-8.613 4.678 11.785 1.654 14.751a4.039 4.039 0 0 1-5.83.228z" class="cls-2" transform="translate(14.976 2.76)"/>
            <path id="Path_1578" d="M357.619 277.89v.091c-2.088 2.168-2.373 5.122-2.213 7.986a2.282 2.282 0 0 1 2.8-1.917c.091 0 .068.148 0 .171a2.476 2.476 0 0 0-2.145 1.905 11.946 11.946 0 0 0-.3 2.556.258.258 0 0 1-.513 0v-.068c-1.462-3.172-.972-8.842 2.371-10.724z" class="cls-3" transform="translate(15.295 3.166)"/>
            <path id="Path_1579" d="M375.606 313.042c7.165 22.6 4.335 57.967 1.928 66.877-3.662 13.576-47.357 23.422-56 25.943-3.685 1.084-8.34-33.5-4.427-34.739 3.423-1.072 37.386-7.507 37.705-8.99.274-1.244 6.845-29.3 10.564-47.209 3.224-15.435 8.336-7.86 10.23-1.882z" class="cls-2" transform="translate(9.823 7.1)"/>
            <path id="Path_1580" d="M331.6 412.647l-75 8.921-2.247-8.431 16.189-7.45 4.558-14.237 32.959-6.56 9.56 13.154 12.025 3.411z" class="cls-5" transform="translate(1.192 18.238)"/>
            <path id="Path_1581" d="M257.776 419.009l-10.656-7.986-1.141-7.963 9.549 7.518z" class="cls-5" transform="translate(.014 20.797)"/>
            <path id="Path_1582" d="M257.776 419.009l-10.656-7.986-1.141-7.963 9.549 7.518z" class="cls-7" transform="translate(.014 20.797)"/>
            <path id="Path_1583" d="M259.1 397.854l10.77 7.872 4.563-14.238-10.941-6.868z" class="cls-5" transform="translate(1.862 18.2)"/>
            <path id="Path_1584" d="M259.1 397.854l10.77 7.872 4.563-14.238-10.941-6.868z" class="cls-7" transform="translate(1.862 18.2)"/>
            <path id="Path_1585" d="M255.529 411.542l-9.549-7.518 14.968-7.8 10.77 7.872z" class="cls-5" transform="translate(.014 19.834)"/>
            <path id="Path_1586" d="M255.529 411.542l-9.549-7.518 14.968-7.8 10.77 7.872z" class="cls-9" transform="translate(.014 19.834)"/>
            <path id="Path_1587" d="M262.95 385.421l10.941 6.868 32.959-6.56-10.53-6.8z" class="cls-5" transform="translate(2.404 17.398)"/>
            <path id="Path_1588" d="M262.95 385.421l10.941 6.868 32.959-6.56-10.53-6.8z" class="cls-9" transform="translate(2.404 17.398)"/>
            <path id="Path_1589" d="M288.2 390.65l1.768 10.279-18.037 3.092 3.411-10.747z" class="cls-6" transform="translate(3.669 19.049)"/>
            <path id="Path_1590" d="M308.523 397.751l-18.436 3.16-2-10.313 13.416-2.738z" class="cls-6" transform="translate(5.945 18.656)"/>
            <path id="Path_1591" d="M267.894 401.594l-6.914-4.62 2.966-9.264 7.028 4.541z" class="cls-6" transform="translate(2.126 18.635)"/>
            <path id="Path_1592" d="M246.872 406.153a.9.9 0 0 0-.662.548 2.031 2.031 0 0 0-.171 1.882 1.312 1.312 0 0 0 1.141.947 1.141 1.141 0 0 0 .97-.97c.228-.81-.092-2.66-1.278-2.407z" class="cls-10" transform="translate(0 21.229)"/>
            <path id="Path_1593" d="M253.122 410.913a.9.9 0 0 0-.662.548 2.031 2.031 0 0 0-.171 1.882 1.312 1.312 0 0 0 1.141.947 1.141 1.141 0 0 0 .97-.97c.274-.81-.046-2.658-1.278-2.407z" class="cls-10" transform="translate(.88 21.9)"/>
            <path id="Path_1594" d="M270.553 409.7c-7.929-1.392-10.119 10.941-2.168 12.344s10.115-10.937 2.168-12.344z" class="cls-3" transform="translate(2.468 21.717)"/>
            <path id="Path_1595" d="M269.6 412.507c-3.81-.673-4.86 5.259-1.038 5.932s4.864-5.259 1.038-5.932z" class="cls-11" transform="translate(2.857 22.12)"/>
            <path id="Path_1596" d="M308.825 406.383c-7.986-1.392-10.119 10.941-2.168 12.333s10.12-10.929 2.168-12.333z" class="cls-3" transform="translate(7.856 21.25)"/>
            <path id="Path_1597" d="M307.864 409.187c-3.81-.673-4.86 5.259-1.038 5.932s4.86-5.259 1.038-5.932z" class="cls-11" transform="translate(8.246 21.653)"/>
            <path id="Path_1598" d="M289.26 401.01a.08.08 0 1 0-.16 0 45.1 45.1 0 0 0 1.745 11.637c.057.194.376.126.342-.068-.695-3.903-1.402-7.724-1.927-11.569z" class="cls-7" transform="translate(6.087 20.497)"/>
            <path id="Path_1599" d="M288.672 402.82l-4.267.434-.126-1.2 4.3-.205z" class="cls-7" transform="translate(5.408 20.627)"/>
            <path id="Path_1600" d="M305.752 399.93l-4.267.456-.126-1.209 4.3-.217z" class="cls-7" transform="translate(7.814 20.22)"/>
            <path id="Path_1601" d="M331.213 363.224s-2.111.228-13.439-.331c-7.838-.388-27.187 3.685-36.234 23.8-3.423 7.712.434 13.508 5.453 6.138 3.537-5.191 5.545-9.127 7.176-10.462 0 0 .707 9.595 5.476 12.47a102.674 102.674 0 0 0 12.994 6.64 19.327 19.327 0 0 0 1.46-2.282 11.705 11.705 0 0 0 12.413-1.335z" class="cls-2" transform="translate(4.839 15.136)"/>
            <path id="Path_1602" d="M309.19 363.62c-3.229 2.544-9.982 8.066-13.941 14.5-4.392 7.142-10.929 22.1-5.613 25.281 3.89 2.339 6.845-3.149 6.845-3.149s-1.4 6.754 2.578 8.089c3.628 1.232 5.7-3.16 5.7-3.16s-.137 4.244 3.582 4.746c4.472.6 4.039-8.374 9.127-11.671 1.145-.741-8.278-34.636-8.278-34.636z" class="cls-2" transform="translate(5.882 15.242)"/>
            <path id="Path_1603" d="M302.492 379.29a33.427 33.427 0 0 0-7.142 18.61c0 .171.125.262.16.1a82.222 82.222 0 0 1 7.051-18.664z" class="cls-3" transform="translate(6.967 17.449)"/>
            <path id="Path_1604" d="M308.562 383.361c-2.019 2.738-6.1 11.294-6.012 19 0 .171.125.262.16.1a88.268 88.268 0 0 1 5.921-19.064s-.046-.07-.069-.036z" class="cls-3" transform="translate(7.981 18.021)"/>
            <path id="Path_1605" d="M327.687 392.5a2.282 2.282 0 0 1-.57.148l-.513.114-1 .205a23.243 23.243 0 0 0-2.282.719 11.408 11.408 0 0 1-4.643 2.133 11.946 11.946 0 0 1-3.731.239l-1.483-.308a11.821 11.821 0 0 0-2.681 4.039 22.12 22.12 0 0 1-1.848 4.176 3 3 0 0 1-3.765 1.141 4.187 4.187 0 0 1-2.282-3.594c0-.068-.1-.068-.114 0a4.666 4.666 0 0 0 1.745 3.925 3.308 3.308 0 0 0 3.982 0 7.062 7.062 0 0 0 2.282-3.936 22.65 22.65 0 0 1 2.772-5.476h.183a8.761 8.761 0 0 0 2.339.753 9.263 9.263 0 0 0 2.806 0 8.739 8.739 0 0 0 4.86-2.624s1.472-.468 2.111-.719l.947-.376.456-.171a2.439 2.439 0 0 1 .593-.205c.03-.033-.038-.25-.164-.183z" class="cls-3" transform="translate(8.012 19.308)"/>
            <path id="Path_1606" d="M376.18 338.488l-21.927-2.738s-.331 2.841 1.7 3.423 3.217-1.757 3.217-1.757a2.875 2.875 0 0 0 2.156 2.635c2.054.422 2.829-2.111 2.829-2.111s.411 2.715 2.556 2.989 3.035-2.282 3.035-2.282a2.841 2.841 0 0 0 2.51 2.9c3.079.318 3.924-3.059 3.924-3.059z" class="cls-6" transform="translate(15.261 11.316)"/>
            <path id="Path_1607" d="M376.616 343.967l-22.726-3.274a243.732 243.732 0 0 1 6.024-28.339c3.708-12.618 8.842-8.157 11.842 2.818s4.86 28.795 4.86 28.795z" class="cls-5" transform="translate(15.213 6.944)"/>
            <path id="Path_1608" d="M363.027 308.921a2.533 2.533 0 0 1-1.38-1.7 10.508 10.508 0 0 1 .616-.981c.57 0 .753 1.141.753 1.141s.228-1.335.958-1.072.526 1.825-.947 2.612zm.958 14.318c-.73-.262-.958 1.072-.958 1.072s-.217-1.335-.947-1.072-.525 1.86.947 2.647c1.472-.787 1.791-2.35.958-2.647zm6.263-8.739c-.73-.262-.947 1.072-.947 1.072s-.228-1.335-.958-1.072-.513 1.86.958 2.647c1.46-.787 1.78-2.35.947-2.647zm-6.263 25.692c-.73-.262-.958 1.072-.958 1.072s-.217-1.335-.947-1.072c-.5.171-.593.8-.274 1.449l2.282.319c.501-.73.479-1.551-.103-1.768zm12.025.1a1.962 1.962 0 0 0-.445.97s-.217-1.335-.958-1.072-.513 1.86.958 2.647a3.424 3.424 0 0 0 .673-.479c-.057-.548-.137-1.244-.228-2.054zm-18.254-8.842c-.742-.262-.958 1.072-.958 1.072s-.217-1.335-.947-1.072-.525 1.86.947 2.647c1.438-.753 1.757-2.339.924-2.635zm12.549 0c-.73-.262-.947 1.072-.947 1.072s-.228-1.335-.958-1.072-.513 1.86.958 2.647c1.4-.753 1.723-2.339.89-2.635z" class="cls-7" transform="translate(15.432 7.16)"/>
            <path id="Path_1609" d="M355.632 332.28a184.977 184.977 0 0 1 19.1 2.042c.091 0 .068.171 0 .16a185.132 185.132 0 0 1-19.109-2.019.091.091 0 0 1 .009-.183z" class="cls-3" transform="translate(15.445 10.827)"/>
            <path id="Path_1610" d="M358.128 317.565c-.776 2.647-1.449 5.328-2.054 7.986 0-.936.1-1.86.148-2.8a.091.091 0 0 0-.183 0c-.057.878-.114 1.746-.16 2.624l-.08 1.255a1.382 1.382 0 0 1 0 .217c-.08.365-.16.742-.228 1.141l-.068.285a75.815 75.815 0 0 0-1.814 10.69c0 .125.16.125.194 0a102.882 102.882 0 0 0 2.282-10.678c.73-3.571 1.426-7.165 2.019-10.758.035.004-.045-.019-.056.038z" class="cls-3" transform="translate(15.185 8.749)"/>
            <path id="Path_1611" d="M373.315 331.341a4.573 4.573 0 0 0-.091-.548 9.136 9.136 0 0 1 .091-.958c0-.513.068-1.038.08-1.563V325.1h-.08c0 1.038-.137 2.076-.171 3.126v1.631c-.445-2.829-.924-5.647-1.529-8.454 0-.08-.137 0-.125 0 .251 3.423.65 6.845 1.141 10.211a87.039 87.039 0 0 0 1.552 9.72h-.673a.091.091 0 0 0 0 .183c.3.08.6.114.9.194a.217.217 0 0 0 .285-.217 85.716 85.716 0 0 0-1.38-10.154z" class="cls-3" transform="translate(17.692 9.29)"/>
            <path id="Path_1612" d="M343.424 358.051c-2.282.582-11.249 2.6-13.5 3.08l-6.845 1.495-3.308.707a6.4 6.4 0 0 1-1.677.24 13.94 13.94 0 0 1-1.677-.3 15.265 15.265 0 0 0-7.062.411c-.1 0-.08.194 0 .183a20.263 20.263 0 0 1 6.845.354 6.845 6.845 0 0 0 2.829.342c1.141-.194 2.19-.456 3.286-.673 4.563-.924 18.71-4.62 21.243-5.567.095-.055.026-.329-.134-.272z" class="cls-3" transform="translate(8.931 14.456)"/>
        </g>
    </g>
</svg>
