<svg xmlns="http://www.w3.org/2000/svg" width="405" height="286" viewBox="0 0 405 286">
    <defs>
        <style>
            .cls-2{fill:#60e6b2}
        </style>
    </defs>
    <g id="Group_283" transform="translate(-535 -2182)">
        <path id="narciso-arellano-XGs1Dwk9V9M-unsplash" fill="#4dce9c" d="M0 0H405V286H0z" transform="translate(535 2182)"/>
        <g id="Page-1" transform="translate(656.306 2268.718)">
            <g id="_001---Accessibility" transform="translate(1.786 -29.214)">
                <path id="Shape" d="M89.5 4A85.5 85.5 0 1 0 175 89.5 85.5 85.5 0 0 0 89.5 4zm0 164.416a78.92 78.92 0 1 1 78.92-78.92 78.92 78.92 0 0 1-78.92 78.92z" class="cls-2" transform="translate(-4 -4)"/>
                <path id="Shape-2" d="M43.73 48.46A19.73 19.73 0 1 0 24 28.73a19.73 19.73 0 0 0 19.73 19.73zm0-32.883A13.153 13.153 0 1 1 30.577 28.73 13.153 13.153 0 0 1 43.73 15.577z" class="cls-2" transform="translate(41.766 7.442)"/>
                <path id="Shape-3" d="M115.069 22.03h-.053l-34.527 3.1q-1.766.161-3.535.161H61.591q-1.766 0-3.528-.158l-34.586-3.1A9.866 9.866 0 1 0 21.931 41.7l27.908 2.532a3.288 3.288 0 0 1 2.992 3.272v7.563a13.12 13.12 0 0 1-.908 4.8L36.1 100.171a9.867 9.867 0 0 0 18.046 7.987l15.08-36.872 15.222 36.971a9.865 9.865 0 0 0 18.053-7.948L86.622 59.863a13.153 13.153 0 0 1-.908-4.8V47.5a3.288 3.288 0 0 1 2.992-3.272l27.863-2.528a9.866 9.866 0 1 0-1.5-19.674zm.95 13.127l-27.907 2.532a9.816 9.816 0 0 0-8.974 9.816v7.563a19.68 19.68 0 0 0 1.362 7.211l15.935 40.575a3.288 3.288 0 0 1-5.949 2.8L75.3 68.787a6.521 6.521 0 0 0-12.055 0L48.1 105.56a3.288 3.288 0 1 1-5.919-2.848L58.06 62.266a19.651 19.651 0 0 0 1.348-7.2V47.5a9.816 9.816 0 0 0-8.974-9.822L22.48 35.157a3.3 3.3 0 1 1 .464-6.577l34.527 3.1q2.052.184 4.114.184h15.363q2.062 0 4.114-.184l34.511-3.1a3.3 3.3 0 1 1 .447 6.577z" class="cls-2" transform="translate(16.223 37.185)"/>
            </g>
        </g>
    </g>
</svg>
