<svg xmlns="http://www.w3.org/2000/svg" width="405" height="286" viewBox="0 0 405 286">
    <defs>
        <style>
            .cls-2{fill:#60e6b2}
        </style>
    </defs>
    <g id="Group_284" transform="translate(-980 -2182)">
        <path id="ant-rozetsky-Lt8rGTnhW2w-unsplash" fill="#4dce9c" d="M0 0H405V286H0z" transform="translate(980 2182)"/>
        <g id="fast-food" transform="translate(1097.504 2239.504)">
            <path id="Path_1455" d="M64.357 220.148a15.034 15.034 0 0 1-7.577-13.043 41.793 41.793 0 0 1 41.746-41.746h17.2L116.54 152H19.063l7 115.522a5.01 5.01 0 0 0 5 4.707H61.8a24.917 24.917 0 0 1-5.02-15.029 15.054 15.054 0 0 1 9.925-14.135 19.969 19.969 0 0 1 .007-21.836c-1.633-.367-2.54-.729-2.355-1.081zm0 0" class="cls-2" transform="translate(-12.696 -101.237)"/>
            <path id="Path_1456" d="M55.1 40.746h50.1a5.01 5.01 0 1 0 0-10.019H64.353l13.5-20.706h17.328a5.01 5.01 0 0 0 0-10.021H75.143a5.006 5.006 0 0 0-4.2 2.273L52.392 30.725H5.01a5.01 5.01 0 1 0 0 10.019H55.1zm0 0" class="cls-2"/>
            <path id="Path_1457" d="M162 253.727a5.009 5.009 0 0 0 5.01 5.01h106.87a5.009 5.009 0 0 0 5.01-5.01A31.763 31.763 0 0 0 247.162 222h-53.435A31.763 31.763 0 0 0 162 253.727zm0 0" class="cls-2" transform="translate(-107.897 -147.859)"/>
            <path id="Path_1458" d="M192.019 362a10.019 10.019 0 1 0 0 20.038h83.493a10.019 10.019 0 0 0 0-20.038zm0 0" class="cls-2" transform="translate(-121.217 -241.103)"/>
            <path id="Path_1459" d="M273.88 452H167.01a5.009 5.009 0 0 0-5.01 5.01 15.046 15.046 0 0 0 15.029 15.029h86.832a15.046 15.046 0 0 0 15.029-15.029 5.009 5.009 0 0 0-5.01-5.01zm0 0" class="cls-2" transform="translate(-107.897 -301.046)"/>
        </g>
    </g>
</svg>
