<svg xmlns="http://www.w3.org/2000/svg" width="405" height="286" viewBox="0 0 405 286">
    <defs>
        <style>
            .cls-2{fill:#60e6b2}
        </style>
    </defs>
    <g id="Group_282" transform="translate(-90 -2182)">
        <path id="nasa-5e9CmF-Ge9Y-unsplash" fill="#4dce9c" d="M0 0H405V286H0z" transform="translate(90 2182)"/>
        <g id="park-tickets-couple" transform="translate(189.795 2239.505)">
            <path id="Path_1453" d="M184.461 486.769a8.64 8.64 0 0 1-8.243 6.8 2.812 2.812 0 0 0-1.076 5.345 8.634 8.634 0 0 1 4.981 9.458l-.729 3.644c-.954 4.807-6.265 7.809-10.916 6.664-1.3-.312-2.638-.555-3.957-.816-1.944-.382-3.887-.781-5.831-1.163-2.569-.521-5.137-1.024-7.705-1.544-3.054-.607-6.126-1.232-9.18-1.84-3.419-.694-6.837-1.371-10.256-2.065-3.644-.729-7.306-1.458-10.95-2.2-3.749-.746-7.5-1.51-11.228-2.256-3.714-.746-7.41-1.493-11.124-2.239l-10.62-2.135c-3.245-.642-6.473-1.3-9.718-1.944-2.811-.555-5.623-1.128-8.417-1.683l-6.733-1.354-4.633-.937c-.712-.139-1.423-.3-2.135-.434-.035 0-.069-.018-.1-.018a8.794 8.794 0 0 1-.625 5.536 8.894 8.894 0 0 1-9.753 5 2.618 2.618 0 0 0-2.933 1.284l-1.562 3.384a2.623 2.623 0 0 0 .92 3.071c.174.139 125.259 57.806 125.467 57.857a2.618 2.618 0 0 0 2.933-1.284l1.562-3.384a2.623 2.623 0 0 0-.92-3.071 8.88 8.88 0 0 1 7.237-15.653 2.618 2.618 0 0 0 2.933-1.284l1.562-3.384a2.623 2.623 0 0 0-.92-3.072 8.88 8.88 0 0 1 7.236-15.653 2.618 2.618 0 0 0 2.933-1.284l1.562-3.384a2.623 2.623 0 0 0-.92-3.072 8.88 8.88 0 0 1 7.237-15.653 2.618 2.618 0 0 0 2.933-1.284l1.718-3.749a2.137 2.137 0 0 0-1.041-2.846l-18.69-8.625z" class="cls-2" transform="translate(-33.564 -401.251)"/>
            <path id="Path_1454" d="M1.846 84.321c.208.1 135.238 27.193 135.463 27.193a2.623 2.623 0 0 0 2.551-1.926l.729-3.644a2.633 2.633 0 0 0-1.614-2.777 8.887 8.887 0 0 1 3.4-16.92 2.623 2.623 0 0 0 2.551-1.926l.538-2.672.191-.989a2.633 2.633 0 0 0-1.614-2.777 8.887 8.887 0 0 1 3.4-16.92A2.623 2.623 0 0 0 150 59.036l.729-3.644a2.633 2.633 0 0 0-1.614-2.777 8.887 8.887 0 0 1 3.4-16.92 2.623 2.623 0 0 0 2.551-1.926l.815-4.043a2.138 2.138 0 0 0-1.681-2.516S18.506 0 18.367 0a2.151 2.151 0 0 0-2.1 1.718l-.815 4.042a2.633 2.633 0 0 0 1.614 2.777 8.887 8.887 0 0 1-3.4 16.92 2.623 2.623 0 0 0-2.551 1.926l-.729 3.644A2.633 2.633 0 0 0 12 33.8a8.887 8.887 0 0 1-3.4 16.92 2.623 2.623 0 0 0-2.554 1.93l-.729 3.644a2.633 2.633 0 0 0 1.614 2.777 8.888 8.888 0 0 1-3.4 16.92 2.623 2.623 0 0 0-2.552 1.926L.25 81.562a2.576 2.576 0 0 0 1.596 2.759zm115.663-44.478a4.336 4.336 0 0 1 8.5 1.7l-5.727 28.495-3.519 17.562a4.339 4.339 0 0 1-4.252 3.488 4.711 4.711 0 0 1-.85-.087 4.343 4.343 0 0 1-3.4-5.1l3.939-19.593zM39.278 24.138a4.336 4.336 0 1 1 8.5 1.7l-1.978 9.84-2.235 11.159-1.8 8.989L38.55 71.9a4.339 4.339 0 0 1-4.25 3.484 4.708 4.708 0 0 1-.85-.087 2.063 2.063 0 0 1-.347-.087 4.325 4.325 0 0 1-3.039-5.01l.642-3.245 1.683-8.4z" class="cls-2"/>
        </g>
    </g>
</svg>
