<svg xmlns="http://www.w3.org/2000/svg" width="405" height="286" viewBox="0 0 405 286">
    <defs>
        <style>
            .cls-2{fill:#455a64}.cls-3{fill:#fff24f}.cls-4{opacity:.3}.cls-5{fill:#fff}.cls-6{opacity:.4}.cls-7{fill:#263238}.cls-8{fill:#ffbe9d}.cls-9{fill:#eb996e}.cls-10{fill:#e0e0e0}
        </style>
    </defs>
    <g id="Group_281" transform="translate(-1203 -1008)">
        <path id="heart-2607178_1920" fill="#f4e130" d="M0 0H405V286H0z" transform="translate(1203 1008)"/>
        <g id="Learning-pana" transform="translate(1256.371 967.471)">
            <g id="freepik--Elements--inject-44" transform="translate(43.821 72.673)">
                <path id="Path_1192" d="M81.9 115.94a.6.6 0 0 1 .049.147l.12.437a6.308 6.308 0 0 0 .224.71c.1.273.2.6.36.939l.24.546.311.59a5.747 5.747 0 0 0 .36.628c.137.207.257.437.42.655a14.137 14.137 0 0 0 6.187 5.051 13.289 13.289 0 0 0 2.353.737 22.658 22.658 0 0 0 2.594.36 19.629 19.629 0 0 1 5.57 1.016 13.547 13.547 0 0 1 4.849 3.631 17.627 17.627 0 0 1 3.342 5.067 9.4 9.4 0 0 1 .666 2.829 10.615 10.615 0 0 1-.175 2.774 33.5 33.5 0 0 1-1.474 4.914 23.168 23.168 0 0 0-1.169 4.281 8.9 8.9 0 0 0 .137 3.626 6.755 6.755 0 0 0 1.185 2.468 4.969 4.969 0 0 0 1.278 1.179c.333.213.546.295.546.306a3.528 3.528 0 0 1-.546-.273 4.915 4.915 0 0 1-1.311-1.169 6.684 6.684 0 0 1-1.229-2.485 9 9 0 0 1-.169-3.675 23.654 23.654 0 0 1 1.158-4.308 34.243 34.243 0 0 0 1.452-4.914 10.839 10.839 0 0 0 .164-2.73 9.064 9.064 0 0 0-.661-2.768 17.583 17.583 0 0 0-3.309-5.018 13.378 13.378 0 0 0-4.783-3.582 19.338 19.338 0 0 0-5.515-1.016 24.612 24.612 0 0 1-2.61-.371 13.469 13.469 0 0 1-2.4-.721 14.077 14.077 0 0 1-6.209-5.138c-.164-.218-.289-.448-.42-.661a6.854 6.854 0 0 1-.355-.639l-.306-.59-.235-.546a8.735 8.735 0 0 1-.349-.95 6 6 0 0 1-.2-.715c-.044-.191-.082-.339-.1-.442a1.212 1.212 0 0 1-.04-.18z" class="cls-2" transform="translate(-69.723 -92.314)"/>
                <path id="Path_1193" d="M102.23 105.34l.12.109.339.328c.147.147.311.344.546.546a4.073 4.073 0 0 1 .633.83 11.729 11.729 0 0 1 1.349 2.534 12.166 12.166 0 0 1 .825 3.708 12.7 12.7 0 0 1-.082 2.212 15.926 15.926 0 0 1-.513 2.348c-.453 1.594-1.092 3.233-1.573 5.029a12.788 12.788 0 0 0-.4 2.8 11.947 11.947 0 0 0 .3 2.932 13.651 13.651 0 0 0 2.7 5.57 15.5 15.5 0 0 0 4.789 3.91 18.6 18.6 0 0 0 5.461 1.9c1.824.339 3.593.426 5.231.677a13.2 13.2 0 0 1 4.4 1.332 10.111 10.111 0 0 1 4.914 6.645c.033.2.055.355.076.47a1.138 1.138 0 0 1 0 .158.518.518 0 0 0-.038-.158 3.884 3.884 0 0 1-.093-.459 10.972 10.972 0 0 0-.546-1.715 10.315 10.315 0 0 0-1.491-2.419 9.829 9.829 0 0 0-2.894-2.381 13.105 13.105 0 0 0-4.368-1.294c-1.638-.246-3.4-.328-5.242-.661a19.009 19.009 0 0 1-5.515-1.911 15.694 15.694 0 0 1-4.849-3.953 13.99 13.99 0 0 1-2.73-5.619 12.6 12.6 0 0 1-.295-2.976 13 13 0 0 1 .4-2.839c.464-1.813 1.136-3.451 1.594-5.035a15.781 15.781 0 0 0 .546-2.321 11.98 11.98 0 0 0 .093-2.184 12.264 12.264 0 0 0-2.1-6.2c-.213-.333-.437-.6-.617-.841a3.19 3.19 0 0 0-.5-.546l-.322-.344a1.283 1.283 0 0 1-.147-.18z" class="cls-2" transform="translate(-78.952 -87.502)"/>
                <path id="Path_1194" d="M141.538 177a2.937 2.937 0 0 1-.426.388c-.284.246-.7.584-1.234.988a49.252 49.252 0 0 1-4.281 2.96 50.435 50.435 0 0 1-4.57 2.5c-.6.289-1.092.513-1.431.655a2.731 2.731 0 0 1-.546.208 4.066 4.066 0 0 1 .508-.273l1.409-.7c1.185-.6 2.8-1.474 4.527-2.539s3.233-2.119 4.3-2.9l1.261-.939a3.733 3.733 0 0 1 .483-.348z" class="cls-2" transform="translate(-91.127 -120.032)"/>
                <path id="Path_1195" d="M137.616 172.8a2.5 2.5 0 0 1-.431.257l-1.19.644c-1 .546-2.381 1.321-3.872 2.233s-2.8 1.8-3.74 2.446l-1.092.775a3.4 3.4 0 0 1-.42.268 2.654 2.654 0 0 1 .377-.328c.251-.2.622-.481 1.092-.819.923-.683 2.233-1.578 3.724-2.5s2.883-1.676 3.9-2.184c.513-.262.928-.464 1.223-.6a2.919 2.919 0 0 1 .426-.2z" class="cls-2" transform="translate(-90.137 -118.126)"/>
                <path id="Path_1196" d="M133.784 171.18a6.007 6.007 0 0 1-.846.617c-.546.355-1.283.835-2.124 1.343s-1.611.939-2.184 1.245a5.947 5.947 0 0 1-.939.453 6.268 6.268 0 0 1 .874-.546l2.15-1.292 2.151-1.294a5.772 5.772 0 0 1 .918-.526z" class="cls-2" transform="translate(-90.509 -117.39)"/>
                <path id="Path_1197" d="M127.97 162.68a3.463 3.463 0 0 1-.639.464l-1.578 1.059-1.567 1.092a3.621 3.621 0 0 1-.666.42 2.906 2.906 0 0 1 .59-.546c.382-.306.923-.7 1.54-1.125a19.209 19.209 0 0 1 1.638-1.016 3 3 0 0 1 .683-.349z" class="cls-2" transform="translate(-88.616 -113.532)"/>
                <path id="Path_1198" d="M124.595 155.1c0 .027-.464.278-1.212.71s-1.769 1.059-2.845 1.813-2.015 1.507-2.676 2.064a13.558 13.558 0 0 1-1.092.9 1.976 1.976 0 0 1 .251-.284c.169-.175.426-.415.748-.71a27.822 27.822 0 0 1 5.542-3.893c.382-.2.7-.355.917-.459a1.48 1.48 0 0 1 .367-.141z" class="cls-2" transform="translate(-85.552 -110.091)"/>
                <path id="Path_1199" d="M120.159 149.219c.027.044-1.889 1.425-4.281 3.1s-4.368 2.981-4.368 2.943 1.884-1.431 4.276-3.1 4.341-2.987 4.373-2.943z" class="cls-2" transform="translate(-83.164 -107.421)"/>
                <path id="Path_1200" d="M116.52 142.59a2.147 2.147 0 0 1-.371.273c-.273.186-.617.42-1.032.693-.874.584-2.075 1.4-3.38 2.332s-2.463 1.8-3.276 2.435l-.994.754a2.183 2.183 0 0 1-.377.257 1.982 1.982 0 0 1 .333-.317c.218-.191.546-.464.956-.8.819-.661 1.966-1.551 3.276-2.479s2.523-1.736 3.413-2.293c.448-.278.814-.5 1.092-.644a2.041 2.041 0 0 1 .36-.211z" class="cls-2" transform="translate(-81.158 -104.412)"/>
                <path id="Path_1201" d="M112.066 138.919c.033.038-1.594 1.218-3.626 2.632s-3.708 2.517-3.74 2.479 1.6-1.223 3.631-2.632 3.708-2.523 3.735-2.479z" class="cls-2" transform="translate(-80.073 -102.745)"/>
                <path id="Path_1202" d="M108.52 135.22a15.461 15.461 0 0 1-1.868 1.611 16.744 16.744 0 0 1-1.982 1.469 27.044 27.044 0 0 1 3.85-3.08z" class="cls-2" transform="translate(-80.059 -101.066)"/>
                <path id="Path_1203" d="M102.439 125.93a6.06 6.06 0 0 1-.8.737c-.508.431-1.229 1.016-2.048 1.638s-1.578 1.136-2.141 1.5a5.516 5.516 0 0 1-.934.546 7.1 7.1 0 0 1 .863-.661c.546-.393 1.289-.934 2.1-1.54s1.545-1.174 2.075-1.584a6.787 6.787 0 0 1 .885-.636z" class="cls-2" transform="translate(-76.36 -96.849)"/>
                <path id="Path_1204" d="M100.86 119.61a2.184 2.184 0 0 1-.366.284c-.235.175-.59.415-1.027.7-.879.584-2.113 1.365-3.506 2.184s-2.687 1.485-3.631 1.955c-.47.235-.857.42-1.125.546a2.037 2.037 0 0 1-.426.175 2.468 2.468 0 0 1 .393-.235l1.092-.6c.928-.5 2.184-1.2 3.6-2s2.632-1.562 3.527-2.119l1.059-.655a2.07 2.07 0 0 1 .41-.235z" class="cls-2" transform="translate(-73.754 -93.98)"/>
                <path id="Path_1205" d="M97.3 112.86a2.987 2.987 0 0 1-.4.3c-.262.186-.644.448-1.125.77-.956.633-2.288 1.5-3.779 2.419s-2.85 1.731-3.822 2.3c-.5.284-.9.513-1.185.666a3.151 3.151 0 0 1-.448.218 2.637 2.637 0 0 1 .41-.284l1.158-.715 3.822-2.343 3.822-2.37 1.158-.721a2.408 2.408 0 0 1 .388-.24z" class="cls-2" transform="translate(-71.829 -90.916)"/>
                <path id="Path_1206" d="M361.583 308.27c-.027.027-.431-.377-1.218-1.048-.393-.333-.879-.737-1.469-1.169a16.505 16.505 0 0 0-2.1-1.31 8.942 8.942 0 0 0-1.311-.546 4.32 4.32 0 0 0-1.474-.262 1.589 1.589 0 0 0-.715.169 1.092 1.092 0 0 0-.491.519 1.8 1.8 0 0 0-.147.775 3.877 3.877 0 0 0 .109.852 8.115 8.115 0 0 0 .633 1.709 15.785 15.785 0 0 0 .966 1.676 23.255 23.255 0 0 0 5.657 5.826 14.512 14.512 0 0 0 1.638 1.016 7.991 7.991 0 0 0 1.693.688 3.85 3.85 0 0 0 .846.137 1.813 1.813 0 0 0 .775-.126 1.092 1.092 0 0 0 .546-.475 1.638 1.638 0 0 0 .191-.71 4.243 4.243 0 0 0-.218-1.485 9.587 9.587 0 0 0-.546-1.327 17 17 0 0 0-1.25-2.135c-.415-.6-.8-1.092-1.125-1.5-.644-.8-1.038-1.223-1.01-1.25s.12.082.322.273.481.475.825.863a18.77 18.77 0 0 1 1.2 1.469 15.861 15.861 0 0 1 1.332 2.141 10.787 10.787 0 0 1 .573 1.365 4.637 4.637 0 0 1 .257 1.638 1.939 1.939 0 0 1-.229.879 1.469 1.469 0 0 1-.71.65 2.216 2.216 0 0 1-.95.169 4.243 4.243 0 0 1-.945-.137 8.573 8.573 0 0 1-1.786-.71 14.884 14.884 0 0 1-1.7-1.092 23.01 23.01 0 0 1-5.772-5.952 14.744 14.744 0 0 1-.988-1.726 8.633 8.633 0 0 1-.65-1.807 3.955 3.955 0 0 1-.109-.945 2.1 2.1 0 0 1 .2-.945 1.48 1.48 0 0 1 .672-.693 1.993 1.993 0 0 1 .885-.2 4.613 4.613 0 0 1 1.605.306 9.824 9.824 0 0 1 1.343.617 15.685 15.685 0 0 1 2.1 1.392c.584.459 1.059.879 1.436 1.24s.655.65.835.852a2.347 2.347 0 0 1 .274.329z" class="cls-2" transform="translate(-192.438 -177.47)"/>
                <path id="Path_1207" d="M358.857 308.4c.033 0-.126.546-.333 1.518-.1.491-.218 1.092-.311 1.791a15.294 15.294 0 0 0-.131 2.386 8.584 8.584 0 0 0 .142 1.371 4.083 4.083 0 0 0 .486 1.365 1.638 1.638 0 0 0 .491.519 1.157 1.157 0 0 0 .672.186 1.8 1.8 0 0 0 .748-.186 3.463 3.463 0 0 0 .688-.464 7.808 7.808 0 0 0 1.2-1.3 13.839 13.839 0 0 0 1-1.578 21.666 21.666 0 0 0 2.375-7.481 14.41 14.41 0 0 0 .093-1.862 7.894 7.894 0 0 0-.224-1.753 4 4 0 0 0-.295-.775 1.769 1.769 0 0 0-.481-.59 1.135 1.135 0 0 0-.655-.24 1.638 1.638 0 0 0-.7.142 4.134 4.134 0 0 0-1.185.83 8.851 8.851 0 0 0-.906 1.043 14.939 14.939 0 0 0-1.289 2.015c-.328.622-.579 1.179-.775 1.638-.393.923-.573 1.447-.606 1.436a1.212 1.212 0 0 1 .082-.4c.071-.257.186-.628.355-1.092s.4-1.043.715-1.687a14.544 14.544 0 0 1 1.24-2.1 8.068 8.068 0 0 1 .923-1.092 4.369 4.369 0 0 1 1.283-.934 2.025 2.025 0 0 1 .857-.18 1.545 1.545 0 0 1 .885.306 2.217 2.217 0 0 1 .6.715 4.044 4.044 0 0 1 .339.863 8 8 0 0 1 .251 1.846 13.494 13.494 0 0 1-.082 1.928 21.3 21.3 0 0 1-2.43 7.645 13.7 13.7 0 0 1-1.043 1.638 7.934 7.934 0 0 1-1.272 1.36 4 4 0 0 1-.77.508 2.151 2.151 0 0 1-.906.24 1.562 1.562 0 0 1-.9-.257 2.1 2.1 0 0 1-.6-.644 4.407 4.407 0 0 1-.508-1.5 8.192 8.192 0 0 1-.12-1.425 14.01 14.01 0 0 1 .2-2.435 17.875 17.875 0 0 1 .388-1.791c.131-.486.257-.857.344-1.092a1.251 1.251 0 0 1 .164-.426z" class="cls-2" transform="translate(-194.949 -176.285)"/>
                <path id="Path_1208" d="M356.531 309.369c0 .038-.546.18-1.469.519-.47.169-1.038.388-1.687.677a15.168 15.168 0 0 0-2.1 1.147 8.006 8.006 0 0 0-1.092.841 3.943 3.943 0 0 0-.9 1.13 1.638 1.638 0 0 0-.186.688 1.141 1.141 0 0 0 .2.672 1.687 1.687 0 0 0 .546.513 3.784 3.784 0 0 0 .754.344 8.016 8.016 0 0 0 1.736.328 14.15 14.15 0 0 0 1.867 0 20.627 20.627 0 0 0 3.893-.606 20.906 20.906 0 0 0 3.719-1.311 14.6 14.6 0 0 0 1.638-.9 7.486 7.486 0 0 0 1.371-1.092 3.352 3.352 0 0 0 .5-.661 1.731 1.731 0 0 0 .251-.715 1.169 1.169 0 0 0-.137-.683 1.731 1.731 0 0 0-.491-.546 4.046 4.046 0 0 0-1.332-.546 8.737 8.737 0 0 0-1.36-.224 15.289 15.289 0 0 0-2.392 0c-.7.055-1.31.131-1.807.2-.983.153-1.523.278-1.534.24a1.327 1.327 0 0 1 .382-.137c.251-.076.628-.175 1.125-.279a18.254 18.254 0 0 1 1.813-.278 14.659 14.659 0 0 1 2.441-.055 8.348 8.348 0 0 1 1.414.208 4.226 4.226 0 0 1 1.469.6 1.983 1.983 0 0 1 .606.633 1.512 1.512 0 0 1 .2.912 2.092 2.092 0 0 1-.289.89 4.057 4.057 0 0 1-.546.737 8.01 8.01 0 0 1-1.442 1.19 14.355 14.355 0 0 1-1.682.945 20.986 20.986 0 0 1-3.81 1.35 20.443 20.443 0 0 1-3.981.606 13.29 13.29 0 0 1-1.928-.033 7.879 7.879 0 0 1-1.829-.366 3.916 3.916 0 0 1-.841-.388 2.24 2.24 0 0 1-.677-.644 1.551 1.551 0 0 1-.251-.9 2 2 0 0 1 .235-.852 4.368 4.368 0 0 1 1-1.223 8.922 8.922 0 0 1 1.152-.852 14.645 14.645 0 0 1 2.184-1.092 18.068 18.068 0 0 1 1.731-.612c.48-.142.863-.235 1.119-.289a1.32 1.32 0 0 1 .415-.093z" class="cls-2" transform="translate(-190.831 -179.777)"/>
                <path id="Path_1209" d="M365.693 314.849a1.463 1.463 0 1 1-1.775-1.065 1.463 1.463 0 0 1 1.775 1.065z" class="cls-2" transform="translate(-197.241 -182.106)"/>
                <path id="Path_1210" d="M397.762 248.491l-.164-.076-.475-.24-1.829-.95-6.722-3.533h.06l-20.706 7.908-.186.071.055-.191.633-2.288c1.447-5.22 2.818-10.162 4.019-14.509v-.033l11.467-8.595 3.276-2.424.868-.639.224-.158q.071-.06.082-.049l-.071.06-.218.175-.852.655-3.233 2.463-11.434 8.662.033-.049c-1.2 4.368-2.561 9.283-4 14.52-.218.781-.431 1.562-.633 2.288l-.131-.12 20.75-7.858h.033l6.689 3.588 1.807.977.47.262z" class="cls-3" transform="translate(-199.48 -140.817)"/>
                <path id="Path_1211" d="M369.9 273.393l-1.24.366-.4 1.229-.732-1.065h-1.288l.786-1.027-.4-1.229 1.218.431 1.043-.759-.033 1.294z" class="cls-3" transform="translate(-198.799 -162.858)"/>
                <path id="Path_1212" d="M377.553 242.783l-.781.284-.213.808-.513-.655-.835.049.47-.693-.306-.775.8.229.644-.53.027.835z" class="cls-3" transform="translate(-202.871 -149.312)"/>
                <path id="Path_1213" d="M405.822 221.207l-.568.857.377.95-.988-.278-.786.655-.044-1.027-.863-.546.961-.355.251-.994.639.8z" class="cls-3" transform="translate(-215.463 -139.765)"/>
                <path id="Path_1214" d="M422.628 267.267l-.573.857.382.95-.988-.278-.792.655-.038-1.027-.868-.546.961-.355.257-.994.633.8z" class="cls-3" transform="translate(-223.09 -160.674)"/>
                <path id="Path_1215" d="M405.855 259.775l-.366.546.246.606-.633-.18-.5.42-.022-.655-.557-.349.617-.229.158-.633.41.519z" class="cls-3" transform="translate(-215.949 -157.392)"/>
                <circle id="Ellipse_19" cx="10.484" cy="10.484" r="10.484" class="cls-3" transform="rotate(-80.73 70.297 -55.806)"/>
                <g id="Group_90" class="cls-4" transform="translate(121.3 15.473)">
                    <path id="Path_1216" d="M285.158 102.719a1.709 1.709 0 1 1-1.709-1.709 1.709 1.709 0 0 1 1.709 1.709z" class="cls-5" transform="translate(-281.74 -101.01)"/>
                </g>
                <g id="Group_91" class="cls-4" transform="translate(120.328 11.252)">
                    <path id="Path_1217" d="M281.948 94.274a.994.994 0 1 1-.994-.994.994.994 0 0 1 .994.994z" class="cls-5" transform="translate(-279.96 -93.28)"/>
                </g>
                <path id="Path_1218" d="M266.067 89.135c.049.18-8.972 8.835-6.645 10.681s12.106-2.889 20.444-9.621 15.95-14.913 13.864-17.075-12.5 4.243-12.5 4.243l1.267.792s6.3-4.041 8.289-2.474-3.686 7.7-11.7 13.553-15.764 9.96-16.966 8.355 4.472-6.951 4.472-6.951z" class="cls-3" transform="translate(-150.134 -72.673)"/>
                <g id="Group_92" class="cls-4" transform="translate(108.903)">
                    <path id="Path_1219" d="M266.067 89.135c.049.18-8.972 8.835-6.645 10.681s12.106-2.889 20.444-9.621 15.95-14.913 13.864-17.075-12.5 4.243-12.5 4.243l1.267.792s6.3-4.041 8.289-2.474-3.686 7.7-11.7 13.553-15.764 9.96-16.966 8.355 4.472-6.951 4.472-6.951z" transform="translate(-259.038 -72.673)"/>
                </g>
                <g id="Group_93" class="cls-4" transform="translate(116.41 6.516)">
                    <path id="Path_1220" d="M276.725 84.614c.082.1-.628.7-1.431 1.917a9.654 9.654 0 0 0-.213 10.6c.759 1.24 1.442 1.873 1.354 1.971s-.9-.415-1.829-1.638a9.232 9.232 0 0 1 .224-11.264c.961-1.2 1.824-1.657 1.895-1.586z" class="cls-5" transform="translate(-272.785 -84.607)"/>
                </g>
                <path id="Path_1221" d="M319.579 110.128a6.088 6.088 0 1 1 5.941 6.23 6.088 6.088 0 0 1-5.941-6.23z" class="cls-3" transform="translate(-177.616 -86.977)"/>
                <g id="Group_94" class="cls-6" transform="translate(150.033 19.995)">
                    <path id="Path_1222" d="M334.36 110.262a.988.988 0 1 1 .272.709.994.994 0 0 1-.272-.709z" transform="translate(-334.359 -109.291)"/>
                </g>
                <g id="Group_95" class="cls-6" transform="translate(152.021 22.72)">
                    <path id="Path_1223" d="M338 114.843a.579.579 0 1 1 .546.6.579.579 0 0 1-.546-.6z" transform="translate(-338 -114.282)"/>
                </g>
                <g id="Group_96" class="cls-6" transform="translate(151.027 25.056)">
                    <path id="Path_1224" d="M336.393 118.56a.218.218 0 0 1 .213.218.213.213 0 0 1-.218.208.207.207 0 0 1-.208-.218.213.213 0 0 1 .213-.208z" transform="translate(-336.179 -118.56)"/>
                </g>
                <path id="Path_1225" d="M365.543 169.624c-.055 0-.093-7.71-.093-17.217s.038-17.217.093-17.217.093 7.7.093 17.217-.044 17.217-.093 17.217z" class="cls-7" transform="translate(-198.44 -101.053)"/>
                <path id="Path_1226" d="M365.834 133.864a15.435 15.435 0 0 1-1.169-2h.164v.044a16.663 16.663 0 0 1-1 2.146 14.38 14.38 0 0 1 .83-2.217v-.044l.076-.175.087.164a14.419 14.419 0 0 1 1.012 2.082z" class="cls-7" transform="translate(-197.705 -99.432)"/>
                <path id="Path_1227" d="M364.607 126.759c-.033.038-.317-.147-.546-.491s-.284-.677-.235-.688.18.273.388.59.426.551.393.589z" class="cls-7" transform="translate(-197.695 -96.69)"/>
                <path id="Path_1228" d="M364.28 127.54a6.417 6.417 0 0 1 .437-1.229 6.145 6.145 0 0 1 .5-1.2 3.637 3.637 0 0 1-.333 1.267 3.587 3.587 0 0 1-.604 1.162z" class="cls-7" transform="translate(-197.909 -96.477)"/>
                <path id="Path_1229" d="M361.1 141.7a10.259 10.259 0 0 0 .317-1.059 10.65 10.65 0 0 0 0-1.092 1.573 1.573 0 0 1 .158 1.136 1.556 1.556 0 0 1-.475 1.015z" class="cls-7" transform="translate(-196.465 -103.032)"/>
                <path id="Path_1230" d="M361 140.181a.342.342 0 0 1-.262.2.513.513 0 0 1-.377-.066.514.514 0 0 1 .328-.95c.224 0 .3.164.279.175a1.055 1.055 0 0 0-.284-.044.366.366 0 0 0-.371.393.377.377 0 0 0 .41.36c.168.009.255-.09.277-.068z" class="cls-7" transform="translate(-196.027 -102.948)"/>
                <path id="Path_1231" d="M390.2 193.693c0 .049-6.6.093-14.743.093s-14.743-.044-14.743-.093 6.591-.093 14.743-.093 14.743.044 14.743.093z" class="cls-7" transform="translate(-196.288 -127.568)"/>
                <path id="Path_1232" d="M413.281 192.928a4.451 4.451 0 0 1-1.234-.382A4.566 4.566 0 0 1 410.9 192a4.3 4.3 0 0 1 1.212.388 4.428 4.428 0 0 1 1.169.54z" class="cls-7" transform="translate(-219.072 -126.842)"/>
                <path id="Path_1233" d="M414.18 193.9a5.957 5.957 0 0 1-2.009.7 3.39 3.39 0 0 1 .977-.437 3.079 3.079 0 0 1 1.032-.268z" class="cls-7" transform="translate(-219.649 -127.704)"/>
                <path id="Path_1234" d="M362.294 195.48a.906.906 0 0 1 .382.612 1.3 1.3 0 0 1-.06.8.928.928 0 0 1-.295.4.5.5 0 0 1-.546 0 1.054 1.054 0 0 1-.426-.9.934.934 0 0 1 .328-.737.7.7 0 0 1 .519-.169c.131 0 .191.06.186.066a1.7 1.7 0 0 1-.186 0 .715.715 0 0 0-.431.2.814.814 0 0 0-.246.633.917.917 0 0 0 .349.743.333.333 0 0 0 .36 0 .78.78 0 0 0 .246-.317 1.283 1.283 0 0 0 .087-.71 2.229 2.229 0 0 0-.267-.621z" class="cls-7" transform="translate(-196.578 -128.421)"/>
                <path id="Path_1235" d="M406.32 196.133s.1-.06.246.06a.366.366 0 0 1 .126.295.628.628 0 0 1-.175.377c-.208.229-.59.317-.764.6a.491.491 0 0 0 0 .475.464.464 0 0 0 .448.224.442.442 0 0 0 .388-.317.486.486 0 0 0-.093-.47 1.338 1.338 0 0 0-.393-.311.584.584 0 0 1-.35-.36.486.486 0 0 1 .093-.41.611.611 0 0 1 .246-.186c.158-.055.251-.044.257-.033a.653.653 0 0 0-.224.1.546.546 0 0 0-.2.18.371.371 0 0 0-.049.317c.055.235.491.268.748.6a.666.666 0 0 1 .131.633.628.628 0 0 1-.546.437.644.644 0 0 1-.622-.311.666.666 0 0 1 0-.655 1.092 1.092 0 0 1 .437-.36 1.954 1.954 0 0 0 .377-.24.508.508 0 0 0 .164-.295.317.317 0 0 0-.071-.235c-.065-.115-.174-.099-.174-.115z" class="cls-7" transform="translate(-216.622 -128.686)"/>
                <path id="Path_1236" d="M406.782 193.568a3.609 3.609 0 0 1 0-1.638 3.609 3.609 0 0 1 0 1.638z" class="cls-7" transform="translate(-217.16 -126.81)"/>
                <path id="Path_1237" d="M420.231 192.608a1.327 1.327 0 0 1-.5.076l-.546.033a.2.2 0 0 1-.126 0 .153.153 0 0 1-.065-.164.339.339 0 0 1 .115-.175l.24-.251a.8.8 0 0 0 .3-.519.333.333 0 0 0-.229-.339.546.546 0 0 0-.322.06c-.082.033-.126.055-.136.044s.027-.049.1-.1a.546.546 0 0 1 .382-.131.47.47 0 0 1 .377.475.939.939 0 0 1-.328.639l-.251.246c-.044.038-.076.076-.076.093h.579a1.474 1.474 0 0 1 .491.016z" class="cls-7" transform="translate(-222.729 -126.451)"/>
                <path id="Path_1238" d="M371.361 188.35v-.508c0-.322 0-.8-.027-1.349 0-1.147-.033-2.73-.038-4.543l.087.093h-1.709l.093-.093v3.626c0 1.092 0 2.02-.027 2.768l-.055-.055 1.245.027c.295 0 .459 0 .464.027a3.369 3.369 0 0 1-.431 0l-1.278.027h-.055v-6.449l.093-.093h1.747v.087c0 1.851 0 3.462-.044 4.6v1.332a2.959 2.959 0 0 1-.066.5z" class="cls-7" transform="translate(-200.338 -122.225)"/>
                <path id="Path_1239" d="M401.188 185.871a1.027 1.027 0 0 1 0-.2v-.546c0-.491 0-1.158-.027-1.982 0-1.671-.033-3.986-.038-6.613l.093.087H399.5l.093-.087v5.406c0 1.584-.027 2.927-.033 3.91l-.049-.049h1.715a3.088 3.088 0 0 1-.431 0l-1.283.027h-.049v-.049c0-.983 0-2.326-.033-3.91v-5.406l.093-.093h1.8v.093c0 2.665 0 5.013-.038 6.678 0 .814 0 1.474-.027 1.96v.546c.001.168-.07.234-.07.228z" class="cls-7" transform="translate(-213.865 -119.746)"/>
                <path id="Path_1240" d="M378.886 183.956a1.525 1.525 0 0 1 0-.24v-.677c0-.6 0-1.431-.027-2.468 0-2.091 0-4.98-.038-8.24l.093.093H377.2c.186-.186.049-.049.093-.087v6.858c0 1.988-.027 3.626-.038 4.762l-.044-.044h-.044v-.044c0-1.136 0-2.774-.033-4.762v-6.858c.044-.044-.093.087.093-.1h1.8v.087c0 3.276-.027 6.2-.038 8.305 0 1.027 0 1.857-.027 2.446v.655a.732.732 0 0 1-.076.314z" class="cls-7" transform="translate(-203.74 -117.831)"/>
                <path id="Path_1241" d="M386.26 178.593a.628.628 0 0 1 0-.093v-1.332c0-.912 0-2.217-.027-3.822 0-3.244-.027-7.727-.044-12.761l.093.093h-1.731l.087-.087v10.872c0 3.1-.033 5.586-.044 7.1l-.033-.033h-.022v-.038c0-1.54 0-4.024-.038-7.1v-10.874c.038-.044-.093.087.093-.1h1.8v.093c0 5.056 0 9.567-.038 12.827 0 1.605 0 2.9-.027 3.822v1.289c-.063.122-.063.151-.069.144z" class="cls-7" transform="translate(-207.084 -112.506)"/>
                <path id="Path_1242" d="M393.868 168.329v-2.386c0-1.534 0-3.751-.027-6.487 0-5.461 0-13.067-.038-21.531l.093.093h-1.715c.18-.18.055-.044.093-.082v19.024c0 5.3-.038 9.321-.049 11.369h-.025v-.029c0-2.048-.027-6.072-.044-11.369v-19.017c.044-.044-.093.082.093-.1h1.8v.1c0 8.491 0 16.1-.038 21.6 0 2.73 0 4.914-.027 6.465v2.2a.181.181 0 0 1-.116.15z" class="cls-7" transform="translate(-210.558 -102.242)"/>
                <path id="Path_1243" d="M59.6 197l1.458 25.572 42.783-2.441zm7.148 9.922l18.4 9.829-17.785 1z" class="cls-3" transform="translate(-59.6 -129.111)"/>
                <path id="Path_1244" d="M66.032 201.09a5.248 5.248 0 0 1-.677 1.589 5.16 5.16 0 0 1-.945 1.458 9.589 9.589 0 0 1 1.622-3.047z" class="cls-7" transform="translate(-61.783 -130.968)"/>
                <path id="Path_1245" d="M78.061 207.3a5.133 5.133 0 0 1-.677 1.567 4.86 4.86 0 0 1-.934 1.414 4.98 4.98 0 0 1 .672-1.567 4.718 4.718 0 0 1 .939-1.414z" class="cls-7" transform="translate(-67.249 -133.787)"/>
                <path id="Path_1246" d="M89.812 213.51a5 5 0 0 1-.83 1.48 4.663 4.663 0 0 1-1.092 1.31 4.991 4.991 0 0 1 .83-1.485 4.794 4.794 0 0 1 1.092-1.305z" class="cls-7" transform="translate(-72.442 -136.606)"/>
                <path id="Path_1247" d="M101.632 220a4.707 4.707 0 0 1-.83 1.485 5.035 5.035 0 0 1-1.092 1.315 4.707 4.707 0 0 1 .83-1.485 5.034 5.034 0 0 1 1.092-1.315z" class="cls-7" transform="translate(-77.808 -139.552)"/>
                <path id="Path_1248" d="M114.108 226.33a5.171 5.171 0 0 1-.754 1.578 5.227 5.227 0 0 1-1 1.42 9.938 9.938 0 0 1 1.758-3z" class="cls-7" transform="translate(-83.546 -142.426)"/>
                <path id="Path_1249" d="M127.054 233a4.516 4.516 0 0 1-.666 1.5 4.653 4.653 0 0 1-.928 1.349 4.6 4.6 0 0 1 .672-1.5 4.418 4.418 0 0 1 .922-1.349z" class="cls-7" transform="translate(-89.497 -145.453)"/>
                <path id="Path_1250" d="M70.429 203.049c.071.044-.049.415-.273.841s-.464.726-.546.688.049-.415.273-.835.475-.722.546-.694z" class="cls-7" transform="translate(-64.133 -131.856)"/>
                <path id="Path_1251" d="M74.357 205c.076.038-.049.415-.273.835s-.459.732-.546.693.055-.415.273-.841.475-.722.546-.687z" class="cls-7" transform="translate(-65.915 -132.741)"/>
                <path id="Path_1252" d="M83.129 209.647c.071.044-.049.415-.273.841s-.464.732-.546.688.049-.415.273-.835.475-.732.546-.694z" class="cls-7" transform="translate(-69.898 -134.851)"/>
                <path id="Path_1253" d="M87.069 211.617c.071.038-.049.415-.273.835s-.464.732-.546.693.049-.415.273-.841.469-.725.546-.687z" class="cls-7" transform="translate(-71.686 -135.745)"/>
                <path id="Path_1254" d="M95 216.058c.076.038-.049.415-.273.835s-.459.732-.546.693.049-.415.273-.841.472-.72.546-.687z" class="cls-7" transform="translate(-75.284 -137.761)"/>
                <path id="Path_1255" d="M98.757 218c.076.038-.049.415-.273.835s-.459.732-.546.693.049-.42.273-.841a1.612 1.612 0 0 1 .546-.687z" class="cls-7" transform="translate(-76.991 -138.644)"/>
                <path id="Path_1256" d="M106.867 222.237c.071.044-.049.415-.273.841s-.459.726-.546.688.049-.415.273-.835.479-.731.546-.694z" class="cls-7" transform="translate(-80.673 -140.566)"/>
                <path id="Path_1257" d="M111.229 224.547c.071.044-.049.415-.273.841s-.464.732-.546.688.049-.415.273-.835.475-.732.546-.694z" class="cls-7" transform="translate(-82.654 -141.615)"/>
                <path id="Path_1258" d="M119.069 228.677c.071.038-.049.415-.273.835s-.464.732-.546.693.049-.415.273-.841.469-.725.546-.687z" class="cls-7" transform="translate(-86.213 -143.49)"/>
                <path id="Path_1259" d="M123.589 231c.071.044-.049.42-.273.841s-.464.732-.546.688.049-.415.273-.835.475-.735.546-.694z" class="cls-7" transform="translate(-88.265 -144.543)"/>
                <path id="Path_1260" d="M177.439 115.593v-5.351c0-3.386-.027-8.191-.044-14l.082.076h-19.351l.087-.093v19.352l-.076-.082 14 .044h.055l-14.055.038H158V96.05h19.521v.082c0 5.81-.027 10.653-.038 14.055v5.3z" class="cls-3" transform="translate(-104.269 -83.285)"/>
                <path id="Path_1261" d="M177.512 111.521a1.309 1.309 0 0 1 .147-.1l.442-.284 1.715-1.092 6.3-3.893-.033.06V87.146l.087.093h-19.1l-6.514 3.62-1.78.994-.464.251-.158.082a1.758 1.758 0 0 1 .147-.1l.459-.273 1.758-1.021 6.465-3.713h19.221v19.194h-.033l-6.334 3.872-1.731 1.048-.453.268z" class="cls-3" transform="translate(-104.341 -79.213)"/>
                <path id="Path_1262" d="M202.239 87.159c.027.044-1.884 1.207-4.27 2.6S193.6 92.248 193.6 92.2s1.884-1.207 4.276-2.6 4.341-2.485 4.363-2.441z" class="cls-3" transform="translate(-120.429 -79.249)"/>
                <path id="Path_1263" d="M159.076 130.37a1.02 1.02 0 0 1-.415.344c-.251.142-.481.229-.5.186s.158-.2.41-.344.478-.229.505-.186z" class="cls-3" transform="translate(-104.34 -98.859)"/>
                <path id="Path_1264" d="M162.436 128.44c.027.044-.158.2-.415.344s-.481.229-.5.186.158-.2.415-.344.473-.226.5-.186z" class="cls-3" transform="translate(-105.865 -97.983)"/>
                <path id="Path_1265" d="M165.8 126.51c.027.044-.158.2-.41.344s-.481.229-.508.186.158-.2.415-.344.476-.229.503-.186z" class="cls-3" transform="translate(-107.389 -97.107)"/>
                <path id="Path_1266" d="M169.161 124.58a1.067 1.067 0 0 1-.415.344c-.251.147-.481.229-.508.186s.164-.2.415-.344.48-.229.508-.186z" class="cls-3" transform="translate(-108.915 -96.231)"/>
                <path id="Path_1267" d="M172.526 122.65c0 .044-.158.2-.415.344s-.481.229-.5.186.158-.2.41-.344.479-.229.505-.186z" class="cls-3" transform="translate(-110.445 -95.355)"/>
                <path id="Path_1268" d="M174.058 119.27c.049 0 .087.235.087.546s-.044.546-.1.546-.087-.235-.087-.546.051-.552.1-.546z" class="cls-3" transform="translate(-111.514 -93.826)"/>
                <path id="Path_1269" d="M174.088 115.39c.049 0 .093.235.087.546s-.044.546-.093.546-.093-.24-.093-.546.05-.546.099-.546z" class="cls-3" transform="translate(-111.527 -92.065)"/>
                <path id="Path_1270" d="M174.118 111.51c.049 0 .093.24.087.546s-.044.546-.093.546-.093-.24-.093-.546.05-.546.099-.546z" class="cls-3" transform="translate(-111.541 -90.303)"/>
                <path id="Path_1271" d="M174.152 107.63c.049 0 .093.24.087.546s-.044.546-.093.546-.093-.235-.087-.546.041-.546.093-.546z" class="cls-3" transform="translate(-111.559 -88.542)"/>
                <path id="Path_1272" d="M174.182 103.76c.049 0 .093.235.087.546s-.044.546-.093.546-.093-.235-.087-.546.044-.546.093-.546z" class="cls-3" transform="translate(-111.572 -86.785)"/>
                <path id="Path_1273" d="M174.212 99.88c.055 0 .093.235.087.546s-.044.546-.093.546-.093-.24-.087-.546.044-.546.093-.546z" class="cls-3" transform="translate(-111.586 -85.024)"/>
                <path id="Path_1274" d="M174.242 96c.055 0 .093.24.087.546s-.044.546-.093.546-.093-.24-.087-.546.044-.546.093-.546z" class="cls-3" transform="translate(-111.599 -83.262)"/>
                <path id="Path_1275" d="M174.272 92.12c.055 0 .093.24.087.546s-.044.546-.093.546-.093-.235-.087-.546.044-.546.093-.546z" class="cls-3" transform="translate(-111.613 -81.501)"/>
                <path id="Path_1276" d="M174.3 88.25c.055 0 .093.235.087.546s-.044.546-.093.546-.093-.235-.087-.546.046-.546.093-.546z" class="cls-3" transform="translate(-111.627 -79.744)"/>
                <path id="Path_1277" d="M207.49 122.012c0-.044.235-.082.546-.082s.546.038.546.082-.235.087-.546.087-.546-.038-.546-.087z" class="cls-3" transform="translate(-126.734 -95.033)"/>
                <path id="Path_1278" d="M203.61 122.012c0-.044.235-.082.546-.082s.546.038.546.082-.24.087-.546.087-.546-.038-.546-.087z" class="cls-3" transform="translate(-124.973 -95.033)"/>
                <path id="Path_1279" d="M199.73 122.012c0-.044.235-.082.546-.082s.546.038.546.082-.235.087-.546.087-.546-.038-.546-.087z" class="cls-3" transform="translate(-123.212 -95.033)"/>
                <path id="Path_1280" d="M195.85 122.012c0-.044.24-.082.546-.082s.546.038.546.082-.235.087-.546.087-.546-.038-.546-.087z" class="cls-3" transform="translate(-121.45 -95.033)"/>
                <path id="Path_1281" d="M192 122.012c0-.044.235-.082.546-.082s.546.038.546.082-.235.087-.546.087-.546-.038-.546-.087z" class="cls-3" transform="translate(-119.703 -95.033)"/>
                <path id="Path_1282" d="M188.1 122.012c0-.044.235-.082.546-.082s.546.038.546.082-.24.087-.546.087-.546-.038-.546-.087z" class="cls-3" transform="translate(-117.932 -95.033)"/>
                <path id="Path_1283" d="M184.22 122.012c0-.044.235-.082.546-.082s.546.038.546.082-.235.087-.546.087-.546-.038-.546-.087z" class="cls-3" transform="translate(-116.171 -95.033)"/>
                <path id="Path_1284" d="M180.34 122.012c0-.044.24-.082.546-.082s.546.038.546.082-.235.087-.546.087-.546-.038-.546-.087z" class="cls-3" transform="translate(-114.41 -95.033)"/>
                <path id="Path_1285" d="M176.47 122.012c0-.044.235-.082.546-.082s.546.038.546.082-.235.087-.546.087-.546-.038-.546-.087z" class="cls-3" transform="translate(-112.653 -95.033)"/>
                <path id="Path_1286" d="M174.12 122.012c0-.044.049-.082.109-.082s.115.038.115.082a.106.106 0 0 1-.115.087.1.1 0 0 1-.109-.087z" class="cls-3" transform="translate(-111.586 -95.033)"/>
                <path id="Path_1287" d="M213.256 105.839a2.512 2.512 0 0 0 .486 0 1.513 1.513 0 0 0 1-.759 2.031 2.031 0 0 0-.055-1.84.546.546 0 0 0-.382-.306.677.677 0 0 0-.491.131 2.337 2.337 0 0 0-.617 1.027 4.756 4.756 0 0 0-.273 1.316h-.18c0-1.4-.027-2.627-.027-3.5v-1.027a1.545 1.545 0 0 1 0-.371 1.867 1.867 0 0 1 .038.371 9.209 9.209 0 0 0 .044 1.027c.033.874.066 2.1.093 3.5h-.18a4.914 4.914 0 0 1 .284-1.365 5.4 5.4 0 0 1 .262-.6 1.491 1.491 0 0 1 .415-.508.846.846 0 0 1 .633-.164.743.743 0 0 1 .491.393 2.141 2.141 0 0 1 0 1.993 1.523 1.523 0 0 1-1.092.759 1.147 1.147 0 0 1-.371 0 .338.338 0 0 1-.078-.077z" class="cls-3" transform="translate(-129.104 -85.31)"/>
                <path id="Path_1288" d="M97.117 274.865a.628.628 0 0 1 .224.066c.147.066.366.115.644.229a12.56 12.56 0 0 1 2.326 1.212 12.9 12.9 0 0 1 3.058 2.812 11.374 11.374 0 0 1 2.282 4.98 11.09 11.09 0 0 1-.846 6.553 10.3 10.3 0 0 1-2.13 3.058 9.9 9.9 0 0 1-1.523 1.234c-.289.164-.546.339-.874.491s-.6.3-.923.415a18.176 18.176 0 0 1-8.387.775c-1.463-.142-2.938-.355-4.439-.59a26.887 26.887 0 0 1-4.494-1.043 11.385 11.385 0 0 1-4.025-2.257 9.1 9.1 0 0 1-1.474-1.736 9.388 9.388 0 0 1-.945-2.037 10.555 10.555 0 0 1-.431-4.308 11.527 11.527 0 0 1 1.19-3.97 13.264 13.264 0 0 1 5.417-5.329 17.927 17.927 0 0 1 6.345-2.02 24.826 24.826 0 0 1 5.5-.038 36.713 36.713 0 0 1 4.1.672c1.092.251 1.966.481 2.545.639l.655.191.224.076-.229-.055-.661-.169c-.579-.147-1.436-.366-2.55-.6a36.689 36.689 0 0 0-4.1-.628 24.338 24.338 0 0 0-5.461.066 17.906 17.906 0 0 0-6.274 2.026 13.105 13.105 0 0 0-5.324 5.264 11.265 11.265 0 0 0-1.152 3.91 10.408 10.408 0 0 0 .426 4.221 8.967 8.967 0 0 0 .917 1.988 8.78 8.78 0 0 0 1.431 1.693 11.292 11.292 0 0 0 3.948 2.217 26.835 26.835 0 0 0 4.467 1.032c1.491.235 2.971.448 4.423.59a17.984 17.984 0 0 0 8.295-.754 9.7 9.7 0 0 0 5.357-5.078 11 11 0 0 0 .863-6.454 11.331 11.331 0 0 0-2.233-4.914 13.024 13.024 0 0 0-3-2.812 13.648 13.648 0 0 0-2.3-1.245c-.278-.115-.491-.186-.639-.246z" class="cls-7" transform="translate(-66.636 -163.713)"/>
                <path id="Path_1289" d="M86.155 296.326a1.753 1.753 0 0 1-.442.055l-1.218.06h-.4a1.708 1.708 0 0 1-.464 0 .4.4 0 0 1-.229-.186.672.672 0 0 1-.071-.262l-.033-.5c-.038-.688-.082-1.431-.126-2.184s-.093-1.523-.1-2.217a1.971 1.971 0 0 1 .229-.977 1.376 1.376 0 0 1 .666-.546 2.78 2.78 0 0 1 1.229-.137 1.433 1.433 0 0 1 .442.082 2.575 2.575 0 0 1-.448 0 2.884 2.884 0 0 0-1.163.191 1.179 1.179 0 0 0-.546.519 1.835 1.835 0 0 0-.191.885c0 .666.082 1.425.115 2.184s.076 1.523.115 2.184c.033.322-.038.726.186.781a1.421 1.421 0 0 0 .41 0h1.638a1.6 1.6 0 0 1 .4.065z" class="cls-7" transform="translate(-70.254 -171.064)"/>
                <path id="Path_1290" d="M85.707 295.432a3.183 3.183 0 0 1-1.136.131 3.123 3.123 0 0 1-1.141-.087 3.047 3.047 0 0 1 1.136-.131 3.1 3.1 0 0 1 1.141.087z" class="cls-7" transform="translate(-70.418 -173.746)"/>
                <path id="Path_1291" d="M95.127 293.524a9.706 9.706 0 0 1-1.731.087 10.96 10.96 0 0 1-1.726 0 5.123 5.123 0 0 1 1.72-.235 5.363 5.363 0 0 1 1.737.148z" class="cls-7" transform="translate(-74.158 -172.854)"/>
                <path id="Path_1292" d="M95.783 298.338a5.564 5.564 0 0 1-1.715.12 5.429 5.429 0 0 1-1.7-.2 8.9 8.9 0 0 1 1.7 0 9.459 9.459 0 0 1 1.715.08z" class="cls-7" transform="translate(-74.476 -175.058)"/>
                <path id="Path_1293" d="M111.1 297.842v-.666a6.624 6.624 0 0 0-.328-1.791 1.824 1.824 0 0 0-.633-1.032.546.546 0 0 0-.6.038 1.5 1.5 0 0 0-.453.546 7.645 7.645 0 0 0-.546 3.391h-.213a14.377 14.377 0 0 0-.033-2.512 10 10 0 0 0-.142-1.01 1.31 1.31 0 0 0-.459-.786.683.683 0 0 0-.8 0 1.212 1.212 0 0 0-.5.688 4.664 4.664 0 0 0-.153.868c-.033.289-.06.573-.071.852a13.439 13.439 0 0 0 0 1.556H106c-.044-1.229-.082-2.233-.109-2.971v-.813a1.142 1.142 0 0 1 0-.284 1.5 1.5 0 0 1 .038.284l.066.808c.044.732.109 1.736.186 2.96h-.169a14.826 14.826 0 0 1 0-1.573 8.373 8.373 0 0 1 .066-.863 4.582 4.582 0 0 1 .158-.906 1.425 1.425 0 0 1 .579-.808.994.994 0 0 1 .546-.153.928.928 0 0 1 .546.18 1.524 1.524 0 0 1 .546.912 9.7 9.7 0 0 1 .153 1.038 14.8 14.8 0 0 1 0 2.55h-.213a7.645 7.645 0 0 1 .6-3.467 1.6 1.6 0 0 1 .546-.622.715.715 0 0 1 .775-.038 1.939 1.939 0 0 1 .683 1.13 6.345 6.345 0 0 1 .273 1.835 2.424 2.424 0 0 1-.027.5.677.677 0 0 1-.147.158z" class="cls-7" transform="translate(-80.61 -172.994)"/>
                <path id="Path_1294" d="M121.411 297.419a.849.849 0 0 1-.262.186 2.07 2.07 0 0 1-.846.208 2.217 2.217 0 0 1-1.256-.344 2.184 2.184 0 0 1-.7-2.889 2.239 2.239 0 0 1 .961-.879 2.042 2.042 0 0 1 .846-.2.759.759 0 0 1 .317.044 3.146 3.146 0 0 0-1.092.295 2.185 2.185 0 0 0-.852.841 2.059 2.059 0 0 0 .633 2.627 2.152 2.152 0 0 0 1.147.355 3 3 0 0 0 1.104-.244z" class="cls-7" transform="translate(-86.142 -172.916)"/>
                <path id="Path_1295" d="M124.14 286.277a11.165 11.165 0 0 0-2.43.42l-.366.12.273-.279a7.606 7.606 0 0 0 1.354-1.638 2.457 2.457 0 0 0 .284-1.676c-.06-.257-.213-.459-.42-.464a1.332 1.332 0 0 0-.617.164 2.408 2.408 0 0 0-.754.606c-.147.18-.207.3-.224.289a.726.726 0 0 1 .158-.339 2.069 2.069 0 0 1 .748-.688 1.409 1.409 0 0 1 .7-.213.546.546 0 0 1 .4.191.956.956 0 0 1 .2.4 2.594 2.594 0 0 1-.284 1.835 7.055 7.055 0 0 1-1.414 1.687l-.093-.164a6.748 6.748 0 0 1 1.791-.284 1.971 1.971 0 0 1 .694.033z" class="cls-7" transform="translate(-87.581 -167.96)"/>
            </g>
            <g id="freepik--Character--inject-44" transform="translate(78.173 113.549)">
                <path id="Path_1296" d="M190.8 275.654l11.636-2.244 22.323 5.122 11.314 2.359.164 15.459L211 301l-17.031-5.046-6.438-9.474z" class="cls-8" transform="translate(-152.026 -204.673)"/>
                <path id="Path_1297" d="M162.088 278.188l10.981-2.588s7.765 24.026 26.926 22.972c15.617-.846 15.633-16.687 15.633-16.687l11.418 2.015s4.789 28.99-.459 49.325c-4.368 16.928-8.245 40.124-8.245 40.124H142.49z" class="cls-3" transform="translate(-131.58 -205.668)"/>
                <path id="Path_1298" d="M339.5 359.273s-31.283-54.807-36.913-61.84c-6.165-7.7-11.085-6.809-11.085-6.809l-3.309 36.919 26.6 37.738 6.34 2.288z" class="cls-3" transform="translate(-197.72 -212.473)"/>
                <path id="Path_1299" d="M154.328 279.78s-17.779 1.42-24.157 30.579c-2.883 13.176-6.553 28.619-7.579 38.994-.764 7.53 3.882 15.36 11.391 16.322l9.425 1.747a9.894 9.894 0 0 0 11.423-7.4l3.183-13.182-8.48-2.85 1.96-39.267z" class="cls-3" transform="translate(-122.51 -207.565)"/>
                <path id="Path_1300" d="M296.25 328.12a1.933 1.933 0 0 1 .082.4c.049.295.1.688.18 1.174.038.257.076.546.126.852s.065.65.1 1.016c.076.726.164 1.556.2 2.479a59.748 59.748 0 0 1 .044 6.482 77.782 77.782 0 0 1-.786 7.9c-.41 2.785-.923 5.417-1.442 7.8s-1.037 4.516-1.48 6.307-.83 3.227-1.092 4.221c-.131.475-.235.857-.317 1.141a3.077 3.077 0 0 1-.126.393 2.221 2.221 0 0 1 .071-.4c.066-.295.158-.677.268-1.158l1-4.265c.42-1.8.923-3.932 1.42-6.312s1.01-5.007 1.42-7.787.688-5.461.8-7.869a57.592 57.592 0 0 0 0-6.454c0-.917-.1-1.747-.158-2.479-.027-.36-.055-.7-.076-1.016s-.071-.59-.1-.852c-.055-.486-.093-.879-.126-1.174a2.953 2.953 0 0 1-.016-.393z" class="cls-7" transform="translate(-199.332 -229.509)"/>
                <path id="Path_1301" d="M180.1 371.749a1.52 1.52 0 0 1-.093-.24c-.055-.18-.131-.41-.224-.7l-.349-1.13a3.369 3.369 0 0 0-.633-1.414 4.515 4.515 0 0 0-1.638-1 13.145 13.145 0 0 0-2.217-.622 32.864 32.864 0 0 0-5.461-.546h-.147v-.142l1.605-10.468c1.032-6.591 1.971-12.559 2.654-16.928.355-2.141.639-3.882.841-5.116l.24-1.392a1.5 1.5 0 0 1 .071-.36.36.36 0 0 1 .033-.12.316.316 0 0 1 0 .126 1.2 1.2 0 0 1-.044.366c-.044.344-.109.808-.186 1.4-.18 1.24-.437 2.987-.748 5.133-.666 4.368-1.573 10.326-2.577 16.928-.59 3.768-1.141 7.333-1.638 10.462l-.126-.147a32.508 32.508 0 0 1 5.521.617 13.108 13.108 0 0 1 2.244.661 4.543 4.543 0 0 1 1.687 1.092 2.031 2.031 0 0 1 .426.759l.2.726c.126.442.229.825.317 1.141s.142.546.186.715a1.176 1.176 0 0 1 .055.213z" class="cls-7" transform="translate(-143.768 -231.07)"/>
                <path id="Path_1302" d="M144.2 404.734a3.075 3.075 0 0 1 .142-.732 11.4 11.4 0 0 1 .688-1.917 13.045 13.045 0 0 1 10.435-7.6 11.393 11.393 0 0 1 2.031-.066 3.328 3.328 0 0 1 .743.093 24.313 24.313 0 0 0-2.73.169 13.46 13.46 0 0 0-10.282 7.481 25.832 25.832 0 0 0-1.027 2.572z" class="cls-7" transform="translate(-132.356 -259.599)"/>
                <path id="Path_1303" d="M151.73 386.706a1.347 1.347 0 0 1 .426-.038 9.029 9.029 0 0 1 1.174.055 13.384 13.384 0 0 1 3.751.939 13.683 13.683 0 0 1 3.331 1.971 8.792 8.792 0 0 1 .868.786c.191.2.295.317.278.333s-.481-.382-1.267-.961a15.737 15.737 0 0 0-6.989-2.872c-.966-.143-1.572-.164-1.572-.213z" class="cls-7" transform="translate(-135.774 -256.085)"/>
                <path id="Path_1304" d="M181.04 302.063a4.429 4.429 0 0 1-.038-.781c0-.5-.033-1.223-.1-2.113a34.453 34.453 0 0 0-1.19-6.864 35.049 35.049 0 0 0-2.561-6.476c-.415-.792-.764-1.425-1.021-1.851a4.411 4.411 0 0 1-.371-.688 4.118 4.118 0 0 1 .464.628 19.854 19.854 0 0 1 1.092 1.818 30.579 30.579 0 0 1 3.768 13.422 20.762 20.762 0 0 1 0 2.124 3.955 3.955 0 0 1-.043.781z" class="cls-7" transform="translate(-146.683 -209.158)"/>
                <g id="Group_97" class="cls-4" transform="translate(95.974 97.404)">
                    <path id="Path_1305" d="M298.406 351.574a27.451 27.451 0 0 0 .672-25.664 71.7 71.7 0 0 1-.808 25.632" transform="translate(-298.27 -325.91)"/>
                </g>
                <g id="Group_98" class="cls-4" transform="translate(44.197 125.466)">
                    <path id="Path_1306" d="M215.01 383.591c-3.44 1.01-8.191 1.256-11.56 0 2.627 3.73 7.688 5.078 12.079 3.866s8.442-5.608 8.781-10.157a18.728 18.728 0 0 1-9.3 6.291z" transform="translate(-203.45 -377.3)"/>
                </g>
                <path id="Path_1307" d="M226.891 366.1a1.432 1.432 0 0 1-.082.306c-.066.2-.142.5-.295.857a17.791 17.791 0 0 1-1.48 3 19.226 19.226 0 0 1-3.107 3.866 18.806 18.806 0 0 1-10.806 5.188 19.269 19.269 0 0 1-4.958 0 18.4 18.4 0 0 1-3.276-.715c-.382-.115-.661-.24-.857-.311a1.91 1.91 0 0 1-.289-.126 12.011 12.011 0 0 1 1.174.328 19.53 19.53 0 0 0 23.485-11.279c.316-.714.464-1.125.491-1.114z" class="cls-7" transform="translate(-158.476 -246.75)"/>
                <path id="Path_1308" d="M161.663 436.11a.807.807 0 0 1-.137.147 3.761 3.761 0 0 1-.442.377 6.918 6.918 0 0 1-1.878.994 10.773 10.773 0 0 1-3.1.546 28.391 28.391 0 0 1-3.822-.137c-2.73-.235-5.155-.633-6.908-.945-.879-.158-1.589-.295-2.075-.4a3.716 3.716 0 0 1-.759-.186 4.7 4.7 0 0 1 .775.076l2.091.306c1.758.268 4.194.628 6.9.863a31.08 31.08 0 0 0 3.822.158 11.144 11.144 0 0 0 3.047-.491 9.392 9.392 0 0 0 2.486-1.308z" class="cls-7" transform="translate(-131.603 -278.531)"/>
                <path id="Path_1309" d="M271.729 171.184l2.244-2.184c2.987 1.3 4.368 4.767 4.876 7.989s.431 6.607 1.8 9.567c1.048 2.277 2.954 4.368 2.73 6.886-.213 2.375-2.364 4.3-2.375 6.684 0 2.3 1.911 4.063 3.025 6.072 2.255 4.068 3.719 20.712 2.539 25.217-9.922-.857-27.494-1.917-37.421-4.2 2.619-17.103 13.632-41.238 22.582-56.031z" class="cls-7" transform="translate(-179.998 -157.277)"/>
                <path id="Path_1311" d="M259.535 181.112a22.491 22.491 0 0 0-19.521-23.666 21.845 21.845 0 0 0-24.572 19.625l-2.927 49.112a4.265 4.265 0 0 0 .754 2.67 20.047 20.047 0 0 0 12.772 8.163 20.986 20.986 0 0 0 12.941-2.687 4.183 4.183 0 0 0 2.124-3.593l.2-10.992a.066.066 0 0 1 .071-.071 14.922 14.922 0 0 0 3.085-.087c2.905-.71 10.315-3.56 12.8-14.438.838-3.603 1.667-13.841 2.273-24.036z" class="cls-8" transform="translate(-163.364 -151.958)"/>
                <path id="Path_1312" d="M269.05 217.07a13.07 13.07 0 0 1 3.189-.339c.5 0 .972-.082 1.092-.41a2.446 2.446 0 0 0-.24-1.463l-1.223-3.822c-1.693-5.417-2.883-9.856-2.665-9.916s1.775 4.27 3.467 9.687q.606 2.007 1.163 3.822a2.763 2.763 0 0 1 .131 1.928 1.218 1.218 0 0 1-.857.65 3.385 3.385 0 0 1-.846.06 12.469 12.469 0 0 1-3.211-.197z" class="cls-7" transform="translate(-189.032 -171.857)"/>
                <path id="Path_1313" d="M287.107 206.732c-.213.235-1.5-.846-3.347-.9s-3.222.912-3.418.661c-.1-.115.126-.546.726-.994a4.429 4.429 0 0 1 2.73-.83 4.368 4.368 0 0 1 2.659 1.021c.574.491.787.938.65 1.042z" class="cls-7" transform="translate(-194.147 -173.467)"/>
                <path id="Path_1314" d="M252.247 207.334c-.251.235-1.594-.983-3.609-1.158s-3.582.748-3.784.475c-.1-.126.175-.546.857-.994a5.013 5.013 0 0 1 3.036-.677 4.914 4.914 0 0 1 2.85 1.24c.596.53.771 1.01.65 1.114z" class="cls-7" transform="translate(-178.039 -173.6)"/>
                <path id="Path_1315" d="M251.514 266.459s-7.525.082-16.524-6.1c0 0 2.326 9.927 16.463 9.616z" class="cls-9" transform="translate(-173.57 -198.749)"/>
                <path id="Path_1316" d="M262.134 237.388a3.544 3.544 0 0 0-3.047-1.491 3.189 3.189 0 0 0-2.277 1 1.96 1.96 0 0 0-.3 2.261 2.379 2.379 0 0 0 2.5.808 7.377 7.377 0 0 0 2.577-1.289 2.272 2.272 0 0 0 .59-.546.639.639 0 0 0 .044-.71" class="cls-9" transform="translate(-183.235 -187.643)"/>
                <path id="Path_1317" d="M258.131 232c.317 0 .191 2.075 1.895 3.669s3.959 1.518 3.959 1.807c0 .137-.546.371-1.474.328a5.34 5.34 0 0 1-3.309-1.392 4.489 4.489 0 0 1-1.452-3.063c-.029-.868.239-1.349.381-1.349z" class="cls-7" transform="translate(-183.9 -185.875)"/>
                <path id="Path_1318" d="M251.6 193.928c-.229.5-2.146.115-4.434.208s-4.172.546-4.445.082c-.115-.235.235-.693 1.016-1.141a7.808 7.808 0 0 1 6.76-.218c.793.391 1.181.828 1.103 1.069z" class="cls-7" transform="translate(-177.07 -167.805)"/>
                <path id="Path_1319" d="M287.084 194.489c-.393.437-1.949 0-3.822 0s-3.446.311-3.822-.142c-.164-.218.082-.655.77-1.092a6.367 6.367 0 0 1 6.149.131c.676.443.9.89.725 1.103z" class="cls-7" transform="translate(-193.726 -167.957)"/>
                <path id="Path_1320" d="M239.416 150.561c-1.016-1.726-2.9-2.512-5.007-2.829-8.606-1.305-18.205 3.877-23.027 11.118s-5.078 18.047-1.551 26l5.368-3.353c10.774-4.445 18.38-14.825 25.309-25.55.967-1.46-.191-3.884-1.092-5.386z" class="cls-7" transform="translate(-161.063 -147.531)"/>
                <path id="Path_1321" d="M278.661 156.526c-3.6-4.1-6.214-8.191-13.684-5.329-1.092 2.091 1.092 4.805 2.971 6.389 2.73 2.326 5.073 3.893 6.853 5.559 3.593 3.358 7.677 14.656 8.032 20.821 0 .388.683-5.291 1.092-5.351.5-.076 2.528-2.556 2.25-5.941-.961-11.574-3.916-12.059-7.514-16.148z" class="cls-7" transform="translate(-187.05 -148.761)"/>
                <path id="Path_1322" d="M256.87 147.853a3.074 3.074 0 0 1 1.676.142 7.252 7.252 0 0 1 3.4 2.233 6.087 6.087 0 0 1 .677.956 4.882 4.882 0 0 1 .393 1.032 11.289 11.289 0 0 1 .442 1.769 2.538 2.538 0 0 1-.158 1.676 12.794 12.794 0 0 0-.2-1.611 16.478 16.478 0 0 0-.546-1.687 5.233 5.233 0 0 0-.382-.934 6.167 6.167 0 0 0-.633-.885 8.027 8.027 0 0 0-3.118-2.217c-.934-.332-1.562-.387-1.551-.474z" class="cls-2" transform="translate(-183.502 -147.651)"/>
                <path id="Path_1323" d="M286.924 213.759a1.638 1.638 0 0 1-1.545 1.638 1.567 1.567 0 0 1-1.709-1.447 1.638 1.638 0 0 1 1.545-1.676 1.562 1.562 0 0 1 1.709 1.485z" class="cls-7" transform="translate(-195.668 -176.918)"/>
                <path id="Path_1324" d="M253.984 213.951a1.638 1.638 0 0 1-1.545 1.676 1.562 1.562 0 0 1-1.709-1.442 1.638 1.638 0 0 1 1.545-1.682 1.562 1.562 0 0 1 1.709 1.447z" class="cls-7" transform="translate(-180.715 -177.022)"/>
                <path id="Path_1325" d="M163.223 199.489a8.485 8.485 0 0 1 4.041-3.937c1.857-.693 3.964-1.092 5.422-2.446 2.288-2.1 2.184-5.6 1.977-8.644s-.262-6.553 2.075-8.6c1.955-1.709 5.062-1.862 6.755-3.822 1.13-1.305 1.354-3.107 1.747-4.772 1.092-4.461 3.533-12.253 16.682-16.736l-11.631 44.2c.868.246 2.943 2.222 3.058 3.56.1 1.25-.437 2.517-.448 3.773 0 1.534 1.671 2.452 2.73 3.588a6.922 6.922 0 0 1 1.551 5.461 38.344 38.344 0 0 1-2.1 7.7c-10.79-1.092-26.538-1.442-34.762-8.322-1.493-1.245.642-7.284 2.903-11.003z" class="cls-7" transform="translate(-139.448 -148.892)"/>
                <path id="Path_1326" d="M214.477 209.168c-.2-.109-8.147-3.276-8.655 5.106s7.994 7.137 8.021 6.9.634-12.006.634-12.006z" class="cls-8" transform="translate(-160.319 -175.204)"/>
                <path id="Path_1327" d="M213.262 220.054c-.038-.033-.153.093-.41.186a1.453 1.453 0 0 1-1.092-.038c-.863-.382-1.523-1.829-1.474-3.336a4.866 4.866 0 0 1 .546-2.059 1.7 1.7 0 0 1 1.168-1.054.743.743 0 0 1 .835.453c.1.24.033.4.076.42s.191-.131.142-.481a.912.912 0 0 0-.295-.546 1.092 1.092 0 0 0-.792-.262 2.042 2.042 0 0 0-1.6 1.2 4.975 4.975 0 0 0-.644 2.3c-.049 1.687.715 3.315 1.906 3.735a1.54 1.54 0 0 0 1.343-.142c.264-.179.318-.36.291-.376z" class="cls-9" transform="translate(-162.097 -177.402)"/>
                <path id="Path_1328" d="M276.14 207.149a13.227 13.227 0 0 1 .268-1.873 7.645 7.645 0 0 1 9.916-5.411 7.1 7.1 0 0 1 1.933 1 6.99 6.99 0 0 1 1.638 1.584 7.536 7.536 0 0 1 .142 8.955 7.1 7.1 0 0 1-1.573 1.638 6.979 6.979 0 0 1-1.9 1.065 7.6 7.6 0 0 1-3.981.4 7.513 7.513 0 0 1-3.227-1.36 7.688 7.688 0 0 1-2.878-4.134 14.2 14.2 0 0 1-.328-1.867 1.134 1.134 0 0 0 0 .126v.371a3.9 3.9 0 0 0 .06.6 5.234 5.234 0 0 0 .153.8 7.768 7.768 0 0 0 10.288 5.308 7.834 7.834 0 0 0 3.462-12.068 7.4 7.4 0 0 0-1.693-1.638 7.263 7.263 0 0 0-1.982-1 7.765 7.765 0 0 0-10.113 5.641 5.863 5.863 0 0 0-.131.808 4.3 4.3 0 0 0-.038.6v.366q-.01.04-.016.089z" class="cls-2" transform="translate(-192.25 -170.995)"/>
                <path id="Path_1329" d="M237.444 207.746a13.6 13.6 0 0 1 .262-1.873 7.694 7.694 0 0 1 2.73-4.226 7.552 7.552 0 0 1 3.184-1.463 7.645 7.645 0 0 1 3.992.279 7.257 7.257 0 0 1 1.933 1 7.1 7.1 0 0 1 1.638 1.584 7.541 7.541 0 0 1 .147 8.95 7.153 7.153 0 0 1-1.578 1.638 6.962 6.962 0 0 1-1.9 1.065 7.6 7.6 0 0 1-3.981.4 7.486 7.486 0 0 1-3.222-1.36 7.7 7.7 0 0 1-2.883-4.134 13.652 13.652 0 0 1-.322-1.868.449.449 0 0 0 0 .126v.371a3.232 3.232 0 0 0 .055.6 4.709 4.709 0 0 0 .158.8 7.645 7.645 0 0 0 2.867 4.27 7.759 7.759 0 0 0 3.276 1.431 7.857 7.857 0 0 0 4.112-.393 7.835 7.835 0 0 0-.235-14.738 7.8 7.8 0 0 0-10.129 5.635 4.566 4.566 0 0 0-.131.808 3.071 3.071 0 0 0-.038.6v.366a.328.328 0 0 0 .065.132z" class="cls-2" transform="translate(-174.653 -171.254)"/>
                <path id="Path_1330" d="M265.1 211.746c.044.027.262-.328.77-.737a3.724 3.724 0 0 1 4.652-.082c.546.388.754.737.792.7a1.955 1.955 0 0 0-.666-.863 3.653 3.653 0 0 0-4.914.093 1.971 1.971 0 0 0-.634.889z" class="cls-2" transform="translate(-187.238 -175.827)"/>
                <path id="Path_1331" d="M218.17 208.75a7.532 7.532 0 0 0 1.545.317c.966.153 2.3.295 3.779.426l3.784.339a10.315 10.315 0 0 0 1.567.12 7.6 7.6 0 0 0-1.545-.322c-.961-.147-2.3-.289-3.779-.42l-3.779-.339a9.574 9.574 0 0 0-1.572-.121z" class="cls-2" transform="translate(-165.935 -175.321)"/>
                <path id="Path_1332" d="M298.46 217.642A9.9 9.9 0 0 0 300.1 215a10.037 10.037 0 0 0 .475-3.074 2.185 2.185 0 0 1 .164.928 6.04 6.04 0 0 1-.371 2.244 5.935 5.935 0 0 1-1.18 1.944c-.4.43-.706.627-.728.6z" class="cls-5" transform="translate(-202.382 -176.765)"/>
                <path id="Path_1333" d="M300.873 206.578c.044-.066.355.093.546.464s.109.71.033.7-.142-.284-.289-.584-.339-.52-.29-.58z" class="cls-5" transform="translate(-203.474 -174.329)"/>
                <path id="Path_1334" d="M262 213.141c-.044 0 .109-.437.235-1.141a7.8 7.8 0 0 0-1-5.357c-.366-.612-.661-.95-.628-.983a2.965 2.965 0 0 1 .8.874 6.946 6.946 0 0 1 1.054 5.5 2.981 2.981 0 0 1-.461 1.107z" class="cls-5" transform="translate(-185.198 -173.918)"/>
                <path id="Path_1335" d="M209.3 231.02a5.393 5.393 0 0 0-.278.464 2.905 2.905 0 0 0-.36 1.392 2.561 2.561 0 0 0 .775 1.9 2.73 2.73 0 0 0 2.359.759 2.785 2.785 0 0 0 1.956-1.535 2.594 2.594 0 0 0 .06-2.053 2.965 2.965 0 0 0-.819-1.179c-.262-.224-.437-.317-.426-.339a1.256 1.256 0 0 1 .491.251 2.8 2.8 0 0 1 .939 1.19 2.73 2.73 0 0 1 0 2.239 2.883 2.883 0 0 1-4.74.852 2.73 2.73 0 0 1-.792-2.091 2.79 2.79 0 0 1 .464-1.442 1.172 1.172 0 0 1 .371-.408z" class="cls-10" transform="translate(-161.527 -185.163)"/>
                <path id="Path_1336" d="M294.469 238.055a2.31 2.31 0 0 0 1.452.087 2.85 2.85 0 0 0 1.338-.825 3.461 3.461 0 0 0 .863-1.715 3.112 3.112 0 0 0-.229-1.9 3.473 3.473 0 0 0-.977-1.25 5.685 5.685 0 0 0-1.311-.715.939.939 0 0 1 .41.055 3.184 3.184 0 0 1 1.027.5 3.577 3.577 0 0 1 1.092 1.305 3.277 3.277 0 0 1 .273 2.059 3.653 3.653 0 0 1-.961 1.851 2.949 2.949 0 0 1-1.48.835 2.037 2.037 0 0 1-1.141-.06c-.257-.107-.367-.216-.356-.227z" class="cls-10" transform="translate(-200.57 -185.754)"/>
                <path id="Path_1337" d="M206.791 422.2l8.1 2.4a57.138 57.138 0 0 0 6.64 2.414c2.7.617 4.538-.218 4.636-1.72s-2-1.693-2-1.693a41.494 41.494 0 0 1-5.187-2.4 9.19 9.19 0 0 1-2.894-3.276l2.894.4s6.088 4.368 8.382 5.69 2.8-1 2.992-1.7-6.782-7.781-6.782-7.781 6.684 4.292 7.88 5.362 3 1.42 3.4.726 1.5-.7 0-3.659-13.471-10.921-13.471-10.921l3.276-.7 3.593 1.6a8.852 8.852 0 0 0 1.5 3.418c1.294 1.922 3.593 0 3.593 0l-1.425-7.372-7.1-4.445s-7.383.9-8.48 1.4-2.3 2.588-2.3 2.588l-1.993.808c-3.1.9-2.992 3.992-3.992 4.09s-30.126-5.581-30.126-5.581l-2.637-.688c-4.368 3.315-6.11 8.791-6.88 13.651 0 0-.8 2.381 0 3.691z" class="cls-8" transform="translate(-143.181 -261.48)"/>
                <path id="Path_1338" d="M229.181 424.418a1.49 1.49 0 0 1-.027-.475 2.731 2.731 0 0 1 .049-.546 4.176 4.176 0 0 1 .142-.732 10.321 10.321 0 0 1 2.037-3.751 22.31 22.31 0 0 1 3.014-3.02 8.923 8.923 0 0 1 1.414-1.054 14.673 14.673 0 0 1-1.283 1.179 28.25 28.25 0 0 0-2.927 3.047 11.249 11.249 0 0 0-2.059 3.631c-.322 1.044-.3 1.726-.36 1.721z" class="cls-9" transform="translate(-170.917 -268.875)"/>
                <path id="Path_1339" d="M246.107 405.85a4.173 4.173 0 0 0-.612.426 6.628 6.628 0 0 0-1.327 1.523 7.241 7.241 0 0 0-.666 1.229 6.635 6.635 0 0 0-.317 1.562 3.932 3.932 0 0 1-.644 1.726 7 7 0 0 0-.967 1.638 4.368 4.368 0 0 0 0 3.08l.038.1-.093.06a6.072 6.072 0 0 0-2.572 3.533 9.828 9.828 0 0 0-.246 1.747 1.42 1.42 0 0 1-.055-.47 5.493 5.493 0 0 1 .142-1.316 6.061 6.061 0 0 1 2.588-3.724l-.055.164a4.674 4.674 0 0 1 0-3.276 6.761 6.761 0 0 1 1-1.676 3.691 3.691 0 0 0 .612-1.638 5.138 5.138 0 0 1 1.092-2.856 5.957 5.957 0 0 1 1.431-1.5 2.183 2.183 0 0 1 .491-.279.638.638 0 0 1 .16-.053z" class="cls-9" transform="translate(-175.23 -264.794)"/>
                <path id="Path_1340" d="M261.972 410.7a4.483 4.483 0 0 1-3.822-1.354c.055-.066.786.5 1.84.863s1.982.409 1.982.491z" class="cls-9" transform="translate(-184.084 -266.379)"/>
                <path id="Path_1341" d="M263.572 424.439a18.068 18.068 0 0 1-3.063-1.169 19.279 19.279 0 0 1-2.949-1.431 19.726 19.726 0 0 1 3.063 1.169 19.28 19.28 0 0 1 2.949 1.431z" class="cls-9" transform="translate(-183.816 -272.053)"/>
                <path id="Path_1342" d="M253.962 432.838a26.206 26.206 0 0 1-3.1-1.278 4.057 4.057 0 0 1 1.638.426 3.91 3.91 0 0 1 1.463.852z" class="cls-9" transform="translate(-180.774 -276.465)"/>
                <path id="Path_1343" d="M265.093 427.537a3.91 3.91 0 0 0-1.928 2.43c-.038 0-.071-.191 0-.5a2.55 2.55 0 0 1 1.453-1.84c.267-.112.464-.127.475-.09z" class="cls-9" transform="translate(-186.341 -274.632)"/>
                <path id="Path_1344" d="M270.926 419.427c.033.076-.5.349-.863.961a8.361 8.361 0 0 0-.459 1.2 1.447 1.447 0 0 1 .218-1.349c.416-.697 1.093-.889 1.104-.812z" class="cls-9" transform="translate(-189.248 -270.95)"/>
                <path id="Path_1345" d="M270.337 402.552c-.027 0-.137-.126-.218-.388a2.058 2.058 0 0 1 0-1.092 2.032 2.032 0 0 1 .546-.928c.2-.191.36-.257.377-.229a5.463 5.463 0 0 0-.628 1.229 5.958 5.958 0 0 0-.076 1.409z" class="cls-9" transform="translate(-189.483 -262.097)"/>
                <path id="Path_1346" fill="#f5f5f5" d="M324.929 395.99a9.581 9.581 0 0 0-7.792-8.649c-7.426-1.485-20.433 4.827-20.433 4.827l-36.443 25.4 1.092 3.14 36.99-5.155 3.385 1.3 25.981-17.07 24.518-17.725-2.73-2.135a95.641 95.641 0 0 1-11.412 6.771c-4.545 2.034-11.114 5.606-13.156 9.296z" transform="translate(-185.041 -253.023)"/>
                <path id="Path_1347" d="M259.23 422.282l30.841-19.161 32.6-5.237a4.506 4.506 0 0 0 4.407 1.791l26.811-18.566.508 1.119-52 36.531a4.461 4.461 0 0 1-4.527-.885z" class="cls-2" transform="translate(-184.574 -253.564)"/>
                <path id="Path_1348" d="M354.806 411.83a1.2 1.2 0 0 1-.251.208l-.754.546c-.655.47-1.6 1.152-2.73 2.015-2.315 1.72-5.461 4.172-8.857 6.951s-6.449 5.362-8.633 7.246l-2.6 2.239-.71.6a1.269 1.269 0 0 1-.257.2 2.244 2.244 0 0 1 .218-.235l.672-.644c.59-.546 1.447-1.343 2.528-2.3 2.151-1.922 5.171-4.521 8.584-7.312s6.553-5.215 8.917-6.9c1.169-.846 2.135-1.5 2.812-1.944l.781-.5a1.81 1.81 0 0 1 .28-.17z" class="cls-7" transform="translate(-216.704 -267.509)"/>
                <path id="Path_1349" d="M323.169 401.186c-2.954-3.173-7.607-4.3-11.931-3.964s-8.426 1.949-12.461 3.549l-37.727 25.823.339.972 37.928-25.666s8.475-2.73 12.226-3.2a20.011 20.011 0 0 1 11.626 2.486z" class="cls-10" transform="translate(-185.4 -260.852)"/>
                <path id="Path_1350" d="M385.65 400.577l18.14-12.237s-14.864 7.732-18.14 12.237z" class="cls-10" transform="translate(-241.962 -256.846)"/>
                <path id="Path_1351" d="M261.05 426.511a.922.922 0 0 1 .153-.126l.47-.333 1.807-1.272 6.684-4.631 22.115-15.186 6.421-4.363a45.5 45.5 0 0 1 11.467-3.446 17.151 17.151 0 0 1 9.4 1.327 11.657 11.657 0 0 1 3.009 2.02 8.894 8.894 0 0 1 1.682 2.135 7.044 7.044 0 0 1 .655 1.578c.038.18.071.322.1.431a1.272 1.272 0 0 1 .027.147 8.918 8.918 0 0 0-.863-2.108 9.141 9.141 0 0 0-1.693-2.08 12.047 12.047 0 0 0-2.992-1.966 17.141 17.141 0 0 0-9.283-1.245 45.9 45.9 0 0 0-11.38 3.424h.027l-6.422 4.368-22.131 15.131-6.738 4.56-1.835 1.223-.486.317a1.059 1.059 0 0 1-.194.095z" class="cls-7" transform="translate(-185.4 -260.768)"/>
                <path id="Path_1352" d="M321.53 410.478a1.19 1.19 0 0 1 .284-.175c.191-.1.475-.262.841-.448.737-.382 1.813-.917 3.167-1.529a41.171 41.171 0 0 1 11.068-3.391 24.124 24.124 0 0 1 11.467 1.048 17.366 17.366 0 0 1 3.173 1.524 7.045 7.045 0 0 1 .8.546 1.774 1.774 0 0 1 .268.2l-1.119-.639a19.261 19.261 0 0 0-3.183-1.425 24.7 24.7 0 0 0-11.374-.956 43.683 43.683 0 0 0-11.025 3.276c-1.36.59-2.446 1.092-3.2 1.447l-.863.4a1.635 1.635 0 0 1-.304.122z" class="cls-7" transform="translate(-212.855 -264.256)"/>
                <path id="Path_1353" d="M406.745 382.42a2.284 2.284 0 0 1-.235.18l-.7.47-2.616 1.682c-2.217 1.42-5.269 3.38-8.617 5.586s-6.34 4.232-8.524 5.706l-2.583 1.736-.71.464a1.158 1.158 0 0 1-.257.142 1.4 1.4 0 0 1 .224-.191l.683-.508c.59-.437 1.452-1.054 2.528-1.813 2.151-1.513 5.144-3.571 8.5-5.777s6.427-4.139 8.666-5.515c1.119-.688 2.031-1.234 2.665-1.605l.737-.426a1.5 1.5 0 0 1 .246-.131z" class="cls-7" transform="translate(-240.532 -254.158)"/>
                <path id="Path_1354" d="M364.251 411.149a12.713 12.713 0 0 1-1.4 2.523c-.7.83-2.981 1.988-3.162 3.566s.191 5.28-2.277 8.1a13.859 13.859 0 0 1-5.848 3.822l-9.736-.95-15.552-6.121a1.365 1.365 0 0 1-.994-1.638 1.966 1.966 0 0 1 1.638-1.463l.371-.06s-.9-.732.388-2.015c1.092-1.092 3.424-.475 4.625-.076s8.245 3.342 9.507 3.8c1.119.4 1.982.754 1.982.754s-9.015-6.083-9.141-6.88a1.721 1.721 0 0 1 .874-2.059c1.092-.792 2.883.055 4.62.786 1.294.546 9.545 4.62 9.545 4.62s.371-.36 0-1.092-3.113-4.259-3.544-4.914-.546-1.027-.115-1.578c.6-.781 2.184-1.152 3.642.18.923.852 4.2 3.058 4.2 3.058l15.147-11.052s1.884-.049 1.229 2.577-5.999 6.112-5.999 6.112z" class="cls-8" transform="translate(-214.54 -263.251)"/>
                <path id="Path_1355" d="M373.73 433.342a3.861 3.861 0 0 1-2.73-2.293c.071-.044.513.633 1.267 1.261s1.501.95 1.463 1.032z" class="cls-9" transform="translate(-235.312 -276.232)"/>
                <path id="Path_1356" d="M378.28 423.126c0-.033.2-.093.546-.049a2.364 2.364 0 0 1 1.895 1.567c.1.317.087.546.049.546a4.275 4.275 0 0 0-.961-1.354 4.369 4.369 0 0 0-1.529-.71z" class="cls-9" transform="translate(-238.616 -272.608)"/>
                <path id="Path_1357" d="M378.627 425.94c-.082 0-.12-.814-.442-1.742s-.775-1.611-.71-1.638a3.052 3.052 0 0 1 .977 1.567 3.009 3.009 0 0 1 .175 1.813z" class="cls-9" transform="translate(-238.248 -272.38)"/>
                <path id="Path_1358" d="M395.288 414.283c0 .027-.191-.082-.388-.344a2.506 2.506 0 0 1-.273-2.43c.131-.295.278-.442.306-.42a3.571 3.571 0 0 0 .355 3.194z" class="cls-9" transform="translate(-245.948 -267.171)"/>
                <path id="Path_1359" d="M365.705 439.62a2.386 2.386 0 0 1-1.065 0 7.1 7.1 0 0 1-2.4-.9 13.291 13.291 0 0 1-2.07-1.5 3.555 3.555 0 0 1-.748-.743 4.248 4.248 0 0 1 .874.584 20.484 20.484 0 0 0 2.086 1.414 8.6 8.6 0 0 0 2.3.945 9.282 9.282 0 0 1 1.023.2z" class="cls-9" transform="translate(-230.055 -278.699)"/>
                <path id="Path_1360" d="M374.421 439.37c.076 0 .082.546-.377 1s-1.016.431-1 .355.431-.186.8-.546.495-.82.577-.809z" class="cls-9" transform="translate(-236.238 -280.01)"/>
                <path id="Path_1361" d="M380.862 434.369c.033 0 .033.147-.071.344a1.343 1.343 0 0 1-.617.546 1.375 1.375 0 0 1-.825.12c-.218-.044-.328-.131-.311-.164a2.639 2.639 0 0 0 1.016-.213c.514-.256.732-.66.808-.633z" class="cls-9" transform="translate(-238.96 -277.74)"/>
                <path id="Path_1362" d="M345.032 439.89c-.027.071-3.648-1.436-8.082-3.375s-8.005-3.571-7.951-3.637 3.653 1.442 8.087 3.38 7.978 3.561 7.946 3.632z" class="cls-9" transform="translate(-216.245 -277.063)"/>
            </g>
            <g id="freepik--Desk--inject-44" transform="translate(24.84 281.105)">
                <path id="Path_1363" d="M270.738 454.522c0 .076-55.053.142-122.944.142S24.84 454.6 24.84 454.522s55.042-.142 122.954-.142 122.944.06 122.944.142z" class="cls-7" transform="translate(-24.84 -454.38)"/>
            </g>
        </g>
    </g>
</svg>
