<svg xmlns="http://www.w3.org/2000/svg" width="405" height="286" viewBox="0 0 405 286">
    <defs>
        <style>
            .cls-2{fill:#eb9481}.cls-3{fill:#fff24f}.cls-4{fill:#263238}.cls-5{fill:#455a64}.cls-6{fill:#fff}.cls-8{fill:#ff9bbc}.cls-9{fill:#c95f50}.cls-10{fill:#37474f}
        </style>
    </defs>
    <g id="Group_280" transform="translate(-758 -1008)">
        <path id="skeleton-414543_1920" fill="#f4e130" d="M0 0H405V286H0z" transform="translate(758 1008)"/>
        <g id="High_five-cuate" transform="translate(787.298 993.471)">
            <g id="freepik--character-1--inject-593" transform="translate(71.489 49.963)">
                <path id="Path_1052" d="M211.6 428.22c-1.25.405-36.872-.056-38.216-.939-.517-.322-.75-5.521-.855-11.8v-.2c0-1.294-.044-2.627-.044-3.977v-.555c-.05-9.069.094-18.478.094-18.478l23.826.239-.716 18.328v.722l-.144 3.793v.389s13.557 6.276 14.929 7.4 2.373 4.684 1.126 5.078z" class="cls-2" transform="translate(-116.387 -209.854)"/>
                <path id="Path_1053" d="M223.53 438.8q-.144-.044-.15-.083z" class="cls-3" transform="translate(-139.022 -230.506)"/>
                <path id="Path_1054" d="M211.673 448.441c-1.25.4-36.872-.056-38.216-.939-.461-.289-.7-4.443-.816-9.753 6.526 1.361 31.824 6.476 32.512 4.315.272-.85-1.888-2.322-3.26-3.149a84.449 84.449 0 0 1 8.614 4.443c1.36 1.096 2.415 4.683 1.166 5.083z" class="cls-4" transform="translate(-116.462 -230.075)"/>
                <path id="Path_1055" d="M159.48 207.5s5.348 60.193 6.22 64.786c.2 1.05.328 6.737.411 14.051.183 15.951.072 44.731.072 44.731h25.109s-.744-49.863-1.855-59.038-8.214-64.531-8.214-64.531z" class="cls-5" transform="translate(-110.611 -127.703)"/>
                <path id="Path_1056" d="M196.26 421.968c-3.915-.078-2.777-.111-6.709-.15-1.922 0-14.523-.128-16.312.172a.039.039 0 0 0 0 .078c1.794.294 14.39.189 16.312.167 3.915-.039 2.777-.067 6.709-.15.072 0 .072-.111 0-.117z" class="cls-4" transform="translate(-116.711 -222.98)"/>
                <path id="Path_1057" d="M173.5 300.446l-.078-10.924c-.028-3.527 0-7.059-.189-10.586-.339-7.131-1.788-14.151-2.821-21.2s-1.888-14.14-2.666-21.232c-.872-7.959-1.666-15.923-2.46-23.882 0-.056-.089-.056-.083 0 1.183 14.212 2.5 28.425 4.471 42.554q.733 5.276 1.605 10.552c.583 3.543 1.166 7.092 1.45 10.675s.317 7.026.35 10.552l.111 10.919c.078 8.086.156 20.549.233 28.614a.122.122 0 1 0 .244 0c-.059-7.259-.114-18.828-.167-26.042z" class="cls-4" transform="translate(-113.154 -129.959)"/>
                <path id="Path_1058" d="M150 207.5s10.641 60.193 11.513 64.786c.2 1.05.328 6.737.411 14.051l11.958-78.837z" class="cls-4" transform="translate(-106.396 -127.703)"/>
                <path id="Path_1059" d="M102.964 419.306c-1.266-.35-30.813-20.255-31.457-21.727-.25-.555 2.4-5.026 5.754-10.341l.106-.167q1.033-1.666 2.144-3.332c.106-.156.205-.311.3-.472 4.932-7.614 10.208-15.406 10.208-15.406l19.8 13.257-10.632 14.922-.417.589-2.222 3.094-.222.317s7.9 12.68 8.436 14.373-.537 5.243-1.798 4.893z" class="cls-2" transform="translate(-71.49 -199.001)"/>
                <path id="Path_1060" d="M122.767 435.113c-.056-.067-.083-.111-.078-.133z" class="cls-3" transform="translate(-94.253 -228.843)"/>
                <path id="Path_1061" d="M102.958 436.628c-1.266-.344-30.807-20.255-31.452-21.727-.217-.472 1.666-3.81 4.338-8.081 4.115 3.888 24.009 22.643 25.781 21.1.378-.322.222-1.2-.117-2.155a57.712 57.712 0 0 1 3.277 5.92c.528 1.715-.561 5.293-1.827 4.943z" class="cls-4" transform="translate(-71.489 -216.323)"/>
                <path id="Path_1062" d="M103.7 328.723l-21.43-15.439s27.714-36.989 27.842-40.371c.189-5.032 2.6-25.792 4.626-42.6 0 0-3.843-9.1 3.332-22.849h28.825s-1.911 13.074-5.221 21.4a38.515 38.515 0 0 0-6.409 2.927s-2.383 41.027-3.1 45.647c-1.898 12.203-28.465 51.285-28.465 51.285z" class="cls-5" transform="translate(-76.283 -127.685)"/>
                <path id="Path_1063" d="M108.383 405.852c-3.16-2.316-2.222-1.7-5.409-3.977-1.561-1.111-11.819-8.436-13.451-9.225-.039 0-.078.039-.05.067 1.3 1.272 11.663 8.414 13.263 9.5 3.232 2.222 2.327 1.55 5.554 3.732a.067.067 0 1 0 .094-.094z" class="cls-4" transform="translate(-79.481 -210.023)"/>
                <path id="Path_1064" d="M149.169 222.719c.65-.167 1.355-.217 2.022-.322.555-.089 1.077-.183 1.611-.3a7.064 7.064 0 0 0 2.838-1.194 6.848 6.848 0 0 0 1.844-2.866c.261-.622.555-1.239.816-1.855.133-.3.267-.6.405-.9a8.962 8.962 0 0 0 .505-1.072c0-.056.106 0 .083 0a7.661 7.661 0 0 0-.228.772c-.094.305-.178.605-.272.905-.167.555-.328 1.072-.5 1.605a13.017 13.017 0 0 1-1.139 2.81 5.913 5.913 0 0 1-4.515 2.427c-.505.067-1.016.1-1.527.128a10.633 10.633 0 0 1-1.927 0 .089.089 0 0 1-.017-.139z" class="cls-4" transform="translate(-106.015 -130.676)"/>
                <path id="Path_1065" d="M185.156 244.918a47.947 47.947 0 0 0-7.5 3.493c-.094.056-.033.2.067.156 2.533-1.083 5.11-2.122 7.576-3.332a.173.173 0 1 0-.139-.317z" class="cls-4" transform="translate(-118.67 -144.333)"/>
                <path id="Path_1066" d="M188.5 213.642c0-.089-.161-.106-.161 0 0 3-.172 5.637-.422 8.442-.122 1.305-1.166 8.5-3.427 7.975-.378-.089-.555-.461-.628-1.027a8.886 8.886 0 0 1 .3-2.222c.25-1.505.45-3.016.555-4.538a41.155 41.155 0 0 0-.089-8.514.072.072 0 1 0-.144 0 78.453 78.453 0 0 1-.689 11.752c-.283 1.866-1.227 4.687.733 5s3.282-4.443 3.527-5.721a43.215 43.215 0 0 0 .445-11.147z" class="cls-4" transform="translate(-121.211 -130.401)"/>
                <path id="Path_1067" d="M184.966 243.476a11.735 11.735 0 0 0-.505 1.488 3.333 3.333 0 0 0-.211 1.227c0 .078.111.089.156.033a4.11 4.11 0 0 0 .522-1.194c.172-.461.355-.916.517-1.383a.255.255 0 0 0-.478-.172z" class="cls-4" transform="translate(-121.624 -143.635)"/>
                <path id="Path_1068" d="M125.951 211a32.4 32.4 0 0 0-1.916 4.965 33.945 33.945 0 0 0-1.111 5.193 27.159 27.159 0 0 0-.211 5.287 22.887 22.887 0 0 0 .922 5.2v.067q-.961 10.78-2.049 21.538c-.733 7.181-1.422 14.351-2.41 21.51-.056.45-.161.905-.239 1.355a6.51 6.51 0 0 1-.555 1.294c-.433.805-.911 1.572-1.383 2.344-.961 1.533-1.955 3.038-2.955 4.538-2.011 3-4.082 5.948-6.159 8.886-4.149 5.9-8.4 11.73-12.674 17.539q6.243-8.842 12.374-17.745 3.066-4.443 6.065-8.953c.994-1.505 1.977-3.01 2.927-4.538.467-.766.939-1.533 1.355-2.322a5.715 5.715 0 0 0 .489-1.177c.078-.439.172-.855.228-1.311.494-3.554.866-7.148 1.261-10.73l1.15-10.752 2.222-21.521v.072a23.132 23.132 0 0 1-.883-5.287 26.008 26.008 0 0 1 .305-5.337 34.6 34.6 0 0 1 1.233-5.193 33.084 33.084 0 0 1 2.014-4.922z" class="cls-4" transform="translate(-82.036 -129.259)"/>
                <path id="Path_1069" d="M174.012 111.35c-1.427-2.683-4.671-4.021-8.1-4.177s-7.731.483-9.375 5.615c-1.338 4.165-.977 8.625-2.16 13.329s-9.6 14.9-2 22.671c6.82 6.976 24.3 6.259 27.358-4.01 2.421-8.148-5.948-18.217-6.226-21.738s2.075-8.752.503-11.69z" class="cls-4" transform="translate(-106.054 -83.088)"/>
                <path id="Path_1070" d="M194.035 123.72a18.094 18.094 0 0 0-.267 7.314 6.848 6.848 0 0 0 .633 1.805c.283.555.594 1.111.9 1.666.633 1.111 1.261 2.166 1.827 3.266a24.614 24.614 0 0 1 2.494 6.87 18.367 18.367 0 0 1-.111 7.22 15.628 15.628 0 0 0 .766-3.571 17.513 17.513 0 0 0-.106-3.693 21.927 21.927 0 0 0-2.388-7.081c-.555-1.111-1.227-2.222-1.872-3.282a12.446 12.446 0 0 1-1.583-3.277 15.2 15.2 0 0 1-.433-3.582 28.372 28.372 0 0 1 .14-3.655z" class="cls-4" transform="translate(-125.744 -90.453)"/>
                <path id="Path_1071" d="M155.2 123.81c-.528 2.416-.961 4.854-1.616 7.22a29.191 29.191 0 0 1-1.183 3.482c-.472 1.111-1.111 2.183-1.711 3.282s-1.155 2.222-1.666 3.377a20.059 20.059 0 0 0-1.111 3.582 12.729 12.729 0 0 0-.172 3.76 9.2 9.2 0 0 0 1.355 3.549 9.758 9.758 0 0 1-1-3.571 12.418 12.418 0 0 1 .367-3.621 30.5 30.5 0 0 1 2.894-6.759c.555-1.111 1.222-2.172 1.7-3.332a22.958 22.958 0 0 0 1.083-3.588 58.015 58.015 0 0 0 1.06-7.381z" class="cls-4" transform="translate(-105.36 -90.493)"/>
                <path id="Path_1072" d="M186.3 131.374c10.086 1.005 21.588-.661 24.337-3.577 3.188-3.377 8.5-17.167 9.7-26.831.261-2.116-15.829-2.882-15.856-1.388-.089 5.137-5.093 18.833-5.454 19.566-.417.839-8.02 3.793-13.213 5.215-8.181 2.241-6.659 6.304.486 7.015z" class="cls-2" transform="translate(-119.861 -79.374)"/>
                <path id="Path_1073" d="M206.721 147.04l-9.286-11.33s-7.353 2.421-14.734 5.554-5.182 6.2 4.837 7.292a56.484 56.484 0 0 0 19.183-1.516z" class="cls-3" transform="translate(-118.992 -95.784)"/>
                <path id="Path_1074" d="M189.3 146.43a.844.844 0 1 0 .844.844.844.844 0 0 0-.844-.844zm0 1.522a.678.678 0 1 1 .678-.678.678.678 0 0 1-.678.678zm7.609-1.433a.855.855 0 0 0-.85.85.844.844 0 0 0 .85.839.833.833 0 0 0 .839-.839.844.844 0 0 0-.839-.85zm0 1.527a.683.683 0 1 1 .678-.678.683.683 0 0 1-.678.678zm-3.682-4.854a.844.844 0 1 0 .708.833.844.844 0 0 0-.708-.833zm0 1.522a.721.721 0 1 1 .678-.678.678.678 0 0 1-.678.678zm7.026-1.666a.862.862 0 1 0 0-.022zm0 1.527a.683.683 0 1 1 .622-.68.683.683 0 0 1-.622.68zm4.415 1.583a.85.85 0 1 0 .85.85.855.855 0 0 0-.85-.85zm0 1.527a.667.667 0 1 0 0-.022zm2.538-3.332a.639.639 0 0 1-.511.244.683.683 0 0 1-.683-.678.672.672 0 0 1 .355-.594l-.111-.128a.844.844 0 1 0 1.061 1.288zm-10.636-4.737a.844.844 0 1 0 .708.833.844.844 0 0 0-.707-.833zm0 1.522a.656.656 0 1 0 0-.044zm7.775-.272a.65.65 0 0 1-.367.111.678.678 0 0 1-.489-1.15l-.106-.133a.855.855 0 0 0-.25.605.839.839 0 0 0 .844.839.8.8 0 0 0 .467-.144zm-3.521-4.288l-.239-.289a.7.7 0 0 1 .083.328.683.683 0 1 1-.678-.683.661.661 0 0 1 .444.172l-.25-.305-.85.283a.827.827 0 0 0-.194.555.85.85 0 0 0 .85.844.839.839 0 0 0 .839-.844.072.072 0 0 0 0-.106zm-11.562 3.222a.8.8 0 0 0-.328.067.855.855 0 0 0-.522.783.844.844 0 0 0 .85.839.833.833 0 0 0 .839-.839.844.844 0 0 0-.839-.85zm0 1.527a.682.682 0 1 1 0 .006zm-3.888 1.694a.589.589 0 1 1-.028.006zm0 1.527a1.506 1.506 0 1 0-.028.006z" class="cls-6" transform="translate(-121.749 -95.824)"/>
                <path id="Path_1075" d="M215.269 147.825a105.264 105.264 0 0 1-7.159-9.225c0-.033.039-.072.067-.033.555.778 4.649 5.659 7.165 9.219.038.039-.029.073-.073.039z" class="cls-4" transform="translate(-132.233 -97.047)"/>
                <path id="Path_1076" d="M202.092 143.42l5.776 7.048a56.483 56.483 0 0 1-19.183 1.505c-3.666-.4-6.281-1.066-7.775-1.9z" opacity="0.1" transform="translate(-120.139 -99.212)"/>
                <path id="Path_1077" d="M227.894 86.864c-.622-1.588-3.7-10.552-4.082-12.774-.694-4.06-.517-8.409 1.077-9.069 1.272-.522 2.355 1.666 2.355 1.666s.45-2.727 2.188-2.86 1.855 2.871 1.855 2.871.666-2.777 2.41-2.777 1.366 2.977 1.366 2.977.494-2.555 1.933-1.961c1.733.716.294 5.332.644 7.775a87.065 87.065 0 0 1 2.266 9.825 6.559 6.559 0 0 1-.622 3.5z" class="cls-2" transform="translate(-139.042 -63.822)"/>
                <path id="Path_1078" d="M243.748 69.045c-1.044 3.393-.916 5.06 0 8.442 0 .067-.078.106-.1.039-1.194-3.227-1.666-5.293-.056-8.542.073-.161.208-.1.156.061z" class="cls-4" transform="translate(-147.549 -66.075)"/>
                <path id="Path_1079" d="M237.246 68.581a18.849 18.849 0 0 0 .778 9.008c0 .05-.067.078-.083 0-1.261-3.388-1.844-5.421-.883-9.031.042-.132.21-.144.188.023z" class="cls-4" transform="translate(-144.89 -65.883)"/>
                <path id="Path_1080" d="M230.076 69.148a16.8 16.8 0 0 0 1.638 8.842.067.067 0 0 1-.117.061 11.9 11.9 0 0 1-1.633-8.886c.036-.233.117-.245.112-.017z" class="cls-4" transform="translate(-141.841 -66.117)"/>
                <path id="Path_1081" d="M223.343 95.208a43.306 43.306 0 0 1-4.443-4.632c-1.15-1.633-3.232-9.314-1.594-9.858 2.1-.7 4.177 3.5 4.921 5.687 0 0 4.876-1.622 7.015 1.066s-5.899 7.737-5.899 7.737z" class="cls-2" transform="translate(-136.052 -71.3)"/>
                <path id="Path_1082" d="M225.52 88.24c.272.489.517.989.761 1.488l-.178-.094a9.808 9.808 0 0 1 2.372-.361 10.83 10.83 0 0 1 2.394.194 8.481 8.481 0 0 1 2.277.772 7.737 7.737 0 0 1 1.944 1.372 13.291 13.291 0 0 0-2.083-1.011 11.368 11.368 0 0 0-2.222-.6 15 15 0 0 0-4.593-.067h-.144l-.039-.117c-.178-.504-.345-1.037-.489-1.576z" class="cls-4" transform="translate(-139.973 -74.679)"/>
                <path id="Path_1083" d="M175.6 170.746V180h-28.81s4.015-23.393 11.98-31.441c3.988-4.027 8.475-3.554 11.241-.555.7.761 6.665 10.708 7.409 15.112.644 3.884-1.82 7.63-1.82 7.63z" class="cls-3" transform="translate(-104.969 -100.202)"/>
                <path id="Path_1084" d="M160.844 162.436a.769.769 0 1 0 .822.85.85.85 0 0 0-.822-.85zm0 1.527a.683.683 0 1 1 .678-.678.683.683 0 0 1-.678.678zm9.125-15.184a.844.844 0 1 0 .844.85.844.844 0 0 0-.844-.85zm0 1.527a.683.683 0 1 1 .683-.678.683.683 0 0 1-.683.678zm-3.549 2.044a.844.844 0 1 0 .844.372.844.844 0 0 0-.844-.372zm0 1.522a.5.5 0 1 1 .022.011zm-15.7 21.4a.85.85 0 1 0 .793.4.85.85 0 0 0-.788-.401zm0 1.527a.672.672 0 1 1 .022 0zm8.359-1.294a.811.811 0 1 0 .022 0zm0 1.522a.683.683 0 1 1 .643-.321.683.683 0 0 1-.643.321zm-7.8-8.7l-.05.156a.666.666 0 0 1 .383.611.683.683 0 0 1-.678.683.139.139 0 0 1-.067 0l-.044.161a.417.417 0 0 0 .117 0 .844.844 0 0 0 .844-.844.833.833 0 0 0-.498-.771zm4.765-2.394a.353.353 0 1 0 0-.028zm0 1.527a.669.669 0 1 0 0-.028zm18.783 4.687a.844.844 0 1 0 .708.833.844.844 0 0 0-.701-.836zm0 1.522a.658.658 0 1 0 0-.028zm0 5.071a.844.844 0 1 0 .708.833.844.844 0 0 0-.708-.833zm0 1.527a.664.664 0 1 0 0-.028zm-4.71-11.041a.354.354 0 1 0 0-.028zm0 1.527a.664.664 0 1 0 0-.028zm3.938-17.028h-.133a.678.678 0 0 1-.505-1.111c-.028-.056-.061-.106-.089-.155a.855.855 0 0 0-.25.605.839.839 0 0 0 .844.844.684.684 0 0 0 .217-.033zm-3.643 2.222a.351.351 0 1 0 0-.017zm0 1.522a.668.668 0 1 0 0-.017zm4.415 2a.844.844 0 1 0 .708.833.844.844 0 0 0-.701-.832zm0 1.522a.669.669 0 1 0 0-.017zm-9.064-1.555a.844.844 0 1 0 .844.844.844.844 0 0 0-.844-.844zm0 1.522a.282.282 0 1 1 0 .017zm-3.488-12.219a.831.831 0 1 1 0 .039zm0 1.527a.284.284 0 1 1 0 .039zm-.678 5.143a.831.831 0 1 1 0 .039zm0 1.527a.284.284 0 1 1 0 .039zm8.786 18.328a.844.844 0 1 0 .844.372.844.844 0 0 0-.844-.372zm0 1.522a.286.286 0 1 1 0 .011zm-9.547-7.6a.844.844 0 1 1 0 .011zm0 1.527a.282.282 0 1 1 0 .011zm4.726-4.626a.844.844 0 1 0 .708.833.844.844 0 0 0-.7-.835zm0 1.522a.683.683 0 1 1 0 .011zm9.442-1.716a.6.6 0 1 1-.017.011zm0 1.527a.683.683 0 1 1 .622-.68.683.683 0 0 1-.614.678zm-5-5a.855.855 0 0 0-.85.85.844.844 0 0 0 .85.839.833.833 0 0 0 .839-.839.844.844 0 0 0-.855-.833zm0 1.527a.656.656 0 1 1-.017.017zm-13.257-5.354a.591.591 0 1 1-.017.017zm0 1.522a.693.693 0 1 1 .011 0zm1.483-7.87l-.133.183a.273.273 0 0 1 0 .067.678.678 0 0 1-.472.644c-.044.061-.083.128-.122.189a.833.833 0 0 0 .761-.833.738.738 0 0 0-.05-.233zm6.109 26.448a1.319 1.319 0 1 1 .006.017zm0 1.527a.68.68 0 1 1 0-1.361.672.672 0 0 1 .678.678.683.683 0 0 1-.672.7zm.622-7.92a.839.839 0 1 0 .6.244.844.844 0 0 0-.591-.244zm0 1.522a.683.683 0 1 1 .678-.683.683.683 0 0 1-.678.683zm-10.525 5.4a.85.85 0 1 0 .79.523.844.844 0 0 0-.78-.52zm0 1.522a.683.683 0 1 1 .683-.683.683.683 0 0 1-.683.683zm.844-8.8a.844.844 0 1 0 .85.844.844.844 0 0 0-.84-.838zm0 1.527a.683.683 0 1 1 .635-.418.689.689 0 0 1-.635.418z" class="cls-6" transform="translate(-106.371 -101.578)"/>
                <path id="Path_1085" d="M178.571 188.645a34.567 34.567 0 0 1 5.087-.089c.839.061 1.666.161 2.51.278.417.056.833.1 1.25.144a5.22 5.22 0 0 0 1.316 0c.039 0 .05.056 0 .061a8.327 8.327 0 0 1-1.227.2 8.811 8.811 0 0 1-1.211 0c-.855-.056-1.705-.144-2.56-.205-1.722-.128-3.443-.25-5.176-.25-.067-.006-.073-.133.011-.139z" class="cls-4" transform="translate(-119.071 -119.256)"/>
                <path id="Path_1086" d="M171.655 191.746a36.752 36.752 0 0 1 4.093-.95c.689-.117 1.383-.194 2.083-.25l1-.067h1.111a.031.031 0 0 1 0 .061c-.344.033-.683.122-1.027.178l-1.039.161c-.689.106-1.377.222-2.066.322-1.388.206-2.777.422-4.138.672-.072.007-.084-.11-.017-.127z" class="cls-4" transform="translate(-116.004 -120.136)"/>
                <path id="Path_1087" d="M144.016 150.251c-3.438 2.077-21.366 13.885-23.382 19.944-3 9.02-.922 20.061-.272 24.931.289 2.127 15 1.466 15.029-.828.072-4.9-.955-17.506-.467-19.144s9.442-13.884 14.076-19.772c6.224-7.908 3.386-10.182-4.984-5.131z" class="cls-2" transform="translate(-92.637 -101.056)"/>
                <path id="Path_1088" d="M135.84 229.474s3.121 5 3.943 8.136a20.821 20.821 0 0 1-.094 9.964c-.889 3.527-5.487 11.441-8 10.514-2.272-.844 2.86-8.708 2.86-8.708s-3.888 8.886-6.437 7.348S132 246.441 132 246.441s-4.2 9.014-6.581 7.042c-1.8-1.494 3.588-9.769 3.588-9.769s-3.66 7.72-5.554 6.265c-2.116-1.605 2.377-9.558 2.377-9.558-4.249-4.521-4.76-9.208-4.088-11.391.169-.667 14.098.444 14.098.444z" class="cls-2" transform="translate(-93.724 -137.181)"/>
                <path id="Path_1089" d="M143.155 260.445c-.417 1.061-.833 2.133-1.344 3.149s-1.061 2.016-1.666 2.982a19.06 19.06 0 0 1-2.7 3.527 41.8 41.8 0 0 0 4.093-6.665c.511-1.022 1.072-2 1.583-3.016.006-.022.045.001.034.023z" class="cls-4" transform="translate(-100.812 -151.229)"/>
                <path id="Path_1090" d="M138.009 256.987c-.594 1.327-1.111 2.666-1.783 3.965s-1.377 2.471-2.116 3.716c-.056.094-.089.033-.033-.067.683-1.272 1.216-2.5 1.888-3.788s1.394-2.544 2.016-3.843c.006.017.039.017.028.017z" class="cls-4" transform="translate(-99.304 -149.698)"/>
                <path id="Path_1091" d="M133.48 253.036a32.379 32.379 0 0 1-3.193 5.859c-.061.094-.094 0-.039-.089 1.111-1.927 1.977-3.432 3.16-5.8.022-.006.092-.006.072.03z" class="cls-4" transform="translate(-97.601 -147.935)"/>
                <path id="Path_1092" d="M137.15 158.97l13.513 4.6s4.4-4.882 9.1-11.38-.694-6.865-5.887-4.188a108.732 108.732 0 0 0-16.726 10.968z" class="cls-3" transform="translate(-100.683 -100.556)"/>
                <path id="Path_1093" d="M149.4 161.6a.855.855 0 0 0-.85.85.811.811 0 0 0 .061.305l.228.078a.655.655 0 0 1-.122-.383.68.68 0 1 1 .883.644l.228.078a.828.828 0 0 0 .417-.722.85.85 0 0 0-.845-.85zm.672-6.8a.85.85 0 1 0 .85.85.85.85 0 0 0-.85-.85zm0 1.527a.678.678 0 1 1 .483-.2.683.683 0 0 1-.485.197zm13.3-3.382c.083-.117.161-.233.233-.344a.75.75 0 0 0-.233.344zM160 148.81a.844.844 0 1 0 .85.85.844.844 0 0 0-.85-.85zm0 1.527a.683.683 0 1 1 .678-.678.683.683 0 0 1-.678.678zm-.678 5.143a.844.844 0 1 0 .85.85.844.844 0 0 0-.85-.85zm0 1.527a.683.683 0 1 1 .678-.678.683.683 0 0 1-.678.678zm-13.663.95a.855.855 0 0 0-.85.85.844.844 0 1 0 .85-.85zm0 1.527a.669.669 0 1 0 0-.017zm8.8-.844a.844.844 0 1 0 .844.828.844.844 0 0 0-.846-.828zm0 1.522a7.98 7.98 0 1 1 .028-.017zm.672-8.47a.844.844 0 1 0 .844.372.844.844 0 0 0-.844-.372zm0 1.527a.69.69 0 1 1 0 .006z" class="cls-6" transform="translate(-104.089 -101.609)"/>
                <path id="Path_1094" d="M154.233 169.763a106.73 106.73 0 0 1-11.058-3.738c-.044 0 0-.083.039-.067.878.35 7 2.149 11.058 3.732.05.017.011.084-.039.073z" class="cls-4" transform="translate(-103.354 -109.232)"/>
                <path id="Path_1095" d="M167.811 163.077c-.322.255-.633.522-.955.778l-.211.172c.75-.983 1.477-1.988 2.177-3 0 0 0-.05-.039 0-1.289 1.511-2.594 3.016-3.888 4.543s-2.6 2.932-3.771 4.5l-.628-.194a.05.05 0 0 0-.033.094l.661.328a.1.1 0 0 0 .111 0 43.713 43.713 0 0 0 3.954-4.4c.344-.417.683-.844 1.016-1.272l.078-.061.322-.267c.428-.355.828-.733 1.216-1.111.046-.093.018-.132-.01-.11z" class="cls-4" transform="translate(-111.033 -107.029)"/>
                <path id="Path_1096" d="M176.181 142.233c.228.555 3.543 3.654 6.059 3.066.822-.189 0-4.71 0-4.71v-.35l.189-4.871-6.131-2.516-.878-.322s.033 1.333.094 3v1.261a3.143 3.143 0 0 0 .033.583c.033.2 0 .4.039.6a30.656 30.656 0 0 0 .595 4.259z" class="cls-2" transform="translate(-117.698 -94.371)"/>
                <path id="Path_1097" d="M175.492 135.529a9.769 9.769 0 0 0 6.737 4.715l.189-4.871-6.12-2.521-.878-.322s.011 1.333.072 2.999z" class="cls-4" transform="translate(-117.698 -94.371)"/>
                <path id="Path_1098" d="M185.9 116.369c1.961 8.331-2.777 10.447-4.6 10.869-1.627.383-7.22 1.477-10.041-6.6s.433-11.63 4.121-12.7 8.555.106 10.52 8.431z" class="cls-2" transform="translate(-115.372 -83.286)"/>
                <path id="Path_1099" d="M194.585 119.553a5.211 5.211 0 0 1-.589 0 .911.911 0 0 1-.605-.1.3.3 0 0 1-.083-.361.761.761 0 0 1 .683-.344 1.144 1.144 0 0 1 .766.222.328.328 0 0 1-.172.583z" class="cls-4" transform="translate(-125.638 -88.241)"/>
                <path id="Path_1100" d="M185.479 121.718a4.66 4.66 0 0 0 .555-.25.966.966 0 0 0 .5-.361.311.311 0 0 0-.089-.361.755.755 0 0 0-.766 0 1.077 1.077 0 0 0-.583.555.322.322 0 0 0 .383.417z" class="cls-4" transform="translate(-121.993 -89.085)"/>
                <path id="Path_1101" d="M185.922 126.037a.745.745 0 0 1-.117.167.372.372 0 0 1-.3.122c-.344 0-.516-.35-.555-.7.156.167.339.333.555.289a.728.728 0 0 0 .328-.272 1.754 1.754 0 0 0 .089.394z" class="cls-4" transform="translate(-121.935 -91.293)"/>
                <path id="Path_1102" d="M186.428 125.613a.85.85 0 0 1 .1-.467.639.639 0 0 1 .411-.305.589.589 0 0 1 .505.139 1.044 1.044 0 0 1 .261.389 2.188 2.188 0 0 1 .078.272 1.266 1.266 0 0 1 0 .555 1.667 1.667 0 0 0-.111-.405 2.223 2.223 0 0 0-.161-.35c-.128-.228-.317-.4-.505-.344a.54.54 0 0 0-.35.5 4.044 4.044 0 0 0 0 .816 1.833 1.833 0 0 1-.228-.8z" class="cls-4" transform="translate(-122.592 -90.947)"/>
                <path id="Path_1103" d="M196.348 123.306a.733.733 0 0 0 .194.083.383.383 0 0 0 .317-.05c.289-.189.255-.555.117-.9h-.033c-.044.222-.111.467-.305.555a.7.7 0 0 1-.417-.061 1.805 1.805 0 0 1 .127.373z" class="cls-4" transform="translate(-126.946 -89.884)"/>
                <path id="Path_1104" d="M195.633 123.443a.844.844 0 0 0-.328-.344.65.65 0 0 0-.511-.044.555.555 0 0 0-.355.383 1.028 1.028 0 0 0 0 .467 1.527 1.527 0 0 0 .078.272 1.344 1.344 0 0 0 .305.494 1.861 1.861 0 0 1-.117-.405 2.314 2.314 0 0 1-.044-.383c0-.261.061-.505.255-.555a.539.539 0 0 1 .555.244 3.788 3.788 0 0 1 .411.705 1.783 1.783 0 0 0-.249-.834z" class="cls-4" transform="translate(-126.142 -90.143)"/>
                <path id="Path_1105" d="M190.357 134.057a.893.893 0 0 0 .555.255 1.561 1.561 0 0 0 .594-.25h.028a.778.778 0 0 1-.672.439.611.611 0 0 1-.555-.428c-.017-.01.028-.054.05-.016z" class="cls-4" transform="translate(-124.316 -95.043)"/>
                <path id="Path_1106" d="M192.341 125.006s.317.816.411 1.216c0 .039-.089.078-.222.117a1.955 1.955 0 0 1-2.01-.278.044.044 0 0 1 .05-.072 2.932 2.932 0 0 0 1.849.094c0-.117-.555-1.388-.522-1.405a3.421 3.421 0 0 1 .955 0c-.605-1.727-1.483-3.332-2.055-5.076 0-.061.067-.1.094-.05a29.557 29.557 0 0 1 2.449 5.371c.072.221-.822.11-.999.083z" class="cls-4" transform="translate(-124.405 -88.59)"/>
                <path id="Path_1107" d="M192.437 131.243a2.377 2.377 0 0 1-.655 1.011 1.111 1.111 0 0 1-.6.25c-.489.039-.639-.361-.678-.739a2.349 2.349 0 0 1 0-.605 3.066 3.066 0 0 0 1.933.083z" class="cls-4" transform="translate(-124.396 -93.761)"/>
                <path id="Path_1108" d="M191.827 132.7a1.111 1.111 0 0 1-.6.25c-.489.039-.639-.361-.678-.739a1.111 1.111 0 0 1 1.277.489z" class="cls-8" transform="translate(-124.425 -94.207)"/>
                <path id="Path_1109" d="M180.056 109.388a3.8 3.8 0 0 1-.106 2.222c-.916 1.927-3.238 1.427-4.032 2.188s-.478 2.222-1.15 2.916c-.933.989-2.222.611-2.355 1.277s-.589 2.777-1.438 3.06-4.776-13.824 6.326-13.413a5.011 5.011 0 0 1 3.888.555c2.61 1.305 3.754 5.593 3.754 5.593s-.056-.056-.433-.389c-.555-.472-.75-.911-1.139-1.216-.622-.478-.961-.294-1.6-.761a7.3 7.3 0 0 1-1.716-2.033z" class="cls-4" transform="translate(-115.115 -83.23)"/>
                <path id="Path_1110" d="M181.921 109.82a7.368 7.368 0 0 1 .328 1.694 3.116 3.116 0 0 1-.233 1.666 2.288 2.288 0 0 1-1.272.994c-.555.194-1.111.255-1.666.483a1.733 1.733 0 0 0-.744.555 2.3 2.3 0 0 0-.322.855 3.06 3.06 0 0 1-.611 1.533 1.927 1.927 0 0 1-1.488.633 4.093 4.093 0 0 0-1.722.089 4.077 4.077 0 0 1 1.716.044 2.1 2.1 0 0 0 1.666-.616 3.121 3.121 0 0 0 .705-1.627 2 2 0 0 1 .294-.761 1.455 1.455 0 0 1 .633-.461c.511-.217 1.111-.283 1.666-.5a2.96 2.96 0 0 0 .789-.433 1.788 1.788 0 0 0 .583-.7 3.238 3.238 0 0 0 .178-1.755 7.26 7.26 0 0 0-.5-1.694z" class="cls-4" transform="translate(-117.151 -84.273)"/>
                <path id="Path_1111" d="M188.49 110.73a6.109 6.109 0 0 0 .555 1.527 2.849 2.849 0 0 0 1.111 1.222 4.9 4.9 0 0 0 .766.294 1.272 1.272 0 0 1 .6.4 4.015 4.015 0 0 0 .489.655 1.766 1.766 0 0 0 .705.405 1.982 1.982 0 0 1-.611-.5 4.206 4.206 0 0 1-.405-.678 1.394 1.394 0 0 0-.683-.522 5.22 5.22 0 0 1-.728-.294 3.038 3.038 0 0 1-1.061-1.111 12.167 12.167 0 0 1-.739-1.4z" class="cls-4" transform="translate(-123.509 -84.678)"/>
                <path id="Path_1112" d="M185.084 127.761a2.566 2.566 0 1 1 2.022-3.516 2.577 2.577 0 0 1-1.405 3.332 2.416 2.416 0 0 1-.617.184zm-.666-4.743a2.117 2.117 0 0 0-.555.144 2.222 2.222 0 1 0 .555-.144z" class="cls-3" transform="translate(-120.697 -89.979)"/>
                <path id="Path_1113" d="M195.611 125.077a2.368 2.368 0 0 1-2.222-2.138 3.116 3.116 0 0 1 .161-1.872 1.711 1.711 0 0 1 1.183-1.039 1.666 1.666 0 0 1 1.494.478 3.016 3.016 0 0 1 .905 1.666c.289 1.388-.311 2.688-1.339 2.91zm-.694-4.732h-.133a1.366 1.366 0 0 0-.933.844 2.666 2.666 0 0 0-.139 1.666c.255 1.2 1.144 2.033 1.994 1.849s1.327-1.3 1.072-2.5a2.727 2.727 0 0 0-.794-1.461 1.411 1.411 0 0 0-1.066-.4z" class="cls-3" transform="translate(-125.654 -88.8)"/>
                <path id="Path_1114" d="M190.778 125.325l-.278-.2a1.371 1.371 0 0 1 1.827-.555l-.183.289c-.672-.459-1.316.422-1.366.466z" class="cls-3" transform="translate(-124.403 -90.748)"/>
                <path id="Path_1115" d="M171.163 130.049l-.333-.072c.033-.156.361-1.533 1.072-1.849s5.221-1.044 5.415-1.077l.056.339c-1.311.217-4.821.822-5.332 1.05s-.794 1.231-.878 1.609z" class="cls-3" transform="translate(-115.657 -91.934)"/>
                <path id="Path_1116" d="M172.35 128.772s-2.222-2.377-3.332-1.544.844 4.443 2.327 4.782a1.45 1.45 0 0 0 1.811-1.05z" class="cls-2" transform="translate(-114.706 -91.935)"/>
                <path id="Path_1117" d="M170.32 129.218v.039a3.81 3.81 0 0 1 2.222 1.994.8.8 0 0 0-1.216-.044s0 .056.039.05a.872.872 0 0 1 1.011.167 4.031 4.031 0 0 1 .555.716c.061.078.211 0 .167-.089-.179-1.289-1.406-2.905-2.778-2.833z" class="cls-4" transform="translate(-115.431 -92.897)"/>
            </g>
            <g id="freepik--character-2--inject-593" transform="translate(167.001 49.196)">
                <path id="Path_1118" d="M305.115 391.42v23.443c0 4.482-.039 8.409-.261 10.436a.072.072 0 0 1 0 .033 3.054 3.054 0 0 1-.322 1.388h-.032c-1.327.911-37.122 2.133-38.383 1.755s-.289-4 1.061-5.16 14.857-7.775 14.857-7.775l.222-23.415z" class="cls-9" transform="translate(-253.276 -208.71)"/>
                <path id="Path_1119" d="M305.115 425v4.81c0 4.482-.039 8.409-.261 10.436a.072.072 0 0 1 0 .033 5.762 5.762 0 0 1-.322 1.388h-.032c-1.327.911-37.122 2.133-38.383 1.755s-.289-4 1.061-5.16 14.857-7.775 14.857-7.775l-.067-4.882z" class="cls-6" transform="translate(-253.276 -223.64)"/>
                <path id="Path_1120" d="M266.1 447.12c1.261.378 37.056-.85 38.388-1.761.511-.339.639-5.554.605-11.885v-.194l-23.1.555v.389s-13.49 6.6-14.851 7.775-2.305 4.744-1.042 5.121z" class="cls-3" transform="translate(-253.264 -227.321)"/>
                <path id="Path_1121" d="M267.147 454.774c6.026-.355 30.374-1.216 36.361-1.111.05 0 .05.033 0 .033-5.965.483-30.319 1.15-36.356 1.172-.127.006-.127-.083-.005-.094z" class="cls-4" transform="translate(-253.952 -236.38)"/>
                <path id="Path_1122" d="M291.65 434.994c2.36-.528 5.276-.261 7.148 1.366.072.067 0 .167-.094.144a33.828 33.828 0 0 0-7.031-1.216.15.15 0 0 1-.022-.294z" class="cls-4" transform="translate(-264.837 -227.974)"/>
                <path id="Path_1123" d="M288.608 436.956c2.36-.522 5.276-.261 7.148 1.372.072.061 0 .167-.094.144a33.115 33.115 0 0 0-7.031-1.216.15.15 0 1 1-.022-.3z" class="cls-4" transform="translate(-263.473 -228.848)"/>
                <path id="Path_1124" d="M285.589 438.924c2.36-.528 5.276-.261 7.148 1.366.072.067 0 .167-.094.144a33.52 33.52 0 0 0-7.031-1.211.15.15 0 1 1-.022-.3z" class="cls-4" transform="translate(-262.13 -229.721)"/>
                <path id="Path_1125" d="M318.406 293.648l-.006.261-.517 41.01-25.054-.5 5.143-125.029h21.166z" class="cls-10" transform="translate(-265.412 -127.777)"/>
                <path id="Path_1126" d="M294.667 426.945c3.915-.033 2.777-.078 6.7-.067 1.916 0 14.5.044 16.278.367a.039.039 0 1 1 0 .078c-1.794.272-14.368 0-16.284-.028-3.888-.089-2.777-.106-6.7-.233-.067-.017-.067-.117.006-.117z" class="cls-4" transform="translate(-266.204 -224.474)"/>
                <path id="Path_1127" d="M330.2 318.991q.072-5.621.183-11.241.211-11.247.411-22.482.417-22.371.722-44.731c.128-8.414.122-16.828.339-25.237h.039c.139 7.492.05 15 .039 22.488s-.044 15-.117 22.482c-.144 14.912-.35 29.824-.705 44.737-.1 4.2-.2 8.409-.344 12.613s-.239 8.414-.555 12.607a.05.05 0 0 1-.1 0c-.073-3.772.038-7.52.088-11.236z" class="cls-4" transform="translate(-281.977 -130.405)"/>
                <path id="Path_1128" d="M326.172 209.64l-.555 63.847-16.967-64.1h17.517z" class="cls-4" transform="translate(-272.445 -127.777)"/>
                <path id="Path_1129" d="M389.593 370.32l12.091 19.661c1.966 4.027 3.616 7.592 4.293 9.519a.044.044 0 0 1 0 .028 3.082 3.082 0 0 1 .311 1.388.352.352 0 0 1 0 .039c-.805 1.4-32.529 18.022-33.818 18.228s-1.994-3.482-1.277-5.11 10-13.429 10-13.429l-11.88-19.733z" class="cls-9" transform="translate(-299.416 -199.328)"/>
                <path id="Path_1130" d="M407.573 413.873a.039.039 0 0 1 0 .033c-.805 1.394-32.524 18.022-33.829 18.233s-1.994-3.488-1.283-5.115 10.025-13.424 10.025-13.424l-2.122-3.521c5.187-2.777 14.612-7.62 20.461-10.625 1.277 2.066 2.144 3.477 2.144 3.488 1.966 4.021 3.616 7.587 4.293 9.508a.078.078 0 0 1 0 .033 3.087 3.087 0 0 1 .311 1.394z" class="cls-6" transform="translate(-300.69 -212.28)"/>
                <path id="Path_1131" d="M373.766 434.786c1.305-.211 33.023-16.834 33.829-18.233.317-.555-1.838-5.293-4.6-10.974l-.089-.178-20.583 10.5.189.339s-9.3 11.8-10 13.429-.057 5.331 1.254 5.117z" class="cls-3" transform="translate(-300.711 -214.925)"/>
                <path id="Path_1132" d="M374.416 442.327c5.276-2.932 26.842-14.268 32.285-16.767.044 0 .061 0 0 .033-5.171 3.021-26.825 14.185-32.257 16.823-.1.05-.139-.028-.028-.089z" class="cls-4" transform="translate(-301.656 -223.889)"/>
                <path id="Path_1133" d="M387.625 425c1.9-1.5 4.643-2.521 7.037-1.866.094 0 .056.155-.028.172a33.218 33.218 0 0 0-6.831 1.955.158.158 0 0 1-.178-.261z" class="cls-4" transform="translate(-307.528 -222.722)"/>
                <path id="Path_1134" d="M385.75 428.085c1.9-1.494 4.643-2.521 7.037-1.866.089.028.056.156-.028.172a33.215 33.215 0 0 0-6.859 1.955.151.151 0 0 1-.15-.261z" class="cls-4" transform="translate(-306.691 -224.092)"/>
                <path id="Path_1135" d="M383.88 431.165c1.9-1.494 4.643-2.521 7.037-1.866.089.028.056.156-.028.172a33.217 33.217 0 0 0-6.859 1.955.151.151 0 1 1-.15-.261z" class="cls-4" transform="translate(-305.86 -225.461)"/>
                <path id="Path_1136" d="M306 209.332c.094.439 1.572 7.3 3.11 13.2 1.111 4.31 2.26 8.1 2.916 8.486.75.444 4.382 2.055 5.6 2.56 0 0 8.175 40.793 12.491 53.445 3.977 11.663 20.455 42.876 20.455 42.876l23.882-12.074s-18.667-31.657-20.627-37.35c-3.044-8.808-14.44-51.818-14.44-51.818s.083-13.463-4.443-19.344z" class="cls-10" transform="translate(-271.267 -127.741)"/>
                <path id="Path_1137" d="M386.874 409.454c3.416-1.911 2.41-1.411 5.843-3.277 1.666-.916 12.741-6.92 14.44-7.5a.044.044 0 0 1 .039.072c-1.438 1.111-12.6 6.909-14.3 7.775-3.477 1.8-2.5 1.244-5.987 3.01a.056.056 0 0 1-.039-.083z" class="cls-4" transform="translate(-307.221 -211.937)"/>
                <path id="Path_1138" d="M346.989 230.6c-.655-.172-1.355-.222-2.022-.328-.555-.089-1.077-.183-1.611-.3a7.054 7.054 0 0 1-2.844-1.194 6.764 6.764 0 0 1-1.838-2.86c-.267-.622-.555-1.244-.816-1.861-.139-.3-.272-.6-.411-.894a11.176 11.176 0 0 1-.505-1.077c0-.056-.1-.028-.083 0a7.357 7.357 0 0 1 .228.778c.094.3.178.6.272.9.167.555.328 1.072.505 1.605a12.773 12.773 0 0 0 1.136 2.814 5.876 5.876 0 0 0 4.515 2.427c.505.061 1.011.1 1.522.128a11.166 11.166 0 0 0 1.927 0 .07.07 0 1 0 .025-.138z" class="cls-4" transform="translate(-284.987 -133.407)"/>
                <path id="Path_1139" d="M313.177 246.689a47.808 47.808 0 0 1 7.492 3.5c.094.05.033.2-.067.156-2.527-1.083-5.1-2.122-7.559-3.332a.174.174 0 1 1 .133-.322z" class="cls-4" transform="translate(-274.351 -144.355)"/>
                <path id="Path_1140" d="M311.863 215.522c0-.089.161-.106.161 0q0 4.222.422 8.43c.117 1.3 1.166 8.481 3.421 7.959.378-.089.555-.461.628-1.027a9.119 9.119 0 0 0-.3-2.222c-.25-1.505-.45-3.01-.555-4.532a41 41 0 0 1 .089-8.5.072.072 0 0 1 .144 0 78.152 78.152 0 0 0 .689 11.73c.283 1.866 1.222 4.682-.733 4.965s-3.277-4.443-3.521-5.7a43.1 43.1 0 0 1-.445-11.103z" class="cls-4" transform="translate(-273.798 -130.471)"/>
                <path id="Path_1141" d="M318.71 245.288a12.347 12.347 0 0 1 .505 1.488 3.294 3.294 0 0 1 .211 1.222.089.089 0 0 1-.156.033 4.143 4.143 0 0 1-.522-1.189c-.172-.461-.355-.922-.511-1.383a.251.251 0 1 1 .472-.172z" class="cls-4" transform="translate(-276.702 -143.664)"/>
                <path id="Path_1142" d="M390.435 315.341c-3.4-6.409-6.909-12.774-10.43-19.094-1.738-3.127-3.549-6.215-5.2-9.386a56.446 56.446 0 0 1-3.782-9.78q-3.155-10.264-5.982-20.622t-5.3-20.8c-.417-1.744-.872-3.482-1.205-5.243a16.106 16.106 0 0 1 0-5.365 17.094 17.094 0 0 0 .039-5 32.692 32.692 0 0 0-1.166-4.882c-.267-.844-.555-1.666-.839-2.51a.078.078 0 1 0-.15.044c1.033 3.371 2.088 6.781 1.866 10.352-.106 1.716-.555 3.4-.555 5.132a24.54 24.54 0 0 0 .866 5.065q2.438 10.514 5.237 20.927t5.915 20.744a82.926 82.926 0 0 0 3.4 9.941c1.438 3.193 3.266 6.22 5 9.281q5.326 9.475 10.791 18.883c.461.794.933 1.583 1.4 2.372.045.035.117-.009.095-.059z" class="cls-4" transform="translate(-293.682 -129.204)"/>
                <path id="Path_1143" d="M311.914 148.376c1.572 4.549.75 26.964-1.577 29.641-4.021 4.632-24.021 7.931-29.219 7.564-3.754-.267-4.06-15.784-.75-16.29 5.554-.839 20.455-2.11 20.76-3 1.577-4.7 2.688-9.047 4.826-16.462 1.516-5.174 4.227-6.474 5.96-1.453z" class="cls-9" transform="translate(-258.853 -99.242)"/>
                <path id="Path_1144" d="M271.224 194.376c1.666-1.15.828-14.873-1.044-15.8-.355-.172-2.455-1.039-3.255-1.466a27.409 27.409 0 0 1-7.142-5.515c-2.294-2.594-5.393-6.709-6.831-5.554-2.11 1.711 1.189 7.387 3.277 10.525a12.309 12.309 0 0 0-4.743 1.039c-3.149 1.861 0 15.945 3.666 16.467 3.548.528 14.373 1.453 16.072.304z" class="cls-9" transform="translate(-246.455 -108.414)"/>
                <path id="Path_1145" d="M256.636 186.116c1.111 1.538-1.344 1.972-1.344 1.972s3.682.228 4.221 2.26-2.471 2.377-2.688 2.41c.194 0 3.577.317 3.888 2.416s-2.733 2.083-2.927 2.077c.178.072 2.538 1.05 2.427 2.7-.2 2.838-6.3.505-8.364 1.533 0 0 .267.65.283.766 0 0-4.826-.355-6.009-1.916-.989-1.305.628-2.4.628-2.4s-1.966-.467-2.272-2.11c-.161-.844 1.05-1.849 1.05-1.849a2.483 2.483 0 0 1-1.738-1.922 2.4 2.4 0 0 1 1.111-2 2.95 2.95 0 0 1-1.061-2.372c.466-2.537 10.401-4.864 12.795-1.565z" class="cls-9" transform="translate(-243.602 -116.705)"/>
                <path id="Path_1146" d="M246.11 192.617v-.05a17.706 17.706 0 0 1 10.375-1.788c.111 0 .133.211 0 .211a36.378 36.378 0 0 0-10.375 1.627z" class="cls-4" transform="translate(-244.639 -119.434)"/>
                <path id="Path_1147" d="M246.84 200.078c-.039 0-.061-.056 0-.072a16.571 16.571 0 0 1 11.441-1.25c.133.039.217.205.056.172-2.656-.528-8.365.123-11.497 1.15z" class="cls-4" transform="translate(-244.947 -122.819)"/>
                <path id="Path_1148" d="M260.509 206.892a22.789 22.789 0 0 0-11.152.428c-.05 0-.061-.056 0-.078a14.872 14.872 0 0 1 6.043-1.427 10.191 10.191 0 0 1 5.165.944c.035.027.022.149-.056.133z" class="cls-4" transform="translate(-246.064 -126.173)"/>
                <path id="Path_1149" d="M261.817 190.88c.133 0-.05.2.089.222.555.111 3.888 1.055 3.938 2.3 0 .989-1.294 1.711-1.911 1.788l-1.544.194 1.522.355a6.4 6.4 0 0 1 1.916.772 2.294 2.294 0 0 1 1.144 1.472 1.305 1.305 0 0 1-.716 1.477 3.948 3.948 0 0 1-1.949.328l-1.844-.1 1.7.694a5.949 5.949 0 0 1 1.333.75 2.455 2.455 0 0 1 .894 1.111 1.172 1.172 0 0 1-.267 1.205 2.644 2.644 0 0 1-1.355.528 21.189 21.189 0 0 1-3.2.067c-.555 0-1.083-.028-1.627 0a3.8 3.8 0 0 0-1.594.289 4.166 4.166 0 0 1 1.594-.139 15.354 15.354 0 0 1 1.611.133 17.378 17.378 0 0 0 3.277.1 2.983 2.983 0 0 0 1.666-.555 1.666 1.666 0 0 0 .461-1.766 3.016 3.016 0 0 0-1.066-1.411 6.51 6.51 0 0 0-1.472-.861l-.15.555a4.521 4.521 0 0 0 2.31-.361 1.9 1.9 0 0 0 .9-.905 2.138 2.138 0 0 0 .133-1.255 2.866 2.866 0 0 0-1.45-1.866 6.858 6.858 0 0 0-2.122-.816l-.028.555a2.89 2.89 0 0 0 2.5-2.316c-.117-2.039-3.982-2.477-4.693-2.544z" class="cls-4" transform="translate(-250.077 -119.547)"/>
                <path id="Path_1150" d="M264.426 188.55a3.887 3.887 0 0 0 1.016-.583.877.877 0 0 0 .339-.828 1.772 1.772 0 0 0-.555-.861 9.311 9.311 0 0 0-.905-.789 3.033 3.033 0 0 1 1.166.467 1.761 1.761 0 0 1 .811 1.111 1.228 1.228 0 0 1-.117.744 1.277 1.277 0 0 1-.505.511 2.066 2.066 0 0 1-1.25.228z" class="cls-4" transform="translate(-252.736 -117.151)"/>
                <path id="Path_1151" d="M286.28 168.358l1.894 19.105s21.632-3.21 26.453-9.131c2.433-2.988 2.249-22.538 1.6-28.28s-4.5-7.164-6.77-.822-4.365 15.851-4.837 16.406-18.34 2.722-18.34 2.722z" class="cls-4" transform="translate(-262.5 -99.18)"/>
                <path id="Path_1152" d="M295.276 204.153c-.378-2.438-1.577-12.48-1.666-14.662 0-.15.089-.194.117-.039a109.368 109.368 0 0 1 1.666 14.679c-.017.078-.106.1-.117.022z" class="cls-10" transform="translate(-265.759 -118.869)"/>
                <path id="Path_1153" d="M336.486 187.4c-.089.089-36.361-.822-36.683-1.216-.45-.555 6.3-35.761 12.6-43.554 1.572-1.949 6.626-2.222 8.964-.311 11.559 9.375 15.433 44.742 15.119 45.081z" class="cls-3" transform="translate(-268.502 -97.378)"/>
                <path id="Path_1154" d="M336.547 215.372l-36.017-1.033c.139-.822.311-1.783.511-2.849l35.123 1.005c.172 1.078.283 2.055.383 2.877z" class="cls-4" transform="translate(-268.835 -128.711)"/>
                <path id="Path_1155" d="M336.582 209.369l-34.662-.989c.061-.294.122-.6.183-.911l34.334.983c.05.312.095.618.145.917z" class="cls-4" transform="translate(-269.453 -126.923)"/>
                <path id="Path_1156" d="M324.11 142.9c1.538.305 5.182-2.1 6.8-4.354a40.857 40.857 0 0 0 .128-4.088c.044-1.305.117-2.777.283-4.088l-8.581.983a21.16 21.16 0 0 1 .167 5.187 2.641 2.641 0 0 1-.122.555v.089c-.296.995-1.079 5.243 1.325 5.716z" class="cls-9" transform="translate(-278.57 -92.644)"/>
                <path id="Path_1157" d="M323.067 137.137v.089a5.71 5.71 0 0 0 .85.15c4.737.478 6.6-5.132 7.065-6.876l-7.981.911a21.522 21.522 0 0 1 .178 5.193 3.945 3.945 0 0 1-.111.533z" class="cls-4" transform="translate(-278.826 -92.702)"/>
                <path id="Path_1158" d="M329.883 106.325c.894 2.971-.694 11.541-2.81 13.446-3.066 2.777-8.081 3.016-10.425-.666-2.272-3.577 0-14.707 2.36-16.439 3.478-2.556 9.548-.734 10.875 3.659z" class="cls-9" transform="translate(-275.584 -79.806)"/>
                <path id="Path_1159" d="M326.881 118.76s.039.033.033.061c-.128.555-.183 1.25.305 1.544-.619-.183-.544-1.083-.338-1.605z" class="cls-4" transform="translate(-280.485 -87.482)"/>
                <path id="Path_1160" d="M327.553 117.848c.944.111.655 1.983-.217 1.883s-.572-1.972.217-1.883z" class="cls-4" transform="translate(-280.518 -87.075)"/>
                <path id="Path_1161" d="M320.185 117.6s-.05 0-.05.044c-.072.555-.25 1.239-.805 1.35v.033c.655.011.883-.861.855-1.427z" class="cls-4" transform="translate(-277.194 -86.966)"/>
                <path id="Path_1162" d="M319.372 116.356c-.922-.217-1.277 1.666-.428 1.844s1.205-1.666.428-1.844z" class="cls-4" transform="translate(-276.808 -86.405)"/>
                <path id="Path_1163" d="M328.646 115.353a7.3 7.3 0 0 1-.683-.367 1.255 1.255 0 0 1-.633-.511.405.405 0 0 1 .139-.467.989.989 0 0 1 1.005.05 1.455 1.455 0 0 1 .739.75.433.433 0 0 1-.566.544z" class="cls-4" transform="translate(-280.74 -85.319)"/>
                <path id="Path_1164" d="M318.787 113.95a7.373 7.373 0 0 0 .778-.078 1.233 1.233 0 0 0 .772-.233.394.394 0 0 0 .05-.483 1 1 0 0 0-.95-.339 1.461 1.461 0 0 0-.966.417.428.428 0 0 0 .317.716z" class="cls-4" transform="translate(-276.762 -84.832)"/>
                <path id="Path_1165" d="M325.549 128.6a.936.936 0 0 1-.555.267 1.666 1.666 0 0 1-.605-.244h-.028a.794.794 0 0 0 .689.428.616.616 0 0 0 .555-.444c.01-.007-.034-.019-.056-.007z" class="cls-4" transform="translate(-279.43 -91.855)"/>
                <path id="Path_1166" d="M323.211 119.972a1.994 1.994 0 0 1-1.455.678 2.427 2.427 0 0 1-.716-.078.584.584 0 0 1-.133-.033l-.122-.039a.144.144 0 0 1-.094-.15.2.2 0 0 1 0-.056v-.05c.056-.45.205-1.111.205-1.111-.178.056-1.066.305-1.016.072a29.922 29.922 0 0 1 1.666-5.865.053.053 0 0 1 .1.033c-.322 1.855-.966 3.643-1.322 5.5a3.765 3.765 0 0 1 .977-.139c.061 0-.311 1.3-.317 1.5a2.777 2.777 0 0 0 2.144-.322c.083-.028.149.022.083.06z" class="cls-4" transform="translate(-277.437 -85.056)"/>
                <path id="Path_1167" d="M322.51 125.713a2.4 2.4 0 0 0 .828.872 1.066 1.066 0 0 0 .633.133c.483-.05.555-.472.555-.85a2.853 2.853 0 0 0-.122-.589 3.071 3.071 0 0 1-1.894.434z" class="cls-4" transform="translate(-278.608 -90.381)"/>
                <path id="Path_1168" d="M324 127.049a1.066 1.066 0 0 0 .633.133c.483-.05.555-.472.555-.85a1.111 1.111 0 0 0-1.189.716z" class="cls-8" transform="translate(-279.27 -90.844)"/>
                <path id="Path_1169" d="M327.132 108.879c-.555-1.711.517-4.521-.311-5.3-1.788-1.666-5.621 1.361-8.2 1.311s-3.288-1.666-2.777-3.688 2.26-3.332 5.071-3.671a10.552 10.552 0 0 1 6.931 1.833s-.605-1.022-.361-1.333 1.438.694 1.805 1.111a3.749 3.749 0 0 1 .555 1.216 4.06 4.06 0 0 1 1.139-.089 2.388 2.388 0 0 1 1.466.705c.039.15-.872.239-1.511.255a5.884 5.884 0 0 1 1.083 2.955c-.061 1.35-2.327 7.7-2.832 7.775-.631.064-1.842-2.385-2.058-3.08z" class="cls-4" transform="translate(-275.576 -78.023)"/>
                <path id="Path_1170" d="M342.008 103.93s-.056 0-.033.039a4.26 4.26 0 0 1 1.3 1.944 5.293 5.293 0 0 1-.05 2.777 25.937 25.937 0 0 1-2.144 4.965c0 .044.056.083.083.039a18.789 18.789 0 0 0 2.316-5.343 4.108 4.108 0 0 0-1.472-4.421z" class="cls-4" transform="translate(-286.864 -80.888)"/>
                <path id="Path_1171" d="M328.835 107.218a6.215 6.215 0 0 0-2.266.089 8.652 8.652 0 0 0-1.966.911 8.653 8.653 0 0 1-4.643 1.144v.033a7.559 7.559 0 0 0 4.315-.805 19.314 19.314 0 0 1 2.038-1.011 7.826 7.826 0 0 1 2.516-.222.072.072 0 0 0 .006-.139z" class="cls-4" transform="translate(-277.474 -82.322)"/>
                <path id="Path_1172" d="M326.337 98.4a11.719 11.719 0 0 0-3.171-1.144 9.442 9.442 0 0 0-3.227-.2 4.669 4.669 0 0 0-4.071 3.277 4.01 4.01 0 0 0 .305 2.888.05.05 0 1 0 .089-.044 4.177 4.177 0 0 1 1.078-4.877 6.7 6.7 0 0 1 5.554-.972 17.217 17.217 0 0 1 3.427 1.111s.021-.039.016-.039z" class="cls-4" transform="translate(-275.592 -77.806)"/>
                <path id="Path_1173" d="M337.454 121.054s2-2.727 3.249-2.011-.311 4.71-1.8 5.226a1.505 1.505 0 0 1-1.994-.855z" class="cls-9" transform="translate(-285.01 -87.555)"/>
                <path id="Path_1174" d="M340.866 121.18v.039a3.8 3.8 0 0 0-2.016 2.333.828.828 0 0 1 1.244-.2c.028 0 0 .061-.028.056a.927.927 0 0 0-1.027.3 4.844 4.844 0 0 0-.505.811c-.05.094-.217.039-.178-.067.022-1.345 1.093-3.172 2.51-3.272z" class="cls-4" transform="translate(-285.65 -88.558)"/>
                <path id="Path_1175" d="M298.177 137.841c-4.01-.233-25.376-2.294-29.991-6.715-6.87-6.57-10.18-17.306-11.88-21.916-.739-2.01 12.591-8.3 13.663-6.293 2.355 4.3 7.337 15.929 8.536 17.15s14.535 6.426 21.377 9.48c9.181 4.101 8.031 8.853-1.705 8.294z" class="cls-9" transform="translate(-249.16 -80.265)"/>
                <path id="Path_1176" d="M264.144 86.267s.422-5.882-.311-9.036a20.827 20.827 0 0 0-4.743-8.764c-2.433-2.7-10.191-7.553-11.98-5.554-1.616 1.8 6.565 6.354 6.565 6.354s-7.576-6.02-9.125-3.488 8.253 7.27 8.253 7.27-7.931-6.015-9.108-3.155c-.894 2.16 7.737 6.959 7.737 6.959s-6.842-5.121-7.859-2.938c-1.111 2.416 6.57 7.342 6.57 7.342-1.666 5.982.094 10.369 1.705 11.98.477.478 12.296-6.97 12.296-6.97z" class="cls-9" transform="translate(-243.462 -62.442)"/>
                <path id="Path_1177" d="M259.154 73.493c-.866-.739-1.738-1.494-2.66-2.155a31.631 31.631 0 0 0-2.866-1.827 19.506 19.506 0 0 0-4.038-1.861 43.443 43.443 0 0 1 6.731 3.977c.928.644 1.883 1.272 2.8 1.927z" class="cls-4" transform="translate(-246.187 -64.758)"/>
                <path id="Path_1178" d="M256.935 80.275c-1.144-.894-2.222-1.827-3.427-2.671s-2.372-1.538-3.6-2.294c-.094-.061-.094 0 0 .072 1.205.805 2.255 1.666 3.443 2.466s2.421 1.6 3.577 2.46c.007.012.029-.016.007-.033z" class="cls-4" transform="translate(-246.295 -68.152)"/>
                <path id="Path_1179" d="M255.5 87.194a32.3 32.3 0 0 0-5.554-3.688c-.1-.056-.089.039 0 .1 1.872 1.189 3.332 2.11 5.5 3.643.054.029.054-.027.054-.055z" class="cls-4" transform="translate(-246.312 -71.8)"/>
                <path id="Path_1180" d="M254 113.813l16.106-8.5s6.215 14.046 7.514 15.445 20.855 8.82 25.253 12.007 3.177 6.4-2.588 6.709-28.536-2.649-32.662-5.97S254 113.813 254 113.813z" class="cls-4" transform="translate(-248.147 -81.502)"/>
                <path id="Path_1181" d="M273.142 113.4c-2.144 1.227-11.108 5.932-13.091 6.82-.139.061-.211 0-.078-.094a107.912 107.912 0 0 1 13.113-6.809c.056-.023.106.05.056.083z" class="cls-10" transform="translate(-250.772 -85.06)"/>
            </g>
            <g id="freepik--Lines--inject-593" transform="translate(141.319 32.65)">
                <path id="Path_1182" d="M257.29 45.018a62.9 62.9 0 0 1 1.394-6.259 62.325 62.325 0 0 1 1.927-6.109c-.344 2.122-.85 4.193-1.394 6.259a60.849 60.849 0 0 1-1.927 6.109z" class="cls-4" transform="translate(-223.928 -32.65)"/>
                <path id="Path_1183" d="M230.878 48.827c-1.255-1.738-2.366-3.566-3.438-5.409a60.6 60.6 0 0 1-2.96-5.687c1.255 1.738 2.366 3.566 3.438 5.409s2.066 3.732 2.96 5.687z" class="cls-4" transform="translate(-209.34 -34.909)"/>
                <path id="Path_1184" d="M212.968 72.1c-2.116-.344-4.193-.85-6.259-1.394a59.028 59.028 0 0 1-6.109-1.926 62.552 62.552 0 0 1 6.259 1.394c2.055.561 4.105 1.161 6.109 1.926z" class="cls-4" transform="translate(-198.723 -48.714)"/>
                <path id="Path_1185" d="M213.494 99.51a32.08 32.08 0 0 1-3.726 2.49 31.4 31.4 0 0 1-4.038 2 32.141 32.141 0 0 1 3.76-2.488 32.827 32.827 0 0 1 4-2.011z" class="cls-4" transform="translate(-201.004 -62.377)"/>
                <path id="Path_1186" d="M284.35 91.27a31.358 31.358 0 0 1 4.249.855 29.84 29.84 0 0 1 4.11 1.394 33.636 33.636 0 0 1-8.359-2.249z" class="cls-4" transform="translate(-235.959 -58.713)"/>
                <path id="Path_1187" d="M274.34 62.878c1.738-1.255 3.56-2.366 5.409-3.443a64.063 64.063 0 0 1 5.687-2.955c-1.738 1.255-3.566 2.366-5.409 3.438a58.709 58.709 0 0 1-5.687 2.96z" class="cls-4" transform="translate(-231.508 -43.245)"/>
                <path id="Path_1188" d="M212.7 66.94a11.785 11.785 0 0 1 2.594.833 11.952 11.952 0 0 1 2.372 1.338 11.98 11.98 0 0 1-2.577-.828 11.663 11.663 0 0 1-2.389-1.343z" class="cls-4" transform="translate(-204.103 -47.896)"/>
                <path id="Path_1189" d="M265.459 34.19c-.505 1.25-1.061 2.477-1.627 3.7s-1.155 2.427-1.755 3.627-1.222 2.4-1.872 3.577l-.978 1.766c-.344.555-.666 1.166-1.027 1.738.244-.628.522-1.244.783-1.866l.839-1.833c.555-1.222 1.161-2.427 1.761-3.632s1.222-2.394 1.872-3.571 1.299-2.356 2.004-3.506z" class="cls-4" transform="translate(-224.332 -33.335)"/>
                <path id="Path_1190" d="M281.33 72c2.155-.411 4.332-.65 6.509-.85a62.9 62.9 0 0 1 6.554-.3c-2.155.411-4.332.655-6.509.85a59.989 59.989 0 0 1-6.554.3z" class="cls-4" transform="translate(-234.616 -49.631)"/>
                <path id="Path_1191" d="M207.839 96.62a49.427 49.427 0 0 1-5.226 1.9 48.247 48.247 0 0 1-5.393 1.38 55.956 55.956 0 0 1 10.619-3.282z" class="cls-4" transform="translate(-197.22 -61.092)"/>
            </g>
        </g>
    </g>
</svg>
