<svg xmlns="http://www.w3.org/2000/svg" width="405" height="286" viewBox="0 0 405 286">
    <defs>
        <style>
            .cls-2{fill:#d3766a}.cls-3{fill:#ebebeb}.cls-4{fill:#fff24f}.cls-5{fill:#263238}.cls-6{opacity:.1}.cls-7{fill:#37474f}.cls-8{fill:#fff}
        </style>
    </defs>
    <g id="Group_279" transform="translate(-313 -1008)">
        <path id="jongsun-lee-F-pSZO_jeE8-unsplash" fill="#f4e130" d="M0 0H405V286H0z" transform="translate(313 1008)"/>
        <g id="Charity-cuate" transform="translate(55.985 882.204)">
            <g id="freepik--character-2--inject-560" transform="translate(380.113 169.834)">
                <path id="Path_1364" d="M620.632 374.677c.171 2.229-6.27 2.9-8.952 1.441a62.74 62.74 0 0 1-6.2-5.089c-6.449-5.706-15.372-14.057-15.372-14.057l-6.612 2.972-32.281 10.75-13.615-35.23s15.6-6.612 30.461-12.526c2.281-.906 4.532-1.79 6.686-2.645l.409-.156c9.963-3.834 18.224-6.739 19.071-6.144 2.363 1.59 26.234 58.418 26.405 60.684z" class="cls-2" transform="translate(-435.112 -206.871)"/>
                <path id="Path_1365" d="M631 374.679c.171 2.266-6.263 2.9-8.953 1.449a61 61 0 0 1-6.2-5.1c-6.456-5.7-15.372-14.049-15.372-14.049l-6.612 2.972-1.077.357-14.856-37.144.475-.193 6.731-2.63c.134-.067.275-.111.409-.163 9.963-3.834 18.224-6.746 19.079-6.144 2.333 1.559 26.204 58.387 26.376 60.645z" class="cls-3" transform="translate(-445.479 -206.881)"/>
                <path id="Path_1366" d="M634.11 375.29c-.141-2.3-23.774-60.468-26.055-62.11-.869-.639-9.547 2.311-19.926 6.166l-.319.126 14.814 37.7.624-.275s19 18.217 21.724 19.755 9.287.948 9.138-1.362z" class="cls-4" transform="translate(-448.019 -206.659)"/>
                <path id="Path_1367" d="M638.5 376.664c-4.22-9.7-20.327-49.257-23.774-59.168 0-.082 0-.1.059 0 4.391 9.532 20.178 49.213 23.863 59.131.094.186-.055.245-.148.037z" class="cls-5" transform="translate(-454.939 -207.773)"/>
                <path id="Path_1368" d="M609.225 373.6c-2.288-3.566-3.611-8.529-2.058-12.63.059-.156.282-.067.3.074a58.324 58.324 0 0 0 2.229 12.3.267.267 0 0 1-.468.253z" class="cls-5" transform="translate(-452.822 -218.946)"/>
                <path id="Path_1369" d="M613.055 376.425c-2.288-3.566-3.611-8.522-2.058-12.586.059-.163.282-.074.3.067a58.24 58.24 0 0 0 2.229 12.3.267.267 0 0 1-.468.215z" class="cls-5" transform="translate(-453.806 -219.682)"/>
                <path id="Path_1370" d="M616.786 379.256c-2.281-3.566-3.611-8.522-2.058-12.585.059-.156.282-.074.3.067a58.237 58.237 0 0 0 2.229 12.3.267.267 0 0 1-.468.215z" class="cls-5" transform="translate(-454.766 -220.41)"/>
                <path id="Path_1371" d="M605.453 379.981c1.01-3.588.438-7.5.327-11.144a.52.52 0 0 0-.743-.409.119.119 0 0 0-.178-.037 22.289 22.289 0 0 0-6.426 9.532c-.7 2.162-.49 5.364 2.229 6.033 2.562.617 4.226-1.88 4.791-3.975zm-2.7 2.229c-3.96 2.4-3.581-3.046-2.972-4.621a24.041 24.041 0 0 1 1.374-2.972c1.062-1.984 2.385-3.782 3.633-5.646-.052 1.805.045 3.6.059 5.4.015 2.192.111 6.53-2.065 7.838z" class="cls-5" transform="translate(-450.662 -220.868)"/>
                <path id="Path_1372" d="M591.961 353.962c-2.028 1.909-.639 4.8 1.033 6.337a22.207 22.207 0 0 0 10.275 5.149.123.123 0 0 0 .141-.111.513.513 0 0 0 .431-.743c-1.7-3.254-3.113-6.939-5.758-9.562-1.545-1.508-4.205-2.875-6.122-1.07zm8.3 6.263c.869 1.575 1.664 3.187 2.6 4.733a65.585 65.585 0 0 1-5.944-3.143 23.717 23.717 0 0 1-2.645-1.887c-1.278-1.085-4.279-5.639.342-5.5 2.555.084 4.598 3.918 5.646 5.797z" class="cls-5" transform="translate(-448.827 -216.944)"/>
                <path id="Path_1373" d="M635.18 379.513c.156 2.311-6.412 2.89-9.131 1.36s-21.724-19.755-21.724-19.755l-.632.275L592 331.6l23.031-2.08c7.742 17.608 20.06 48.329 20.149 49.993z" class="cls-6" transform="translate(-449.096 -210.882)"/>
                <path id="Path_1374" d="M552.306 364.168s-70.193 16.115-96 11.464c-12.355-2.229-21.271-18.128-15.334-30.3 5.542-11.367 39.421-22.9 48.99-29.584 3.016-2.088 2.689-10.4 2.689-10.4l25.123-.348s8.96 14.235 5.2 21.174a2.89 2.89 0 0 1-.215.342l11.36-4.309z" class="cls-7" transform="translate(-409.789 -204.579)"/>
                <path id="Path_1375" d="M567.477 352.815c-2.794-6.077-5.862-12.021-8.707-18.076-.059-.111-.245-.052-.193.074 2.689 6.1 5.163 12.281 7.964 18.336s5.825 12.036 8.759 18.054c.074.149.327.067.253-.1-2.704-6.088-5.29-12.225-8.076-18.288z" class="cls-5" transform="translate(-440.502 -212.209)"/>
                <path id="Path_1376" d="M532.65 334.353c-1.731 1-3.38 2.177-5.067 3.269s-3.336 2.132-5.03 3.143c-3.432 2.036-6.947 3.945-10.5 5.758a179.476 179.476 0 0 1-22.155 9.539 132.775 132.775 0 0 1-12.86 4.019.078.078 0 1 0 .045.149c3.165-.743 6.337-1.486 9.473-2.392-1.664 1.048-3.3 2.14-4.948 3.2a.082.082 0 0 0 .082.134c1.805-1.092 3.64-2.14 5.431-3.262a.171.171 0 0 0 .052-.253c.535-.156 1.07-.3 1.6-.468q5.817-1.8 11.479-4.071a141.007 141.007 0 0 0 21.456-10.862q2.883-1.79 5.706-3.715a52.047 52.047 0 0 0 5.416-4.012c.132-.064-.039-.258-.18-.176z" class="cls-5" transform="translate(-419.531 -212.119)"/>
                <path id="Path_1377" d="M656.894 386.287c.171 2.229-6.263 2.89-8.915 1.434a59.679 59.679 0 0 1-6.2-5.089c-6.449-5.706-15.379-14.057-15.379-14.057l-6.6 2.972-31.323 10.713-14.577-35.193s15.6-6.6 30.461-12.526c2.281-.906 4.532-1.783 6.687-2.637l.409-.163c9.963-3.834 18.224-6.731 19.071-6.137 2.302 1.589 26.196 58.41 26.366 60.683z" class="cls-2" transform="translate(-444.443 -209.855)"/>
                <path id="Path_1378" d="M667.133 386.277c.171 2.229-6.263 2.9-8.952 1.441a62.98 62.98 0 0 1-6.189-5.089c-6.449-5.706-15.379-14.057-15.379-14.057l-6.6 2.972-.884.3-15.4-36.976.854-.334c2.281-.914 4.532-1.8 6.687-2.652a3.715 3.715 0 0 0 .4-.156c9.978-3.834 18.224-6.731 19.079-6.137 2.32 1.594 26.213 58.422 26.384 60.688z" class="cls-3" transform="translate(-454.682 -209.853)"/>
                <path id="Path_1379" d="M670.116 386.608c-.171-2.311-24.577-60.141-26.909-61.746-.877-.632-9.51 2.437-19.837 6.441l-.319.126 15.334 37.489.624-.282s19.25 17.972 21.991 19.458 9.3.806 9.116-1.486z" class="cls-4" transform="translate(-457.078 -209.663)"/>
                <path id="Path_1380" d="M674.5 388c-4.354-9.658-21-48.967-24.577-58.841 0-.074 0-.1.059 0 4.532 9.465 20.862 48.923 24.681 58.8.086.181-.063.241-.163.041z" class="cls-5" transform="translate(-463.985 -210.772)"/>
                <path id="Path_1381" d="M645.206 385.327c-2.333-3.529-3.715-8.47-2.229-12.556.059-.156.282-.074.3.067a58.74 58.74 0 0 0 2.407 12.273.261.261 0 1 1-.475.215z" class="cls-5" transform="translate(-462.041 -221.978)"/>
                <path id="Path_1382" d="M649.016 388.106c-2.333-3.529-3.715-8.47-2.229-12.556.052-.156.282-.074.29.067a59.232 59.232 0 0 0 2.415 12.273.267.267 0 0 1-.475.215z" class="cls-5" transform="translate(-463.021 -222.693)"/>
                <path id="Path_1383" d="M652.846 390.885c-2.333-3.529-3.715-8.47-2.229-12.556.052-.163.282-.074.29.067a59.232 59.232 0 0 0 2.415 12.3.267.267 0 0 1-.475.193z" class="cls-5" transform="translate(-464.005 -223.406)"/>
                <path id="Path_1384" d="M641.6 391.737c.966-3.6.334-7.5.171-11.144a.52.52 0 0 0-.743-.4.1.1 0 0 0-.171 0 22.288 22.288 0 0 0-6.293 9.614c-.676 2.169-.424 5.371 2.288 6 2.575.574 4.18-1.96 4.748-4.07zm-2.675 2.281c-3.923 2.452-3.618-2.972-3.061-4.577a22.491 22.491 0 0 1 1.337-2.972 65.142 65.142 0 0 1 3.551-5.691c0 1.805.1 3.6.134 5.394.045 2.162.2 6.493-1.961 7.846z" class="cls-5" transform="translate(-459.955 -223.894)"/>
                <path id="Path_1385" d="M627.663 365.923c-2 1.939-.565 4.814 1.122 6.33a22.325 22.325 0 0 0 10.349 5.007.111.111 0 0 0 .134-.119.52.52 0 0 0 .423-.743c-1.746-3.224-3.21-6.887-5.892-9.48-1.567-1.493-4.241-2.818-6.136-.995zm8.38 6.144c.9 1.568 1.716 3.165 2.667 4.7a66.517 66.517 0 0 1-5.943-3.061 22.829 22.829 0 0 1-2.675-1.85c-1.293-1.062-4.354-5.58.267-5.5 2.505.05 4.622 3.854 5.685 5.711z" class="cls-5" transform="translate(-458.013 -220.012)"/>
                <path id="Path_1386" d="M508.74 305.016l43.232-.646s9.168 23.328 5.371 30.275-43.618 16.855-43.618 16.855l54.748-20.8 18.21 41.954s-66.553 14.5-101.85 10.906c-13.247-1.352-21.545-18.655-13.8-31.947 8.172-13.99 37.786-33.128 37.786-33.128z" class="cls-7" transform="translate(-417.233 -204.417)"/>
                <path id="Path_1387" d="M578.546 339.624c-16.761 7.66-33.655 14.978-50.944 21.36q-3.611 1.322-7.214 2.63c-2.5.892-4.978 1.924-7.541 2.645-.119 0-.059.238.067.186 2.229-.825 4.458-1.412 6.687-2.147s4.376-1.441 6.545-2.229l2.816-1-.565.386c-.869.579-1.724 1.152-2.578 1.753-1.746 1.226-3.373 2.689-5.2 3.782-.111.067 0 .245.1.171 1.746-1.241 3.715-2.162 5.505-3.336.869-.565 1.724-1.159 2.563-1.761a17.078 17.078 0 0 0 2.229-1.738c2.756-.988 5.505-1.984 8.232-3.031q12.912-4.911 25.513-10.609c4.688-2.125 9.339-4.331 13.923-6.687.301-.063.108-.487-.138-.375z" class="cls-5" transform="translate(-428.733 -213.474)"/>
                <path id="Path_1388" d="M605.037 363.927c-2.794-6.077-5.869-12.021-8.715-18.068-.052-.119-.238-.052-.186.067 2.682 6.1 5.2 12.288 7.957 18.343s5.832 12.028 8.767 18.046c.074.149.327.067.253-.1-2.704-6.082-5.29-12.226-8.076-18.288z" class="cls-5" transform="translate(-450.157 -215.066)"/>
                <path id="Path_1389" d="M507.8 323.93a118.548 118.548 0 0 0-13.655 9.064c-4.331 3.217-8.536 6.612-12.541 10.23-2.021 1.828-3.967 3.715-5.854 5.706a43.7 43.7 0 0 0-4.97 6 21.092 21.092 0 0 0-3.588 13.187 22.512 22.512 0 0 0 1.716 7.207 27.089 27.089 0 0 0 4 6.189c.067.074.178-.045.111-.111a17.006 17.006 0 0 1-3.38-5.944 22.288 22.288 0 0 1 1.687-19.034c2.652-4.406 6.56-8.054 10.267-11.56a153.117 153.117 0 0 1 12.021-10.238c2.34-1.805 4.725-3.559 7.132-5.282s4.859-3.373 7.214-5.2a.156.156 0 0 0-.163-.215z" class="cls-5" transform="translate(-417.003 -209.445)"/>
                <path id="Path_1390" d="M531.1 325.319a50.616 50.616 0 0 0-11.04-2.117c-3.715-.409-7.377-.609-11.085-.661-.1 0-.089.149 0 .156 3.715.327 7.5.8 11.226 1.36s7.221 1.322 10.854 1.612c.209.021.209-.291.045-.35z" class="cls-5" transform="translate(-427.736 -209.088)"/>
                <path id="Path_1391" d="M572.33 322.722a53.57 53.57 0 0 1-6.887-.632 11.226 11.226 0 0 1-5.394-1.724c-3.068-2.3-4.316-6.345-4.97-9.955 0-.082-.156-.059-.149 0 .528 3.93.7 8.44 4.153 11.077a10.4 10.4 0 0 0 5.869 1.835 36.159 36.159 0 0 0 7.385-.461.082.082 0 0 0-.007-.141z" class="cls-5" transform="translate(-439.567 -205.957)"/>
                <path id="Path_1392" d="M582.661 328.068a45.211 45.211 0 0 0-1.211-6.746c-.542-2.281-1.189-4.532-1.909-6.761-.825-2.533-1.776-5.022-2.771-7.489-.037-.089-.178-.052-.141.045 1.426 4.175 2.727 8.4 3.811 12.675.542 2.117 1.018 4.257 1.486 6.4a13.292 13.292 0 0 1 0 6.278 10.989 10.989 0 0 1-3.462 5.386 11.285 11.285 0 0 0 4.2-9.785z" class="cls-5" transform="translate(-445.143 -205.099)"/>
                <path id="Path_1393" d="M579.452 352.609c-2.92.743-5.773 1.761-8.64 2.689s-5.743 1.865-8.611 2.823c-5.728 1.909-11.434 3.878-17.14 5.854-3.239 1.122-6.464 2.311-9.658 3.492-.089 0-.052.178.045.149q17.3-5.371 34.384-11.4c3.232-1.137 6.508-2.184 9.658-3.507.051-.026.029-.122-.038-.1z" class="cls-5" transform="translate(-434.534 -216.816)"/>
                <path id="Path_1394" d="M511.686 176.406c-5.1 6.189-9.153 41.293-2.682 54.978s34.175 16.616 40.186-1.025c3.143-9.183-4.77-19.45-8.455-43.759-2.741-18.084-21.917-18.841-29.049-10.194z" class="cls-5" transform="translate(-426.902 -170.146)"/>
                <path id="Path_1395" d="M514.2 238.4a19.175 19.175 0 0 1-9.161-11.568c-1.486-5.267-1.263-11.144-1-16.538a101.114 101.114 0 0 1 6.976-31.776c0-.037-.052-.067-.067 0a93.612 93.612 0 0 0-7.429 33.6c-.178 5.483-.327 11.575 1.8 16.739a19.353 19.353 0 0 0 8.841 9.658c.051-.015.096-.088.04-.115z" class="cls-5" transform="translate(-426.33 -172.056)"/>
                <path id="Path_1396" d="M558.752 211.5c-1.568-3.328-3.432-6.516-4.532-10.045a100.6 100.6 0 0 1-2.229-10.476c-1.115-5.371-3.016-10.817-7.541-14.25 4.606 3.715 6.211 9.473 7.3 15.037.587 3.039 1.048 6.114 1.9 9.094a45.583 45.583 0 0 0 3.239 7.741c2.972 5.944 5.342 12.1 3.967 18.878a17.831 17.831 0 0 1-10.056 12.832c-.163.074-.045.357.126.29a17.689 17.689 0 0 0 9.792-11.01c1.912-6.078.682-12.445-1.966-18.091z" class="cls-5" transform="translate(-436.873 -171.607)"/>
                <path id="Path_1397" d="M556.958 211.977a47.1 47.1 0 0 1-3.106-9.762c-.609-3.21-.921-6.464-1.486-9.658-.921-5.505-2.63-11.144-6.991-15.022-.059-.045-.134 0-.082.082 4.116 4.064 5.795 9.525 6.687 15.045.973 5.944 1.486 11.813 3.715 17.474 2.229 5.505 5.253 11.025 4.941 17.088-.3 5.944-4.346 10.594-9.294 13.663a.111.111 0 0 0 .112.186c4.368-2.519 8.172-6.5 9.287-11.471 1.418-6.124-1.413-12.102-3.783-17.625z" class="cls-5" transform="translate(-437.085 -171.809)"/>
                <path id="Path_1398" d="M503.947 233.428c-6.582 15.379-19.1 28.343-28.849 36.4-3.9 3.224-32.066-3.358-41.493-9.317-3.1-1.954 6.174-19.577 10.691-21.271 3.068-1.159 23.715 9.993 25.743 8.4 3.752-2.927 13.611-9.978 25.32-18.418 7.593-5.452 12.073-3.966 8.588 4.206z" class="cls-2" transform="translate(-408.22 -184.271)"/>
                <path id="Path_1399" d="M427.318 261.613c-2.519-1.055-16.152-7.467-18.886-9.785s-10.126-9.547-8.566-11.828 3.893-.327 3.893-.327-2.972-3.841-.862-5.7c1.664-1.486 5.1 1.085 5.1 1.085s-3.009-4.376-.706-5.944c2.1-1.434 5.1 2.266 5.1 2.266s-2.14-3.923.149-4.911c2.749-1.2 6.456 5.587 9.658 7.92.743.527 15.542 9.658 15.542 9.658z" class="cls-2" transform="translate(-399.652 -184.357)"/>
                <path id="Path_1400" d="M416.8 232.767c3.291 4.8 4.8 6.687 9.7 9.4.1.052.037.208-.067.163-5.037-2.229-6.984-4.331-9.881-9.435-.152-.254.09-.351.248-.128z" class="cls-5" transform="translate(-403.983 -185.979)"/>
                <path id="Path_1401" d="M410.914 238.021c3.3 4.926 5.55 6.687 10.476 9.874.067.045 0 .163-.074.126-5.089-2.749-7.935-4.577-10.587-9.933-.157-.238-.001-.288.185-.067z" class="cls-5" transform="translate(-402.483 -187.325)"/>
                <path id="Path_1402" d="M405.433 244.45c3.536 4.532 5.877 6.686 11.055 9.2a.1.1 0 0 1-.082.193 19.088 19.088 0 0 1-11.1-9.272c-.178-.314-.096-.411.127-.121z" class="cls-5" transform="translate(-401.081 -188.97)"/>
                <path id="Path_1403" d="M430.777 229.258v27.764a3.514 3.514 0 0 1-3.514 3.514H411.3a3.514 3.514 0 0 1-3.514-3.514v-27.764a3.514 3.514 0 0 1 3.514-3.507h.1v-1.671h15.75v1.672h.1a3.514 3.514 0 0 1 3.514 3.507z" class="cls-8" transform="translate(-401.744 -183.778)"/>
                <rect id="Rectangle_49" width="20.052" height="28.068" class="cls-4" rx="4.2" transform="translate(7.51 47.271)"/>
                <path id="Rectangle_50" d="M0 0H20.305V3.343H0z" class="cls-5" transform="translate(7.339 36.869)"/>
                <path id="Path_1404" d="M451.135 243.715s-1.486-5.052-4.844-7.979c-2.407-2.11-11.144-8.574-13.848-7.979-3.016.661.379 8.254 4.733 11.961 0 0-3.752 8.6.267 12.363s13.692-8.366 13.692-8.366z" class="cls-2" transform="translate(-407.786 -184.713)"/>
                <path id="Path_1405" d="M438.846 244.38c-1.575 3.3-2.3 8.061-.349 11.144.052.089-.067.186-.134.1-2.541-3.024-1.753-8.544-.163-11.4.3-.557 1.054-.699.646.156z" class="cls-5" transform="translate(-409.181 -188.84)"/>
                <path id="Path_1406" d="M481.68 246.358l5.119 29.2s23.18-25.7 30.572-40.119c3.856-7.541 3.3-15.171-7.348-9.465s-28.343 20.384-28.343 20.384z" class="cls-4" transform="translate(-420.738 -183.753)"/>
                <path id="Path_1407" d="M489.278 250.175c0-.193-.171-.23-.149 0 1.226 9.792 3.306 20.958 4.51 24.911a.052.052 0 0 0 .1 0c-.249-4.227-4.119-22.757-4.461-24.911z" class="cls-5" transform="translate(-422.652 -190.445)"/>
                <path id="Path_1408" d="M518.3 235.717c-7.43 14.435-30.572 40.119-30.572 40.119l-2.428-13.848 34.175-36.858c1.806 1.843 1.055 6.226-1.175 10.587z" class="cls-6" transform="translate(-421.668 -184.048)"/>
                <path id="Path_1409" d="M508.781 267.58l-1.374 23.38s45.32-2.645 57.838-3.529c0 0-12.853-46.063-26.323-60.684-6.739-7.318-14.651-6.768-19.7-1.657-1.278 1.293-13.774 20.951-15.379 28.641-1.422 6.783 4.938 13.849 4.938 13.849z" class="cls-4" transform="translate(-426.382 -183.05)"/>
                <path id="Path_1410" d="M527.582 280.088a48.814 48.814 0 0 0-7.3-.126c-1.211.089-2.407.23-3.6.394-.6.082-1.2.149-1.8.208a8.015 8.015 0 0 1-1.887 0 .045.045 0 1 0 0 .082 12.906 12.906 0 0 0 1.768.29 12.255 12.255 0 0 0 1.731 0c1.226-.074 2.444-.208 3.67-.3 2.474-.171 4.948-.349 7.429-.349.101.002.107-.187-.011-.199z" class="cls-5" transform="translate(-428.772 -198.122)"/>
                <path id="Path_1411" d="M535.957 283.817a53.339 53.339 0 0 0-5.869-1.367c-1-.163-1.991-.275-2.972-.357-.483-.045-.958-.074-1.441-.1s-1.062 0-1.582 0c-.059 0-.074.082 0 .089.49.045.981.178 1.486.253l1.486.23 2.972.468c1.991.29 3.96.6 5.944.958.058.009.073-.152-.024-.174z" class="cls-5" transform="translate(-431.627 -198.663)"/>
                <path id="Path_1412" d="M553.333 259.847c-.3-.215-.609-.416-.921-.6a1.908 1.908 0 0 0-.282-.171 13.974 13.974 0 0 0-5.869-1.947 19.971 19.971 0 0 0-7.667 1.01 47.086 47.086 0 0 0-4.666 1.776l-.26.119c-3.158 1.4-6.211 3.091-9.264 4.718-1.427.743-2.86 1.538-4.3 2.229a2.845 2.845 0 0 1-.3.156c-.795.409-1.59.795-2.4 1.174a31.56 31.56 0 0 1-7.43 2.556 11.954 11.954 0 0 1-3.782.119l-.134-.245a11.686 11.686 0 0 0 3.871-.111 30.73 30.73 0 0 0 7.363-2.571c.743-.349 1.486-.743 2.229-1.092.1-.052.2-.1.3-.156 1.486-.743 2.972-1.553 4.458-2.355 3.024-1.627 6.048-3.306 9.183-4.718l.26-.119a47.129 47.129 0 0 1 4.785-1.85 19.6 19.6 0 0 1 7.756-1.01 14.539 14.539 0 0 1 6.085 2.065l.275.171.453.3c.101.18.176.366.257.552zm1.961 4.926a33.2 33.2 0 0 1-4.3 1.85 14.242 14.242 0 0 1-7.14.617 4.6 4.6 0 0 1-.461-.089h-.082a13.56 13.56 0 0 1-6.508-4.086c-1-1.01-1.947-2.073-2.875-3.158l-.23-.267c-2.407-2.8-4.755-5.684-7.794-7.883a14.941 14.941 0 0 0-7.3-2.883 19.852 19.852 0 0 0-7.8 1.018c-.973.312-1.932.654-2.868 1.033l-.238.475q1.582-.646 3.21-1.159a19.829 19.829 0 0 1 7.667-1.018 14.554 14.554 0 0 1 7.147 2.793c2.972 2.132 5.312 4.963 7.719 7.741l.23.267c.958 1.1 1.924 2.192 2.972 3.224a14.084 14.084 0 0 0 6.531 4.1h.1l.357.067a14.316 14.316 0 0 0 7.429-.617 30.76 30.76 0 0 0 4.294-1.895zm-2.548-6.33l-.371.379-.245.253a76.711 76.711 0 0 1-8.737 8.076l-.238.186-.795.572a19.844 19.844 0 0 1-6.991 3.306 14.607 14.607 0 0 1-7.66-.483 36.189 36.189 0 0 1-7.608-3.715l-.282-.171c-1.954-1.189-3.893-2.415-5.944-3.462A11.993 11.993 0 0 0 503.66 262v.23a13.045 13.045 0 0 1 2.667-.527 13.878 13.878 0 0 1 7.429 1.909c1.961 1.025 3.834 2.229 5.736 3.388l.282.171a37.387 37.387 0 0 0 7.808 3.893 14.919 14.919 0 0 0 7.831.52 19.755 19.755 0 0 0 7.125-3.351q.535-.379 1.047-.78a2.915 2.915 0 0 0 .238-.186 79.921 79.921 0 0 0 8.559-7.994c.074-.089.156-.171.238-.253s.149-.163.23-.238z" class="cls-8" transform="translate(-426.388 -190.139)"/>
                <path id="Path_1413" d="M547.2 232.864c8.44 13.076 22.727 38.938 20.951 46.241-3.574 14.7-24.517 30.587-30.706 34.383-2.9 1.776-20.476-15.528-18.388-18.514 2.229-3.262 23.938-21.129 23.863-24.346-.059-2.727-4.279-19.435-7.259-32.3-3.792-16.237 4.365-16.528 11.539-5.464z" class="cls-2" transform="translate(-430.302 -184.077)"/>
                <path id="Path_1414" d="M513.633 311.53s-9.985 3.321-16.471 5.8c-3.6 1.382-9.547 4.309-11.731 6.53-3.254 3.328-14.755 19.317-10.936 22.207 3.462 2.6 11.6-12.407 11.6-12.407s-9.547 14.413-4.807 16.783 11.672-15.81 11.672-15.81-9.473 15.03-4.168 16.694c3.99 1.256 11.2-14.859 11.2-14.859s-8.054 12.979-4.012 14.443c4.458 1.627 12.051-12.823 12.051-12.823 10.906 2.013 16.917-1.486 20.9-4.495.92-.718-15.298-22.063-15.298-22.063z" class="cls-2" transform="translate(-418.693 -206.258)"/>
                <path id="Path_1415" d="M490.845 335.254c-7.838 10.082-8.6 17.429-8.536 17.236 1.4-4.51 5-10.84 6.033-12.593s1.545-2.853 2.571-4.606c.029-.044-.038-.074-.068-.037z" class="cls-5" transform="translate(-420.899 -212.352)"/>
                <path id="Path_1416" d="M500.306 339.185a43.232 43.232 0 0 0-7.764 13.291c-.059.186 0 .163.134 0 1.248-2.266 6.33-11.062 7.682-13.254.015-.044-.052-.066-.052-.037z" class="cls-5" transform="translate(-423.524 -213.363)"/>
                <path id="Path_1417" d="M509.14 342a32.3 32.3 0 0 0-5.706 10.468c-.067.186.082.149.178 0 1.828-3.522 3.239-6.285 5.639-10.357.038-.078-.059-.16-.111-.111z" class="cls-5" transform="translate(-426.325 -214.086)"/>
                <path id="Path_1418" d="M546.378 270.322l29.049 6.07s-13.8-33.7-24.086-46.241c-5.371-6.545-12.593-9.079-11.612 2.972s6.649 37.199 6.649 37.199z" class="cls-4" transform="translate(-435.636 -183.928)"/>
                <path id="Path_1419" d="M547.928 276.087c-.2-.045-.3.082-.1.134 9.926 2.7 21.545 5.134 25.81 5.542.067 0 .074-.089 0-.111-4.075-1.434-23.481-5.03-25.71-5.565z" class="cls-5" transform="translate(-437.714 -197.144)"/>
                <path id="Path_1420" d="M548.754 277.523c-.609-.082-1.218-.178-1.828-.275h-.059v-.067c-.594-2.125-1.092-4.279-1.612-6.419s-.966-4.309-1.4-6.471-.847-4.339-1.181-6.523-.669-4.369-.847-6.568l1.382 6.471c.476 2.155.914 4.309 1.367 6.471l1.3 6.486c.394 2.169.825 4.331 1.189 6.508l-.082-.074c.583.138 1.177.297 1.771.461z" class="cls-5" transform="translate(-436.2 -190.75)"/>
                <path id="Path_1421" d="M541.11 255a15.917 15.917 0 0 1 1 2.14c.282.743.528 1.486.743 2.229a5.757 5.757 0 0 1-.624-1.018 11.554 11.554 0 0 1-.453-1.122 11.377 11.377 0 0 1-.666-2.229z" class="cls-5" transform="translate(-436.014 -191.726)"/>
                <path id="Path_1422" d="M521.111 224.745s-.646 8.507 4.539 10.067 17.734-8.774 17.734-8.774-4.993-5.045-11.144-4.918a19.034 19.034 0 0 0-11.129 3.625z" class="cls-2" transform="translate(-430.867 -183.017)"/>
                <path id="Path_1423" d="M536.724 218.58c-.1 1.025-4 8.12-8.581 8.507-1.486.126-2.526-7.987-2.526-7.987l-.215-.587-2.972-8.135 9.012-7.623 1.315-1.025s.669 2.281 1.486 5.126l.111.409.141.461c.126.423.253.862.364 1.293s.186.654.267 1l.26 1.04a55.282 55.282 0 0 1 1.338 7.521z" class="cls-2" transform="translate(-431.213 -178.033)"/>
                <path id="Path_1424" d="M534.228 206.856a17.37 17.37 0 0 1-8.826 11.657l-2.972-8.135 9.012-7.623 1.315-1.025s.661 2.281 1.471 5.126z" class="cls-5" transform="translate(-431.213 -178.033)"/>
                <path id="Path_1425" d="M503.514 191.89c.461 15.208 9.658 16.649 12.9 16.553 2.972-.1 13.106-.788 14.22-15.966s-6.1-19.77-12.92-19.918-14.654 4.123-14.2 19.331z" class="cls-2" transform="translate(-426.345 -170.534)"/>
                <path id="Path_1426" d="M506.519 194.753a9.139 9.139 0 0 0 1-.319 1.694 1.694 0 0 0 .966-.52.55.55 0 0 0-.067-.654 1.337 1.337 0 0 0-1.352-.186 1.976 1.976 0 0 0-1.159.817.579.579 0 0 0 .617.862z" class="cls-5" transform="translate(-426.943 -175.781)"/>
                <path id="Path_1427" d="M519.227 193.881a8.233 8.233 0 0 1-1.04-.111 1.686 1.686 0 0 1-1.047-.319.527.527 0 0 1-.059-.654 1.322 1.322 0 0 1 1.285-.446 1.969 1.969 0 0 1 1.3.572.579.579 0 0 1-.438.958z" class="cls-5" transform="translate(-429.815 -175.615)"/>
                <path id="Path_1428" d="M517.821 199.834c0-.045.082 0 .082.082.045 1.033.275 2.229 1.233 2.489v.052c-1.152-.067-1.442-1.635-1.315-2.623z" class="cls-5" transform="translate(-430.021 -177.541)"/>
                <path id="Path_1429" d="M518.7 198.285c1.649-.253 2.036 3.068.505 3.306s-1.928-3.091-.505-3.306z" class="cls-5" transform="translate(-430.027 -177.144)"/>
                <path id="Path_1430" d="M519.8 198.317c.312.156.639.453.988.446s.676-.386.9-.743h.067c.082.639-.089 1.315-.743 1.486s-1.129-.357-1.36-.973c-.058-.09.023-.275.148-.216z" class="cls-5" transform="translate(-430.494 -177.079)"/>
                <path id="Path_1431" d="M509.72 200.177c0-.037-.074.059-.067.1.163 1.025.171 2.229-.743 2.682v.059c1.122-.307 1.09-1.897.81-2.841z" class="cls-5" transform="translate(-427.737 -177.632)"/>
                <path id="Path_1432" d="M508.148 198.89c-1.672.074-1.389 3.41.156 3.336s1.24-3.403-.156-3.336z" class="cls-5" transform="translate(-427.25 -177.303)"/>
                <path id="Path_1433" d="M507.018 199.252c-.253.2-.483.542-.795.587s-.661-.282-.929-.609c0 0-.052 0-.045.045.037.639.3 1.285.921 1.352s.936-.513 1.033-1.166c.016-.12-.088-.29-.185-.209z" class="cls-5" transform="translate(-426.796 -177.39)"/>
                <path id="Path_1434" d="M518.607 210.5c-.208.275-.4.646-.743.743a2.719 2.719 0 0 1-1.144-.074v.059a1.374 1.374 0 0 0 1.382.342 1.1 1.1 0 0 0 .661-1.033c-.044-.074-.126-.081-.156-.037z" class="cls-5" transform="translate(-429.745 -180.28)"/>
                <path id="Path_1435" d="M512.323 202.612a22.783 22.783 0 0 0 0 2.288c0 .067.186.082.431.067a3.47 3.47 0 0 0 3.217-1.642c.045-.074-.059-.141-.119-.089a5.2 5.2 0 0 1-3.061 1.233c-.067-.193.186-2.667.067-2.667a6.441 6.441 0 0 0-1.612.542c0-3.254.55-6.478.52-9.718a.1.1 0 0 0-.193 0 52.274 52.274 0 0 0-1 10.446c.042.394 1.475-.304 1.75-.46z" class="cls-5" transform="translate(-428.164 -175.668)"/>
                <path id="Path_1436" d="M530.317 193.941c-1.724-.045-6.374-4.621-6.805-12.935 0 0 .906 7.429 1.486 8.514s-2.6-2.578-3.039-9.279a27.265 27.265 0 0 1-6.753 3.811c-3.135 1-5.074 1.033-5.312.817s4.376-1.857 5.587-3.351c0 0-8.284 4.212-12.162 4.643-.446.052-1.308-9.168 4.562-13.3s15.52-.23 18.165 2.147c0 0 3.016.319 6.434 4.651s-.305 14.326-2.163 14.282z" class="cls-5" transform="translate(-426.217 -170.147)"/>
                <path id="Path_1437" d="M524.694 174.586a37.468 37.468 0 0 0-3.6-1.768 27.811 27.811 0 0 0-3.715-1.36 18.754 18.754 0 0 0-3.863-.691 6 6 0 0 0-.966 0 8.2 8.2 0 0 0-.958.037 9.274 9.274 0 0 0-1.865.409 8.329 8.329 0 0 0-1.724.743 12.162 12.162 0 0 0-1.523 1.166 11.243 11.243 0 0 0-1.33 1.4 14.959 14.959 0 0 0-1.055 1.634 13.149 13.149 0 0 0-1.3 3.715 15.722 15.722 0 0 0-.334 3.967 13.536 13.536 0 0 1 .981-7.987 10.348 10.348 0 0 1 2.429-3.366 11.143 11.143 0 0 1 1.642-1.293 9.2 9.2 0 0 1 1.924-.884 10.23 10.23 0 0 1 4.146-.416 16.2 16.2 0 0 1 4.012.892 25.884 25.884 0 0 1 7.099 3.802z" class="cls-5" transform="translate(-426.025 -169.834)"/>
                <path id="Path_1438" d="M535.331 199.226s2.742-5.1 5.022-4.175.594 8.054-1.805 9.279a2.571 2.571 0 0 1-3.588-.973z" class="cls-2" transform="translate(-434.434 -176.287)"/>
                <path id="Path_1439" d="M540.282 197.82c.045 0 .052.045 0 .067-1.679.921-2.415 2.66-2.868 4.458a1.419 1.419 0 0 1 2.065-.632c.052 0 0 .1-.037.1a1.575 1.575 0 0 0-1.664.743 7.68 7.68 0 0 0-.661 1.486c-.067.171-.364.119-.319-.074a.328.328 0 0 0 0-.037c-.275-2.263 1.102-5.606 3.484-6.111z" class="cls-5" transform="translate(-434.897 -177.028)"/>
            </g>
            <g id="freepik--box-2--inject-560" transform="translate(323.64 291.577)">
                <path id="Rectangle_51" d="M0 0H63.47V64.064H0z" class="cls-4" transform="translate(10.535)"/>
                <path id="Rectangle_52" d="M0 0H63.47V64.064H0z" class="cls-6" transform="translate(10.535)"/>
                <path id="Rectangle_53" d="M0 0H32.771V64.064H0z" class="cls-4" transform="translate(74.005)"/>
                <path id="Path_1440" d="M383.626 348.893h-2.355l-.579-1.174-.81 1.174-1.092-2.407-1.04 2.407h-4.324l-.49-1.6-.461 1.6h-.884V333.7h12.036z" class="cls-8" transform="translate(-335.966 -333.7)"/>
                <g id="Group_99" opacity="0.1" transform="translate(76.234 4.413)">
                    <path id="Path_1441" d="M454.541 394.888q-3.64-6.843-7.221-13.715l-7.14-13.773-7.013-13.834q-3.5-6.932-6.917-13.915 3.64 6.843 7.214 13.715l7.11 13.782 7.036 13.826q3.514 6.926 6.931 13.914z" transform="translate(-426.25 -339.643)"/>
                    <path id="Path_1442" d="M454.552 339.64q-3.432 6.954-6.932 13.915l-7.006 13.845-7.11 13.774q-3.566 6.887-7.214 13.715 3.418-6.976 6.917-13.915l6.984-13.834 7.11-13.782q3.599-6.875 7.251-13.718z" transform="translate(-426.26 -339.64)"/>
                </g>
                <path id="Path_1443" d="M323.64 348.9h63.46l10.535-15.2h-63.46z" class="cls-4" transform="translate(-323.64 -333.7)"/>
                <g id="Group_100" opacity="0.2">
                    <path id="Path_1444" d="M323.64 348.9h63.46l10.535-15.2h-63.46z" transform="translate(-323.64 -333.7)"/>
                </g>
                <path id="Path_1445" d="M433.775 348.908h32.682L455.922 333.7H423.24z" class="cls-4" transform="translate(-349.243 -333.7)"/>
                <path id="Path_1446" d="M433.775 348.908h32.682L455.922 333.7H423.24z" class="cls-6" transform="translate(-349.243 -333.7)"/>
                <path id="Rectangle_54" d="M0 0H49.941V17.675H0z" class="cls-8" transform="rotate(-5.88 328.93 -134.641)"/>
                <path id="Path_1447" d="M362.145 386.327a8.432 8.432 0 0 1 0 1.56 5.291 5.291 0 0 1-.312 1.486 4.584 4.584 0 0 1-.743 1.293 4.124 4.124 0 0 1-1.2 1.018 3.889 3.889 0 0 1-.394.208 4.735 4.735 0 0 1-.453.171l-.468.134a3.844 3.844 0 0 0-.438.074h-.178a.818.818 0 0 1-.193 0 .3.3 0 0 1-.156-.067.223.223 0 0 1-.074-.156.533.533 0 0 1 0-.186 1.477 1.477 0 0 1 .082-.193 1.065 1.065 0 0 1 .119-.178.551.551 0 0 1 .149-.119 1.01 1.01 0 0 1-.1-.327c-.045-.178-.089-.409-.134-.684s-.089-.587-.141-.936-.1-.7-.156-1.062-.1-.743-.141-1.1-.082-.7-.119-1.01-.067-.579-.1-.8-.045-.394-.052-.5c-.052-.461-.089-.914-.119-1.367s-.074-.9-.119-1.36a.387.387 0 0 1-.156 0 .134.134 0 0 1-.082-.126.371.371 0 0 1 .037-.223.55.55 0 0 1 .126-.186.692.692 0 0 1 .409-.2h.409a5.792 5.792 0 0 1 1.813.535 4.777 4.777 0 0 1 1.4 1.033 4.925 4.925 0 0 1 .951 1.486 6 6 0 0 1 .533 1.782zm-1.107 0a5.037 5.037 0 0 0-.319-1.367 4.262 4.262 0 0 0-.646-1.137 3.767 3.767 0 0 0-.973-.869 4.866 4.866 0 0 0-1.293-.565c.126 1.27.275 2.519.446 3.759s.364 2.489.579 3.715a3.833 3.833 0 0 0 .1.572c.03.193.074.371.119.55a2.772 2.772 0 0 0 1.092-.825 3.716 3.716 0 0 0 .639-1.166 5.462 5.462 0 0 0 .275-1.352 8.334 8.334 0 0 0-.019-1.315z" class="cls-7" transform="translate(-332.078 -345.985)"/>
                <path id="Path_1448" d="M369.8 385.086c0 .208.037.446.059.743s.037.565.037.877v.966a5.822 5.822 0 0 1-.111.966 4.9 4.9 0 0 1-.215.906 3.232 3.232 0 0 1-.364.743 2.035 2.035 0 0 1-.55.55 1.7 1.7 0 0 1-1.56.141 1.976 1.976 0 0 1-.661-.475 2.873 2.873 0 0 1-.416-.617 6.427 6.427 0 0 1-.349-.817 9.749 9.749 0 0 1-.3-.929c-.089-.319-.163-.639-.23-.958s-.119-.617-.163-.9-.074-.535-.1-.743c0-.364-.059-.743-.067-1.152a8.057 8.057 0 0 1 .052-1.2 7.552 7.552 0 0 1 .245-1.166 4.055 4.055 0 0 1 .49-1.04l.089-.141a1.35 1.35 0 0 1 .238-.238.231.231 0 0 1 .126-.052.216.216 0 0 1 .134 0 .312.312 0 0 1 .119.082 1.225 1.225 0 0 1 .312-.156 1.955 1.955 0 0 1 .349-.074 1.672 1.672 0 0 1 .951.156 2.117 2.117 0 0 1 .743.6 3.973 3.973 0 0 1 .505.892 8.253 8.253 0 0 1 .349 1.048c.089.357.156.7.208 1.04s.054.688.08.948zm-1.122.446a2.206 2.206 0 0 0-.067-.587c-.067-.26-.082-.55-.149-.862s-.134-.632-.215-.958a6.93 6.93 0 0 0-.3-.892 2.482 2.482 0 0 0-.4-.639.572.572 0 0 0-.49-.208.26.26 0 0 0-.193.119 1.429 1.429 0 0 0-.141.282c-.037.119-.074.238-.111.372l-.089.379-.1.334a.49.49 0 0 1-.1.208.142.142 0 0 1-.067.037h-.089a.55.55 0 0 1-.245 0 7.785 7.785 0 0 0-.067 1.01 6.58 6.58 0 0 0 .052 1.01l.067.468a4.038 4.038 0 0 0 .119.7c.052.26.1.542.163.847s.141.594.223.892.163.587.26.854a5.394 5.394 0 0 0 .312.743 1.969 1.969 0 0 0 .342.483.5.5 0 0 0 .386.149.3.3 0 0 0 .186-.082 1 1 0 0 0 .156-.149 1.762 1.762 0 0 0 .334-.557 4.337 4.337 0 0 0 .193-.743 7.414 7.414 0 0 0 .1-.84v-1.664a3.844 3.844 0 0 0-.082-.706z" class="cls-7" transform="translate(-334.224 -345.702)"/>
                <path id="Path_1449" d="M377.959 389.238a1.486 1.486 0 0 1 0 .26.631.631 0 0 1-.067.238.49.49 0 0 1-.149.178.512.512 0 0 1-.26.082.5.5 0 0 1-.327-.052.832.832 0 0 1-.253-.215 2.438 2.438 0 0 1-.3-.431c-.089-.171-.178-.342-.253-.52l-.223-.535c-.074-.178-.141-.342-.2-.5-.357-.795-.684-1.59-1-2.385s-.646-1.6-.988-2.392c.082 1.07.178 2.132.275 3.187s.2 2.117.3 3.18a1.342 1.342 0 0 1 0 .186 1.826 1.826 0 0 1 0 .2.423.423 0 0 1-.082.163.238.238 0 0 1-.163.089.743.743 0 0 1-.587-.149.8.8 0 0 1-.26-.557c-.141-1.374-.282-2.749-.416-4.1s-.267-2.719-.409-4.086l-.111-1.048a.6.6 0 0 1 .037-.29c0-.074.119-.126.26-.141a1.4 1.4 0 0 1 .3 0 1.019 1.019 0 0 1 .29.1.676.676 0 0 1 .223.186.654.654 0 0 1 .111.3 8.027 8.027 0 0 1 .639 1.159c.186.4.364.81.542 1.218l.743 1.776c.245.594.5 1.2.743 1.8l-.379-2.764c-.134-.929-.29-1.843-.476-2.756-.045-.2-.1-.394-.149-.579a3.724 3.724 0 0 1-.1-.587.2.2 0 0 1 .082-.215.453.453 0 0 1 .23-.082 1.737 1.737 0 0 1 .394 0 .609.609 0 0 1 .282.1.55.55 0 0 1 .193.215 1.786 1.786 0 0 1 .134.371c.059.26.111.527.156.795s.089.527.126.787c.111.646.215 1.3.3 1.947s.171 1.293.253 1.954.171 1.3.26 1.946.205 1.306.279 1.967z" class="cls-7" transform="translate(-336.198 -345.382)"/>
                <path id="Path_1450" d="M386.144 385.061a.587.587 0 0 1-.082.334.743.743 0 0 1-.215.275l-.119.059-.186.059-.186.052-.141.045.29 1.07c.089.334.163.669.223 1.01a5.2 5.2 0 0 0 .3.988.274.274 0 0 0 .037.082.261.261 0 0 1 0 .089.208.208 0 0 1-.037.156.386.386 0 0 1-.126.089l-.163.052h-.26a1.4 1.4 0 0 1-.357 0 .386.386 0 0 1-.2-.111.461.461 0 0 1-.111-.215 1.459 1.459 0 0 0-.089-.327q-.312-1.322-.669-2.652l-.906.2-.914.193-.093 1.491v1.285a.921.921 0 0 1-.059.312.364.364 0 0 1-.067.134.186.186 0 0 1-.134.052.816.816 0 0 1-.267 0 .905.905 0 0 1-.245-.1.846.846 0 0 1-.178-.186.594.594 0 0 1-.082-.26.994.994 0 0 1 0-.3 2.1 2.1 0 0 0 0-.3 6.2 6.2 0 0 1 .052-.981c.052-.327 0-.654.045-.973h-.119l-.134-.037a.393.393 0 0 1-.111-.059.149.149 0 0 1-.059-.1.216.216 0 0 1 .045-.141.631.631 0 0 1 .119-.126.744.744 0 0 1 .149-.111l.134-.082c0-.7.059-1.389.082-2.08s.037-1.389.037-2.1v-1.724a4.962 4.962 0 0 1 .052-.572 1 1 0 0 1 .178-.453.6.6 0 0 1 .438-.208h.178a.4.4 0 0 1 .156.037 1.188 1.188 0 0 1 .453.483 10.08 10.08 0 0 1 .513 1c.186.386.357.81.535 1.27s.334.906.483 1.337.275.817.386 1.166l.245.743.3-.067a2.176 2.176 0 0 1 .3-.052h.171a.742.742 0 0 1 .186 0 .408.408 0 0 1 .149.082.237.237 0 0 1 .067.186zm-2.318.178c-.2-.684-.409-1.36-.632-2.028s-.468-1.337-.743-2c0 .743 0 1.486-.059 2.229s-.067 1.486-.1 2.229l.743-.208z" class="cls-7" transform="translate(-338.328 -345.314)"/>
                <path id="Path_1451" d="M391.355 378.307a.661.661 0 0 1-.111.453.743.743 0 0 1-.379.267 4.019 4.019 0 0 1-.84.178l-.847.111.156 1.486c.126 1.233.29 2.459.49 3.715s.453 2.437.743 3.655l.067.215a1.015 1.015 0 0 1 .052.215.364.364 0 0 1-.067.267.424.424 0 0 1-.253.111h-.334a.959.959 0 0 1-.312-.074.4.4 0 0 1-.208-.156.8.8 0 0 1-.089-.238 10.348 10.348 0 0 1-.215-1.04l-.178-1.033q-.2-1.114-.379-2.229c-.119-.743-.208-1.486-.282-2.229-.045-.409-.082-.81-.119-1.218s-.074-.81-.119-1.226l-.906.178a7.887 7.887 0 0 1-.921.141.26.26 0 0 1-.186-.037.186.186 0 0 1-.089-.156.52.52 0 0 1 .126-.416.906.906 0 0 1 .386-.245 5.127 5.127 0 0 1 .743-.186l.743-.149a1.045 1.045 0 0 1 0-.149.654.654 0 0 1 0-.126.312.312 0 0 1 .067-.1.349.349 0 0 1 .149-.052 1.04 1.04 0 0 1 .364.045.669.669 0 0 1 .312.2l1.211-.26.349-.082a2.637 2.637 0 0 1 .349-.067h.156a.282.282 0 0 1 .141 0 .245.245 0 0 1 .111.082.468.468 0 0 1 .119.149z" class="cls-7" transform="translate(-339.676 -345.105)"/>
                <path id="Path_1452" d="M399.7 386.178a.372.372 0 0 1-.074.253 1.628 1.628 0 0 1-.215.253 1.982 1.982 0 0 1-.267.23l-.223.178c-.156.126-.312.245-.468.349a3.245 3.245 0 0 1-.483.3 2.646 2.646 0 0 1-.52.215 2.368 2.368 0 0 1-.572.119h-.119a2.109 2.109 0 0 1-.483 0 1.663 1.663 0 0 1-.468-.119 1.692 1.692 0 0 1-.394-.253 1.344 1.344 0 0 1-.3-.4 2.8 2.8 0 0 1-.149-.461c-.045-.178-.082-.371-.111-.565s-.067-.386-.089-.572-.052-.357-.074-.505c-.23-1.486-.438-2.972-.639-4.458a4.062 4.062 0 0 0-.074-.513c-.022-.171-.045-.342-.059-.513a3.934 3.934 0 0 1 0-.743 1.129 1.129 0 0 1 .156-.527.869.869 0 0 1 .416-.334 2.518 2.518 0 0 1 .743-.163l.958-.1.973-.089a.659.659 0 0 0 .29-.045.994.994 0 0 1 .3 0 .535.535 0 0 1 .163 0c.045 0 .074.059.082.134a.468.468 0 0 1-.141.416.943.943 0 0 1-.4.215 2.681 2.681 0 0 1-.5.089l-.431.045-.958.1h-.29a.675.675 0 0 0-.3.045 1.218 1.218 0 0 0 0 .238v.245c.052.535.119 1.055.2 1.575s.163 1.04.238 1.575c.3-.052.6-.119.9-.178l.892-.215h.238a.23.23 0 0 1 .223.059.327.327 0 0 1 .089.223 1.757 1.757 0 0 1 0 .193.5.5 0 0 1 0 .178.364.364 0 0 1-.149.23.742.742 0 0 1-.253.119 2.008 2.008 0 0 1-.3.059h-.275l-.6.082-.6.082a3.565 3.565 0 0 0 .074.468c.037.208.059.431.1.691s.074.52.126.795.089.527.134.743.089.453.126.632a1.7 1.7 0 0 0 .119.364.379.379 0 0 0 .2.178.542.542 0 0 0 .275 0 1.865 1.865 0 0 0 .565-.163 4.335 4.335 0 0 0 .565-.334 5.639 5.639 0 0 0 .505-.424 3.712 3.712 0 0 0 .416-.438c.052-.045.1-.1.149-.149a.29.29 0 0 1 .186-.089.379.379 0 0 1 .215.045.936.936 0 0 1 .208.141 1.331 1.331 0 0 1 .149.208.616.616 0 0 1 .005.286z" class="cls-7" transform="translate(-341.702 -345.012)"/>
                <path id="Rectangle_55" d="M0 0H14.109V3.031H0z" class="cls-3" transform="rotate(-42.97 55.308 2.986)"/>
                <path id="Rectangle_56" d="M0 0H14.109V3.031H0z" class="cls-3" transform="rotate(-42.97 89.904 -50.692)"/>
                <path id="Rectangle_57" d="M0 0H14.109V3.031H0z" class="cls-3" transform="rotate(-148.8 38.8 7.865)"/>
                <path id="Rectangle_58" d="M0 0H14.109V3.031H0z" class="cls-3" transform="rotate(-148.8 20.313 23.18)"/>
            </g>
        </g>
    </g>
</svg>
