<svg xmlns="http://www.w3.org/2000/svg" width="544.171" height="550.394" viewBox="0 0 544.171 550.394">
    <defs>
        <style>
            .cls-1{fill:#e0e0e0}.cls-2{fill:#ebebeb}.cls-3{fill:#f5f5f5}.cls-4{fill:#fafafa}.cls-5{fill:#263238}.cls-6{fill:#ffbe9d}.cls-7{fill:#eb996e}.cls-8{fill:#fff24f}.cls-9{fill:#455a64}.cls-10{opacity:.6}.cls-11{fill:#fff}.cls-12{opacity:.3}.cls-13{fill:#db8a76}.cls-14{fill:#a45b4a}
        </style>
    </defs>
    <g id="Parents-pana_1_" transform="translate(-15.53 -27.376)">
        <g id="freepik--background-complete--inject-385" transform="translate(15.53 27.376)">
            <path id="Path_776" d="M313.16 376.05L284.8 499.221l11.984-.024 28.433-121.979z" class="cls-1" transform="translate(42.801 48.156)"/>
            <path id="Path_777" d="M350.65 376.05l28.469 123.171h11.388L362.962 376.05z" class="cls-1" transform="translate(57.065 48.156)"/>
            <path id="Path_778" d="M292.37 300.02l16.157 84.8h18.359l-17.252-84.8z" class="cls-1" transform="translate(44.44 31.686)"/>
            <path id="Path_779" d="M65.258 376.05L42.13 499.221h11.777L78.069 376.05z" class="cls-1" transform="translate(-9.768 48.156)"/>
            <path id="Path_780" d="M101.14 376.05l26.449 122.5h11.631l-25.537-122.5z" class="cls-1" transform="translate(3.015 48.156)"/>
            <path id="Path_781" d="M45.41 300.02l16.145 84.8h18.358l-17.252-84.8z" class="cls-1" transform="translate(-9.057 31.686)"/>
            <path id="Path_782" d="M15.53 293.68l3.309 15.415H387.4l-4.3-15.415z" class="cls-2" transform="translate(-15.53 30.312)"/>
            <path id="Path_783" d="M21.32 318.29l3.893 15.41h366.07l-3.333-15.41z" class="cls-2" transform="translate(-14.276 35.644)"/>
            <path id="Path_784" d="M27.3 343.77l3.626 15.415h364.938l-3.455-15.415z" class="cls-2" transform="translate(-12.98 41.163)"/>
            <path id="Rectangle_42" d="M0 0H393.517V15.415H0z" class="cls-2" transform="translate(42.217 416.505)"/>
            <path id="Path_785" d="M409.9 370.968c-25.549-6.667-47.8-23.444-60.211-45.307a87.22 87.22 0 0 1-6.314-71.976c6.582-18.249 19.247-34.43 24.685-53.057 6.168-21.157 2.494-43.592-1.314-65.223s-7.689-44.005-1.91-65.235 23.992-41.195 47.448-42.7c21.717-1.4 41.779 13.626 50.843 32.119s9.112 39.674 7 59.919-6.241 40.441-4.939 60.734c2.628 41.085 27.265 79.762 24.332 120.835-1.509 21.388-10.366 35.075-25.549 51.1-13.079 13.87-34.808 22.982-54.067 18.736" class="cls-3" transform="translate(54.411 -27.376)"/>
            <path id="Path_786" d="M403.564 549.51c-.231 0-.414-91.016-.414-203.261s.182-203.3.414-203.3.414 91 .414 203.3-.195 203.261-.414 203.261z" class="cls-1" transform="translate(68.438 -2.339)"/>
            <path id="Path_787" d="M406.77 255.706a30.475 30.475 0 0 1-3.747-3.309c-2.239-2.117-5.28-5.11-8.516-8.516s-6.144-6.436-8.273-8.65a31.412 31.412 0 0 1-3.334-3.65 31.021 31.021 0 0 1 3.759 3.309c2.226 2.117 5.268 5.11 8.516 8.516s6.083 6.436 8.273 8.65a31.412 31.412 0 0 1 3.322 3.65z" class="cls-1" transform="translate(64.052 16.86)"/>
            <path id="Rectangle_43" d="M0 0H135.946V16.607H0z" class="cls-1" transform="translate(405.173 530.296)"/>
            <path id="Path_788" d="M404.62 185.253a28.055 28.055 0 0 0 8.3-3.455 22.983 22.983 0 0 0 6.667-6.7 22.422 22.422 0 0 0 3.65-10.621v-.365l.474.4a17.872 17.872 0 0 0-10.013 5.5 37.9 37.9 0 0 0-5.572 7.482c-1.338 2.3-2.275 4.222-2.92 5.56a14.06 14.06 0 0 1-1.034 2.068 11.178 11.178 0 0 1 .742-2.178 51.229 51.229 0 0 1 2.7-5.694 35.842 35.842 0 0 1 5.523-7.713 18.432 18.432 0 0 1 10.451-5.791l.511-.073v.852a23.116 23.116 0 0 1-10.779 17.714 20.975 20.975 0 0 1-6.18 2.628 16.719 16.719 0 0 1-1.813.341 2.433 2.433 0 0 1-.707.045z" class="cls-1" transform="translate(68.659 2.149)"/>
            <path id="Path_789" d="M404.542 183.846c-.182-.134 2.372-3.309 5.694-7.081s6.083-6.728 6.326-6.594-2.372 3.3-5.694 7.081-6.156 6.727-6.326 6.594z" class="cls-1" transform="translate(68.738 3.556)"/>
            <path id="Path_790" d="M287.967 62.771c.718-5.207-6.631-9.49-12.166-9.928-2.64-.219-5.365.182-7.859-.681-5.4-1.886-7.567-8.869-12.835-11.083-3.942-1.667-8.516-.182-12.3 1.74s-7.507 4.4-11.838 4.611c-3.711.243-7.75-1.131-10.95.681-2.433 1.35-3.65 4.137-5.925 5.779s-5.025 1.947-7.738 2.1-5.511.17-7.981 1.3-4.5 3.735-3.991 6.4z" class="cls-4" transform="translate(23.197 -24.564)"/>
            <path id="Path_791" d="M294.2 130.24c.742-5.4-6.874-9.842-12.592-10.3-2.737-.219-5.572.195-8.151-.706-5.609-1.947-7.847-9.186-13.31-11.5-4.088-1.715-8.8-.182-12.762 1.813s-7.872 4.5-12.3 4.781c-3.857.243-8.03-1.217-11.4.706-2.518 1.4-3.832 4.295-6.083 6s-5.219 2.02-8.03 2.178-5.718.182-8.273 1.35-4.672 3.881-4.137 6.643z" class="cls-2" transform="translate(23.799 -10.129)"/>
            <path id="Path_792" d="M166 95.538c.9-6.618-8.431-12.069-15.463-12.641-3.346-.268-6.825.243-9.988-.864-6.874-2.433-9.624-11.266-16.327-14.1-5.012-2.1-10.779-.231-15.646 2.214s-9.66 5.523-15.086 5.876c-4.72.3-9.855-1.448-13.991.852-3.078 1.728-4.684 5.268-7.531 7.3s-6.4 2.433-9.842 2.677-7.008.219-10.147 1.655-5.73 4.757-5.073 8.139z" class="cls-3" transform="translate(-8.755 -18.788)"/>
        </g>
        <g id="freepik--Characters--inject-385" transform="translate(57.418 90.509)">
            <path id="Path_793" d="M243.982 296.224a5.2 5.2 0 0 1-5.377 2.348 14.284 14.284 0 0 1-5.657-2.567c-1.728-1.131-3.65-2.591-3.65-4.647a10.293 10.293 0 0 1 .8-3.309c1-3.346.134-6.923-.487-10.353a47.157 47.157 0 0 1-.146-18.371 27.605 27.605 0 0 1 9.125-15.682 28.87 28.87 0 0 1 11.655-5.475c7.056-1.655 14.77-1.217 21.181 2.117s11.29 9.988 11.607 17.227c.231 5.2-1.5 11.315 2.178 15 1.119 1.107 2.6 1.8 3.65 2.932 2.433 2.543 2.433 6.862.45 9.83a14.527 14.527 0 0 1-8.711 5.645 24.71 24.71 0 0 1-13.14-.17" class="cls-5" transform="translate(-11.254 -45.049)"/>
            <path id="Path_794" d="M272.915 265.568a8.334 8.334 0 0 1 2.251 5.025 20.137 20.137 0 0 0 1.217 5.463 4.66 4.66 0 0 0 4.355 2.956 17.288 17.288 0 0 1-18.614 6.9l-.693-21.96" class="cls-5" transform="translate(-4.15 -39.261)"/>
            <path id="Path_795" d="M232.738 259.692c.365-7.4 8.224-14.9 15.609-14.234l23.98 4.2v3.991l-.754 49.31s-1.825 15.926-15.256 15.208c-12.057-.633-11.582-13.383-11.582-13.383l.231-9.3s-9.733-.255-11.874-12.556c-1.092-6.118-.744-15-.354-23.236z" class="cls-6" transform="translate(-10.448 -43.276)"/>
            <path id="Path_796" d="M234.435 265.364c.207.207 1.387-.706 3.09-.718s2.956.8 3.139.6-.109-.462-.657-.852a4.307 4.307 0 0 0-2.518-.73 4.149 4.149 0 0 0-2.433.827c-.548.409-.719.8-.621.873z" class="cls-5" transform="translate(-10.004 -39.324)"/>
            <path id="Path_797" d="M247.825 265.236c.207.195 1.387-.706 3.09-.73s2.956.815 3.139.608-.109-.462-.657-.852a4.391 4.391 0 0 0-2.518-.742 4.149 4.149 0 0 0-2.433.839c-.546.402-.719.779-.621.877z" class="cls-5" transform="translate(-7.103 -39.354)"/>
            <path id="Path_798" d="M244.135 274.14a12.868 12.868 0 0 0-2.774-.4c-.438 0-.852-.1-.925-.353a1.9 1.9 0 0 1 .255-1.095l1.217-2.81c1.691-4 2.908-7.3 2.713-7.361a44.734 44.734 0 0 0-3.358 7.154c-.414.986-.8 1.922-1.217 2.823a1.837 1.837 0 0 0-.195 1.448 1.059 1.059 0 0 0 .73.535 3.459 3.459 0 0 0 .73.085 13 13 0 0 0 2.824-.026z" class="cls-5" transform="translate(-8.84 -39.657)"/>
            <path id="Path_799" d="M242.64 287.458a31.377 31.377 0 0 0 16.449-4.648s-4.1 8.675-16.449 7.7z" class="cls-7" transform="translate(-8.221 -35.175)"/>
            <path id="Path_800" d="M248.083 271.57c-.28 0-.256 1.837-1.813 3.175s-3.528 1.156-3.54 1.411.438.353 1.277.365a4.635 4.635 0 0 0 2.956-1.083 3.99 3.99 0 0 0 1.4-2.652c.061-.778-.146-1.228-.28-1.216z" class="cls-5" transform="translate(-8.201 -37.61)"/>
            <path id="Path_801" d="M247.644 259.367c.231.584 1.886.122 3.905.231s3.65.657 3.905.085c.1-.28-.243-.827-.961-1.35a5.548 5.548 0 0 0-2.993-1.022 5.012 5.012 0 0 0-2.956.779c-.693.45-1.01.961-.9 1.277z" class="cls-5" transform="translate(-7.141 -40.701)"/>
            <path id="Path_802" d="M234.508 259.235c.353.6 1.91.1 3.747.17s3.37.584 3.759 0c.182-.28 0-.864-.681-1.436a4.939 4.939 0 0 0-6.083-.146c-.657.56-.9 1.132-.742 1.412z" class="cls-5" transform="translate(-9.992 -40.8)"/>
            <path id="Path_803" d="M264.605 264.065c.231-.1 9.417-2.567 8.918 6.74s-9.733 6.9-9.733 6.631.815-13.371.815-13.371z" class="cls-6" transform="translate(-3.639 -39.316)"/>
            <path id="Path_804" d="M265.6 273.485a2.332 2.332 0 0 0 .426.268 1.642 1.642 0 0 0 1.217.085c1-.3 1.91-1.825 2.044-3.492a5.256 5.256 0 0 0-.328-2.348 1.837 1.837 0 0 0-1.156-1.314.815.815 0 0 0-.973.389c-.146.255-.1.45-.146.462s-.195-.17-.1-.547a1 1 0 0 1 .4-.56 1.217 1.217 0 0 1 .912-.195 2.287 2.287 0 0 1 1.618 1.533 5.45 5.45 0 0 1 .414 2.628c-.158 1.874-1.217 3.577-2.579 3.893a1.74 1.74 0 0 1-1.46-.328c-.276-.243-.312-.45-.289-.474z" class="cls-7" transform="translate(-3.248 -38.771)"/>
            <path id="Path_805" d="M240.423 245.081c.62-2.543 3.419-3.577 5.84-4.076 5.11-1.071 10.426-1.642 15.5-.377a17.824 17.824 0 0 1 12.166 9.611c2.555 5.767 1.35 12.531.085 18.773l-3.334-.061c-1.277 5.244-7.811 4.562-8.954-1.971-.414-2.348-1.363-4.927-3.248-6.266a8.2 8.2 0 0 0-3.869-1A17.544 17.544 0 0 1 241.056 249a6.473 6.473 0 0 1-.633-3.919z" class="cls-5" transform="translate(-8.717 -44.469)"/>
            <path id="Path_806" d="M271.114 250.264c-.572-.827.365-1.849 1.217-2.36a14.465 14.465 0 0 1 7.932-2.433 7.762 7.762 0 0 1 6.777 4.295 10.146 10.146 0 0 1 .73 3.577 7.8 7.8 0 0 1-.742 4.5 6.655 6.655 0 0 1-4.793 2.8 9.538 9.538 0 0 1-3.978-.158c-3.905-1.071-6.278-4.866-8.285-8.407" class="cls-5" transform="translate(-2.3 -43.264)"/>
            <path id="Path_807" d="M252.442 259.324c0 .414-1.217.827-3.394.766a8.517 8.517 0 0 1-3.845-1.107 9.527 9.527 0 0 1-1.874-1.472 12.229 12.229 0 0 1-1.606-1.947 13.505 13.505 0 0 1-1.642-4.428 18.7 18.7 0 0 1-.341-3.65c0-2.068.389-3.334.815-3.346s.864 1.217 1.4 3.042c.28.937.572 2.032.961 3.212a16.449 16.449 0 0 0 1.484 3.455 13.583 13.583 0 0 0 1.217 1.5 10.949 10.949 0 0 0 1.217 1.217 9.32 9.32 0 0 0 2.64 1.338c1.739.568 3.004.969 2.968 1.42z" class="cls-5" transform="translate(-8.849 -43.552)"/>
            <path id="Path_808" d="M273.664 258.941c-.085 0 .122-.681.182-1.764a19.888 19.888 0 0 0-.146-4.222 16.461 16.461 0 0 0-1.363-3.966c-.462-1.01-.73-1.642-.645-1.679s.474.511 1.034 1.472a12.166 12.166 0 0 1 1.606 4.076 14.771 14.771 0 0 1 0 4.38 3.139 3.139 0 0 1-.668 1.703z" class="cls-8" transform="translate(-1.931 -42.866)"/>
            <path id="Path_809" d="M286.257 251.649a12.085 12.085 0 0 0-1.655-.937 10.135 10.135 0 0 0-4.526-.377 63.486 63.486 0 0 0-6.5 1.217 13.858 13.858 0 0 1 6.448-1.825 9.088 9.088 0 0 1 4.757.6c1.209.543 1.586 1.297 1.476 1.322z" class="cls-9" transform="translate(-1.518 -42.362)"/>
            <path id="Path_810" d="M280.263 256.645a1.5 1.5 0 0 1-.487.085c-.328 0-.8.085-1.423.1a10.037 10.037 0 0 1-5.1-1.058 11.4 11.4 0 0 1-2.762-2.433c-.852-.961-1.74-2.02-2.664-3.139a51.016 51.016 0 0 0-6.424-6.777 17.033 17.033 0 0 0-8.224-3.966 13.1 13.1 0 0 0-7.3 1.131 13.651 13.651 0 0 0-4.124 2.956c-.827.888-1.217 1.46-1.217 1.423a1.713 1.713 0 0 1 .231-.438 9.211 9.211 0 0 1 .839-1.144 12.787 12.787 0 0 1 4.112-3.2 13.224 13.224 0 0 1 7.543-1.265 17.5 17.5 0 0 1 8.516 4.064 47.692 47.692 0 0 1 6.472 6.9c1.861 2.2 3.37 4.4 5.2 5.5a10.4 10.4 0 0 0 4.867 1.217 18.356 18.356 0 0 1 1.947.049z" class="cls-9" transform="translate(-8.676 -44.706)"/>
            <path id="Path_811" d="M234.34 377.567s4.7 32.654 5.657 47.947c1.217 19.734 8.31 50.977 8.31 50.977h18.712l.353-73.971 16.668 72.012 21.437-1.934-7.945-79.786L295 372.7z" class="cls-5" transform="translate(-10.019 -15.703)"/>
            <path id="Path_812" d="M271.167 479.648l-1.29-33.968-24 .706s3.139 22.617 2.616 24.442c-2.19 7.616-13.249 8.005-13.249 8.005-6.083.061-5.11 5.4-5.11 5.4l41.365-.292z" class="cls-8" transform="translate(-10.943 .106)"/>
            <path id="Path_813" d="M256.58 465.211a24.855 24.855 0 0 1-.146-3.991 23.12 23.12 0 0 1 .17-3.99 50.415 50.415 0 0 1 0 7.981z" class="cls-4" transform="translate(-5.238 2.608)"/>
            <path id="Path_814" d="M260.467 460.67a16.761 16.761 0 0 1-3.394 0 17.874 17.874 0 0 1-3.382-.28 36.387 36.387 0 0 1 6.777.243z" class="cls-4" transform="translate(-5.827 3.28)"/>
            <path id="Path_815" d="M259.624 458.81a19.171 19.171 0 0 1-2.652 2.433 21.3 21.3 0 0 1-2.872 2.157 19.775 19.775 0 0 1 2.664-2.433 20.785 20.785 0 0 1 2.859-2.153z" class="cls-4" transform="translate(-5.738 2.951)"/>
            <path id="Path_816" d="M259.369 464.148a3.882 3.882 0 0 1-.852-.827c-.487-.548-1.119-1.326-1.776-2.214s-1.217-1.74-1.594-2.36a4.1 4.1 0 0 1-.548-1.046 4.865 4.865 0 0 1 .742.925c.414.584 1 1.4 1.655 2.287s1.217 1.679 1.7 2.263a5.756 5.756 0 0 1 .669.973z" class="cls-4" transform="translate(-5.63 2.71)"/>
            <path id="Path_817" d="M250.03 457.111a24.851 24.851 0 0 1-.146-3.99 23.032 23.032 0 0 1 .17-3.991 24.729 24.729 0 0 1 .146 3.991 23.113 23.113 0 0 1-.17 3.99z" class="cls-4" transform="translate(-6.657 .854)"/>
            <path id="Path_818" d="M253.917 452.572a17.906 17.906 0 0 1-3.394 0 19.332 19.332 0 0 1-3.382-.28 33.812 33.812 0 0 1 6.777.243z" class="cls-4" transform="translate(-7.246 1.523)"/>
            <path id="Path_819" d="M253.073 450.71a19.178 19.178 0 0 1-2.652 2.433 18.727 18.727 0 0 1-2.871 2.141 20.686 20.686 0 0 1 2.664-2.433 19.735 19.735 0 0 1 2.859-2.141z" class="cls-4" transform="translate(-7.157 1.196)"/>
            <path id="Path_820" d="M252.849 456.068a4.3 4.3 0 0 1-.852-.827c-.475-.547-1.119-1.326-1.776-2.214s-1.217-1.74-1.594-2.36a4.1 4.1 0 0 1-.548-1.046 9.53 9.53 0 0 1 .742.912c.426.584 1 1.411 1.655 2.3s1.217 1.679 1.7 2.263a4.245 4.245 0 0 1 .669.973z" class="cls-4" transform="translate(-7.042 .96)"/>
            <path id="Path_821" d="M250.952 476.871a25.648 25.648 0 0 1-.158-3.99 23.836 23.836 0 0 1 .182-3.991 50.418 50.418 0 0 1 0 7.981z" class="cls-4" transform="translate(-6.459 5.134)"/>
            <path id="Path_822" d="M254.837 472.328a36.382 36.382 0 0 1-6.777-.243 17.263 17.263 0 0 1 3.394 0 18.451 18.451 0 0 1 3.382.243z" class="cls-4" transform="translate(-7.047 5.808)"/>
            <path id="Path_823" d="M253.983 470.47a19.178 19.178 0 0 1-2.652 2.433 19.463 19.463 0 0 1-2.871 2.141 19.769 19.769 0 0 1 2.664-2.433 19 19 0 0 1 2.859-2.141z" class="cls-4" transform="translate(-6.96 5.476)"/>
            <path id="Path_824" d="M253.727 475.828a4.951 4.951 0 0 1-.839-.827c-.487-.548-1.119-1.326-1.776-2.214s-1.217-1.74-1.594-2.36a4.1 4.1 0 0 1-.547-1.046 4.38 4.38 0 0 1 .742.925c.414.584 1 1.4 1.655 2.287s1.217 1.679 1.7 2.263a3.919 3.919 0 0 1 .657.973z" class="cls-4" transform="translate(-6.849 5.24)"/>
            <path id="Path_825" d="M301.577 479.4l-1.29-33.968-26.06.766s5.183 22.568 4.672 24.332c-2.19 7.616-13.249 8.005-13.249 8.005-6.083.061-5.11 5.4-5.11 5.4l41.365-.292z" class="cls-8" transform="translate(-4.356 .052)"/>
            <path id="Path_826" d="M278.782 457.021a25.649 25.649 0 0 1-.158-3.991 23.832 23.832 0 0 1 .182-3.991 50.419 50.419 0 0 1 0 7.981z" class="cls-4" transform="translate(-.43 .834)"/>
            <path id="Path_827" d="M282.667 452.478a36.387 36.387 0 0 1-6.777-.243 17.263 17.263 0 0 1 3.394 0 18.45 18.45 0 0 1 3.383.243z" class="cls-4" transform="translate(-1.018 1.508)"/>
            <path id="Path_828" d="M281.823 450.62a19.167 19.167 0 0 1-2.652 2.433 19.459 19.459 0 0 1-2.871 2.141 39.883 39.883 0 0 1 5.524-4.538z" class="cls-4" transform="translate(-.929 1.176)"/>
            <path id="Path_829" d="M281.557 455.978a4.951 4.951 0 0 1-.84-.827c-.487-.548-1.119-1.326-1.776-2.214s-1.217-1.74-1.594-2.36a4.1 4.1 0 0 1-.548-1.046 4.38 4.38 0 0 1 .742.925c.414.584 1 1.4 1.655 2.287s1.217 1.679 1.7 2.263a3.918 3.918 0 0 1 .657.973z" class="cls-4" transform="translate(-.821 .94)"/>
            <path id="Path_830" d="M288.46 465.991a24.733 24.733 0 0 1-.146-3.991 23.116 23.116 0 0 1 .17-3.99 24.855 24.855 0 0 1 .146 3.99 22.912 22.912 0 0 1-.17 3.991z" class="cls-4" transform="translate(1.668 2.777)"/>
            <path id="Path_831" d="M292.347 461.448a33.807 33.807 0 0 1-6.777-.243 18.039 18.039 0 0 1 3.394 0 19.169 19.169 0 0 1 3.382.243z" class="cls-4" transform="translate(1.079 3.452)"/>
            <path id="Path_832" d="M291.5 459.59a19.173 19.173 0 0 1-2.652 2.433 20.471 20.471 0 0 1-2.871 2.153 20.686 20.686 0 0 1 2.664-2.433 21.672 21.672 0 0 1 2.859-2.154z" class="cls-4" transform="translate(1.168 3.12)"/>
            <path id="Path_833" d="M291.249 464.948a3.88 3.88 0 0 1-.852-.827c-.475-.547-1.119-1.314-1.776-2.214s-1.217-1.728-1.594-2.36a4.1 4.1 0 0 1-.547-1.046 4.343 4.343 0 0 1 .742.925c.426.584 1 1.4 1.655 2.287s1.217 1.691 1.7 2.263a4.963 4.963 0 0 1 .672.972z" class="cls-4" transform="translate(1.276 2.883)"/>
            <path id="Path_834" d="M281.422 477.113a25.642 25.642 0 0 1-.158-3.991 23.921 23.921 0 0 1 .182-4 50.571 50.571 0 0 1-.024 7.993z" class="cls-4" transform="translate(.142 5.184)"/>
            <path id="Path_835" d="M285.307 472.575a17.906 17.906 0 0 1-3.394 0 17.245 17.245 0 0 1-3.382-.292 19.209 19.209 0 0 1 3.394 0 17.251 17.251 0 0 1 3.382.292z" class="cls-4" transform="translate(-.446 5.853)"/>
            <path id="Path_836" d="M284.464 470.71a20.121 20.121 0 0 1-2.652 2.433 19.465 19.465 0 0 1-2.871 2.141 19.769 19.769 0 0 1 2.664-2.433 19 19 0 0 1 2.859-2.141z" class="cls-4" transform="translate(-.357 5.528)"/>
            <path id="Path_837" d="M284.2 476.056a7.524 7.524 0 0 1-.839-.827 27.828 27.828 0 0 1-1.776-2.214c-.669-.888-1.217-1.728-1.594-2.348a4.342 4.342 0 0 1-.547-1.046 9.526 9.526 0 0 1 .742.912c.426.584 1 1.411 1.655 2.3s1.217 1.679 1.7 2.251a4.51 4.51 0 0 1 .657.973z" class="cls-4" transform="translate(-.249 5.292)"/>
            <path id="Path_838" d="M265.457 472.7a4.426 4.426 0 0 1-1.119.389A5.208 5.208 0 0 0 262 474.5a5.147 5.147 0 0 0-1.217 2.433 9.165 9.165 0 0 1-.231 1.156c-.073 0-.182-.45-.109-1.217a4.745 4.745 0 0 1 1.217-2.7 4.793 4.793 0 0 1 2.6-1.411c.734-.148 1.197-.123 1.197-.061z" class="cls-5" transform="translate(-4.369 5.949)"/>
            <path id="Path_839" d="M230.238 302.806a7.093 7.093 0 0 0-11.959 2.689 7.884 7.884 0 0 0-10.451-4.794c-2.616-3.163-6.764-4.55-10.694-5.779a10.78 10.78 0 0 0-5.4-.718c-2.531.56-4.258 2.81-5.767 4.866-2.567 3.553-5.207 7.3-5.56 11.7s2.628 9.307 7 9.392a7.434 7.434 0 0 0 11.461 6.3 10.1 10.1 0 0 0 13.833 3.151 7.762 7.762 0 0 0 11.181 2.81c3.747 3.553 16.473 2.81 19.575-1.314l7.3-33.311c-4.569-2.255-18.366.361-20.519 5.008z" class="cls-9" transform="translate(-21.708 -32.725)"/>
            <path id="Path_840" d="M218.113 327.865a4.223 4.223 0 0 1-.243-1.071c-.122-.693-.231-1.7-.316-2.969a43.969 43.969 0 0 1 3.224-19.308c.487-1.156.925-2.08 1.217-2.7a4.453 4.453 0 0 1 .572-.937c.1 0-.56 1.46-1.423 3.808a51.865 51.865 0 0 0-3.188 19.125c.036 2.494.157 4.04.157 4.052z" class="cls-5" transform="translate(-13.672 -31.261)"/>
            <path id="Path_841" d="M208.381 321.628a8.516 8.516 0 0 1 0-2.8 47.849 47.849 0 0 1 1.058-6.643 54.084 54.084 0 0 1 1.825-6.485 9.184 9.184 0 0 1 1.217-2.543 19.094 19.094 0 0 1-.73 2.689c-.474 1.642-1.058 3.93-1.63 6.472s-1 4.866-1.217 6.558a23.189 23.189 0 0 1-.523 2.75z" class="cls-5" transform="translate(-15.667 -30.767)"/>
            <path id="Path_842" d="M196.14 319.379a11.291 11.291 0 0 1 .45-3.151 58.222 58.222 0 0 1 2.239-7.3 37.424 37.424 0 0 1 3.346-6.935 7.519 7.519 0 0 1 2.08-2.433c.073.073-.754.961-1.7 2.652a51.1 51.1 0 0 0-3.127 6.923c-1.046 2.786-1.861 5.353-2.433 7.3a24.5 24.5 0 0 1-.852 2.944z" class="cls-5" transform="translate(-18.294 -31.547)"/>
            <path id="Path_843" d="M280.887 290.052s-.073-6.631-3.431-7.543-8.906.62-12.166 1.849c-5.669 2.129-15.159 3.553-20.841 5.682-2.433.925-3.37 1.509-4.368 3.65-.693 1.46.742 5.913.742 5.913-2.336-.56-7.215 3.224-9.344 6.339-2.263 3.309-3.212 7.3-.134 9.9-4.173 4.222-4.867 12.166-2.8 17.726.706 1.849 1.618 1.642 1.764 3.65.182 2.433-1.29 4.2-1.752 6.582-.693 3.65.9 10.025 3.5 12.616a15.877 15.877 0 0 0-1.156 21.06c-1.934 3.455-3.918 7.008-4.465 10.95s.633 8.346 3.905 10.56c2.725 1.849 6.253 1.837 9.551 1.764l51.475-1.217c2.226 0 4.611-.146 6.448-1.411 2.713-1.874 3.309-5.572 3.65-8.845.572-5.2.718-11.412-3.48-14.5a17.58 17.58 0 0 0-1.131-19.9c2.75-2.117 3.066-6.144 2.531-9.575s-1.679-6.9-.973-10.293c.462-2.2 1.667-4.185 2.044-6.4.511-2.908-.462-5.864-.718-8.808-.353-4.027.62-8.091.243-12.166s-4.66-13.091-8.675-13.651c.02-.063-6.173-6.292-10.419-3.932z" class="cls-9" transform="translate(-11.757 -35.3)"/>
            <path id="Path_844" d="M297.507 358.69a9.732 9.732 0 0 1-2.056 1.715 14.719 14.719 0 0 1-2.823 1.448 22.91 22.91 0 0 1-4.039 1.1 62.476 62.476 0 0 1-10.84.6h-13.274c-9.429-.109-17.957-.5-24.114-1.046-3.078-.268-5.56-.547-7.3-.766l-1.959-.28a4.256 4.256 0 0 1-.693-.122 4.856 4.856 0 0 1 .693 0l1.983.195c1.715.158 4.21.389 7.3.608 6.156.474 14.672.815 24.089.912l13.273.085a65.077 65.077 0 0 0 10.791-.5 22.256 22.256 0 0 0 4-1.022 15.211 15.211 0 0 0 2.81-1.35 26.279 26.279 0 0 0 2.159-1.577z" class="cls-5" transform="translate(-10.87 -18.738)"/>
            <path id="Path_845" d="M295.75 342a3.427 3.427 0 0 1-.633.207l-1.837.5c-.8.219-1.788.474-2.932.73s-2.433.572-3.918.839-3.054.6-4.769.852-3.577.523-5.523.779c-3.893.438-8.2.779-12.726.888a123.188 123.188 0 0 1-12.762-.316c-1.959-.17-3.82-.3-5.548-.523s-3.346-.426-4.806-.645-2.8-.462-3.954-.669-2.153-.4-2.956-.584l-1.874-.426a3.8 3.8 0 0 1-.633-.17 2.666 2.666 0 0 1 .657.085l1.874.328c.815.158 1.813.341 2.981.523s2.433.414 3.942.6 3.078.414 4.806.584 3.65.328 5.536.487c3.905.243 8.212.365 12.726.28s8.808-.438 12.689-.852c1.947-.243 3.8-.45 5.511-.73s3.321-.535 4.769-.8 2.774-.547 3.918-.779 2.141-.45 2.944-.645l1.861-.426a4.6 4.6 0 0 1 .657-.109z" class="cls-5" transform="translate(-10.768 -22.353)"/>
            <path id="Path_846" d="M278.314 288.66a1.508 1.508 0 0 1-.377.182l-1.107.475c-.973.389-2.433.937-4.161 1.569-3.528 1.29-8.443 2.92-13.991 4.4a86.757 86.757 0 0 1-14.4 2.7c-.937.085-1.788.146-2.531.146h-1.927l-1.217-.085a1.4 1.4 0 0 1-.414-.061 1.584 1.584 0 0 1 .414 0h1.217a18.26 18.26 0 0 0 1.91-.073c.693-.073 1.582-.109 2.506-.207a97.333 97.333 0 0 0 14.332-2.835c5.523-1.472 10.451-3.054 13.991-4.258l4.21-1.436 1.144-.389a1.933 1.933 0 0 1 .4-.134z" class="cls-5" transform="translate(-9.185 -33.908)"/>
            <path id="Path_847" d="M230.854 302.77a20.99 20.99 0 0 0-.62 2.3 9.149 9.149 0 0 0 1.095 6.156l.073.134-.1.134a17.385 17.385 0 0 0-2.993 6.959 18.468 18.468 0 0 0 .523 9.04 16.607 16.607 0 0 0 2.251 4.587l.122.17-.109.182a17.556 17.556 0 0 0-2.567 7.6 18.6 18.6 0 0 0 .462 6.46 24.065 24.065 0 0 0 2.263 5.426 2.11 2.11 0 0 1-.268-.316 11.625 11.625 0 0 1-.657-.973 16.873 16.873 0 0 1-1.728-4.039 18.48 18.48 0 0 1-.62-6.606 18.091 18.091 0 0 1 2.591-7.9v.353a17.032 17.032 0 0 1-2.36-4.757 18.663 18.663 0 0 1-.487-9.344 17.337 17.337 0 0 1 3.188-7.142v.268a9.344 9.344 0 0 1-.949-6.46 8.519 8.519 0 0 1 .572-1.7 2.164 2.164 0 0 1 .316-.535z" class="cls-5" transform="translate(-11.533 -30.852)"/>
            <path id="Path_848" d="M259.073 399.724a2.552 2.552 0 0 1-.328-.255c-.207-.182-.511-.45-.888-.827a17.835 17.835 0 0 1-2.725-3.772 19.21 19.21 0 0 1-2.166-7 18.249 18.249 0 0 1 1.448-9.5v.243a17.13 17.13 0 0 1-2.774-9.575 17.325 17.325 0 0 1 3.65-10.658v.414a17.811 17.811 0 0 1-5.207-15.329 16.741 16.741 0 0 1 1-3.735 10.037 10.037 0 0 0 .876-3.492 4.867 4.867 0 0 0-1.375-3.1 14.83 14.83 0 0 1-2.093-2.993 11.485 11.485 0 0 1-1.083-6.923c.389-2.287 1.4-4.283 1.533-6.326s-.815-3.905-1.35-5.815a13.8 13.8 0 0 1-.353-5.645 14.088 14.088 0 0 1 4.38-8.358v.207a15.817 15.817 0 0 1-1.363-8.31 11.17 11.17 0 0 1 .669-2.944 5.56 5.56 0 0 1-.146.754 20.124 20.124 0 0 0-.328 2.2 16.121 16.121 0 0 0 1.5 8.139l.061.122-.1.1a13.8 13.8 0 0 0-4.161 8.151 13.5 13.5 0 0 0 .377 5.45c.511 1.813 1.569 3.735 1.411 5.986s-1.217 4.222-1.509 6.387a10.95 10.95 0 0 0 1.046 6.558 14.186 14.186 0 0 0 2.032 2.871 5.511 5.511 0 0 1 1.521 3.48 10.6 10.6 0 0 1-.912 3.723 16 16 0 0 0-.961 3.65 17.2 17.2 0 0 0 4.988 14.782l.207.195-.17.219a17.033 17.033 0 0 0-.961 19.576l.073.122v.122a17.872 17.872 0 0 0-1.5 9.258 19.053 19.053 0 0 0 2.007 6.9 20.379 20.379 0 0 0 3.674 4.952z" class="cls-5" transform="translate(-7.256 -34.478)"/>
            <path id="Path_849" d="M279.08 324a11.706 11.706 0 0 1-1.8.341c-1.156.17-2.847.4-4.927.657-4.173.5-9.952 1.083-16.351 1.521s-12.166.633-16.4.693h-4.976a9.953 9.953 0 0 1-1.825-.1 9.6 9.6 0 0 1 1.825-.158l4.964-.207c4.2-.17 9.988-.45 16.376-.876s12.166-.949 16.339-1.338l4.952-.45a8.955 8.955 0 0 1 1.823-.083z" class="cls-5" transform="translate(-10.352 -26.255)"/>
            <path id="Path_850" d="M282.23 305.26a12.624 12.624 0 0 1-1.861.438c-1.217.255-2.944.584-5.11.961-4.319.742-10.317 1.63-17.033 2.348s-12.714 1.131-17.033 1.326c-2.19.1-3.966.146-5.195.158a12.734 12.734 0 0 1-1.9 0 9.426 9.426 0 0 1 1.886-.207l5.183-.365c4.368-.3 10.4-.791 17.033-1.5s12.641-1.545 17.033-2.178l5.134-.742a9.438 9.438 0 0 1 1.863-.239z" class="cls-5" transform="translate(-10.071 -30.312)"/>
            <path id="Path_851" d="M270.84 289.1c4.939-2.433 19.831.341 22.155 5.365a7.653 7.653 0 0 1 12.908 2.908 8.516 8.516 0 0 1 11.278-5.171c2.835-3.419 7.3-4.866 11.546-6.241a11.509 11.509 0 0 1 5.828-.779c2.725.6 4.6 3.029 6.229 5.292 2.762 3.832 5.621 7.92 6 12.629s-2.835 10.037-7.555 10.134a8.03 8.03 0 0 1-12.373 6.813 10.95 10.95 0 0 1-14.916 3.394 8.37 8.37 0 0 1-12.069 3.029 10.341 10.341 0 0 1-14.746-1.217" class="cls-9" transform="translate(-2.112 -34.68)"/>
            <path id="Path_852" d="M288.679 326.673a3.551 3.551 0 0 1-1.217-.085 10.013 10.013 0 0 1-3.09-1.083 15.451 15.451 0 0 1-6.886-8.115 28.42 28.42 0 0 1-1.586-10.59c0-1.375.1-2.433.17-3.248a4.087 4.087 0 0 1 .182-1.217c.1 0 0 1.7.1 4.416a31.146 31.146 0 0 0 1.715 10.378 15.877 15.877 0 0 0 6.521 7.945 17.485 17.485 0 0 0 4.088 1.594z" class="cls-5" transform="translate(-1.02 -30.945)"/>
            <path id="Path_853" d="M292.895 316.287a14.453 14.453 0 0 1-1.387-3.321 42.58 42.58 0 0 1-1.837-8.516 41.486 41.486 0 0 1 0-8.7 14.427 14.427 0 0 1 .633-3.54 35.51 35.51 0 0 1-.182 3.577 53.327 53.327 0 0 0 .219 8.589 54.828 54.828 0 0 0 1.63 8.443 31.51 31.51 0 0 1 .924 3.468z" class="cls-5" transform="translate(1.918 -33.139)"/>
            <path id="Path_854" d="M304.4 311.329a8.02 8.02 0 0 1-1.5-2.239 24.479 24.479 0 0 1-2.737-12.616 8.4 8.4 0 0 1 .426-2.664 47.522 47.522 0 0 0 .706 9.027 45.965 45.965 0 0 0 3.105 8.492z" class="cls-5" transform="translate(4.233 -32.793)"/>
            <path id="Path_855" d="M318.1 317c-.1 0-.195-1.545-.779-3.991a92.586 92.586 0 0 0-2.859-9.368c-1.314-3.589-2.64-6.8-3.723-9.064s-1.9-3.577-1.813-3.65.28.28.681.864a25.569 25.569 0 0 1 1.521 2.579 72.192 72.192 0 0 1 3.93 9.052 66.2 66.2 0 0 1 2.7 9.49 26.331 26.331 0 0 1 .389 2.969A3.478 3.478 0 0 1 318.1 317z" class="cls-5" transform="translate(6.138 -33.418)"/>
            <path id="Path_856" d="M282.552 288.44a21.9 21.9 0 0 0-7.872 10.414 13.906 13.906 0 0 1 7.872-10.414z" class="cls-5" transform="translate(-1.28 -33.956)"/>
            <path id="Path_857" d="M363.324 100.86a25.342 25.342 0 0 0-7.227 17.678c0 2.944.511 6.083-.645 8.723-1.217 2.883-4.234 4.867-4.866 8.018-.45 2.324.572 4.648 1.375 6.874s1.35 4.867.073 6.862a23.821 23.821 0 0 1-2.92 2.944c-2.433 2.774-2.251 6.959-1.874 10.67l34.917-1.484z" class="cls-5" transform="translate(14.39 -74.59)"/>
            <path id="Path_858" d="M417.925 122.315c-2.287-9.733-4.635-19.867-12.7-25.78-7.178-5.268-15.22-6.533-24.1-5.876-4.368.328-9.258 2.506-12.994 4.794-5.134 3.139-7.166 9.21-9.5 14.746-4.708 11.1-3.589 25.878 0 29.88l46.463 22.641c7.945-4.477 13.286-6.618 15.135-15.548 1.236-6.072-.856-18.81-2.304-24.857z" class="cls-5" transform="translate(16.228 -76.835)"/>
            <path id="Path_859" d="M402.638 110.837l-27.617-14.125c-9.307-1.046-15.573 10.378-16.23 19.721-.718 10.378-1.217 23.116 0 30.829 2.36 15.524 14.2 16.193 14.3 16.218l.1 6.29-.085 10.414c3.832 12.629 16.631 11.108 32.63 4.55l-3.005-73.9z" class="cls-6" transform="translate(16.781 -75.503)"/>
            <path id="Path_860" d="M362.43 124.32a2.007 2.007 0 0 0 1.922 2.032 1.91 1.91 0 0 0 2.068-1.788 2 2 0 0 0-1.91-2.032 1.922 1.922 0 0 0-2.08 1.788z" class="cls-5" transform="translate(17.729 -69.897)"/>
            <path id="Path_861" d="M360.846 120.044c.243.255 1.764-.852 3.918-.827s3.711 1.107 3.954.839-.134-.584-.815-1.095a5.609 5.609 0 0 0-3.213-.961 5.329 5.329 0 0 0-3.127.985c-.608.463-.839.937-.717 1.059z" class="cls-5" transform="translate(17.379 -70.877)"/>
            <path id="Path_862" d="M378.5 124.32a2.007 2.007 0 0 0 1.91 2.032 1.922 1.922 0 0 0 2.08-1.788 2.007 2.007 0 0 0-1.91-2.032 1.922 1.922 0 0 0-2.08 1.788z" class="cls-5" transform="translate(21.21 -69.897)"/>
            <path id="Path_863" d="M377.063 119.688c.243.268 1.764-.852 3.918-.827s3.723 1.107 3.954.839-.134-.584-.815-1.083a5.426 5.426 0 0 0-3.163-1 5.244 5.244 0 0 0-3.127.973c-.658.51-.84.977-.767 1.098z" class="cls-5" transform="translate(20.895 -70.96)"/>
            <path id="Path_864" d="M372.668 135.056a14.163 14.163 0 0 0-3.48-.657c-.547 0-1.071-.17-1.156-.547a2.64 2.64 0 0 1 .377-1.618l1.642-4.173c2.3-5.937 3.966-10.816 3.723-10.95s-2.287 4.635-4.587 10.572c-.547 1.472-1.083 2.859-1.582 4.2a3.176 3.176 0 0 0-.3 2.153 1.363 1.363 0 0 0 .9.8 4.112 4.112 0 0 0 .925.146 14.465 14.465 0 0 0 3.538.074z" class="cls-5" transform="translate(18.769 -71.071)"/>
            <path id="Path_865" d="M370.32 152.484a39.54 39.54 0 0 0 20.889-5.414s-5.231 10.864-20.8 9.3z" class="cls-7" transform="translate(19.438 -64.58)"/>
            <path id="Path_866" d="M378.814 135.484a3.431 3.431 0 0 0-2.859-1.582 4.477 4.477 0 0 0-4.112 2 2.8 2.8 0 0 0-.195 2.007c.146.353 0 .182.292.414a7.859 7.859 0 0 0 3.2 2.02 3.37 3.37 0 0 0 3.577-1.29 3.455 3.455 0 0 0 .1-3.565z" class="cls-7" transform="translate(19.703 -67.436)"/>
            <path id="Path_867" d="M378.449 133.18c-.341 0-.377 2.312-2.433 3.942s-4.5 1.35-4.526 1.667.548.462 1.606.511a5.84 5.84 0 0 0 3.772-1.217 5.085 5.085 0 0 0 1.861-3.309c.134-1.022-.122-1.606-.28-1.594z" class="cls-5" transform="translate(19.691 -67.589)"/>
            <path id="Path_868" d="M377.331 114c.17.6 2.324.462 4.866.925s4.489 1.217 4.867.779c.158-.243-.158-.815-.937-1.423a8.516 8.516 0 0 0-7.385-1.3c-.997.303-1.484.741-1.411 1.019z" class="cls-5" transform="translate(20.955 -72.037)"/>
            <path id="Path_869" d="M360.848 116.341c.5.4 2.044-.389 4-.754s3.65-.328 3.966-.888c.122-.28-.231-.718-1.034-1.046a6.29 6.29 0 0 0-3.394-.207 6.083 6.083 0 0 0-3.017 1.533c-.607.621-.74 1.155-.521 1.362z" class="cls-5" transform="translate(17.365 -71.895)"/>
            <path id="Path_870" d="M372.241 95.31a2.844 2.844 0 0 1-.061.341h.061z" class="cls-5" transform="translate(19.841 -75.793)"/>
            <path id="Path_871" d="M375.741 95.935l-.949-.365c-2.981-1.436-4.952-3.1-9.4 1.071a27.909 27.909 0 0 0-6.022 8.979 35.77 35.77 0 0 0-3.188 9.6 41.364 41.364 0 0 0 0 11.947c2.591-1.825 3.857-4.988 4.611-8.066s1.217-6.29 2.64-9.1a24.334 24.334 0 0 0-.255 7.9 3.285 3.285 0 0 0 .912 1.934 1.375 1.375 0 0 0 1.934 0 17.033 17.033 0 0 1-.243-9.356 48.481 48.481 0 0 1 3.285-8.894A46.742 46.742 0 0 0 370.1 117.4a4.076 4.076 0 0 0 .949 2.044 3.723 3.723 0 0 0 3.236.584 7.64 7.64 0 0 1 3.382-.243 44.856 44.856 0 0 1-1.922-23.846z" class="cls-5" transform="translate(16.28 -76.077)"/>
            <path id="Path_872" d="M407.562 158.44c-.876-1.217-2.628-1.423-4.161-1.46h-.061" class="cls-5" transform="translate(26.591 -62.433)"/>
            <path id="Path_873" d="M423.6 151.089c.681-2.81 1.667-5.755.839-8.516-.754-2.567-2.956-4.6-3.321-7.3-.316-2.3.839-4.623.438-6.9-.475-2.652-2.859-4.441-4.623-6.472-3.65-4.258-4.6-18.176-12.665-23.907l-.73 1.423a25.477 25.477 0 0 0-8.7-4.222 44.005 44.005 0 0 0-22.994-.28l-.109.633a34.479 34.479 0 0 0 3.042 18.468 12.689 12.689 0 0 0 2.993 4.331 5.682 5.682 0 0 0 4.867 1.423A21.133 21.133 0 0 1 378 107.814c1.983 4.368 4.015 8.808 7.3 12.349a18.25 18.25 0 0 0 6.7 4.672 13.748 13.748 0 0 0 1.217 3.845c1.119 2.433 2.543 4.866 2.433 7.58s-1.557 4.733-2.591 7.032a22.277 22.277 0 0 0-.17 17.532 234.516 234.516 0 0 0 31.632-1.472c-1.904-2.167-1.612-5.452-.921-8.263z" class="cls-5" transform="translate(19.699 -76.179)"/>
            <path id="Path_874" d="M381.833 435.43l10.232 41.012-48.58 12.933c-1-4.939 23.615-21.753 23.615-21.753l-7.519-27.386z" class="cls-8" transform="translate(13.618 -2.114)"/>
            <g id="Group_60" class="cls-10" transform="translate(391.133 459.643)">
                <path id="Path_875" d="M373.4 457.094a2.153 2.153 0 0 1 2 2.006 1.983 1.983 0 0 1-1.849 2.032 2.263 2.263 0 0 1-2.1-2.129c.061-1.046 1.217-2.153 2.153-1.9" class="cls-11" transform="translate(-371.45 -457.069)"/>
            </g>
            <g id="Group_61" class="cls-10" transform="translate(356.964 470.24)">
                <path id="Path_876" d="M392.073 469.868l-1.217-4.088-46.122 13.93s-1.91 1.557-1.217 3.09z" class="cls-11" transform="translate(-343.365 -465.78)"/>
            </g>
            <path id="Path_877" d="M362.381 462.526c.073.243 1.29 0 2.664.523s2.275 1.375 2.433 1.217-.535-1.5-2.214-2.056-2.992.097-2.883.316z" class="cls-5" transform="translate(17.717 3.639)"/>
            <path id="Path_878" d="M357.65 465.76c0 .255 1.144.4 2.226 1.217s1.618 1.886 1.849 1.813 0-1.521-1.35-2.531-2.785-.742-2.725-.499z" class="cls-5" transform="translate(16.693 4.407)"/>
            <path id="Path_879" d="M357.225 472.061c.231 0 .231-1.326-.73-2.531s-2.226-1.448-2.275-1.217.839.779 1.618 1.776 1.144 2.011 1.387 1.972z" class="cls-5" transform="translate(15.95 4.992)"/>
            <path id="Path_880" d="M361.214 457.036c.158.195 1.217-.438 2.518-.693s2.531-.1 2.591-.341-1.217-.864-2.774-.535-2.506 1.399-2.335 1.569z" class="cls-5" transform="translate(17.461 2.206)"/>
            <path id="Path_881" d="M359.17 452.93a4.608 4.608 0 0 0 2.433-.657 10.945 10.945 0 0 0 2.324-1.5 13.03 13.03 0 0 0 1.217-1.144 3.1 3.1 0 0 0 .572-.8 1.217 1.217 0 0 0-.231-1.35 1.326 1.326 0 0 0-1.217-.292 3.274 3.274 0 0 0-.876.377 8.838 8.838 0 0 0-1.375.949 9.284 9.284 0 0 0-1.837 2.1 4.307 4.307 0 0 0-.876 2.433c.122 0 .475-.864 1.375-2.08a9.732 9.732 0 0 1 1.837-1.849 8.52 8.52 0 0 1 1.277-.827c.474-.28.912-.4 1.107-.195s.085.109 0 .3a2.553 2.553 0 0 1-.426.572 13.593 13.593 0 0 1-1.083 1.119 13.228 13.228 0 0 1-2.1 1.569 18.358 18.358 0 0 0-2.121 1.275z" class="cls-5" transform="translate(17.023 .424)"/>
            <path id="Path_882" d="M360.364 453.483a4.331 4.331 0 0 0 0-2.64 9.089 9.089 0 0 0-1.058-2.7 9.732 9.732 0 0 0-1.034-1.375 2.117 2.117 0 0 0-1.9-.876 1.217 1.217 0 0 0-.827.973 3.989 3.989 0 0 0 0 1.01 6.349 6.349 0 0 0 .45 1.715 6.277 6.277 0 0 0 1.74 2.36c1.3 1.058 2.36 1.095 2.36 1.01a11.469 11.469 0 0 1-1.971-1.484 6.084 6.084 0 0 1-1.4-2.19 5.876 5.876 0 0 1-.341-1.484c-.073-.56 0-1.046.219-1.046a1.813 1.813 0 0 1 1.071.608 8.769 8.769 0 0 1 .961 1.217 9.988 9.988 0 0 1 1.144 2.433c.452 1.471.452 2.469.586 2.469z" class="cls-5" transform="translate(16.231 .15)"/>
            <path id="Path_883" d="M417.59 442.994l-.779 42.266-50.271-.146c.316-5.025 28.457-14.867 28.457-14.867l-.134-28.4z" class="cls-8" transform="translate(18.619 -.723)"/>
            <g id="Group_62" class="cls-10" transform="translate(424.61 467.057)">
                <path id="Path_884" d="M401.44 463.208a2.153 2.153 0 0 1 1.411 2.433 1.959 1.959 0 0 1-2.312 1.484 2.263 2.263 0 0 1-1.533-2.579 2.044 2.044 0 0 1 2.579-1.278" class="cls-11" transform="translate(-398.967 -463.164)"/>
            </g>
            <g id="Group_63" class="cls-10" transform="translate(385.141 480.265)">
                <path id="Path_885" d="M416.814 478.29l-.109-4.27-48.166 1.46s-2.239 1.022-2 2.664z" class="cls-11" transform="translate(-366.525 -474.02)"/>
            </g>
            <path id="Path_886" d="M389.31 465.62c0 .255 1.217.377 2.433 1.217s1.849 1.91 2.068 1.813-.134-1.582-1.606-2.567-2.943-.694-2.895-.463z" class="cls-5" transform="translate(23.551 4.377)"/>
            <path id="Path_887" d="M383.89 467.548c-.061.243 1 .693 1.825 1.776s1.071 2.239 1.314 2.239.4-1.472-.657-2.81-2.482-1.453-2.482-1.205z" class="cls-5" transform="translate(22.377 4.821)"/>
            <path id="Path_888" d="M381.837 473.538c.219.061.572-1.217-.061-2.64s-1.752-1.922-1.874-1.752.608.961 1.107 2.129.585 2.238.828 2.263z" class="cls-5" transform="translate(21.511 5.183)"/>
            <path id="Path_889" d="M389.662 459.937c.1.243 1.217-.109 2.616 0s2.433.56 2.591.341-.912-1.131-2.543-1.217-2.786.681-2.664.876z" class="cls-5" transform="translate(23.626 3.004)"/>
            <path id="Path_890" d="M389 455.342a4.538 4.538 0 0 0 2.506 0 10.728 10.728 0 0 0 2.64-.839 10.049 10.049 0 0 0 1.448-.8 2.811 2.811 0 0 0 .766-.621 1.144 1.144 0 0 0 .122-1.363 1.338 1.338 0 0 0-1.071-.6 3.566 3.566 0 0 0-.949.134 9.936 9.936 0 0 0-1.57.56 9.026 9.026 0 0 0-2.324 1.594c-1.217 1.131-1.582 2.093-1.5 2.141s.681-.718 1.874-1.655a9.977 9.977 0 0 1 2.251-1.314 7.756 7.756 0 0 1 1.448-.462c.535-.146.985-.146 1.131.1s0 .134 0 .292a2.2 2.2 0 0 1-.56.45 12 12 0 0 1-1.338.791 12.794 12.794 0 0 1-2.433.973 14.027 14.027 0 0 0-2.441.619z" class="cls-5" transform="translate(23.484 1.285)"/>
            <path id="Path_891" d="M389.794 456.38a4.38 4.38 0 0 0 .669-2.543 8.772 8.772 0 0 0-.328-2.9 7.9 7.9 0 0 0-.633-1.594 2.08 2.08 0 0 0-1.606-1.338 1.216 1.216 0 0 0-1.046.73 3.648 3.648 0 0 0-.268.961 6.217 6.217 0 0 0 1.058 4.5c.973 1.375 2 1.679 2.02 1.594a10.432 10.432 0 0 1-1.521-1.934 6.278 6.278 0 0 1-.779-2.433 5.341 5.341 0 0 1 0-1.521c.085-.56.28-1.01.487-.961a1.824 1.824 0 0 1 .876.864 9.053 9.053 0 0 1 .608 1.436 9.841 9.841 0 0 1 .487 2.64c.11 1.502-.157 2.463-.024 2.499z" class="cls-5" transform="translate(22.946 .611)"/>
            <path id="Path_892" d="M349.964 270s-21.023 123.062-18.651 132.04 30.416 100.469 30.416 100.469l34.5-10.877-21.689-86.587s14.222-67.912 14.222-69.031 5.694-50.49 5.694-50.49z" class="cls-5" transform="translate(10.948 -37.95)"/>
            <path id="Path_893" d="M433.82 300.453a149.072 149.072 0 0 0-8.066-38.263c-1.9.985-53.093 27.751-53.093 27.751l9.9 116.8 5.742 99.5h29.856s4.7-84.9 6.083-102.841c-.07-.094 11.476-80.391 9.578-102.947z" class="cls-5" transform="translate(19.945 -39.642)"/>
            <path id="Path_894" d="M369.951 382.531c-.073.061-.815-.791-2.178-1.983a26.544 26.544 0 0 0-5.864-3.857 26.22 26.22 0 0 0-6.691-2.178c-1.776-.316-2.908-.341-2.908-.45a8.626 8.626 0 0 1 2.981 0 21.765 21.765 0 0 1 6.886 2.044 22.045 22.045 0 0 1 5.9 4.1 8.383 8.383 0 0 1 1.874 2.324z" class="cls-9" transform="translate(15.537 -15.436)"/>
            <path id="Path_895" d="M412.456 389.876a3.3 3.3 0 0 1-.925.4 24.333 24.333 0 0 1-2.6.754 34.248 34.248 0 0 1-17.775-.62 22.568 22.568 0 0 1-2.555-.937 3.648 3.648 0 0 1-.888-.462c0-.1 1.363.389 3.565.961a39.857 39.857 0 0 0 17.556.62c2.235-.375 3.566-.825 3.622-.716z" class="cls-9" transform="translate(23.205 -12.172)"/>
            <path id="Path_896" d="M330.029 302.346a10.95 10.95 0 0 0 5.28-2.737 18.1 18.1 0 0 0 2.8-3.65 15.7 15.7 0 0 0 2.786-7.3c.146-2.628-1.7-7.8-4.124-8.845-1.411-.62-3.857-.535-4.733 1.034a17.58 17.58 0 0 0-1.667 5.183c-.28 1.971.475 4.4-1.034 5.706-.718.633-1.776.766-2.433 1.411-1.217 1.156-.742 3.2 0 4.733a30.586 30.586 0 0 0 2.664 4.623" class="cls-6" transform="translate(9.871 -35.902)"/>
            <path id="Path_897" d="M329.54 302.551a2.119 2.119 0 0 1-.389-.462c-.231-.3-.572-.779-.961-1.411a26.778 26.778 0 0 1-1.338-2.433 7.166 7.166 0 0 1-.852-3.467 2.676 2.676 0 0 1 1.034-1.959c.633-.475 1.411-.657 2-1.058a2.506 2.506 0 0 0 1.034-1.849 17.187 17.187 0 0 0 0-2.518 9.988 9.988 0 0 1 .341-2.737 19.6 19.6 0 0 1 .864-2.725 8.071 8.071 0 0 1 .657-1.35 2.884 2.884 0 0 1 1.217-1.034 4.952 4.952 0 0 1 3.139-.195 4.6 4.6 0 0 1 2.53 1.886 12.167 12.167 0 0 1 1.423 2.591 11.545 11.545 0 0 1 .937 5.511 14.149 14.149 0 0 1-1.642 4.781 33.009 33.009 0 0 1-2.336 3.65 11.3 11.3 0 0 1-4.867 3.966 10.114 10.114 0 0 1-1.643.511 2.433 2.433 0 0 1-.6.073 12.983 12.983 0 0 0 2.141-.815 11.546 11.546 0 0 0 4.635-3.991 37.341 37.341 0 0 0 2.226-3.65 13.639 13.639 0 0 0 1.51-4.566 11.1 11.1 0 0 0-.925-5.207 11.786 11.786 0 0 0-1.35-2.494 3.917 3.917 0 0 0-2.178-1.63 4.331 4.331 0 0 0-2.725.146 2.25 2.25 0 0 0-.985.815 8.882 8.882 0 0 0-.608 1.217 14.6 14.6 0 0 0-1.217 5.231 18.477 18.477 0 0 1-.061 2.591 3.078 3.078 0 0 1-1.3 2.214c-.718.462-1.46.621-2 1.022a2.153 2.153 0 0 0-.876 1.594 6.7 6.7 0 0 0 .791 3.346c.438.949.852 1.752 1.217 2.433.744 1.267 1.194 1.949 1.157 1.973z" class="cls-7" transform="translate(9.837 -35.961)"/>
            <path id="Path_898" d="M332.877 286.175a6.083 6.083 0 0 1 3.054.791 2.056 2.056 0 0 1 .669 2.774c-.645.815-1.886.73-2.908.572a4.867 4.867 0 0 1 2.433.742 1.715 1.715 0 0 1 .523 2.287 2.336 2.336 0 0 1-1.861.645 19.367 19.367 0 0 1-4.429-.4 4.757 4.757 0 0 1-2.883-1.448 2 2 0 0 1 .3-2.883 3.954 3.954 0 0 1-2.02-2.786c-.207-1.156.207-1.594-.633-2.433-1.545-1.618-2.3-3.151-1.022-5.39s3.711-2.287 6.241-4.684l8.869 8.76z" class="cls-6" transform="translate(9.286 -37.093)"/>
            <path id="Path_899" d="M342.046 283.645c-6.4 5.864-11.7-1.825-12.3-.572s-2.275 3.261-3.747 3.261-2.433-.268-2.348-2.591 6.728-10.122 6.728-10.122z" class="cls-6" transform="translate(9.327 -37.166)"/>
            <path id="Path_900" d="M342.087 283.7a8.99 8.99 0 0 1-.949-.73l-2.433-2.032c-2.1-1.74-5.037-4.161-8.431-7.044h.414a67.828 67.828 0 0 0-5.815 7.969 4.977 4.977 0 0 0-.815 2.251c0 .8.134 1.618.791 1.837a3.455 3.455 0 0 0 1.095.158 1.958 1.958 0 0 0 1.01-.231 5.646 5.646 0 0 0 1.679-1.411 8.236 8.236 0 0 0 .633-.864 4.52 4.52 0 0 0 .268-.462l.073-.122a.45.45 0 0 1 .195-.207.6.6 0 0 1 .474 0 10.047 10.047 0 0 1 1.849 1.131 11.461 11.461 0 0 0 3.273 1.606 6.545 6.545 0 0 0 5.1-.693c1.1-.669 1.57-1.095 1.643-1.095a6.169 6.169 0 0 1-1.521 1.3 6.691 6.691 0 0 1-5.329.925 11.606 11.606 0 0 1-3.455-1.606 13 13 0 0 0-1.7-1.034l-.061.109a4.17 4.17 0 0 1-.28.511 9.472 9.472 0 0 1-.669.937 6.241 6.241 0 0 1-1.861 1.582 2.726 2.726 0 0 1-1.29.3 3.943 3.943 0 0 1-1.314-.207 1.679 1.679 0 0 1-1.01-1.058 4.014 4.014 0 0 1-.183-1.35 5.463 5.463 0 0 1 .9-2.567 62.193 62.193 0 0 1 5.925-8.03l.182-.231.231.195c3.455 3.017 6.363 5.609 8.383 7.409l2.324 2.1a4.868 4.868 0 0 1 .674.654z" class="cls-7" transform="translate(9.286 -37.225)"/>
            <path id="Path_901" d="M326.813 287a1.217 1.217 0 0 0-.414 1.874 3.65 3.65 0 0 0 1.837 1.156 14.064 14.064 0 0 0 6.679 1.278c.73-.085 1.557-.414 1.752-1.119s-.572-1.545-1.326-1.934a15.816 15.816 0 0 0-5.621-1.217" class="cls-6" transform="translate(9.863 -34.268)"/>
            <path id="Path_902" d="M329.744 287.006a2.663 2.663 0 0 1 .864 0 18.057 18.057 0 0 1 2.336.243 7.774 7.774 0 0 1 3.321 1.3 2.191 2.191 0 0 1 .669.925 1.387 1.387 0 0 1-.146 1.217 2.786 2.786 0 0 1-2.19.961 11.412 11.412 0 0 1-4.283-.608 20.094 20.094 0 0 1-3.273-1.314 2.19 2.19 0 0 1-.937-1.095 1.606 1.606 0 0 1 0-1.083c.255-.584.706-.584.681-.56a.972.972 0 0 0-.45.645 1.314 1.314 0 0 0 .061.876 1.8 1.8 0 0 0 .827.827 25.115 25.115 0 0 0 3.212 1.144 11.3 11.3 0 0 0 4.064.535 2.324 2.324 0 0 0 1.728-.669c.316-.438 0-1.022-.4-1.411a7.981 7.981 0 0 0-3.029-1.3c-1.838-.414-3.079-.523-3.055-.633z" class="cls-7" transform="translate(9.84 -34.274)"/>
            <path id="Path_903" d="M332.972 287.516a1.854 1.854 0 0 1 .535-.085 4.112 4.112 0 0 0 1.314-.268c.475-.207.986-.8.767-1.375s-1.034-.876-1.934-1.058a24.806 24.806 0 0 0-4.587-.815 17.132 17.132 0 0 1-1.947 0 3.65 3.65 0 0 1 1.947-.414 17.033 17.033 0 0 1 4.733.645 6.644 6.644 0 0 1 1.35.426 1.911 1.911 0 0 1 .985 1.058 1.424 1.424 0 0 1-.243 1.326 1.922 1.922 0 0 1-.9.657 3.321 3.321 0 0 1-1.5.1c-.338-.099-.52-.16-.52-.197z" class="cls-7" transform="translate(10.08 -35.027)"/>
            <path id="Path_904" d="M458.424 298.292q-2.433-7.044-4.867-14.064c-1.959-5.621-4.064-11.461-8.322-15.609s-12.884-6.558-17.751-3.139l-3.65 53.641c-1.107 1.375-.377 3.565 1.046 4.575a8.516 8.516 0 0 0 5.049 1.132 44.394 44.394 0 0 0 20.914-5.39c4.234-2.3 8.346-5.706 9.319-10.427.696-3.611-.521-7.264-1.738-10.719z" class="cls-9" transform="translate(30.914 -39.282)"/>
            <path id="Path_905" d="M449.894 291.549c-2.36-17.179-7.8-38.409-7.8-38.409s4.757-26.51 3.735-41.8c-.706-10.585-1.922-30.051-2.6-41.037a11.534 11.534 0 0 0-8.31-10.353l-16.595-4.867-34.82 5.986-17.361 3.808a21.413 21.413 0 0 0-9.271 4.562 34.406 34.406 0 0 0-10.95 17.556c-2.239 8.65-8.018 60.454-8.018 60.454L323 299.116l23.943 14.084s4.319-21.1 5.523-25.05c-2.64 12.081-14.794 58.532-19.576 92.524l45.769 1.74 6.618-17.824 3.966 18.249 56.792 2.08s9.127-55.01 3.859-93.37z" class="cls-8" transform="translate(9.187 -62.845)"/>
            <path id="Path_906" d="M358.662 178.33a1.559 1.559 0 0 1-.17.292l-.535.791a26.758 26.758 0 0 0-1.874 3.188 44.2 44.2 0 0 0-3.905 12.957 70.965 70.965 0 0 0-.134 20.1 211.773 211.773 0 0 1 1.423 24.77c0 4.392.146 8.687-.122 12.848a97.018 97.018 0 0 1-1.448 11.9c-1.387 7.507-3.078 14.162-4.295 19.782s-2.19 10.2-2.835 13.383c-.316 1.545-.56 2.762-.742 3.65-.085.389-.158.693-.207.937a1.108 1.108 0 0 1-.1.328 1.216 1.216 0 0 1 0-.341l.146-.949q.219-1.332.62-3.65c.572-3.163 1.436-7.75 2.64-13.383s2.81-12.324 4.161-19.807A100.843 100.843 0 0 0 352.7 253.3c.243-4.124.134-8.407.1-12.811a219 219 0 0 0-1.375-24.7 70.663 70.663 0 0 1 .268-20.245 42.58 42.58 0 0 1 4.137-12.994 23.116 23.116 0 0 1 1.983-3.151l.6-.766a1.217 1.217 0 0 1 .255-.3z" class="cls-5" transform="translate(13.674 -57.808)"/>
            <path id="Path_907" d="M367.85 164.946l-.73-10.329c10.4.547 28.749-1.326 39.905-4.757l1.9 9.392z" class="cls-8" transform="translate(18.745 -63.976)"/>
            <path id="Path_908" d="M377.246 153.63a4.715 4.715 0 0 1 0 .547c0 .389.085.912.146 1.594.109 1.448.268 3.516.462 6.168.414 5.353.9 13.115 1.436 22.7 1.046 19.174 2.032 45.709 1.655 75.029s-2.1 55.819-3.65 74.956c-.8 9.575-1.521 17.313-2.08 22.654-.28 2.652-.5 4.708-.657 6.144l-.182 1.606a1.373 1.373 0 0 1-.085.535v-.548c0-.365.061-.912.122-1.606.122-1.436.3-3.5.523-6.156.5-5.341 1.144-13.091 1.9-22.666 1.472-19.138 3.1-45.623 3.5-74.932s-.535-55.819-1.472-74.993c-.475-9.587-.9-17.349-1.217-22.714-.146-2.652-.268-4.721-.353-6.168a13.679 13.679 0 0 0-.073-1.606c.013-.361.025-.544.025-.544z" class="cls-5" transform="translate(20.298 -63.159)"/>
            <path id="Path_909" d="M385.317 181.769a1.917 1.917 0 0 1 .9 0 3.881 3.881 0 0 1 2.141 1.217 3.82 3.82 0 0 1 .827 3.65 4.039 4.039 0 0 1-7.409.973 3.772 3.772 0 0 1-.134-3.65 3.942 3.942 0 0 1 1.728-1.788 1.63 1.63 0 0 1 .876-.255s-.292.158-.754.462a4.161 4.161 0 0 0-1.448 1.764 3.406 3.406 0 0 0 .231 3.2 3.48 3.48 0 0 0 6.351-.84 3.346 3.346 0 0 0-.62-3.139 4.052 4.052 0 0 0-1.849-1.338 6.169 6.169 0 0 1-.84-.256z" class="cls-5" transform="translate(21.803 -57.074)"/>
            <path id="Path_910" d="M385.317 231.009a1.917 1.917 0 0 1 .9 0 3.881 3.881 0 0 1 2.141 1.277 3.82 3.82 0 0 1 .827 3.65 4.039 4.039 0 0 1-7.409.973 3.772 3.772 0 0 1-.134-3.65 3.942 3.942 0 0 1 1.728-1.788c.535-.268.864-.28.876-.243a8.518 8.518 0 0 1-.754.45 4.135 4.135 0 0 0-1.448 1.776 3.382 3.382 0 0 0 .231 3.188 3.48 3.48 0 0 0 6.351-.839 3.346 3.346 0 0 0-.62-3.139 4.051 4.051 0 0 0-1.849-1.338 6.171 6.171 0 0 1-.84-.317z" class="cls-5" transform="translate(21.803 -46.407)"/>
            <path id="Path_911" d="M385.317 280.168a2.149 2.149 0 0 1 .9 0 3.918 3.918 0 0 1 2.141 1.29 3.8 3.8 0 0 1 .827 3.589 4.039 4.039 0 0 1-7.409.973 3.772 3.772 0 0 1-.134-3.65 3.942 3.942 0 0 1 1.728-1.788c.535-.268.864-.28.876-.243a8.525 8.525 0 0 1-.754.45 4.136 4.136 0 0 0-1.448 1.776 3.382 3.382 0 0 0 .231 3.188 3.48 3.48 0 0 0 6.351-.839 3.346 3.346 0 0 0-.62-3.139 3.918 3.918 0 0 0-1.849-1.326c-.524-.208-.857-.22-.84-.281z" class="cls-5" transform="translate(21.803 -35.757)"/>
            <g id="Group_64" class="cls-12" transform="translate(392.617 159.746)">
                <path id="Path_912" d="M373.29 211.446c14.77 15.269 31.535 30.026 52.169 35.124a8.273 8.273 0 0 0 4.064.268 3.1 3.1 0 0 0 2.433-2.92c-5.913 1.277-15.743-5.414-23.262-9.356-12.994-6.813-23.505-16.327-36.024-23.992" transform="translate(-372.67 -210.57)"/>
            </g>
            <g id="Group_65" class="cls-12" transform="translate(360.219 147.738)">
                <path id="Path_913" d="M350.639 200.7a45.732 45.732 0 0 0-3.65 21.194c.487 7.178 1.776 14.283 1.983 21.473.353 11.619-3.93 25.719-2.713 36.243l.584.8c10.305-33.271 5.694-53.102 3.796-79.71z" transform="translate(-346.041 -200.7)"/>
            </g>
            <path id="Path_914" d="M408.7 157a6.862 6.862 0 0 1-1.472.742c-.487.231-1.107.45-1.813.706s-1.533.535-2.433.8a81.952 81.952 0 0 1-14.6 2.713 118.489 118.489 0 0 1-14.843.584c-1.91 0-3.443-.146-4.5-.243a7.738 7.738 0 0 1-1.642-.219 9.308 9.308 0 0 1 1.655 0c1.058 0 2.591.061 4.489 0 3.8 0 9.027-.182 14.782-.766a95.748 95.748 0 0 0 14.6-2.518c.912-.231 1.74-.462 2.433-.693s1.338-.414 1.825-.608a9.11 9.11 0 0 1 1.521-.5z" class="cls-5" transform="translate(18.805 -62.429)"/>
            <path id="Path_915" d="M419.469 162.161c.061.1-1.083.852-2.689 2.36a24.99 24.99 0 0 0-7.58 15c-.268 2.178-.195 3.553-.3 3.565a2.651 2.651 0 0 1-.146-.961 14.766 14.766 0 0 1 0-2.652 22.678 22.678 0 0 1 2.36-8.395 23.043 23.043 0 0 1 5.353-6.886 16.886 16.886 0 0 1 2.129-1.582c.545-.327.849-.486.873-.449z" class="cls-5" transform="translate(27.75 -61.312)"/>
            <path id="Path_916" d="M359.854 166.32a53.7 53.7 0 0 1-1.375 5.755 56.537 56.537 0 0 1-1.326 5.767 18.166 18.166 0 0 1 .718-5.913 18.612 18.612 0 0 1 1.983-5.609z" class="cls-5" transform="translate(16.582 -60.41)"/>
            <path id="Path_917" d="M352 166.726c-.73 1.667 13.724 90.188 92.464 130.811a46.7 46.7 0 0 0-1.35-11.071s-58.86-44.577-69.348-81.344l-11.079-42.472s-9.101.511-10.687 4.076z" class="cls-9" transform="translate(15.465 -61.205)"/>
            <path id="Path_918" d="M424.872 159.08s11.083 1.971 14.235 10.548c4.027 10.95 8.674 37.35 9.623 55.843s-12.337 29.8-18.992 30.063-60.308-35.89-60.308-35.89l12.446-19.3 36.5 17.033z" class="cls-8" transform="translate(19.245 -61.978)"/>
            <path id="Path_919" d="M417.628 184.88a2.774 2.774 0 0 1 0 .462l.073 1.387c0 1.217.122 3.029.207 5.329.17 4.66.4 11.388.693 19.758v.353l-.316-.146-36.5-17.033.377-.109-12.4 19.344-.085-.426 7.8 5.171c11.485 7.555 22.5 14.6 32.691 20.8 5.1 3.042 9.988 5.925 14.745 8.212a26.757 26.757 0 0 0 3.565 1.448 5.245 5.245 0 0 0 .888.219h.438a2.987 2.987 0 0 0 .45 0l.888-.122.876-.255a18.139 18.139 0 0 0 5.974-3.5 29.2 29.2 0 0 0 7.3-9.465 31.3 31.3 0 0 0 2.859-8.638 27.662 27.662 0 0 0 .438-3.309 18.235 18.235 0 0 0 .11-2.433v-1.509a2.717 2.717 0 0 1 0-.511 2.733 2.733 0 0 1 0 .511v1.509a17.486 17.486 0 0 1-.061 2.433 24.918 24.918 0 0 1-.389 3.334 30.417 30.417 0 0 1-2.774 8.76 29.469 29.469 0 0 1-7.166 9.648 18.686 18.686 0 0 1-6.083 3.65l-.913.268a6.654 6.654 0 0 0-.949.146h-1a4.867 4.867 0 0 1-.961-.219 27.726 27.726 0 0 1-3.65-1.472c-4.806-2.287-9.733-5.146-14.819-8.188-10.22-6.083-21.254-13.213-32.727-20.78l-7.774-5.171-.268-.182.17-.256 12.446-19.284.146-.219.243.109 36.5 17.142-.3.195c-.219-8.37-.377-15.1-.5-19.77 0-2.3-.073-4.076-.1-5.329v-1.387a2.689 2.689 0 0 1-.146-.474z" class="cls-5" transform="translate(19.189 -56.389)"/>
            <path id="Path_920" d="M429.123 219.562c-.085 0-.827-1.071-2.263-2.713a29.552 29.552 0 0 0-14.161-8.906c-2.093-.584-3.431-.766-3.419-.876a2.908 2.908 0 0 1 .961 0 17.614 17.614 0 0 1 2.579.426 26.109 26.109 0 0 1 14.368 9.076 17.473 17.473 0 0 1 1.5 2.141c.326.523.472.828.435.852z" class="cls-5" transform="translate(27.878 -51.592)"/>
            <g id="Group_66" class="cls-12" transform="translate(430.953 128.491)">
                <path id="Path_921" d="M410.044 184.88a64.968 64.968 0 0 1-5.864 23.858c2.226.937 4.867 1.837 6.643 3.492.6-.438 0-.864 0-1.594-.438-8.127-.316-17.641-.754-25.756" transform="translate(-404.18 -184.88)"/>
            </g>
            <g id="Group_67" class="cls-12" transform="translate(437.815 155.413)">
                <path id="Path_922" d="M409.82 207.168a63.18 63.18 0 0 1 8.979 0 12.264 12.264 0 0 1 4.149.742 12.018 12.018 0 0 1 2.883 1.886c1.971 1.606 3.954 3.516 4.441 6.01a2.713 2.713 0 0 1-.085 1.618 1.338 1.338 0 0 1-1.277.852 2.068 2.068 0 0 1-1.217-.815c-.8-.864-1.594-1.728-2.433-2.531-3.991-3.747-9.94-7.3-15.4-7.726" transform="translate(-409.82 -207.009)"/>
            </g>
            <path id="Path_923" d="M369.725 210.671c5.828 2.007 6.083.389 6.083.389l8.906-14.028s-3.589-9.538-4.66-11.229-4.745-10.013-4.745-10.013a5.341 5.341 0 0 0-2.324 4.708c0 3.394 2.725 8.395 2.725 8.395l-8.516-2.044-11.315-.134s-1.9 1.314 0 3.382a3.394 3.394 0 0 0 0 3.881l1.4 2.056s-.754.45-.1 1.861a10.6 10.6 0 0 0 3.273 3.017s-2.433 1.423-1.5 2.932 10.773 6.827 10.773 6.827z" class="cls-6" transform="translate(16.127 -58.359)"/>
            <path id="Path_924" d="M366.538 190.039c-.085.17-2.348-1.022-5.39-1.655s-5.6-.474-5.609-.669a11.376 11.376 0 0 1 5.742 0 11.5 11.5 0 0 1 5.256 2.324z" class="cls-7" transform="translate(16.236 -55.855)"/>
            <path id="Path_925" d="M364.389 194.659a28.581 28.581 0 0 1-3.881-1.217 30.65 30.65 0 0 1-3.918-1.144 8.869 8.869 0 0 1 4.1.547 8.626 8.626 0 0 1 3.7 1.813z" class="cls-7" transform="translate(16.464 -54.793)"/>
            <path id="Path_926" d="M363.337 199.89c-.122.134-1.131-.62-2.36-1.509s-2.251-1.63-2.166-1.776 1.217.328 2.531 1.217 2.104 1.946 1.995 2.068z" class="cls-7" transform="translate(16.944 -53.855)"/>
            <path id="Path_927" d="M105.014 443.55l-1.034 26.206s26.291 9.855 26.583 14.709l-50.9-.182v-40.9z" class="cls-8" transform="translate(-43.526 -.392)"/>
            <path id="Path_928" d="M86.984 463.2a2.093 2.093 0 0 0-1.448 2.372 2 2 0 0 0 2.336 1.448 2.19 2.19 0 0 0 1.521-2.506A2.056 2.056 0 0 0 86.8 463.3" class="cls-1" transform="translate(-42.261 3.899)"/>
            <path id="Path_929" d="M79.66 477.734l.158-4.124 48.738 1.691s2.263.985 2.007 2.579z" class="cls-5" transform="translate(-43.526 6.157)"/>
            <path id="Path_930" d="M101.149 464.885c0 .243-1.217.353-2.433 1.156s-1.874 1.837-2.1 1.74.146-1.545 1.642-2.433 2.942-.694 2.891-.463z" class="cls-5" transform="translate(-39.868 4.224)"/>
            <path id="Path_931" d="M105.313 466.7c.061.243-1.022.657-1.874 1.7s-1.095 2.166-1.338 2.153-.4-1.423.681-2.7 2.531-1.398 2.531-1.153z" class="cls-5" transform="translate(-38.703 4.637)"/>
            <path id="Path_932" d="M107.231 472.7c-.219 0-.56-1.217.085-2.555s1.8-1.9 1.91-1.691-.62.937-1.131 2.068-.608 2.157-.864 2.178z" class="cls-5" transform="translate(-37.616 5.031)"/>
            <path id="Path_933" d="M146.207 443.085l-1.034 26.215s26.291 9.842 26.571 14.709l-50.891-.17L120.78 443z" class="cls-8" transform="translate(-34.619 -.474)"/>
            <path id="Path_934" d="M128.164 462.764a2.093 2.093 0 0 0-1.448 2.372 2 2 0 0 0 2.336 1.448 2.2 2.2 0 0 0 1.521-2.518 2.08 2.08 0 0 0-2.6-1.217" class="cls-1" transform="translate(-33.34 3.802)"/>
            <path id="Path_935" d="M120.84 477.3l.16-4.12 48.738 1.7s2.263 1 2 2.591z" class="cls-5" transform="translate(-34.606 6.063)"/>
            <path id="Path_936" d="M142.329 464.446c0 .243-1.217.353-2.433 1.144s-1.874 1.837-2.1 1.74.146-1.533 1.642-2.433 2.94-.682 2.891-.451z" class="cls-5" transform="translate(-30.947 4.127)"/>
            <path id="Path_937" d="M146.493 466.262c.061.231-1.022.657-1.874 1.7s-1.095 2.166-1.338 2.153-.4-1.423.681-2.7 2.531-1.445 2.531-1.153z" class="cls-5" transform="translate(-29.783 4.538)"/>
            <path id="Path_938" d="M148.411 472.263c-.219 0-.56-1.217.085-2.555s1.8-1.9 1.91-1.691-.62.937-1.131 2.056-.608 2.166-.864 2.19z" class="cls-5" transform="translate(-28.695 4.936)"/>
            <path id="Path_939" d="M77.382 281.362s-1.545 27.593-2.093 34.491 3.273 186.423 3.273 186.423h29.467s10.755-103.3 11.29-119.679 6.083-62.583 6.083-62.583V280.06l-46.487 1.557" class="cls-5" transform="translate(-44.485 -35.771)"/>
            <path id="Path_940" d="M111.44 321.584c7.786 1.825 9.076 98.194 9.076 98.194l.195 87.6 30.148.255s4.4-38.384 6.083-76.209c1.083-24.442 2.591-45.4 2.591-45.4s3.005-31.632 3.224-58.045-2.591-63.581-2.591-63.581l-44.8 10.475z" class="cls-5" transform="translate(-36.642 -39.166)"/>
            <path id="Path_941" d="M118.14 290.88a18.043 18.043 0 0 1 .268 3.711c0 2.3 0 5.475-.255 8.979s-.693 6.655-1.095 8.918a18.1 18.1 0 0 1-.827 3.65 26.047 26.047 0 0 1 .389-3.65c.28-2.275.645-5.414.9-8.906s.389-6.643.438-8.93a26.558 26.558 0 0 1 .182-3.772z" class="cls-9" transform="translate(-35.604 -33.427)"/>
            <path id="Path_942" d="M92 289.23a6.935 6.935 0 0 1-1.217 2.433 18.323 18.323 0 0 1-4.453 4.745 18.054 18.054 0 0 1-5.828 2.871 7.153 7.153 0 0 1-2.652.4 26.766 26.766 0 0 0 8.1-3.784A27.094 27.094 0 0 0 92 289.23z" class="cls-9" transform="translate(-43.918 -33.785)"/>
            <path id="Path_943" d="M152.936 304.831a9.61 9.61 0 0 1-3.09-.669 20.877 20.877 0 0 1-11.509-9.66 9.61 9.61 0 0 1-1.217-2.932c.1 0 .56 1.071 1.569 2.7a23.615 23.615 0 0 0 4.867 5.645 24.027 24.027 0 0 0 6.4 3.832c1.824.707 3.004.975 2.98 1.084z" class="cls-9" transform="translate(-31.079 -33.278)"/>
            <path id="Path_944" d="M111.559 290.2a.865.865 0 0 1 .45-.3 2.177 2.177 0 0 1 1.5 0 2.42 2.42 0 1 1-3.175 2.19 2.275 2.275 0 0 1 .487-1.411c.231-.268.426-.328.45-.3a2.859 2.859 0 0 0-.487 1.7 2.068 2.068 0 0 0 .839 1.57 1.971 1.971 0 0 0 2.883-1.983 2.141 2.141 0 0 0-1.217-1.35 3.005 3.005 0 0 0-1.73-.116z" class="cls-9" transform="translate(-36.883 -33.67)"/>
            <path id="Path_945" d="M108.084 382.16a20.326 20.326 0 0 1-2.567 2.8 73.991 73.991 0 0 1-6.935 5.974 76.008 76.008 0 0 1-7.592 5.122 19.62 19.62 0 0 1-3.37 1.728 26.19 26.19 0 0 1 3.139-2.117c1.947-1.217 4.611-3.09 7.446-5.244s5.268-4.258 7.008-5.8a25.32 25.32 0 0 1 2.871-2.458z" class="cls-9" transform="translate(-41.802 -13.654)"/>
            <path id="Path_946" d="M144.981 374.49a19.689 19.689 0 0 1-2.324 2.908c-1.521 1.728-3.65 4.039-6.2 6.472s-4.867 4.538-6.691 5.986a19.007 19.007 0 0 1-2.981 2.226 26.643 26.643 0 0 1 2.689-2.567c1.7-1.533 4.027-3.65 6.545-6.083s4.721-4.684 6.314-6.326a24.223 24.223 0 0 1 2.652-2.616z" class="cls-9" transform="translate(-33.319 -15.315)"/>
            <path id="Path_947" d="M60.62 296.109v13.809l3.017 7.056s15.037 8.249 16.741 8.249 2.348-.134 2.093-1.569-5.5-9.94-5.5-9.94l-.523-8.516s1.314-3.65 2.883-3.273 4.307 5.5 4.708 6.156 3.139 3.65 5.621 3.066l-1.435-5.947-5.755-9.551-6.193-4.866z" class="cls-13" transform="translate(-47.651 -33.449)"/>
            <path id="Path_948" d="M78.114 321.981a9.172 9.172 0 0 1-2.19-1.861 26.338 26.338 0 0 1-4.1-5.584 26.644 26.644 0 0 1-2.531-6.46 9.259 9.259 0 0 1-.414-2.835 49.275 49.275 0 0 0 3.492 8.991 48.909 48.909 0 0 0 5.743 7.749z" class="cls-14" transform="translate(-45.862 -30.317)"/>
            <path id="Path_949" d="M71.228 317.952a5.394 5.394 0 0 1-1.545-1.083 13.2 13.2 0 0 1-2.616-3.784 23.87 23.87 0 0 1-1.521-4.258 5.28 5.28 0 0 1-.316-1.837 5.8 5.8 0 0 1 .742 1.7c.4 1.071.925 2.567 1.667 4.112a16.836 16.836 0 0 0 2.36 3.65c.742.94 1.278 1.39 1.229 1.5z" class="cls-14" transform="translate(-46.652 -29.937)"/>
            <path id="Path_950" d="M71.774 301.03c0 .182-.925.292-1.728 1s-1.058 1.594-1.217 1.569-.134-.28 0-.681a2.786 2.786 0 0 1 2.336-2.02c.329-.087.609.01.609.132z" class="cls-14" transform="translate(-45.896 -31.265)"/>
            <path id="Path_951" d="M65.287 302.01c.073.158-.547.584-.852 1.4s-.182 1.521-.353 1.594-.669-.779-.231-1.837 1.436-1.352 1.436-1.157z" class="cls-14" transform="translate(-46.989 -31.028)"/>
            <path id="Path_952" d="M178.294 286.17v5.073s-4.514 4.112-5.025 5.146-1.29 9.575-1.29 9.575 2.579 6.387 3.151 6.521 2.2.255 1.91-1.934-1.217-5.791-1.217-5.791l2.433-4.246 2.312 4.368v7.665s-4.635 2.9-4.307 4.064a1.886 1.886 0 0 0 2.433 1.545 27.87 27.87 0 0 0 3.857-1.423s1.29 2.944 3.735 1.472l2.433-1.472s1.8 2.433 3.48 1.886a3.492 3.492 0 0 0 2.178-2.239l2.737-9.441a22.143 22.143 0 0 0 .852-7.47l-.742-12.993z" class="cls-13" transform="translate(-23.527 -34.448)"/>
            <path id="Path_953" d="M176.791 299.236a7.981 7.981 0 0 1 2.08-3.261c.718-.669 1.849-1.217 2.628-.608a1.557 1.557 0 0 1 .5 1.533 3.163 3.163 0 0 1-.791 1.472 2.324 2.324 0 0 1 2.251.122 1.545 1.545 0 0 1 .1 1.9 4.441 4.441 0 0 1-1.545 1.338c.511-.377 1.29.158 1.387.779a2.6 2.6 0 0 1-.621 1.776 5.45 5.45 0 0 1-1.922 1.91 2.226 2.226 0 0 1-2.555-.3 1.411 1.411 0 0 1 .5-2.239 1.569 1.569 0 0 1-1.983-.5 2.9 2.9 0 0 1-.815-2.093 5.937 5.937 0 0 1 .779-1.776" class="cls-6" transform="translate(-22.657 -32.512)"/>
            <path id="Path_954" d="M186.635 301.65a41.828 41.828 0 0 1-.985 7.2 5.1 5.1 0 0 1-1 2.786 4.49 4.49 0 0 1-2.2 1 6.765 6.765 0 0 0-1.45.464c-.316.158-.475.28-.511.243s.073-.207.377-.45a5.036 5.036 0 0 1 1.448-.681 4.465 4.465 0 0 0 1.91-.973 5 5 0 0 0 .8-2.433 42.582 42.582 0 0 1 1.611-7.156z" class="cls-14" transform="translate(-21.685 -31.094)"/>
            <path id="Path_955" d="M189.745 304.15a9.149 9.149 0 0 1-.864 5.195 6.631 6.631 0 0 1-2.166 3.127c-.876.572-1.569.426-1.545.353a5.119 5.119 0 0 0 1.29-.706 7.969 7.969 0 0 0 1.837-3.005c1.095-2.628 1.265-4.988 1.448-4.964z" class="cls-14" transform="translate(-20.67 -30.553)"/>
            <path id="Path_956" d="M86.192 154s-13.541 6.083-19.162 24.661-20.183 89.057-16.4 111.759c0 0 8.711 34.9 10.1 36.109l19.661-6.91L91.12 192.044z" class="cls-8" transform="translate(-49.949 -63.079)"/>
            <path id="Path_957" d="M151.653 152.847L118.8 144.89s-35.647 7.993-38.093 11.071-3.82 121.066-4.867 127.32c-1.326 7.835 0 33.469 0 33.469l94.787 3.954 4.635-15.451-4.63-141.653z" class="cls-8" transform="translate(-44.48 -65.052)"/>
            <path id="Path_958" d="M175.032 313.419s-25.208-67.6-24.187-76.952 2.239-52.887 2.239-52.887l1.216-23.31a22.994 22.994 0 0 1 14.344 17.641c2.263 13.614 11.728 55.612 11.728 55.612s22.994 71.525 21.486 80.224z" class="cls-8" transform="translate(-28.112 -61.721)"/>
            <path id="Path_959" d="M89.422 171.49a2.359 2.359 0 0 1 .1.353 7.378 7.378 0 0 0 .219 1.046l.341 1.7.292 2.36a60.017 60.017 0 0 1-.426 15.1 177.176 177.176 0 0 1-5.012 21.9 196.239 196.239 0 0 0-5.779 26.766c-1.363 9.624-2.068 18.87-2.433 27.289s-.523 16.011-.62 22.386-.146 11.5-.195 15.111c0 1.752-.073 3.127-.085 4.1v1.071a1.412 1.412 0 0 1 0 .365v-20.695c0-6.375.122-13.979.487-22.41s1.046-17.7 2.433-27.35a190.267 190.267 0 0 1 5.84-26.827A184.589 184.589 0 0 0 89.7 191.99a61.878 61.878 0 0 0 .426-15.013c-.085-.876-.17-1.667-.231-2.348s-.207-1.217-.28-1.715-.122-.779-.158-1.058a1.387 1.387 0 0 1-.035-.366z" class="cls-5" transform="translate(-44.358 -59.29)"/>
            <path id="Path_960" d="M155.746 177.89a5.486 5.486 0 0 1 0 .937c0 .681-.1 1.582-.17 2.7-.17 2.336-.377 5.718-.572 9.9-.414 8.358-.608 19.94-.146 32.715s1.338 24.333 1.934 32.679c.292 4.124.523 7.494.693 9.891.073 1.131.122 2.02.17 2.7a5.486 5.486 0 0 1 0 .937 4.771 4.771 0 0 1-.146-.925c-.073-.681-.158-1.569-.28-2.689-.219-2.433-.523-5.767-.9-9.879-.706-8.358-1.642-19.9-2.117-32.7s-.195-24.333.328-32.752c.255-4.185.523-7.567.779-9.9.109-1.119.207-2.007.28-2.677a4.867 4.867 0 0 1 .147-.937z" class="cls-5" transform="translate(-27.429 -57.904)"/>
            <path id="Path_961" d="M146.2 244.53a2.311 2.311 0 0 1-.328.487c-.28.365-.62.791-1.022 1.326-.888 1.144-2.263 2.75-4.027 4.66s-3.966 4.112-6.521 6.424a101.406 101.406 0 0 1-18.161 13.073c-3.005 1.691-5.779 3.09-8.151 4.149s-4.331 1.861-5.706 2.336l-1.582.56a1.667 1.667 0 0 1-.572.146 3.563 3.563 0 0 1 .523-.268l1.545-.669c1.338-.548 3.261-1.4 5.6-2.518s5.085-2.531 8.066-4.234 6.083-3.759 9.356-6.083 6.083-4.7 8.7-6.947 4.794-4.429 6.582-6.3 3.212-3.419 4.161-4.514l1.119-1.217a2.336 2.336 0 0 1 .426-.414z" class="cls-5" transform="translate(-39.092 -43.468)"/>
            <path id="Path_962" d="M144.394 207.42a2.2 2.2 0 0 1-.134.62c-.134.475-.292 1.058-.5 1.764-.438 1.521-1.217 3.65-2.129 6.363a97.322 97.322 0 0 1-3.845 9.186 113.131 113.131 0 0 1-5.669 10.755c-2.19 3.65-4.514 7.154-6.7 10.2s-4.331 5.669-6.193 7.811-3.407 3.832-4.526 4.952l-1.3 1.217a3.272 3.272 0 0 1-.474.426 3.387 3.387 0 0 1 .389-.511l1.217-1.363c1.071-1.217 2.567-2.9 4.368-5.073s3.869-4.867 6.083-7.859 4.429-6.46 6.631-10.171 4.076-7.361 5.694-10.718 2.92-6.472 3.942-9.113 1.813-4.781 2.324-6.278c.243-.681.45-1.217.608-1.715a2.092 2.092 0 0 1 .214-.493z" class="cls-5" transform="translate(-36.321 -51.507)"/>
            <g id="Group_68" class="cls-12" transform="translate(31.354 137.408)">
                <path id="Path_963" d="M90.11 192.21c-12.361 34.467-15.658 71.525-13.967 108.1 4.587-4.441 6.083-11.217 6.083-17.592s-1.436-12.677-1.7-19.052c-1.026-24.19 14.134-47.683 9.584-71.456z" transform="translate(-75.731 -192.21)"/>
            </g>
            <g id="Group_69" class="cls-12" transform="translate(81.745 161.657)">
                <path id="Path_964" d="M141.568 212.189c.389-1.119-2.713 17.714-7 24.795A51.341 51.341 0 0 1 117.15 254.3s16.193-18.594 24.418-42.111z" transform="translate(-117.15 -212.141)"/>
            </g>
            <g id="Group_70" class="cls-12" transform="translate(126.833 127.225)">
                <path id="Path_965" d="M154.21 184.862s.219 70.783 2.993 74.628c0 0 .766-18.079 1.217-27.131.839-16.23-1.509-32.447-3.869-48.519" transform="translate(-154.21 -183.84)"/>
            </g>
            <path id="Path_966" d="M91.143 188.111a4.794 4.794 0 0 1-1.217 0 28.908 28.908 0 0 1-3.224-.341 75.758 75.758 0 0 1-10.439-2.17 77.245 77.245 0 0 1-10.063-3.585c-1.217-.547-2.239-1.034-2.92-1.387a4.866 4.866 0 0 1-1.022-.608 38.385 38.385 0 0 1 4.124 1.582 102.415 102.415 0 0 0 20.369 5.698 42.666 42.666 0 0 1 4.392.811z" class="cls-11" transform="translate(-47.296 -57.442)"/>
            <path id="Path_967" d="M167.925 182.464c0 .17-17.921-.109-40.015-.62s-40-1.071-39.99-1.217 17.909.109 40.015.62 39.99 1.059 39.99 1.217z" class="cls-11" transform="translate(-41.737 -57.32)"/>
            <path id="Path_968" d="M171.926 189.65a63.072 63.072 0 0 1-8.31 3.224 60.539 60.539 0 0 1-8.516 2.616 63.269 63.269 0 0 1 8.31-3.212 63.776 63.776 0 0 1 8.516-2.628z" class="cls-11" transform="translate(-27.184 -55.356)"/>
            <path id="Path_969" d="M83.788 223.112a3.979 3.979 0 0 1-1.217.073 32.846 32.846 0 0 1-3.309-.134 51.609 51.609 0 0 1-20.829-6.436 31.81 31.81 0 0 1-2.81-1.752 5.6 5.6 0 0 1-.973-.742c.061-.1 1.533.827 4 2.1a63.569 63.569 0 0 0 10.04 4.129 62.222 62.222 0 0 0 10.61 2.25c2.761.342 4.5.4 4.488.512z" class="cls-11" transform="translate(-48.944 -50.057)"/>
            <path id="Path_970" d="M145.234 220.357a2.75 2.75 0 0 1-.645.1l-1.861.158c-1.618.134-3.966.231-6.862.292a151.592 151.592 0 0 1-44.784-6.083c-2.774-.827-5.013-1.557-6.533-2.117l-1.813-.657a2.592 2.592 0 0 1-.6-.268 2.1 2.1 0 0 1 .645.146l1.776.535c1.545.487 3.8 1.156 6.582 1.922a176.108 176.108 0 0 0 22.13 4.538 174.938 174.938 0 0 0 22.52 1.545c2.9 0 5.244 0 6.862-.1h1.861a2.324 2.324 0 0 1 .718-.012z" class="cls-11" transform="translate(-42.989 -50.562)"/>
            <path id="Path_971" d="M156.328 212.23a11.838 11.838 0 0 1-2.8.815 71.367 71.367 0 0 1-13.882 1.679 12.067 12.067 0 0 1-2.908-.122 14.6 14.6 0 0 1 2.883-.328c1.776-.134 4.234-.353 6.935-.681s5.134-.706 6.886-.985a15.076 15.076 0 0 1 2.886-.378z" class="cls-11" transform="translate(-31.161 -50.465)"/>
            <path id="Path_972" d="M177.8 219.25a14.684 14.684 0 0 1-2.969 1.411c-1.874.766-4.5 1.74-7.458 2.664s-5.682 1.618-7.665 2.044a14.525 14.525 0 0 1-3.236.535 19.471 19.471 0 0 1 3.127-.973c1.959-.535 4.635-1.29 7.58-2.214s5.584-1.813 7.494-2.433a20.023 20.023 0 0 1 3.127-1.034z" class="cls-11" transform="translate(-26.887 -48.944)"/>
            <path id="Path_973" d="M81.7 258.355a4.948 4.948 0 0 1-1.338 0 32.473 32.473 0 0 1-3.65-.316 58.484 58.484 0 0 1-22.654-7.823c-1.326-.791-2.36-1.484-3.054-2a5.318 5.318 0 0 1-1.046-.839c.061-.085 1.642.961 4.319 2.433a69.805 69.805 0 0 0 10.95 4.867 70.948 70.948 0 0 0 11.546 2.932c3.043.491 4.941.636 4.927.746z" class="cls-11" transform="translate(-49.96 -42.851)"/>
            <path id="Path_974" d="M138.059 256.79a2.615 2.615 0 0 1-.633 0H129c-5.609-.134-13.383-.584-21.826-1.606s-16.12-2.433-21.583-3.65c-2.737-.608-4.939-1.131-6.46-1.533l-1.74-.474a4.23 4.23 0 0 1-.6-.207 2.056 2.056 0 0 1 .633.073l1.764.365c1.533.328 3.747.791 6.485 1.338 5.487 1.095 13.1 2.433 21.571 3.455s16.181 1.545 21.765 1.8c2.786.122 5.049.207 6.618.243l1.8.073a2.2 2.2 0 0 1 .632.123z" class="cls-11" transform="translate(-44.148 -42.431)"/>
            <path id="Path_975" d="M160.94 251a3.918 3.918 0 0 1-1.119.353c-.73.195-1.8.426-3.127.681a77.644 77.644 0 0 1-10.451 1.217 76.485 76.485 0 0 1-10.536-.219c-1.338-.122-2.433-.256-3.163-.377a4.756 4.756 0 0 1-1.144-.243 41.683 41.683 0 0 1 4.343.182 102.446 102.446 0 0 0 10.463 0c4.076-.219 7.762-.62 10.414-1.01a40.768 40.768 0 0 1 4.32-.584z" class="cls-11" transform="translate(-32.318 -42.066)"/>
            <path id="Path_976" d="M190.742 257.16a4.578 4.578 0 0 1-.937.657c-.62.389-1.545.912-2.7 1.521a66.656 66.656 0 0 1-9.417 3.991 65.387 65.387 0 0 1-9.928 2.433c-1.29.219-2.336.353-3.066.414a4.306 4.306 0 0 1-1.144 0 40.049 40.049 0 0 1 4.124-.9 85.747 85.747 0 0 0 19.235-6.448 40.914 40.914 0 0 1 3.832-1.667z" class="cls-11" transform="translate(-25.354 -40.732)"/>
            <path id="Path_977" d="M79.54 280.48a18.25 18.25 0 0 1-3.346 1.533 57.291 57.291 0 0 1-8.516 2.494 55.47 55.47 0 0 1-8.808 1.131 17.2 17.2 0 0 1-3.65-.061 30.107 30.107 0 0 1 3.65-.389 78.128 78.128 0 0 0 8.711-1.3 79.891 79.891 0 0 0 8.516-2.3 27.759 27.759 0 0 1 3.443-1.107z" class="cls-11" transform="translate(-48.821 -35.68)"/>
            <path id="Path_978" d="M172.49 280.894a8.338 8.338 0 0 1-.961.17l-2.786.377c-2.433.316-5.925.706-10.268 1.107-8.687.8-20.683 1.509-34.065 1.472s-25.367-.864-34.066-1.74c-4.343-.426-7.847-.839-10.256-1.217l-2.786-.4a5.268 5.268 0 0 1-.961-.182 7.451 7.451 0 0 1 .985.061l2.786.28c2.433.268 5.937.608 10.28.985 8.675.754 20.683 1.484 33.993 1.533s25.318-.584 34-1.277c4.343-.341 7.859-.657 10.28-.9l2.8-.268a4.864 4.864 0 0 1 1.025-.001z" class="cls-11" transform="translate(-44.245 -35.68)"/>
            <path id="Path_979" d="M168.027 159.927c0 .182-18.76-.073-41.888-.56s-41.9-1.034-41.888-1.217 18.76.073 41.9.572 41.888 1.034 41.876 1.205z" class="cls-11" transform="translate(-42.532 -62.193)"/>
            <path id="Path_980" d="M177.009 287.484a7.993 7.993 0 0 1-1.7-3.565 8.187 8.187 0 0 1-.4-3.93 29.1 29.1 0 0 1 1.01 3.759 28.974 28.974 0 0 1 1.09 3.736z" class="cls-5" transform="translate(-22.912 -35.786)"/>
            <path id="Path_981" d="M184.494 287.552a26.437 26.437 0 0 1-2.774-7.762 13.992 13.992 0 0 1 1.679 3.772 14.247 14.247 0 0 1 1.095 3.991z" class="cls-5" transform="translate(-21.418 -35.83)"/>
            <path id="Path_982" d="M64.6 296.581a21.217 21.217 0 0 1-1.837-4.867 22 22 0 0 1-1.217-5.025 20.89 20.89 0 0 1 1.849 4.866 21.56 21.56 0 0 1 1.2 5.025z" class="cls-5" transform="translate(-47.449 -34.335)"/>
            <path id="Path_983" d="M70.637 293.921a18.152 18.152 0 0 1-1.8-4.392 18.822 18.822 0 0 1-1.217-4.6 17.593 17.593 0 0 1 1.8 4.392 17.336 17.336 0 0 1 1.217 4.6z" class="cls-5" transform="translate(-46.134 -34.716)"/>
            <path id="Path_984" d="M109.817 168.673a8.516 8.516 0 0 1-.754-4.064l3.65-52.753c0-14.733 8.516-27.046 23.189-26.766l1.35.109a26.34 26.34 0 0 1 24.187 26.291c0 12.762-.195 26.863-.839 33.664-1.326 14.076-15.6 15.11-15.6 15.11l-.681 5.475s.742 9.587-10.439 12.4c-8.6 2.166-17.714-3.54-21.461-6.3a8.322 8.322 0 0 1-2.6-3.163z" class="cls-13" transform="translate(-37.16 -78.007)"/>
            <path id="Path_985" d="M141.918 148.15a34.3 34.3 0 0 1-18.018-6.91s3.5 10.487 17.665 10.378z" class="cls-14" transform="translate(-33.943 -65.843)"/>
            <path id="Path_986" d="M149.317 117.353a2.007 2.007 0 0 1-2.1 1.874 1.922 1.922 0 0 1-1.922-1.983 2.02 2.02 0 0 1 2.1-1.874 1.934 1.934 0 0 1 1.922 1.983z" class="cls-5" transform="translate(-29.309 -71.447)"/>
            <path id="Path_987" d="M150.59 112.744c-.268.243-1.7-1.01-3.869-1.217s-3.845.779-4.051.5.182-.584.925-1.034a5.462 5.462 0 0 1 3.273-.718 5.341 5.341 0 0 1 3.042 1.217c.631.656.814 1.143.68 1.252z" class="cls-5" transform="translate(-29.889 -72.556)"/>
            <path id="Path_988" d="M132.435 116.414a2.032 2.032 0 0 1-2.093 1.874 1.934 1.934 0 0 1-1.922-1.983 2.007 2.007 0 0 1 2.1-1.874 1.922 1.922 0 0 1 1.91 1.983z" class="cls-5" transform="translate(-32.964 -71.651)"/>
            <path id="Path_989" d="M133.071 111.642c-.268.243-1.7-1.01-3.869-1.217s-3.832.791-4.051.5.182-.572.925-1.022a5.463 5.463 0 0 1 3.273-.718 5.341 5.341 0 0 1 3.051 1.215c.622.634.8 1.133.671 1.242z" class="cls-5" transform="translate(-33.685 -72.792)"/>
            <path id="Path_990" d="M137 128.146a14.514 14.514 0 0 1 3.565-.341c.56 0 1.095-.085 1.217-.45a2.92 2.92 0 0 0-.231-1.667l-1.29-4.343c-1.788-6.18-3.017-11.242-2.774-11.315s1.9 4.867 3.65 11.059l1.217 4.368a3.188 3.188 0 0 1 .109 2.19 1.411 1.411 0 0 1-.973.742 4.416 4.416 0 0 1-.949 0 14.063 14.063 0 0 1-3.541-.243z" class="cls-5" transform="translate(-31.105 -72.604)"/>
            <path id="Path_991" d="M131.769 125.72c.353 0 .17 2.36 2.044 4.2s4.392 1.776 4.38 2.1-.6.414-1.655.353a5.888 5.888 0 0 1-3.65-1.618 5.134 5.134 0 0 1-1.557-3.5c-.037-1 .279-1.555.438-1.535z" class="cls-5" transform="translate(-32.334 -69.205)"/>
            <path id="Path_992" d="M134.452 104.627c-.256.572-2.433.109-4.964.219s-4.672.62-4.964 0c-.134-.268.268-.791 1.144-1.29a8.614 8.614 0 0 1 7.567-.219c.901.523 1.339.973 1.217 1.29z" class="cls-5" transform="translate(-33.813 -74.221)"/>
            <path id="Path_993" d="M150.246 107.57c-.426.45-1.874-.182-3.65-.353s-3.346 0-3.65-.474c-.134-.268.146-.742.852-1.217a5.329 5.329 0 0 1 5.888.669c.633.62.742 1.143.56 1.375z" class="cls-5" transform="translate(-29.824 -73.708)"/>
            <path id="Path_994" d="M114.745 119.227a3.832 3.832 0 0 0-3.82-4.027c-2.652 0-5.694 1.29-5.961 6.728-.487 9.66 9.307 8.151 9.332 7.884s.291-6.546.449-10.585z" class="cls-13" transform="translate(-38.049 -71.484)"/>
            <path id="Path_995" d="M111.79 125.506a4.013 4.013 0 0 1-.474.231 1.716 1.716 0 0 1-1.217 0c-1-.426-1.776-2.093-1.74-3.832a5.572 5.572 0 0 1 .6-2.433 1.91 1.91 0 0 1 1.326-1.217.864.864 0 0 1 .973.511c.109.28 0 .462.085.487s.219-.158.158-.56a1 1 0 0 0-.341-.62 1.3 1.3 0 0 0-.925-.292 2.36 2.36 0 0 0-1.825 1.411 5.523 5.523 0 0 0-.718 2.664c0 1.947.864 3.82 2.239 4.283a1.813 1.813 0 0 0 1.557-.17c.229-.232.326-.438.302-.463z" class="cls-14" transform="translate(-37.454 -70.926)"/>
            <path id="Path_996" d="M162.753 112.411c.073 1.947 2.823-4.55 1.874-6.278a5.085 5.085 0 1 0 1.788-9.94 4.562 4.562 0 0 0-.633-5.56 6.777 6.777 0 0 0-2.81-1.217 6.849 6.849 0 0 0-.681-3.467 8.516 8.516 0 0 0-13.176-3.005 8.516 8.516 0 0 0-14.016 0 8.078 8.078 0 0 0-11.923 3.565 6.29 6.29 0 0 0-7.543.864 23.8 23.8 0 0 1-2.251 2.555 21.083 21.083 0 0 1-3.577 1.606 6.85 6.85 0 0 0-1.947 10.183 15.816 15.816 0 0 0-3.735 3.528 5.45 5.45 0 0 0-.852 4.866c.742 1.922 2.871 3.066 3.65 5 .328.9.328 1.886.645 2.786a5.511 5.511 0 0 0 3.273 3.151c.766 3.93 3.431 5.085 3.467 6.229.341 12.045 5.56 5.268 9-19.965.815-5.925-1.217-9.04 3.65-12.519a26.482 26.482 0 0 1 1.63 2.433 8.03 8.03 0 0 0 11.838.876 6.862 6.862 0 0 0 10.95 1.533c1.679 1.606 5.621 4.38 8.784 1.7a25.939 25.939 0 0 1 2.595 11.076z" class="cls-5" transform="translate(-38.463 -79.268)"/>
            <path id="Path_997" d="M149.015 152.251c-1.679-2.433-5.888-1.971-9.2-1.618-9.088.949-19.065-.973-26.072-5.888a19.4 19.4 0 0 0-2.652-1.752c-2.956-1.411-4.295.341-4.587 1.959s-.681 3.261-1.217 5.888c-1.569 5.231 2.518 9.733 8.784 13.14s14.125 4.051 21.619 3.93c3.1 0 6.387-.28 8.881-1.813 3.54-2.166 4.356-6.217 4.867-9.842a5.353 5.353 0 0 0-.426-4z" class="cls-8" transform="translate(-38.047 -65.575)"/>
            <path id="Path_998" d="M149.359 154.934a2.3 2.3 0 0 1 .1.608 7.031 7.031 0 0 1-.17 1.776 9.076 9.076 0 0 1-3.747 5.292 12.166 12.166 0 0 1-4.2 1.752 28.46 28.46 0 0 1-5.158.584 76.718 76.718 0 0 1-11.826-.255 24.089 24.089 0 0 1-11.144-3.93 18.347 18.347 0 0 1-6.083-7.494 13.772 13.772 0 0 1-1.217-6.4c0-.365.073-.706.1-1.022a4.163 4.163 0 0 1 .158-.73 2.214 2.214 0 0 1 .17-.6 2.434 2.434 0 0 1 0 .62l-.1.73v1.01a14.258 14.258 0 0 0 1.363 6.2 18.359 18.359 0 0 0 6.083 7.2 24.1 24.1 0 0 0 10.95 3.784 83.872 83.872 0 0 0 11.728.292c3.589-.061 6.874-.608 9.113-2.129a8.991 8.991 0 0 0 3.759-4.976 12.313 12.313 0 0 0 .122-2.324z" class="cls-5" transform="translate(-37.843 -65.132)"/>
            <g id="Group_71" class="cls-12" transform="translate(68.171 81.152)">
                <path id="Path_999" d="M127.828 163.842c-3.65-.268-9.088-.839-12.434-2.433-6-2.774-8.638-8.845-9.271-15.439v1.35a16.23 16.23 0 0 0 4.477 13.38 22.642 22.642 0 0 0 12.787 6.46 37.715 37.715 0 0 0 14.478-.73c3.017-.681 6.266-1.825 7.786-4.514a43.2 43.2 0 0 1-17.824 1.922z" transform="translate(-105.993 -145.97)"/>
            </g>
            <path id="Path_1000" d="M112.275 159.854a7.008 7.008 0 0 1-.426-2.141 16.8 16.8 0 0 1 .1-5.317 8.991 8.991 0 0 1 2.433-4.733 3.65 3.65 0 0 1 1.9-1.144 21.267 21.267 0 0 0-1.569 1.448 9.818 9.818 0 0 0-2.166 4.55 21.9 21.9 0 0 0-.268 5.159 7.786 7.786 0 0 1 0 2.178z" class="cls-5" transform="translate(-36.589 -64.699)"/>
            <path id="Path_1001" d="M126.07 164.163a53.529 53.529 0 0 0 1.3-7.3 51.791 51.791 0 0 0-.365-7.434 19.344 19.344 0 0 1-.937 14.758z" class="cls-5" transform="translate(-33.473 -64.069)"/>
            <path id="Path_1002" d="M138.065 149.12a1.246 1.246 0 0 1 .62.243 3.382 3.382 0 0 1 1.058 1.46 10.037 10.037 0 0 1 .353 5.767 10.645 10.645 0 0 1-2.75 5.1 4.866 4.866 0 0 1-1.947 1.4c-.061-.085.693-.608 1.618-1.7a11.667 11.667 0 0 0 2.433-4.866 10.95 10.95 0 0 0-.158-5.475 3.917 3.917 0 0 0-1.229-1.922z" class="cls-5" transform="translate(-31.452 -64.136)"/>
        </g>
        <g id="freepik--Floor--inject-385" transform="translate(51.773 574.266)">
            <path id="Path_1003" d="M543.358 477.206c0 .182-111.5.316-249.007.316s-249.031-.134-249.031-.316 111.479-.316 249.031-.316 249.007.134 249.007.316z" class="cls-5" transform="translate(-45.32 -476.89)"/>
        </g>
    </g>
</svg>
