<svg xmlns="http://www.w3.org/2000/svg" width="807.093" height="530.984" viewBox="0 0 807.093 530.984">
    <defs>
        <style>
            .cls-1{fill:#ebebeb}.cls-2{fill:#f5f5f5}.cls-4{fill:#455a64}.cls-5{fill:#263238}
        </style>
    </defs>
    <g id="Astronaut-pana_3_" transform="translate(-79.659 -44.982)">
        <g id="freepik--background-complete--inject-70" transform="translate(79.659 44.983)">
            <path id="Path_1004" d="M187.228 130.1l.783 1.4a9.454 9.454 0 0 0 3.776 3.748l1.4.783-1.4.769a9.454 9.454 0 0 0-3.776 3.748l-.783 1.4-.783-1.4a9.454 9.454 0 0 0-3.776-3.748l-1.4-.769 1.4-.783a9.454 9.454 0 0 0 3.776-3.748z" class="cls-1" transform="translate(-39.162 -11.059)"/>
            <path id="Path_1005" d="M603.038 258.62l.783 1.4a9.454 9.454 0 0 0 3.776 3.748l1.4.769-1.4.769a9.453 9.453 0 0 0-3.776 3.748l-.783 1.4-.783-1.4a9.454 9.454 0 0 0-3.776-3.748l-1.4-.769 1.4-.769a9.454 9.454 0 0 0 3.776-3.748z" class="cls-1" transform="translate(126.559 40.163)"/>
            <path id="Path_1006" d="M545.2 389.42l1.4 2.433a16.125 16.125 0 0 0 6.475 6.475l2.433 1.4-2.433 1.329a16.209 16.209 0 0 0-6.475 6.475l-1.4 2.433-1.329-2.433a16.209 16.209 0 0 0-6.475-6.475l-2.434-1.329 2.433-1.4a16.125 16.125 0 0 0 6.475-6.475z" class="cls-1" transform="translate(101.801 92.293)"/>
            <path id="Path_1007" d="M280.788 416.18l.783 1.4a9.58 9.58 0 0 0 3.79 3.748l1.4.769-1.4.769a9.524 9.524 0 0 0-3.79 3.762l-.783 1.4-.769-1.4a9.524 9.524 0 0 0-3.79-3.762l-1.4-.769 1.4-.769a9.58 9.58 0 0 0 3.79-3.748z" class="cls-1" transform="translate(-1.873 102.958)"/>
            <circle id="Ellipse_13" cx="59.634" cy="59.634" r="59.634" class="cls-1" transform="translate(38.182 195.206)"/>
            <circle id="Ellipse_14" cx="9.734" cy="9.734" r="9.734" class="cls-2" transform="translate(70.601 263.721)"/>
            <path id="Path_1008" d="M137.378 222.054a5.594 5.594 0 1 1-1.613-4 5.594 5.594 0 0 1 1.613 4z" class="cls-2" transform="translate(-61.114 23.332)"/>
            <path id="Path_1009" d="M119.617 264.259c.266 1.035-51.047 50.264-37.761 60.753s68.865-16.419 116.289-54.725 90.766-84.836 78.906-97.143-71.13 24.139-71.13 24.139L213 201.8s35.845-22.992 47.173-14.069-20.978 43.789-66.585 77.074-89.675 56.669-96.5 47.551 25.44-39.551 25.44-39.551z" class="cls-2" transform="translate(-79.659 5.084)"/>
            <path id="Path_1010" fill="#fafafa" d="M608.323 53.286c-7.608-4.419-17.44-.5-24.265 5.035s-12.587 12.769-20.7 16.167c-5.175 2.168-11.091 2.671-15.664 5.9-7.454 5.259-8.769 15.846-7.482 24.88s4.461 18 3.357 27.062c-.825 6.629-3.93 13.286-2.252 19.762 2.364 9.063 12.8 13.384 17.874 21.272 3.65 5.594 4.643 13.272 10.084 17.244 6.307 4.6 15.076 1.916 22.866 2.615 9.58.867 17.776 6.993 26.88 10.1a44.082 44.082 0 0 0 42.964-8.965c5.776-5.259 10.042-12 15.72-17.356 4.867-4.6 10.769-8.182 14.755-13.552s5.594-11.65 7.23-17.915c2.419-9.147 4.839-18.671 3.077-27.971-2.8-14.839-15.468-25.649-22.055-39.243-2.573-5.342-4.461-11.356-9.16-14.811-5.049-3.664-11.888-3.357-17.8-5.356-8.489-2.8-14.895-10.433-23.566-12.587a21.23 21.23 0 0 0-21.845 7.8" transform="translate(103.722 -44.983)"/>
            <circle id="Ellipse_15" cx="64.627" cy="64.627" r="64.627" class="cls-1" transform="rotate(-14.66 453.696 -2493.418)"/>
            <path id="Path_1011" d="M589.431 114.538a10.531 10.531 0 1 1 2.172-7.769 10.545 10.545 0 0 1-2.172 7.769z" class="cls-2" transform="translate(115.999 -24.056)"/>
            <path id="Path_1012" d="M592.2 88.825a6.14 6.14 0 1 1-1.049-8.6 6.14 6.14 0 0 1 1.049 8.6z" class="cls-2" transform="translate(120.237 -31.46)"/>
            <circle id="Ellipse_16" cx="43.817" cy="43.817" r="43.817" class="cls-2" transform="rotate(-45 802.335 -619.695)"/>
            <path id="Path_1013" d="M609.611 313.168a7.147 7.147 0 1 1 1.979 5.108 7.147 7.147 0 0 1-1.979-5.108z" class="cls-1" transform="translate(131.552 59.122)"/>
            <path id="Path_1014" d="M616.51 327.3a4.2 4.2 0 1 1 4.056 4.2 4.2 4.2 0 0 1-4.056-4.2z" class="cls-1" transform="translate(134.303 65.862)"/>
            <path id="Path_1015" d="M532.627 231.16l1.329 2.433a16.293 16.293 0 0 0 6.475 6.475l2.433 1.329-2.433 1.4a16.293 16.293 0 0 0-6.475 6.475l-1.329 2.434-1.4-2.433a16.293 16.293 0 0 0-6.475-6.475l-2.433-1.4 2.433-1.329a16.293 16.293 0 0 0 6.475-6.475z" class="cls-1" transform="translate(96.764 29.218)"/>
        </g>
        <g id="freepik--Planet--inject-70" transform="translate(584.263 108.22)">
            <circle id="Ellipse_17" cx="35.285" cy="35.285" r="35.285" class="cls-4" transform="rotate(-1.34 70.59 .825)"/>
            <path id="Path_1016" d="M474.5 107.958a5.748 5.748 0 1 1 5.594 5.888 5.748 5.748 0 0 1-5.594-5.888z" class="cls-5" transform="translate(-426.9 -85.356)"/>
            <path id="Path_1017" d="M482.72 116.936a3.342 3.342 0 1 1 .924 2.393 3.357 3.357 0 0 1-.924-2.393z" class="cls-5" transform="translate(-423.624 -80.852)"/>
            <path id="Path_1018" d="M479.827 123.31a1.245 1.245 0 1 1-1.113 1.238 1.245 1.245 0 0 1 1.113-1.238z" class="cls-5" transform="translate(-425.22 -77.003)"/>
        </g>
        <g id="freepik--Stars--inject-70" transform="translate(155.084 91.019)">
            <path id="Path_1019" d="M575.866 169.28l.769 1.4a9.468 9.468 0 0 0 3.748 3.748l1.4.769-1.4.783a9.468 9.468 0 0 0-3.748 3.748l-.769 1.4-.769-1.4a9.468 9.468 0 0 0-3.748-3.748l-1.4-.783 1.4-.769a9.468 9.468 0 0 0 3.748-3.748z" class="cls-4" transform="translate(40.321 -41.481)"/>
            <path id="Path_1020" d="M139.506 318.87l.783 1.4a9.385 9.385 0 0 0 3.748 3.748l1.4.769-1.4.783a9.384 9.384 0 0 0-3.748 3.748l-.783 1.4-.769-1.4a9.469 9.469 0 0 0-3.748-3.748l-1.4-.783 1.4-.769a9.469 9.469 0 0 0 3.748-3.748z" class="cls-4" transform="translate(-133.59 18.138)"/>
            <path id="Path_1021" d="M258.3 316.51l.392.7a4.741 4.741 0 0 0 1.874 1.874l.713.392-.713.378a4.769 4.769 0 0 0-1.874 1.888l-.392.7-.378-.7a4.769 4.769 0 0 0-1.874-1.888l-.713-.378.713-.392a4.741 4.741 0 0 0 1.874-1.874z" class="cls-4" transform="translate(-85.067 17.198)"/>
            <path id="Path_1022" d="M533.6 314.63l.392.713a4.74 4.74 0 0 0 1.874 1.874l.7.378-.7.392a4.644 4.644 0 0 0-1.866 1.874l-.392.7-.378-.7a4.74 4.74 0 0 0-1.874-1.874l-.713-.392.713-.378a4.825 4.825 0 0 0 1.874-1.874z" class="cls-4" transform="translate(24.654 16.449)"/>
            <path id="Path_1023" d="M405.5 164.11l.378.7a4.741 4.741 0 0 0 1.874 1.874l.713.392-.713.378a4.825 4.825 0 0 0-1.874 1.874l-.378.713-.392-.713a4.824 4.824 0 0 0-1.9-1.874l-.713-.378.713-.322a4.741 4.741 0 0 0 1.874-1.874z" class="cls-4" transform="translate(-26.42 -43.541)"/>
            <path id="Path_1024" d="M256.695 144.93l.378.7a4.769 4.769 0 0 0 1.874 1.888l.713.378-.713.392a4.741 4.741 0 0 0-1.874 1.874l-.378.7-.392-.7a4.644 4.644 0 0 0-1.874-1.874l-.7-.392.7-.378a4.685 4.685 0 0 0 1.874-1.888z" class="cls-4" transform="translate(-85.708 -51.185)"/>
            <path id="Path_1025" d="M360.441 77.9l1.4 2.433a16.293 16.293 0 0 0 6.475 6.475l2.434 1.4-2.433 1.4a16.293 16.293 0 0 0-6.475 6.475l-1.4 2.433-1.4-2.433a16.293 16.293 0 0 0-6.349-6.615l-2.433-1.4 2.433-1.4a16.294 16.294 0 0 0 6.475-6.475z" class="cls-4" transform="translate(-47.236 -77.9)"/>
            <path id="Path_1026" d="M257.207 389.42l1.329 2.433a16.209 16.209 0 0 0 6.475 6.475l2.433 1.4-2.433 1.329a16.293 16.293 0 0 0-6.475 6.475l-1.329 2.433-1.4-2.433a16.293 16.293 0 0 0-6.475-6.475l-2.433-1.329 2.433-1.4a16.209 16.209 0 0 0 6.475-6.475z" class="cls-4" transform="translate(-88.43 46.256)"/>
        </g>
    </g>
</svg>
